<svg width="106" height="32" viewBox="0 0 106 32" fill="none" xmlns="http://www.w3.org/2000/svg">
<path d="M9.41928 25.5526C9.49718 25.6249 9.63825 25.753 9.8425 25.9371C10.042 26.1195 10.2584 26.3135 10.4916 26.5192C10.7201 26.7231 10.9144 26.8927 11.0745 27.028C11.2008 27.1399 11.2295 27.2694 11.1605 27.4164L9.18792 31.6219C9.01934 31.6239 8.85589 31.5791 8.69757 31.4877C8.34708 30.4716 7.95516 29.5021 7.52179 28.5793C7.09058 27.6519 6.63855 26.8463 6.1657 26.1625C5.68809 25.477 5.21267 24.9893 4.73943 24.6996C4.26878 24.4162 3.85217 24.3095 3.48958 24.3796C3.12699 24.4496 2.85731 24.6731 2.68053 25.05C2.34422 25.767 2.43724 26.5576 2.95958 27.4218C2.93802 27.4677 2.88554 27.5022 2.80214 27.5251C2.71874 27.548 2.66493 27.5496 2.6407 27.5297C2.42649 27.3311 2.19472 26.9019 1.94538 26.242C1.82223 25.9207 1.76041 25.5521 1.75991 25.1362C1.75941 24.7202 1.84324 24.333 2.0114 23.9745C2.19465 23.5838 2.46362 23.3142 2.81834 23.1656C3.17521 23.0124 3.54106 22.9652 3.91591 23.0239C4.29075 23.0826 4.65121 23.2196 4.99728 23.435C5.2711 23.6018 5.54154 23.8295 5.80859 24.118C6.07088 24.4047 6.30032 24.69 6.49691 24.9738C6.6935 25.2577 6.89882 25.6123 7.11286 26.0376C7.37804 26.5684 7.60145 27.0512 7.78309 27.4861C7.96213 27.9146 8.11823 28.3264 8.25141 28.7216C8.38674 29.1122 8.52144 29.5161 8.65551 29.9332C8.69193 30.0224 8.72523 30.0348 8.75541 29.9704L9.86136 27.6126C9.92387 27.4793 9.96201 27.3802 9.97577 27.3151C9.98952 27.25 9.99161 27.186 9.98202 27.123C9.96768 27.0583 9.95568 26.9647 9.94602 26.8423C9.93599 26.7684 9.88791 26.6803 9.80176 26.578C9.71562 26.4757 9.62364 26.3739 9.52583 26.2727C9.42542 26.1651 9.35161 26.0782 9.30442 26.012C9.23515 25.9214 9.21991 25.8347 9.25872 25.752C9.31693 25.6279 9.37045 25.5614 9.41928 25.5526Z" fill="#8E6E33"/>
<path d="M13.2798 26.2303C13.257 26.2171 13.2313 26.0845 13.2029 25.8325C13.1745 25.5804 13.1036 25.3014 12.9902 24.9955C12.8768 24.6897 12.7059 24.471 12.4772 24.3396C12.3477 24.2652 12.1738 24.1978 11.9555 24.1376C11.7372 24.0774 11.6052 24.0341 11.5595 24.0079C11.369 23.8984 11.2693 23.7157 11.2605 23.4598C11.2516 23.204 11.3261 22.9759 11.4838 22.7757C11.5218 22.7273 11.5969 22.6601 11.709 22.574C11.7748 22.5818 11.8706 22.6218 11.9964 22.6941C12.1564 22.786 12.3818 22.9707 12.6726 23.2482C12.8805 23.4479 13.0581 23.6829 13.2052 23.953C13.3522 24.2231 13.4536 24.4844 13.5092 24.7371C13.6233 25.2741 13.673 25.6889 13.6585 25.9814L13.6553 26.1752C13.6335 26.2028 13.5789 26.2266 13.4913 26.2465C13.4036 26.2663 13.3332 26.2609 13.2798 26.2303Z" fill="#8E6E33"/>
<path d="M10.6536 19.7241C10.1331 19.0041 9.75191 18.2796 9.5099 17.5506C9.26814 16.815 9.20249 16.1193 9.31295 15.4635C9.42341 14.8076 9.72567 14.2846 10.2197 13.8945C10.5943 13.5988 11.0139 13.4336 11.4787 13.3988C11.9435 13.3641 12.4037 13.448 12.8593 13.6506C13.3149 13.8531 13.7747 14.1449 14.2388 14.5261C14.7029 14.9072 15.1215 15.3658 15.4946 15.9018C16.0036 16.618 16.3808 17.3457 16.6263 18.0847C16.8681 18.8202 16.9337 19.516 16.8233 20.1718C16.7128 20.8277 16.4145 21.3475 15.9284 21.7313C15.4344 22.1214 14.8662 22.2825 14.2238 22.2146C13.5815 22.1468 12.9599 21.8932 12.359 21.4539C11.7582 21.0147 11.1897 20.4381 10.6536 19.7241ZM11.6225 18.9398C12.3032 19.9103 13.0245 20.6282 13.7866 21.0935C14.5486 21.5588 15.1329 21.6311 15.5393 21.3102C15.854 21.0617 16.0092 20.6964 16.0048 20.2143C16.0043 19.729 15.8695 19.1742 15.6002 18.5498C15.335 17.9223 14.9586 17.2706 14.4712 16.5948C13.7787 15.6337 13.0644 14.9326 12.3284 14.4914C11.5964 14.0471 11.0272 13.9853 10.6208 14.3062C10.314 14.5485 10.1551 14.9103 10.1442 15.3918C10.1372 15.8701 10.2607 16.4179 10.5148 17.0351C10.7728 17.6492 11.1421 18.2841 11.6225 18.9398Z" fill="#8E6E33"/>
<path d="M16.9974 13.801C16.6443 12.9822 16.4271 12.1876 16.346 11.4172C16.2666 10.6404 16.3497 9.93912 16.5952 9.31347C16.8408 8.68783 17.2445 8.23299 17.8062 7.94895C18.2321 7.73363 18.6742 7.65659 19.1327 7.71782C19.5911 7.77904 20.02 7.95661 20.4194 8.25053C20.8188 8.54444 21.2035 8.92749 21.5735 9.39968C21.9435 9.87187 22.253 10.4113 22.502 11.0179C22.8448 11.8306 23.0574 12.6275 23.1398 13.4085C23.2192 14.1854 23.1361 14.8866 22.8906 15.5123C22.645 16.1379 22.2459 16.5905 21.6932 16.8699C21.1314 17.154 20.546 17.1964 19.9369 16.9972C19.3279 16.798 18.7781 16.4195 18.2876 15.8618C17.7972 15.304 17.3671 14.6171 16.9974 13.801ZM18.1033 13.225C18.5591 14.3243 19.1077 15.1823 19.7491 15.799C20.3905 16.4157 20.9422 16.6072 21.4043 16.3736C21.7622 16.1926 21.9899 15.8634 22.0873 15.3859C22.1892 14.9062 22.1754 14.33 22.0458 13.6573C21.9208 12.9824 21.693 12.2608 21.3626 11.4925C20.8932 10.4001 20.3479 9.56009 19.7268 8.97261C19.1101 8.38283 18.5708 8.20476 18.1087 8.4384C17.7598 8.61478 17.5293 8.93983 17.417 9.41354C17.3093 9.88497 17.3136 10.4519 17.43 11.1143C17.5509 11.7744 17.7753 12.478 18.1033 13.225Z" fill="#8E6E33"/>
<path d="M24.8085 9.61014C24.5966 8.73863 24.5139 7.9111 24.5602 7.12755C24.6093 6.33777 24.8049 5.64732 25.1472 5.05621C25.4895 4.4651 25.9586 4.06805 26.5545 3.86506C27.0062 3.71119 27.4513 3.69819 27.8897 3.82608C28.3281 3.95397 28.7187 4.19413 29.0615 4.54655C29.4042 4.89898 29.718 5.33856 30.0029 5.86531C30.2878 6.39206 30.5025 6.97736 30.6471 7.62121C30.8499 8.48515 30.9279 9.31432 30.881 10.1087C30.832 10.8985 30.6363 11.5889 30.294 12.1801C29.9517 12.7712 29.4875 13.1666 28.9012 13.3663C28.3053 13.5693 27.7257 13.5268 27.1624 13.2388C26.5992 12.9509 26.1231 12.4919 25.7344 11.8619C25.3456 11.2319 25.037 10.4813 24.8085 9.61014ZM25.9842 9.19364C26.2507 10.3611 26.6474 11.3003 27.1742 12.0112C27.701 12.7221 28.2095 12.9941 28.6996 12.8271C29.0793 12.6978 29.3557 12.4011 29.5289 11.9369C29.7068 11.471 29.7873 10.8918 29.7703 10.1992C29.7581 9.50487 29.6531 8.74892 29.4552 7.93128C29.1742 6.76873 28.7779 5.84809 28.2661 5.16937C27.7592 4.48901 27.2606 4.23232 26.7704 4.39929C26.4004 4.52534 26.1219 4.8175 25.9348 5.27577C25.7525 5.7324 25.6642 6.30095 25.67 6.98144C25.6806 7.66028 25.7853 8.39768 25.9842 9.19364Z" fill="#8E6E33"/>
<path d="M40.2641 1.36999C40.5656 1.32681 40.8642 1.54526 41.1599 2.02532C41.4626 2.51463 41.7262 3.16061 41.9509 3.96326C42.1087 4.50405 42.2347 4.9623 42.3291 5.33803C42.4285 5.71303 42.5101 6.04962 42.5738 6.3478C42.6425 6.64526 42.7076 6.95091 42.7692 7.26475C42.9679 6.90851 43.159 6.48679 43.3424 5.99959C43.5258 5.51239 43.6641 5.01885 43.7571 4.51897C43.8502 4.01909 43.8577 3.56989 43.7795 3.17136C43.6651 2.58851 43.4349 2.07346 43.0888 1.62622C43.1354 1.17909 43.3446 0.928906 43.7165 0.87566C44.1587 0.812341 44.4571 1.17423 44.6115 1.96133C44.8275 3.06227 44.6422 4.38201 44.0554 5.92055C43.762 6.68983 43.4212 7.41468 43.0328 8.09511C42.6505 8.7798 42.2481 9.388 41.8254 9.91971C41.4027 10.4514 40.9877 10.877 40.5802 11.1966C40.1728 11.5161 39.8007 11.7 39.464 11.7482C39.2027 11.7856 38.9748 11.7568 38.7805 11.6617C38.5862 11.5666 38.4724 11.4344 38.4392 11.265C38.3766 10.9462 38.4492 10.7104 38.6569 10.5578C38.9034 10.6556 39.2528 10.6722 39.7051 10.6074C40.5444 10.4872 41.181 9.94027 41.6151 8.96647C41.7808 8.5996 41.7654 7.91552 41.5689 6.91421C41.4731 6.42601 41.3653 5.9421 41.2453 5.46248C41.1254 4.98286 40.9829 4.49366 40.8179 3.99489C40.726 3.71099 40.6195 3.44456 40.4983 3.19559C40.3821 2.9459 40.2602 2.74569 40.1324 2.59497C40.0047 2.44424 39.878 2.37788 39.7524 2.39587C39.6619 2.40882 39.5429 2.51293 39.3952 2.70821C39.2475 2.90349 39.1361 3.07309 39.061 3.217C39.0409 3.21988 38.9939 3.17795 38.9201 3.09121C38.8462 3.00448 38.8054 2.94118 38.7976 2.90133C38.8131 2.82229 38.8725 2.70367 38.9758 2.54548C39.0841 2.38656 39.214 2.21943 39.3656 2.04408C39.5172 1.86873 39.6737 1.71828 39.835 1.59274C39.9954 1.46223 40.1384 1.38797 40.2641 1.36999Z" fill="#8E6E33"/>
<path d="M50.8792 0.0738662C51.3455 0.0477817 51.6917 0.147879 51.9177 0.374157C52.1438 0.600436 52.2677 0.855305 52.2894 1.13876C52.3235 1.5842 52.1292 2.03733 51.7064 2.49816C51.4244 2.80369 51.1165 3.07001 50.7826 3.2971C50.4484 3.51914 50.1232 3.69238 49.8069 3.81682C49.4907 3.94126 49.2211 4.00972 48.998 4.0222C48.9575 4.02447 48.9508 4.20276 48.9779 4.55708C49.0129 5.01264 49.1281 5.35441 49.3238 5.58239C49.5194 5.81037 49.7693 5.91586 50.0734 5.89885C50.2002 5.89176 50.3495 5.84782 50.5215 5.76703C50.6934 5.68624 50.8245 5.60266 50.9146 5.51629C51.0093 5.42456 51.0616 5.37589 51.0714 5.37026C51.0811 5.36463 51.1002 5.34831 51.1287 5.3213C51.1568 5.28923 51.241 5.19302 51.3815 5.03266L51.4236 4.98455C51.4439 4.98342 51.4856 5.02938 51.5487 5.12243C51.6118 5.21549 51.6449 5.28226 51.648 5.32275C51.5692 5.48983 51.4219 5.69379 51.2062 5.93461C50.9952 6.17008 50.7519 6.38195 50.4761 6.57021C50.2 6.75341 49.9226 6.85281 49.6438 6.8684C49.1167 6.89789 48.698 6.71543 48.3878 6.32102C48.0776 5.92661 47.8949 5.37002 47.8398 4.65125C47.8026 4.16532 47.8657 3.66106 48.0293 3.13848C48.1925 2.61084 48.4246 2.12001 48.7258 1.66598C49.027 1.21196 49.3649 0.839753 49.7397 0.549364C50.1141 0.253914 50.4939 0.0954142 50.8792 0.0738662ZM50.7748 0.70497C50.5366 0.718295 50.3085 0.830184 50.0904 1.04064C49.8724 1.25109 49.6782 1.50596 49.5077 1.80525C49.3372 2.10455 49.2049 2.40425 49.1108 2.70435C49.0214 2.99911 48.9839 3.24013 48.9983 3.42742C49.0014 3.46791 49.0232 3.48703 49.0637 3.48476C49.2462 3.47455 49.4617 3.39641 49.7101 3.25035C49.9581 3.09922 50.1979 2.90788 50.4296 2.67633C50.6613 2.44478 50.8509 2.19526 50.9984 1.92775C51.1455 1.65518 51.2093 1.39235 51.1899 1.13926C51.1666 0.835558 51.0283 0.690793 50.7748 0.70497Z" fill="#8E6E33"/>
<path d="M56.528 0.0505474C56.6904 0.0552359 56.8144 0.132452 56.8999 0.282196C56.9854 0.43194 57.0236 0.623483 57.0143 0.856825C57.0055 1.08002 56.9644 1.34799 56.8911 1.66074L56.5617 3.05288C56.6649 2.88319 56.8981 2.57506 57.2612 2.12849C57.5014 1.83579 57.7774 1.53652 58.0893 1.23066C58.4064 0.91987 58.7164 0.659664 59.0194 0.450038C59.3274 0.240559 59.5829 0.138749 59.7859 0.14461C60.2933 0.159261 60.5338 0.501382 60.5073 1.17097C60.4886 1.64273 60.3957 2.1936 60.2286 2.82357L59.6335 5.15263C59.5982 5.2735 59.5779 5.39987 59.5727 5.53176C59.5627 5.7854 59.6084 5.91368 59.7099 5.91661C59.8368 5.92027 59.9925 5.83589 60.1772 5.66348C60.362 5.48599 60.5203 5.33567 60.6522 5.21252L60.7478 5.10863C60.7681 5.10922 60.8042 5.15851 60.8562 5.2565C60.9082 5.35449 60.9334 5.42378 60.9318 5.46436C60.8398 5.60897 60.675 5.79212 60.4376 6.0138C60.2053 6.23562 59.9537 6.43149 59.6828 6.60142C59.4121 6.76627 59.1702 6.84562 58.9571 6.83946C58.7947 6.83477 58.6707 6.75756 58.5852 6.60781C58.4997 6.45807 58.4616 6.26653 58.4708 6.03318C58.4768 5.881 58.523 5.61318 58.6093 5.22971L59.2414 2.73413C59.3261 2.39124 59.3725 2.11835 59.3805 1.91544C59.3978 1.47919 59.31 1.25828 59.1172 1.25272C58.9497 1.24788 58.7189 1.36818 58.4247 1.61361C58.1307 1.85396 57.8206 2.17765 57.4946 2.58467C57.1737 2.99183 56.8788 3.448 56.6099 3.95316C56.3411 4.45324 56.1458 4.96052 56.0238 5.475L55.7181 6.65453C55.5795 6.69116 55.4214 6.70691 55.2437 6.70178C55.0712 6.6968 54.8995 6.67152 54.7286 6.62596L55.8122 1.96477C55.8768 1.61622 55.9102 1.41405 55.9124 1.35825C55.9224 1.10461 55.8767 0.976332 55.7752 0.973402C55.6889 0.970911 55.5563 1.04834 55.3774 1.20568C55.293 1.2845 55.2007 1.37071 55.1004 1.4643C55.0053 1.55805 54.9417 1.62477 54.9096 1.66447C54.8893 1.66388 54.8532 1.6146 54.8012 1.5166C54.7492 1.41861 54.724 1.34932 54.7256 1.30874C54.8122 1.17413 54.9661 1.00844 55.1872 0.811689C55.4086 0.609864 55.6443 0.431305 55.8942 0.276013C56.1442 0.120721 56.3555 0.0455659 56.528 0.0505474Z" fill="#8E6E33"/>
<path d="M73.5022 2.95854C74.0908 3.06985 74.495 3.35765 74.7148 3.82194C74.9346 4.28622 74.9528 4.8722 74.7694 5.57985C74.6382 6.08602 74.4079 6.57087 74.0785 7.03439C73.7503 7.493 73.3713 7.89559 72.9414 8.24216C72.5114 8.58873 72.0701 8.84808 71.6173 9.02021C71.1645 9.19235 70.7486 9.24257 70.3695 9.17087C69.7709 9.05767 69.3642 8.7797 69.1493 8.33696C68.9343 7.89421 68.9186 7.31901 69.102 6.61136C69.2344 6.10027 69.4629 5.6125 69.7873 5.14803C70.118 4.67959 70.499 4.26963 70.9302 3.91815C71.3627 3.56175 71.8034 3.29456 72.2525 3.11657C72.7065 2.93952 73.1231 2.88684 73.5022 2.95854ZM73.166 3.52903C72.9165 3.48187 72.6466 3.54423 72.3561 3.71612C72.0669 3.8831 71.783 4.12066 71.5043 4.42882C71.2256 4.73697 70.9785 5.08461 70.763 5.47174C70.5476 5.85887 70.3896 6.24655 70.2889 6.63478C70.1412 7.20484 70.1189 7.66457 70.2219 8.01399C70.325 8.36341 70.5162 8.56453 70.7955 8.61736C71.0449 8.66452 71.3093 8.60367 71.5885 8.43481C71.874 8.26198 72.1511 8.02054 72.4198 7.7105C72.6898 7.39554 72.9275 7.04356 73.133 6.65454C73.3435 6.26647 73.4996 5.87586 73.6015 5.48271C73.7518 4.90283 73.7866 4.44545 73.706 4.11058C73.6253 3.77571 73.4453 3.58186 73.166 3.52903Z" fill="#8E6E33"/>
<path d="M80.0074 4.99565C80.1634 5.04117 80.2579 5.14508 80.2909 5.30737C80.324 5.46967 80.2971 5.65923 80.2104 5.87605C80.1274 6.08344 79.9983 6.32473 79.8229 6.59989L79.1138 7.71941C79.3469 7.47688 79.6197 7.23016 79.9323 6.97926C80.2517 6.72507 80.5757 6.49329 80.9044 6.28392C81.233 6.07455 81.5385 5.91632 81.8208 5.80922C82.1031 5.70213 82.3271 5.67276 82.4928 5.72113C82.8242 5.81786 83.0319 6.04693 83.1159 6.40834C82.8632 7.03995 82.5566 7.30312 82.196 7.19785C82.118 7.17509 82.049 7.08915 81.9889 6.94002C81.9288 6.79088 81.8403 6.69925 81.7234 6.66511C81.582 6.62385 81.3516 6.68292 81.032 6.84231C80.7125 7.0017 80.3574 7.22966 79.9666 7.52619C79.5778 7.818 79.2011 8.14757 78.8364 8.51488C78.4737 8.87748 78.1785 9.24137 77.9508 9.60654L77.0791 11.0102C76.9021 10.9901 76.7356 10.9573 76.5797 10.9118C76.3945 10.8577 76.2198 10.791 76.0557 10.7115L78.6751 6.61226C78.8539 6.30125 78.9537 6.11982 78.9744 6.06797C79.0687 5.8323 79.0671 5.70024 78.9696 5.67179C78.8868 5.6476 78.7323 5.68675 78.5063 5.78921C78.3982 5.84187 78.2799 5.89946 78.1515 5.96199C78.0279 6.02594 77.944 6.0725 77.8997 6.10168C77.8802 6.09598 77.8616 6.04054 77.8438 5.93533C77.826 5.83013 77.8246 5.75867 77.8397 5.72097C77.9686 5.61646 78.1731 5.49981 78.4532 5.37102C78.7352 5.23751 79.0233 5.12948 79.3175 5.04693C79.6118 4.96438 79.8418 4.94728 80.0074 4.99565Z" fill="#8E6E33"/>
<path d="M85.6285 15.25L91.2438 9.95371C91.3604 9.84495 91.4576 9.73724 91.5354 9.63058C91.649 9.4747 91.4324 9.25131 90.8857 8.96042C90.8588 8.94611 90.8633 8.91435 90.8991 8.86512C90.9709 8.76667 91.0666 8.7037 91.1862 8.67622C91.8226 8.9465 92.48 9.13684 93.1584 9.24724C93.1942 9.30046 93.1643 9.39271 93.0686 9.52398C93.0028 9.61423 92.7202 9.89089 92.2209 10.354L86.5921 15.6431C86.4934 15.7272 86.4052 15.8226 86.3275 15.9293C86.1779 16.1344 86.148 16.2608 86.2376 16.3085C86.2914 16.3371 86.3728 16.3491 86.4819 16.3445C86.591 16.3399 86.7098 16.3263 86.8383 16.3035C86.9669 16.2808 87.1201 16.2456 87.2979 16.1979C87.4787 16.1461 87.5856 16.1147 87.6185 16.1037C87.6454 16.118 87.6528 16.1761 87.6408 16.2779C87.6288 16.3796 87.6108 16.4469 87.5869 16.4798C87.424 16.5582 87.1744 16.6361 86.8381 16.7134C86.5064 16.793 86.1716 16.8427 85.8339 16.8623C85.4991 16.8777 85.2376 16.8354 85.0494 16.7353C84.915 16.6637 84.8485 16.5458 84.8501 16.3816C84.8517 16.2173 84.9212 16.0408 85.0588 15.8521C85.1515 15.725 85.3414 15.5242 85.6285 15.25Z" fill="#8E6E33"/>
<path d="M96.0768 16.8657C96.45 17.1465 96.6341 17.4325 96.6292 17.7238C96.6242 18.015 96.5197 18.2596 96.3156 18.4575C95.995 18.7686 95.4954 18.9387 94.8169 18.968C94.3658 18.9864 93.9256 18.9627 93.4962 18.897C93.0706 18.8278 92.6896 18.7326 92.3535 18.6115C92.0173 18.4904 91.76 18.3627 91.5815 18.2284C91.5491 18.204 91.4053 18.3155 91.1502 18.5629C90.8222 18.881 90.6436 19.1766 90.6143 19.4495C90.585 19.7225 90.6921 19.9505 90.9355 20.1336C91.0369 20.2099 91.1841 20.2767 91.3771 20.3341C91.5701 20.3914 91.7343 20.4208 91.8697 20.4222C92.0128 20.4232 92.0902 20.425 92.102 20.4275C92.1137 20.4301 92.1409 20.4317 92.1834 20.4323C92.2296 20.4294 92.3683 20.4208 92.5993 20.4063L92.6686 20.4019C92.6848 20.4142 92.6806 20.4706 92.656 20.5714C92.6314 20.6721 92.6045 20.7366 92.5754 20.7649C92.3857 20.823 92.1156 20.8614 91.765 20.8801C91.4221 20.8983 91.0731 20.8805 90.718 20.8267C90.3665 20.7693 90.0792 20.6567 89.8561 20.4889C89.4342 20.1715 89.2593 19.7857 89.3313 19.3315C89.4034 18.8774 89.6981 18.3993 90.2156 17.8974C90.5654 17.5581 91.0055 17.271 91.5358 17.0361C92.0698 16.7977 92.6273 16.6272 93.2085 16.5247C93.7896 16.4221 94.3349 16.3962 94.8445 16.447C95.3577 16.4942 95.7685 16.6337 96.0768 16.8657ZM95.5068 17.2089C95.3162 17.0654 95.0565 16.9924 94.7278 16.9899C94.399 16.9873 94.0537 17.0288 93.6919 17.1143C93.33 17.1998 92.9967 17.3099 92.6921 17.4447C92.3951 17.579 92.1792 17.7116 92.0444 17.8424C92.0152 17.8706 92.0169 17.897 92.0493 17.9214C92.1954 18.0313 92.4192 18.1181 92.7209 18.1819C93.0261 18.2421 93.3565 18.271 93.712 18.2685C94.0675 18.2661 94.4051 18.2251 94.7248 18.1456C95.0481 18.0625 95.3009 17.9326 95.4831 17.7559C95.7018 17.5438 95.7097 17.3615 95.5068 17.2089Z" fill="#8E6E33"/>
<path d="M101.136 21.788C101.497 22.2407 101.615 22.6951 101.49 23.151C101.42 23.2494 101.344 23.3228 101.261 23.3713C101.103 23.4631 100.936 23.5044 100.762 23.4953C100.588 23.4861 100.453 23.422 100.359 23.3028C100.273 23.1956 100.258 23.0593 100.312 22.894C100.37 22.7327 100.413 22.5482 100.44 22.3407C100.467 22.1331 100.396 21.9221 100.225 21.7076C100.092 21.5408 99.9262 21.4455 99.7274 21.4216C99.5286 21.3977 99.3502 21.4316 99.1922 21.5234C98.9639 21.656 98.782 21.875 98.6463 22.1804C98.5107 22.4858 98.4146 22.7884 98.3582 23.0884C98.3017 23.3884 98.1903 23.7001 98.0239 24.0233C97.8575 24.3465 97.6251 24.5948 97.3266 24.7682C96.8438 25.0488 96.3266 25.1169 95.7751 24.9726C95.2237 24.8283 94.7487 24.506 94.3503 24.0055C93.9898 23.5528 93.872 23.0984 93.9969 22.6425C94.0355 22.562 94.1031 22.4937 94.1997 22.4376C94.3577 22.3457 94.5282 22.3019 94.7112 22.3059C94.8942 22.31 95.0331 22.3715 95.128 22.4907C95.2134 22.5979 95.2288 22.7342 95.1742 22.8995C95.1165 23.0608 95.0739 23.2453 95.0466 23.4529C95.0193 23.6604 95.091 23.8714 95.2617 24.0859C95.4009 24.2606 95.5768 24.3647 95.7895 24.3979C96.0021 24.4312 96.1831 24.4045 96.3323 24.3178C96.5606 24.1851 96.7425 23.9662 96.8782 23.6608C97.0139 23.3554 97.1099 23.0527 97.1664 22.7527C97.2228 22.4527 97.3342 22.1411 97.5006 21.8179C97.667 21.4947 97.8994 21.2464 98.1979 21.0729C98.4437 20.9301 98.7502 20.8595 99.1175 20.8611C99.4847 20.8627 99.8513 20.9401 100.217 21.0934C100.583 21.2467 100.89 21.4782 101.136 21.788Z" fill="#8E6E33"/>
<path d="M104.791 28.5393C104.955 29.0942 104.896 29.5731 104.614 29.9758C104.514 30.0491 104.417 30.0959 104.323 30.1163C104.144 30.1549 103.977 30.1418 103.82 30.0772C103.664 30.0125 103.564 29.9072 103.521 29.7611C103.482 29.6297 103.518 29.4925 103.629 29.3494C103.741 29.2113 103.848 29.0458 103.949 28.853C104.05 28.6602 104.062 28.4324 103.985 28.1695C103.924 27.9651 103.807 27.8194 103.634 27.7326C103.46 27.6457 103.284 27.6216 103.105 27.6602C102.847 27.7159 102.6 27.8702 102.363 28.1233C102.127 28.3764 101.927 28.6395 101.765 28.9127C101.603 29.1859 101.387 29.4528 101.115 29.7133C100.844 29.9739 100.54 30.1406 100.202 30.2134C99.6563 30.3312 99.157 30.2319 98.7044 29.9152C98.2517 29.5986 97.9347 29.1336 97.7532 28.5203C97.5891 27.9653 97.648 27.4865 97.9301 27.0838C97.9951 27.0179 98.0822 26.9733 98.1914 26.9497C98.37 26.9111 98.5425 26.9231 98.7088 26.9856C98.8751 27.0481 98.9799 27.1524 99.0231 27.2984C99.0619 27.4299 99.026 27.5671 98.9152 27.7101C98.803 27.8483 98.6962 28.0138 98.5948 28.2065C98.4935 28.3993 98.4817 28.6271 98.5595 28.89C98.6228 29.1042 98.7459 29.2615 98.9287 29.3619C99.1115 29.4623 99.2872 29.4942 99.4559 29.4578C99.714 29.4021 99.9613 29.2477 100.198 28.9947C100.435 28.7416 100.634 28.4785 100.796 28.2053C100.958 27.9321 101.175 27.6652 101.446 27.4046C101.717 27.1441 102.022 26.9774 102.359 26.9046C102.637 26.8446 102.944 26.8741 103.28 26.9932C103.616 27.1122 103.924 27.3048 104.203 27.5707C104.483 27.8367 104.678 28.1596 104.791 28.5393Z" fill="#8E6E33"/>
</svg>
