<svg width="123" height="48" viewBox="0 0 123 48" fill="none" xmlns="http://www.w3.org/2000/svg">
<path d="M15.7524 34.4338C15.8155 34.5091 15.9299 34.6428 16.0956 34.8352C16.2573 35.0254 16.433 35.2282 16.6225 35.4437C16.808 35.657 16.966 35.8348 17.0965 35.9772C17.1991 36.0944 17.216 36.2172 17.1471 36.3457L15.1757 40.0202C15.0294 40.0038 14.8904 39.9447 14.7588 39.8431C14.5177 38.8656 14.2379 37.9268 13.9192 37.0266C13.6027 36.1224 13.2606 35.3286 12.8928 34.6452C12.5211 33.9596 12.139 33.4572 11.7465 33.1381C11.3558 32.8251 11.0011 32.6813 10.6823 32.7068C10.3635 32.7323 10.1158 32.9097 9.93911 33.239C9.60302 33.8655 9.63471 34.6065 10.0342 35.4621C10.0126 35.5023 9.965 35.5284 9.89125 35.5406C9.8175 35.5527 9.77073 35.5483 9.75094 35.5274C9.57747 35.3205 9.40305 34.8985 9.22768 34.2614C9.14078 33.951 9.11 33.6035 9.13533 33.2189C9.16067 32.8343 9.25736 32.4854 9.42541 32.1721C9.60854 31.8308 9.85853 31.6106 10.1754 31.5117C10.4944 31.4087 10.8146 31.4047 11.136 31.4995C11.4575 31.5944 11.7616 31.7602 12.0484 31.9968C12.2756 32.1807 12.496 32.4205 12.7098 32.7162C12.9195 33.0097 13.1008 33.2983 13.2537 33.5821C13.4066 33.8658 13.5627 34.2159 13.722 34.6323C13.9191 35.1518 14.083 35.6224 14.2136 36.0442C14.3423 36.4597 14.4522 36.8574 14.5432 37.2372C14.6364 37.613 14.7282 38.001 14.8186 38.4012C14.8447 38.4876 14.8728 38.5027 14.9029 38.4465L16.0082 36.3863C16.0706 36.2699 16.1099 36.1823 16.1258 36.1236C16.1418 36.065 16.1476 36.006 16.1431 35.9468C16.1347 35.8853 16.1301 35.7975 16.1293 35.6833C16.1252 35.6139 16.0889 35.5272 16.0206 35.4233C15.9522 35.3194 15.8787 35.2153 15.8002 35.1111C15.7198 35.0007 15.6611 34.9124 15.6243 34.8461C15.5698 34.7548 15.562 34.673 15.6008 34.6007C15.6589 34.4923 15.7095 34.4367 15.7524 34.4338Z" fill="#A78545"/>
<path d="M15.4033 31.4051C14.9217 30.7386 14.5558 30.0583 14.3055 29.3642C14.0549 28.6637 13.9537 27.9902 14.0017 27.3436C14.0497 26.697 14.2663 26.1669 14.6514 25.7534C14.9434 25.44 15.2817 25.2506 15.6664 25.1854C16.051 25.1201 16.4397 25.1708 16.8326 25.3375C17.2254 25.5041 17.6278 25.7575 18.0397 26.0976C18.4516 26.4377 18.8308 26.8563 19.1774 27.3535C19.6491 28.0171 20.0119 28.7008 20.2658 29.4044C20.5164 30.1049 20.6176 30.7785 20.5696 31.4251C20.5216 32.0717 20.3081 32.5984 19.9292 33.0052C19.544 33.4187 19.0818 33.6141 18.5425 33.5913C18.0032 33.5685 17.4687 33.3633 16.939 32.9758C16.4093 32.5883 15.8974 32.0648 15.4033 31.4051ZM16.1574 30.5755C16.7891 31.4753 17.4377 32.1262 18.1033 32.5282C18.7689 32.9303 19.2601 32.9612 19.577 32.6211C19.8224 32.3576 19.9271 31.9912 19.8911 31.5217C19.8582 31.0488 19.7087 30.5173 19.4427 29.9269C19.1799 29.3333 18.8229 28.7236 18.3718 28.0979C17.7308 27.2081 17.0892 26.5731 16.447 26.1928C15.8078 25.8091 15.3298 25.7874 15.013 26.1275C14.7738 26.3843 14.6657 26.7477 14.6889 27.2176C14.7151 27.6843 14.8546 28.2097 15.1075 28.7941C15.3635 29.3751 15.7135 29.9689 16.1574 30.5755Z" fill="#A78545"/>
<path d="M20.6278 26.3575C20.2899 25.6079 20.0681 24.8679 19.9623 24.1377C19.8576 23.4012 19.8937 22.721 20.0706 22.0972C20.2475 21.4734 20.5662 20.9977 21.0266 20.67C21.3756 20.4216 21.745 20.304 22.1349 20.3174C22.5248 20.3308 22.8954 20.4585 23.2468 20.7007C23.5982 20.9428 23.9414 21.2719 24.2766 21.6878C24.6118 22.1037 24.8992 22.59 25.1388 23.1466C25.4676 23.8915 25.6857 24.6341 25.7931 25.3743C25.8978 26.1109 25.8617 26.7911 25.6848 27.4149C25.5079 28.0386 25.193 28.5117 24.74 28.8341C24.2796 29.1618 23.7876 29.2604 23.2638 29.1297C22.7401 28.999 22.2577 28.6907 21.8167 28.2047C21.3757 27.7187 20.9793 27.103 20.6278 26.3575ZM21.5332 25.6963C21.9712 26.7046 22.4759 27.4726 23.0472 28.0001C23.6184 28.5277 24.0934 28.6567 24.4721 28.3871C24.7655 28.1783 24.9416 27.8404 25.0007 27.3732C25.0634 26.9034 25.0238 26.3526 24.8818 25.7209C24.7436 25.0865 24.5163 24.4176 24.2002 23.714C23.751 22.7136 23.25 21.9626 22.6972 21.4611C22.1481 20.9569 21.6843 20.8396 21.3055 21.1091C21.0197 21.3126 20.8408 21.6469 20.7691 22.1119C20.701 22.5743 20.7322 23.1171 20.8625 23.7403C20.9966 24.3609 21.2201 25.0129 21.5332 25.6963Z" fill="#A78545"/>
<path d="M27.2911 19.4007C27.2381 19.3964 27.1802 19.3665 27.1173 19.3112C27.0544 19.2558 27.0128 19.2077 26.9927 19.1668C26.9806 19.1423 26.9807 19.1117 26.9932 19.0751C28.0046 17.4071 28.5206 16.5681 28.541 16.558L28.5655 16.5459C28.6309 16.5136 28.7019 16.5751 28.7786 16.7304C28.7829 17.0688 28.8581 17.5094 29.004 18.0523L30.456 23.3427C30.534 23.6142 30.6082 23.8469 30.6786 24.0409C30.7469 24.2308 30.8113 24.382 30.8718 24.4944C30.8982 24.5271 30.9684 24.5407 31.0826 24.5352C31.1988 24.5236 31.3181 24.5028 31.4406 24.4729C31.5671 24.4409 31.6549 24.4129 31.7039 24.3887C31.7285 24.3766 31.7648 24.4501 31.8128 24.6094C31.841 24.6768 31.8509 24.7278 31.8426 24.7624C31.4565 24.9275 31.1471 25.0624 30.9142 25.1672C30.6834 25.2658 30.5291 25.3343 30.4515 25.3726C30.3943 25.4009 30.2563 25.4766 30.0376 25.5998C29.8209 25.7168 29.5235 25.8814 29.1453 26.0934C29.1047 26.0728 29.0714 26.0054 29.0455 25.8911C29.0196 25.7768 29.0189 25.7137 29.0434 25.7016C29.117 25.6652 29.2111 25.6036 29.3257 25.5165C29.4403 25.4295 29.5437 25.3404 29.6359 25.2491C29.726 25.1538 29.7702 25.0837 29.7684 25.0389C29.7672 24.8819 29.7176 24.6167 29.6197 24.2432L28.2999 19.406C28.2299 19.1407 28.1719 18.9457 28.1256 18.8212C28.0532 18.6333 27.9782 18.5585 27.9006 18.5968C27.8515 18.621 27.7839 18.69 27.6977 18.8037C27.6156 18.9153 27.5355 19.0311 27.4574 19.1509C27.3794 19.2708 27.3239 19.354 27.2911 19.4007Z" fill="#A78545"/>
<path d="M36.3265 13.3868C36.5902 13.3147 36.8691 13.4794 37.1632 13.8809C37.464 14.29 37.741 14.845 37.994 15.5459C38.1702 16.0174 38.3128 16.4179 38.4217 16.7471C38.535 17.0752 38.6299 17.3705 38.7064 17.6331C38.7874 17.8944 38.8657 18.1636 38.9414 18.4405C39.0931 18.0967 39.2335 17.6945 39.3627 17.234C39.4919 16.7734 39.5807 16.3121 39.6292 15.85C39.6777 15.3879 39.6538 14.9811 39.5577 14.6294C39.417 14.1151 39.1785 13.6747 38.8421 13.3084C38.8531 12.8991 39.0212 12.65 39.3465 12.5611C39.7333 12.4553 40.0217 12.7497 40.2116 13.4442C40.4772 14.4157 40.4027 15.6291 39.9879 17.0843C39.7806 17.8119 39.5282 18.5045 39.2308 19.1622C38.9391 19.8231 38.6243 20.4171 38.2865 20.9441C37.9487 21.4711 37.6104 21.9014 37.2717 22.235C36.933 22.5686 36.6164 22.7756 36.3218 22.8561C36.0932 22.9186 35.8898 22.9176 35.7115 22.8529C35.5332 22.7883 35.4236 22.6812 35.3827 22.5318C35.3058 22.2504 35.354 22.0294 35.5274 21.8686C35.7521 21.93 36.0622 21.9066 36.4578 21.7984C37.192 21.5977 37.718 21.0334 38.036 20.1055C38.1576 19.7557 38.0977 19.139 37.8561 18.2554C37.7383 17.8246 37.6101 17.399 37.4715 16.9786C37.333 16.5582 37.1738 16.1316 36.9941 15.6988C36.8936 15.4523 36.7813 15.2231 36.6573 15.0114C36.5376 14.7984 36.4162 14.6308 36.293 14.5086C36.1698 14.3864 36.0533 14.3403 35.9434 14.3703C35.8643 14.392 35.766 14.4991 35.6486 14.6919C35.5312 14.8846 35.4442 15.0501 35.3875 15.1885C35.37 15.1933 35.3256 15.1605 35.2544 15.0902C35.1832 15.0199 35.1428 14.9672 35.1332 14.932C35.1415 14.8589 35.186 14.7451 35.2666 14.5908C35.3517 14.4353 35.4553 14.2699 35.5775 14.0948C35.6997 13.9196 35.8279 13.7665 35.9621 13.6353C36.0951 13.4997 36.2166 13.4169 36.3265 13.3868Z" fill="#A78545"/>
<path d="M45.2723 11.9238C45.6859 11.8546 46.0024 11.9103 46.2221 12.0907C46.4417 12.2712 46.5725 12.4873 46.6146 12.739C46.6807 13.1345 46.5439 13.5594 46.2039 14.0136C45.9771 14.3149 45.724 14.5836 45.4447 14.8198C45.1646 15.0514 44.8886 15.2385 44.6167 15.381C44.3448 15.5235 44.11 15.6112 43.9122 15.6443C43.8762 15.6503 43.8846 15.8107 43.9372 16.1253C44.0048 16.5298 44.1349 16.8246 44.3276 17.0095C44.5202 17.1945 44.7514 17.2644 45.0211 17.2193C45.1335 17.2006 45.263 17.1465 45.4098 17.0573C45.5566 16.9681 45.6667 16.8804 45.7401 16.7942C45.8172 16.7027 45.8599 16.654 45.8682 16.648C45.8764 16.642 45.8921 16.6255 45.9153 16.5985C45.9378 16.567 46.0052 16.4726 46.1175 16.3152L46.1512 16.268C46.1691 16.265 46.21 16.3021 46.2737 16.3792C46.3374 16.4563 46.3723 16.5129 46.3783 16.5488C46.3215 16.7062 46.2066 16.9033 46.0336 17.1401C45.8644 17.3717 45.6645 17.5854 45.4338 17.781C45.2024 17.9722 44.9631 18.0885 44.7159 18.1298C44.2484 18.208 43.8606 18.0857 43.5525 17.7629C43.2444 17.4402 43.037 16.9596 42.9303 16.3214C42.8582 15.8899 42.874 15.4321 42.9779 14.948C43.0811 14.4595 43.2487 13.9971 43.4807 13.561C43.7127 13.1248 43.9841 12.7583 44.2949 12.4615C44.6049 12.1601 44.9307 11.9809 45.2723 11.9238ZM45.2299 12.4992C45.0187 12.5345 44.8243 12.6571 44.6469 12.867C44.4694 13.0768 44.3167 13.3242 44.1887 13.6089C44.0608 13.8937 43.9669 14.1751 43.9071 14.4531C43.851 14.7258 43.8369 14.9453 43.8647 15.1116C43.8707 15.1476 43.8917 15.1626 43.9277 15.1566C44.0895 15.1295 44.2752 15.0384 44.4849 14.8832C44.6939 14.7235 44.8923 14.5286 45.0803 14.2985C45.2682 14.0684 45.4172 13.8263 45.5272 13.5723C45.6364 13.3137 45.6723 13.0721 45.6347 12.8474C45.5896 12.5777 45.4547 12.4616 45.2299 12.4992Z" fill="#A78545"/>
<path d="M50.2764 11.3038C50.4218 11.293 50.5404 11.3505 50.6319 11.4762C50.7235 11.6019 50.7771 11.7693 50.7926 11.9784C50.8074 12.1783 50.798 12.4212 50.7644 12.7071L50.612 13.9796C50.6869 13.8187 50.8637 13.5223 51.1424 13.0903C51.327 12.807 51.543 12.5145 51.7902 12.2128C52.0416 11.9063 52.2919 11.6455 52.541 11.4305C52.7947 11.2152 53.0124 11.1008 53.1942 11.0873C53.6487 11.0536 53.8981 11.3367 53.9427 11.9366C53.974 12.3593 53.9471 12.8594 53.862 13.4369L53.5679 15.57C53.5487 15.6811 53.5435 15.7957 53.5523 15.9139C53.5691 16.1411 53.623 16.2514 53.7139 16.2446C53.8275 16.2362 53.958 16.1465 54.1052 15.9757C54.2522 15.8003 54.3782 15.6515 54.4834 15.5295L54.5581 15.428C54.5763 15.4266 54.6136 15.4673 54.67 15.5499C54.7264 15.6325 54.756 15.692 54.7587 15.7284C54.6912 15.8659 54.5628 16.0445 54.3734 16.2642C54.1886 16.4836 53.984 16.6816 53.7594 16.8582C53.5346 17.0302 53.3267 17.1233 53.1358 17.1375C52.9904 17.1483 52.8719 17.0908 52.7803 16.9651C52.6887 16.8394 52.6351 16.672 52.6196 16.4629C52.6095 16.3266 52.6235 16.0833 52.6615 15.7332L52.9718 13.4481C53.0125 13.1343 53.0261 12.8866 53.0126 12.7048C52.9836 12.3139 52.8827 12.1249 52.71 12.1377C52.56 12.1488 52.3662 12.2775 52.1286 12.5236C51.8906 12.7652 51.6468 13.0826 51.3972 13.4758C51.1522 13.8687 50.9353 14.303 50.7467 14.7785C50.5577 15.2495 50.435 15.7202 50.3785 16.1905L50.2256 17.2712C50.1056 17.3166 49.9661 17.3453 49.807 17.3571C49.6525 17.3685 49.4966 17.3618 49.3394 17.3369L49.8322 13.0778C49.8544 12.7609 49.8637 12.5774 49.8599 12.5274C49.8431 12.3002 49.7892 12.1899 49.6983 12.1967C49.6211 12.2024 49.5106 12.2837 49.3668 12.4406C49.2995 12.5187 49.2259 12.6041 49.1459 12.6969C49.0705 12.7893 49.0205 12.8547 48.996 12.8931C48.9778 12.8945 48.9405 12.8538 48.8841 12.7712C48.8277 12.6885 48.7981 12.629 48.7955 12.5927C48.8591 12.4646 48.9796 12.3025 49.157 12.1066C49.334 11.9061 49.5262 11.725 49.7336 11.5634C49.9409 11.4018 50.1219 11.3152 50.2764 11.3038Z" fill="#A78545"/>
<path d="M60.3683 13.4316L63.4718 13.2676C63.5265 13.2676 63.5539 13.3223 63.5539 13.4316C63.5539 13.4954 63.5356 13.582 63.4992 13.6914C63.4673 13.8008 63.4263 13.8988 63.3761 13.9854C63.3306 14.0719 63.285 14.1198 63.2394 14.1289L60.1496 14.2793C60.104 14.2793 60.0812 14.2109 60.0812 14.0742C60.0812 13.9831 60.1131 13.8555 60.1769 13.6914C60.2407 13.5273 60.3045 13.4408 60.3683 13.4316Z" fill="#A78545"/>
<path d="M71.3202 19.0691L72.07 16.7923L68.8678 16.3965C68.8451 16.3202 68.8624 16.18 68.9198 15.9759L74.5901 10.7807C74.7076 10.685 74.8228 10.6441 74.9359 10.6581C75.0535 10.6726 75.0931 10.7234 75.0548 10.8105L73.307 16.1462L74.2161 16.2586C74.2976 16.2686 74.3208 16.3036 74.2858 16.3636C74.1952 16.6509 74.0943 16.8726 73.9832 17.0288L73.0605 16.9147L72.3057 19.2322C72.2684 19.2735 72.0847 19.2738 71.7546 19.233C71.5917 19.2129 71.4773 19.1918 71.4111 19.1699C71.3449 19.1479 71.3146 19.1143 71.3202 19.0691ZM70.0234 15.7404L72.3165 16.0238L73.4682 12.5017C73.4795 12.4848 73.4826 12.4599 73.4774 12.4271C73.4723 12.3943 73.4607 12.3768 73.4426 12.3746L73.4121 12.3984L69.9893 15.5708C69.9791 15.5787 69.9729 15.5918 69.9707 15.6098C69.9425 15.689 69.9601 15.7325 70.0234 15.7404Z" fill="#A78545"/>
<path d="M76.5824 15.5167C76.9094 14.7623 77.3073 14.1002 77.7761 13.5304C78.2503 12.9571 78.7776 12.526 79.358 12.2369C79.9384 11.9479 80.5047 11.8633 81.0569 11.9832C81.4756 12.0741 81.8112 12.2682 82.0637 12.5655C82.3163 12.8629 82.4713 13.223 82.5287 13.6458C82.5862 14.0687 82.5739 14.544 82.492 15.0718C82.41 15.5997 82.2438 16.1395 81.9935 16.6914C81.6639 17.436 81.2616 18.0971 80.7864 18.6748C80.3122 19.2481 79.7849 19.6792 79.2045 19.9683C78.6241 20.2573 78.0622 20.3429 77.5189 20.2249C76.9667 20.105 76.5626 19.8074 76.3067 19.3322C76.0508 18.8569 75.9541 18.2926 76.0166 17.6393C76.0792 16.986 76.2678 16.2785 76.5824 15.5167ZM77.6809 15.7412C77.23 16.7439 77.0018 17.634 76.9962 18.4116C76.9906 19.1892 77.2149 19.6273 77.6692 19.7259C78.021 19.8023 78.3896 19.7051 78.7748 19.4343C79.1645 19.1645 79.5451 18.7644 79.9167 18.2342C80.2928 17.7049 80.6345 17.0866 80.942 16.3792C81.3795 15.3736 81.5977 14.4976 81.5965 13.7512C81.5998 13.0058 81.3743 12.5837 80.92 12.4851C80.5771 12.4107 80.2095 12.5034 79.8173 12.7634C79.4296 13.0243 79.0491 13.4127 78.676 13.9286C78.3073 14.4455 77.9756 15.0497 77.6809 15.7412Z" fill="#A78545"/>
<path d="M83.1656 17.7425C83.5642 17.0233 84.0244 16.4029 84.5462 15.8812C85.0737 15.3567 85.6404 14.9786 86.246 14.7472C86.8517 14.5158 87.4236 14.4865 87.9616 14.6594C88.3694 14.7904 88.6846 15.0161 88.9072 15.3365C89.1297 15.6569 89.2491 16.0304 89.2653 16.4568C89.2815 16.8832 89.2232 17.3551 89.0905 17.8725C88.9577 18.3899 88.74 18.9111 88.4373 19.4362C88.0372 20.1453 87.5726 20.7643 87.0437 21.2932C86.5162 21.8178 85.9495 22.1958 85.3439 22.4273C84.7382 22.6587 84.1707 22.6894 83.6413 22.5193C83.1033 22.3464 82.73 22.0111 82.5214 21.5133C82.3127 21.0154 82.2712 20.4444 82.3968 19.8003C82.5224 19.1561 82.7786 18.4702 83.1656 17.7425ZM84.2371 18.0724C83.6912 19.0267 83.3778 19.8905 83.2969 20.6639C83.2159 21.4372 83.3967 21.895 83.8393 22.0372C84.1821 22.1473 84.5583 22.0863 84.968 21.8541C85.382 21.6234 85.7996 21.2621 86.2208 20.7704C86.6464 20.2801 87.0465 19.6978 87.4211 19.0235C87.954 18.0651 88.256 17.2143 88.3272 16.4713C88.4027 15.7297 88.2192 15.2878 87.7766 15.1456C87.4425 15.0383 87.0677 15.095 86.6522 15.3157C86.241 15.5378 85.8246 15.8875 85.4032 16.3648C84.9862 16.8435 84.5975 17.4127 84.2371 18.0724Z" fill="#A78545"/>
<path d="M89.9357 20.0992C90.4102 19.4277 90.9352 18.861 91.5107 18.3993C92.0923 17.9352 92.6966 17.6212 93.3239 17.457C93.9512 17.2929 94.5228 17.3261 95.0388 17.5564C95.43 17.7311 95.7188 17.9898 95.9051 18.3325C96.0915 18.6753 96.1695 19.0595 96.1391 19.4851C96.1088 19.9108 95.9995 20.3735 95.8112 20.8734C95.623 21.3733 95.3498 21.8677 94.9918 22.3567C94.5168 23.018 93.9876 23.5828 93.4043 24.051C92.8228 24.515 92.2184 24.8291 91.5911 24.9932C90.9638 25.1574 90.3963 25.1261 89.8887 24.8994C89.3727 24.669 89.038 24.295 88.8848 23.7774C88.7316 23.2598 88.7525 22.6877 88.9475 22.0611C89.1424 21.4344 89.4718 20.7804 89.9357 20.0992ZM90.965 20.5438C90.3184 21.4329 89.9128 22.2575 89.7482 23.0175C89.5836 23.7775 89.7135 24.2522 90.1379 24.4417C90.4667 24.5885 90.8473 24.5688 91.2798 24.3826C91.7165 24.1983 92.1709 23.8846 92.6432 23.4417C93.1196 23.0006 93.5807 22.4653 94.0265 21.8358C94.6606 20.9411 95.0534 20.1283 95.205 19.3974C95.3608 18.6685 95.2265 18.2092 94.802 18.0197C94.4816 17.8766 94.1029 17.8922 93.6657 18.0663C93.2328 18.2424 92.7809 18.5447 92.31 18.9733C91.8433 19.4037 91.395 19.9272 90.965 20.5438Z" fill="#A78545"/>
<path d="M101.268 25.6674C101.478 25.8424 101.503 26.1654 101.342 26.6363C101.178 27.1171 100.882 27.6618 100.452 28.2704C100.166 28.6848 99.9191 29.0308 99.7114 29.3086C99.5072 29.5893 99.3194 29.8361 99.1478 30.0491C98.9798 30.265 98.8039 30.4833 98.6201 30.7038C98.9889 30.6314 99.3991 30.5165 99.8507 30.3589C100.302 30.2013 100.731 30.0101 101.138 29.7854C101.545 29.5607 101.865 29.3083 102.098 29.0282C102.44 28.6186 102.664 28.171 102.772 27.6855C103.114 27.4603 103.414 27.4556 103.674 27.6714C103.982 27.9281 103.905 28.3331 103.444 28.8863C102.8 29.6601 101.762 30.2933 100.331 30.7859C99.6159 31.0322 98.9035 31.2217 98.1939 31.3542C97.485 31.4931 96.8178 31.5749 96.1923 31.5995C95.5668 31.624 95.0203 31.5929 94.5529 31.506C94.0855 31.4191 93.7345 31.2779 93.4999 31.0825C93.3179 30.9308 93.2023 30.7633 93.1533 30.5801C93.1043 30.3969 93.1293 30.2458 93.2285 30.1267C93.4152 29.9027 93.6241 29.8157 93.8552 29.8658C93.9334 30.0852 94.13 30.3262 94.4452 30.5887C95.0299 31.0759 95.7937 31.1844 96.7366 30.9141C97.0931 30.8137 97.5645 30.4116 98.1509 29.7078C98.4368 29.3647 98.7124 29.0161 98.9779 28.6618C99.2433 28.3076 99.5021 27.933 99.7541 27.5379C99.8988 27.3144 100.022 27.0912 100.125 26.8683C100.231 26.6483 100.299 26.4529 100.329 26.2819C100.359 26.1109 100.33 25.989 100.242 25.916C100.179 25.8635 100.035 25.8443 99.81 25.8583C99.5847 25.8723 99.3992 25.8957 99.2533 25.9284C99.2393 25.9167 99.2408 25.8616 99.2577 25.763C99.2746 25.6644 99.2947 25.601 99.318 25.573C99.3828 25.538 99.5015 25.5094 99.6743 25.4872C99.8505 25.468 100.045 25.4583 100.259 25.4583C100.472 25.4583 100.671 25.4757 100.856 25.5107C101.043 25.5422 101.181 25.5944 101.268 25.6674Z" fill="#A78545"/>
<path d="M107.857 32.4086C108.123 32.7325 108.232 33.0347 108.186 33.315C108.139 33.5954 108.017 33.8166 107.82 33.9786C107.51 34.2332 107.073 34.3265 106.51 34.2585C106.136 34.2121 105.776 34.1268 105.432 34.0025C105.092 33.8753 104.792 33.7294 104.533 33.5648C104.274 33.4002 104.081 33.2405 103.953 33.0856C103.93 33.0574 103.795 33.1446 103.549 33.3471C103.232 33.6075 103.042 33.8674 102.977 34.1266C102.913 34.3858 102.968 34.621 103.141 34.8323C103.214 34.9203 103.325 35.0057 103.476 35.0884C103.626 35.1711 103.757 35.2228 103.869 35.2434C103.986 35.2646 104.05 35.2773 104.059 35.2815C104.068 35.2856 104.091 35.291 104.126 35.2977C104.164 35.3015 104.28 35.3127 104.472 35.3316L104.53 35.3372C104.541 35.3513 104.53 35.4052 104.494 35.4989C104.459 35.5926 104.428 35.651 104.4 35.6742C104.235 35.7034 104.007 35.7021 103.715 35.6704C103.43 35.6392 103.145 35.5725 102.861 35.4702C102.579 35.365 102.359 35.2156 102.2 35.0219C101.899 34.6557 101.812 34.2586 101.938 33.8306C102.064 33.4026 102.377 32.9832 102.877 32.5723C103.215 32.2945 103.62 32.0799 104.091 31.9285C104.566 31.7742 105.05 31.6889 105.544 31.6724C106.038 31.6559 106.491 31.7084 106.903 31.8296C107.319 31.948 107.637 32.141 107.857 32.4086ZM107.337 32.6589C107.201 32.4934 106.997 32.3861 106.727 32.337C106.457 32.2879 106.166 32.2789 105.855 32.31C105.545 32.3411 105.254 32.4001 104.983 32.4869C104.719 32.5744 104.522 32.6717 104.391 32.7787C104.363 32.8019 104.361 32.8275 104.384 32.8557C104.488 32.9825 104.66 33.098 104.899 33.2023C105.141 33.3038 105.409 33.3786 105.703 33.4267C105.996 33.4748 106.28 33.4831 106.555 33.4518C106.833 33.4175 107.061 33.328 107.237 33.1834C107.448 33.0097 107.481 32.8349 107.337 32.6589Z" fill="#A78545"/>
<path d="M110.833 37.2224C110.895 37.3541 110.884 37.4854 110.8 37.6161C110.716 37.7469 110.579 37.8571 110.39 37.9469C110.208 38.0328 109.978 38.1116 109.7 38.1832L108.458 38.4996C108.635 38.5114 108.975 38.5696 109.478 38.6739C109.809 38.744 110.16 38.8401 110.53 38.962C110.907 39.0861 111.24 39.2256 111.531 39.3805C111.823 39.5395 112.008 39.7014 112.086 39.8661C112.281 40.278 112.107 40.6127 111.564 40.8704C111.181 41.0519 110.704 41.207 110.135 41.3357L108.039 41.8299C107.929 41.852 107.82 41.8885 107.713 41.9392C107.507 42.0368 107.423 42.1268 107.462 42.2092C107.511 42.3121 107.642 42.4015 107.854 42.4773C108.071 42.5512 108.255 42.6152 108.407 42.6693L108.528 42.7025C108.536 42.7189 108.512 42.7684 108.455 42.8508C108.398 42.9332 108.353 42.9822 108.32 42.9978C108.168 42.9844 107.955 42.9289 107.682 42.8315C107.411 42.7381 107.152 42.6185 106.907 42.4727C106.665 42.325 106.503 42.1646 106.421 41.9916C106.359 41.8599 106.37 41.7286 106.454 41.5979C106.538 41.4671 106.675 41.3569 106.865 41.2671C106.988 41.2085 107.22 41.1339 107.56 41.0432L109.804 40.5093C110.111 40.4342 110.347 40.3576 110.512 40.2795C110.866 40.1117 111.006 39.9495 110.932 39.793C110.867 39.6571 110.678 39.5226 110.362 39.3896C110.051 39.2547 109.667 39.1416 109.211 39.0505C108.756 38.9635 108.273 38.9177 107.761 38.913C107.254 38.9065 106.77 38.9615 106.311 39.0783L105.248 39.3251C105.162 39.2295 105.085 39.1096 105.017 38.9655C104.951 38.8255 104.901 38.6777 104.867 38.522L109.018 37.4472C109.322 37.3537 109.496 37.2962 109.541 37.2747C109.747 37.1771 109.831 37.0872 109.792 37.0048C109.758 36.9348 109.643 36.861 109.445 36.7835C109.348 36.7488 109.241 36.7109 109.126 36.6698C109.013 36.6327 108.934 36.6097 108.889 36.6006C108.881 36.5841 108.906 36.5347 108.962 36.4523C109.019 36.3699 109.064 36.3209 109.097 36.3053C109.239 36.3184 109.434 36.3725 109.681 36.4674C109.931 36.5603 110.17 36.6743 110.395 36.8095C110.621 36.9447 110.766 37.0823 110.833 37.2224Z" fill="#A78545"/>
</svg>
