<svg width="120" height="47" viewBox="0 0 120 47" fill="none" xmlns="http://www.w3.org/2000/svg">
<path d="M15.6598 36.2865L13.8074 34.7652L12.2821 37.6084C12.2027 37.6021 12.0782 37.5353 11.9086 37.4081L9.11133 30.2444C9.0645 30.1003 9.06802 29.978 9.12188 29.8776C9.17789 29.7732 9.2396 29.7546 9.30699 29.8218L13.6516 33.3783L14.0846 32.5711C14.1234 32.4988 14.1644 32.4898 14.2077 32.5441C14.4429 32.7323 14.6132 32.9064 14.7187 33.0665L14.2792 33.8857L16.1678 35.4264C16.1929 35.4761 16.1268 35.6475 15.9695 35.9406C15.892 36.0852 15.831 36.1844 15.7866 36.2382C15.7423 36.2919 15.7 36.308 15.6598 36.2865ZM12.0874 36.2938L13.1797 34.2578L10.3112 31.912C10.2994 31.8954 10.2773 31.8836 10.2449 31.8765C10.2125 31.8695 10.192 31.874 10.1834 31.89L10.1945 31.927L11.917 36.2645C11.9207 36.2768 11.9306 36.2873 11.9467 36.2959C12.0104 36.3507 12.0573 36.3501 12.0874 36.2938Z" fill="#A78545"/>
<path d="M14.5216 30.2863C14.0401 29.6198 13.6742 28.9395 13.4239 28.2454C13.1733 27.5449 13.072 26.8714 13.12 26.2248C13.1681 25.5782 13.3847 25.0481 13.7698 24.6346C14.0618 24.3212 14.4001 24.1318 14.7848 24.0666C15.1694 24.0013 15.5581 24.0521 15.951 24.2187C16.3438 24.3853 16.7462 24.6387 17.1581 24.9788C17.57 25.3189 17.9492 25.7375 18.2958 26.2347C18.7675 26.8983 19.1303 27.582 19.3842 28.2856C19.6348 28.9861 19.736 29.6597 19.688 30.3063C19.64 30.9529 19.4265 31.4796 19.0476 31.8864C18.6624 32.2999 18.2002 32.4953 17.6608 32.4725C17.1215 32.4497 16.5871 32.2445 16.0574 31.857C15.5277 31.4695 15.0158 30.946 14.5216 30.2863ZM15.2758 29.4567C15.9075 30.3565 16.5561 31.0074 17.2217 31.4095C17.8873 31.8115 18.3785 31.8424 18.6954 31.5023C18.9408 31.2389 19.0455 30.8724 19.0095 30.4029C18.9766 29.93 18.8271 29.3985 18.5611 28.8081C18.2982 28.2145 17.9413 27.6048 17.4902 26.9791C16.8492 26.0893 16.2076 25.4543 15.5653 25.074C14.9262 24.6903 14.4482 24.6686 14.1313 25.0087C13.8922 25.2655 13.7841 25.6289 13.8072 26.0988C13.8335 26.5655 13.973 27.0909 14.2259 27.6753C14.4819 28.2563 14.8319 28.8501 15.2758 29.4567Z" fill="#A78545"/>
<path d="M19.7471 25.2369C19.4093 24.4873 19.1875 23.7473 19.0817 23.0171C18.9769 22.2806 19.013 21.6004 19.1899 20.9766C19.3668 20.3528 19.6855 19.8771 20.1459 19.5494C20.4949 19.301 20.8643 19.1834 21.2542 19.1968C21.6441 19.2102 22.0148 19.3379 22.3661 19.5801C22.7175 19.8222 23.0608 20.1513 23.396 20.5672C23.7311 20.9831 24.0185 21.4693 24.2581 22.026C24.587 22.7709 24.805 23.5135 24.9124 24.2537C25.0172 24.9903 24.9811 25.6705 24.8042 26.2942C24.6272 26.918 24.3123 27.3911 23.8593 27.7135C23.3989 28.0412 22.9069 28.1398 22.3832 28.0091C21.8594 27.8784 21.377 27.5701 20.936 27.0841C20.495 26.5981 20.0987 25.9824 19.7471 25.2369ZM20.6525 24.5757C21.0905 25.584 21.5952 26.352 22.1665 26.8795C22.7378 27.4071 23.2128 27.5361 23.5915 27.2665C23.8848 27.0577 24.061 26.7197 24.12 26.2526C24.1828 25.7828 24.1432 25.232 24.0012 24.6003C23.8629 23.9659 23.6357 23.297 23.3195 22.5934C22.8703 21.593 22.3693 20.842 21.8165 20.3405C21.2675 19.8363 20.8036 19.7189 20.4249 19.9885C20.139 20.192 19.9602 20.5262 19.8884 20.9913C19.8204 21.4536 19.8515 21.9965 19.9819 22.6197C20.1159 23.2403 20.3395 23.8923 20.6525 24.5757Z" fill="#A78545"/>
<path d="M26.3845 18.296C26.3316 18.2916 26.2736 18.2617 26.2107 18.2064C26.1478 18.151 26.1063 18.1029 26.0862 18.062C26.0741 18.0375 26.0742 18.007 26.0866 17.9703C27.0981 16.3023 27.6141 15.4633 27.6345 15.4532L27.659 15.4411C27.7244 15.4088 27.7954 15.4704 27.8721 15.6257C27.8764 15.964 27.9515 16.4046 28.0975 16.9475L29.5495 22.2379C29.6275 22.5094 29.7017 22.7421 29.772 22.9361C29.8403 23.126 29.9048 23.2772 29.9653 23.3896C29.9916 23.4223 30.0619 23.436 30.176 23.4304C30.2923 23.4188 30.4116 23.398 30.5341 23.3681C30.6606 23.3362 30.7484 23.3081 30.7974 23.2839C30.8219 23.2718 30.8582 23.3454 30.9063 23.5046C30.9345 23.572 30.9444 23.623 30.9361 23.6576C30.55 23.8227 30.2405 23.9576 30.0077 24.0624C29.7768 24.161 29.6226 24.2295 29.5449 24.2679C29.4877 24.2961 29.3498 24.3718 29.131 24.495C28.9144 24.6121 28.617 24.7766 28.2388 24.9886C28.1982 24.968 28.1649 24.9006 28.139 24.7863C28.1131 24.6721 28.1124 24.6089 28.1369 24.5968C28.2105 24.5605 28.3046 24.4988 28.4192 24.4118C28.5337 24.3247 28.6371 24.2356 28.7293 24.1444C28.8195 24.049 28.8637 23.979 28.8619 23.9341C28.8607 23.7772 28.8111 23.512 28.7132 23.1385L27.3934 18.3012C27.3234 18.0359 27.2653 17.841 27.2191 17.7164C27.1467 17.5285 27.0717 17.4537 26.9941 17.492C26.945 17.5163 26.8774 17.5852 26.7912 17.6989C26.7091 17.8105 26.629 17.9263 26.5509 18.0461C26.4728 18.166 26.4174 18.2492 26.3845 18.296Z" fill="#A78545"/>
<path d="M35.4196 12.3689C35.6834 12.2968 35.9623 12.4615 36.2563 12.863C36.5572 13.2721 36.8341 13.8271 37.0872 14.528C37.2633 14.9995 37.4059 15.3999 37.5148 15.7292C37.6282 16.0573 37.7231 16.3526 37.7996 16.6152C37.8805 16.8765 37.9588 17.1457 38.0345 17.4226C38.1862 17.0788 38.3266 16.6766 38.4558 16.216C38.585 15.7555 38.6739 15.2942 38.7223 14.8321C38.7708 14.37 38.747 13.9631 38.6508 13.6114C38.5102 13.0971 38.2717 12.6568 37.9353 12.2905C37.9462 11.8812 38.1143 11.6321 38.4396 11.5431C38.8265 11.4374 39.1148 11.7317 39.3047 12.4263C39.5704 13.3978 39.4958 14.6111 39.0811 16.0663C38.8737 16.7939 38.6213 17.4866 38.324 18.1443C38.0322 18.8052 37.7175 19.3991 37.3797 19.9261C37.0419 20.4532 36.7036 20.8835 36.3649 21.217C36.0261 21.5506 35.7095 21.7577 35.415 21.8382C35.1864 21.9007 34.9829 21.8996 34.8046 21.835C34.6263 21.7704 34.5167 21.6633 34.4759 21.5138C34.3989 21.2325 34.4472 21.0114 34.6205 20.8507C34.8452 20.9121 35.1554 20.8887 35.551 20.7805C36.2851 20.5798 36.8111 20.0155 37.1291 19.0875C37.2508 18.7377 37.1908 18.121 36.9492 17.2374C36.8314 16.8066 36.7033 16.381 36.5647 15.9606C36.4261 15.5402 36.267 15.1137 36.0872 14.6809C35.9867 14.4344 35.8745 14.2052 35.7504 13.9934C35.6308 13.7805 35.5094 13.6129 35.3862 13.4907C35.263 13.3684 35.1464 13.3223 35.0365 13.3524C34.9574 13.374 34.8592 13.4812 34.7418 13.6739C34.6244 13.8667 34.5374 14.0322 34.4807 14.1705C34.4631 14.1753 34.4187 14.1426 34.3475 14.0723C34.2763 14.002 34.2359 13.9493 34.2263 13.9141C34.2347 13.8409 34.2792 13.7272 34.3598 13.5729C34.4448 13.4173 34.5484 13.252 34.6706 13.0768C34.7928 12.9017 34.921 12.7485 35.0552 12.6173C35.1883 12.4817 35.3097 12.3989 35.4196 12.3689Z" fill="#A78545"/>
<path d="M44.2975 10.9118C44.711 10.8427 45.0276 10.8983 45.2472 11.0788C45.4668 11.2592 45.5976 11.4753 45.6397 11.727C45.7059 12.1226 45.569 12.5475 45.2291 13.0017C45.0022 13.303 44.7491 13.5717 44.4698 13.8078C44.1897 14.0395 43.9137 14.2266 43.6418 14.369C43.3699 14.5115 43.1351 14.5993 42.9373 14.6324C42.9014 14.6384 42.9097 14.7987 42.9623 15.1134C43.0299 15.5179 43.1601 15.8127 43.3527 15.9976C43.5454 16.1826 43.7765 16.2525 44.0462 16.2074C44.1586 16.1886 44.2882 16.1346 44.435 16.0454C44.5818 15.9561 44.6919 15.8684 44.7652 15.7822C44.8424 15.6908 44.885 15.6421 44.8933 15.6361C44.9015 15.6301 44.9172 15.6136 44.9405 15.5866C44.9629 15.5551 45.0303 15.4607 45.1426 15.3033L45.1763 15.2561C45.1943 15.2531 45.2351 15.2901 45.2988 15.3673C45.3626 15.4444 45.3974 15.5009 45.4034 15.5369C45.3466 15.6943 45.2317 15.8914 45.0587 16.1282C44.8895 16.3598 44.6896 16.5734 44.4589 16.7691C44.2275 16.9603 43.9882 17.0765 43.741 17.1179C43.2735 17.196 42.8858 17.0737 42.5777 16.751C42.2696 16.4282 42.0622 15.9477 41.9554 15.3094C41.8833 14.8779 41.8992 14.4201 42.0031 13.9361C42.1062 13.4476 42.2738 12.9852 42.5058 12.549C42.7378 12.1129 43.0092 11.7464 43.32 11.4495C43.63 11.1482 43.9558 10.9689 44.2975 10.9118ZM44.2551 11.4872C44.0438 11.5226 43.8494 11.6452 43.672 11.855C43.4945 12.0649 43.3418 12.3122 43.2138 12.597C43.0859 12.8818 42.992 13.1631 42.9322 13.4411C42.8762 13.7139 42.862 13.9334 42.8898 14.0997C42.8958 14.1357 42.9168 14.1506 42.9528 14.1446C43.1146 14.1176 43.3004 14.0265 43.5101 13.8713C43.719 13.7116 43.9175 13.5167 44.1054 13.2866C44.2933 13.0565 44.4423 12.8144 44.5523 12.5603C44.6615 12.3018 44.6974 12.0602 44.6598 11.8354C44.6147 11.5657 44.4798 11.4497 44.2551 11.4872Z" fill="#A78545"/>
<path d="M49.2257 10.3015C49.3711 10.2907 49.4896 10.3482 49.5812 10.4739C49.6728 10.5996 49.7263 10.767 49.7418 10.9761C49.7567 11.1761 49.7473 11.419 49.7136 11.7048L49.5613 12.9774C49.6362 12.8164 49.813 12.52 50.0917 12.088C50.2763 11.8047 50.4922 11.5122 50.7395 11.2106C50.9909 10.904 51.2412 10.6432 51.4903 10.4282C51.7439 10.2129 51.9616 10.0985 52.1434 10.085C52.5979 10.0513 52.8474 10.3344 52.8919 10.9343C52.9233 11.357 52.8964 11.8571 52.8113 12.4346L52.5171 14.5677C52.498 14.6788 52.4928 14.7934 52.5015 14.9116C52.5184 15.1388 52.5723 15.2491 52.6632 15.2424C52.7768 15.2339 52.9072 15.1443 53.0545 14.9734C53.2014 14.798 53.3275 14.6493 53.4327 14.5272L53.5074 14.4257C53.5256 14.4243 53.5629 14.465 53.6193 14.5476C53.6757 14.6303 53.7052 14.6898 53.7079 14.7261C53.6404 14.8637 53.512 15.0423 53.3227 15.262C53.1379 15.4813 52.9332 15.6793 52.7087 15.8559C52.4838 16.028 52.276 16.1211 52.0851 16.1352C51.9396 16.146 51.8211 16.0886 51.7295 15.9628C51.638 15.8371 51.5844 15.6697 51.5689 15.4606C51.5588 15.3243 51.5727 15.0811 51.6107 14.7309L51.921 12.4458C51.9617 12.1321 51.9753 11.8843 51.9618 11.7025C51.9328 11.3117 51.832 11.1226 51.6593 11.1355C51.5093 11.1466 51.3155 11.2752 51.0778 11.5213C50.8399 11.7629 50.5961 12.0803 50.3465 12.4736C50.1014 12.8665 49.8846 13.3007 49.696 13.7762C49.507 14.2472 49.3843 14.7179 49.3278 15.1882L49.1749 16.2689C49.0549 16.3144 48.9153 16.343 48.7563 16.3548C48.6017 16.3663 48.4459 16.3595 48.2886 16.3346L48.7815 12.0756C48.8037 11.7586 48.8129 11.5751 48.8092 11.5251C48.7923 11.2979 48.7385 11.1876 48.6476 11.1944C48.5703 11.2001 48.4598 11.2814 48.3161 11.4383C48.2488 11.5164 48.1751 11.6019 48.0952 11.6946C48.0198 11.7871 47.9698 11.8525 47.9452 11.8908C47.927 11.8922 47.8898 11.8515 47.8334 11.7689C47.777 11.6863 47.7474 11.6268 47.7447 11.5904C47.8083 11.4623 47.9288 11.3003 48.1062 11.1043C48.2833 10.9038 48.4755 10.7228 48.6828 10.5611C48.8902 10.3995 49.0711 10.313 49.2257 10.3015Z" fill="#A78545"/>
<path d="M59.1105 12.4316L62.214 12.2676C62.2687 12.2676 62.296 12.3223 62.296 12.4316C62.296 12.4954 62.2778 12.582 62.2413 12.6914C62.2094 12.8008 62.1684 12.8988 62.1183 12.9854C62.0727 13.0719 62.0271 13.1198 61.9816 13.1289L58.8917 13.2793C58.8461 13.2793 58.8234 13.2109 58.8234 13.0742C58.8234 12.9831 58.8553 12.8555 58.9191 12.6914C58.9829 12.5273 59.0467 12.4408 59.1105 12.4316Z" fill="#A78545"/>
<path d="M70.9502 13.0577C71.3392 13.1057 71.6698 13.2361 71.942 13.4489C72.2192 13.6576 72.4231 13.9216 72.5535 14.2408C72.6885 14.5606 72.7328 14.9081 72.6864 15.2835C72.6243 15.7856 72.4133 16.2669 72.0533 16.7275C71.6939 17.1836 71.2557 17.5336 70.7388 17.7773C70.222 18.0211 69.7238 18.1134 69.2444 18.0541C68.6293 17.9781 68.1671 17.7235 67.8579 17.2904C67.5486 16.8572 67.4399 16.2698 67.5315 15.5281C67.5796 15.1391 67.6811 14.7452 67.836 14.3465C67.9909 13.9478 68.2269 13.5247 68.5439 13.0771C68.8616 12.625 69.2442 12.2039 69.6919 11.8138C70.1402 11.4192 70.7083 11.0394 71.3963 10.6745C72.0843 10.3095 72.8481 9.9998 73.6878 9.7454C73.7601 9.75435 73.7823 9.87189 73.7544 10.098C72.8311 10.3605 72.0185 10.7307 71.3165 11.2087C70.6146 11.6868 70.0188 12.3456 69.5293 13.1851C69.0156 14.0722 68.7059 14.9431 68.6003 15.7979C68.5444 16.2502 68.5876 16.6436 68.7299 16.978C68.8723 17.3124 69.1289 17.5026 69.4997 17.5484C69.7711 17.582 70.0559 17.507 70.3541 17.3234C70.6574 17.1359 70.9227 16.8656 71.15 16.5126C71.3824 16.1556 71.5277 15.7419 71.5858 15.2715C71.6417 14.8192 71.5807 14.4397 71.4028 14.133C71.2249 13.8263 70.9143 13.6456 70.4711 13.5908C70.4213 13.5847 70.3399 13.593 70.2269 13.6157C70.1144 13.634 70.0062 13.655 69.9022 13.6789C69.8033 13.6988 69.7449 13.7077 69.7268 13.7054C69.677 13.6626 69.6577 13.5959 69.6688 13.5054C69.6817 13.4014 69.7683 13.3134 69.9288 13.2414C70.0892 13.1694 70.2678 13.118 70.4644 13.0872C70.6617 13.0518 70.8236 13.042 70.9502 13.0577Z" fill="#A78545"/>
<path d="M75.1459 14.4672C75.4729 13.7128 75.8708 13.0507 76.3396 12.4809C76.8138 11.9077 77.3411 11.4765 77.9215 11.1875C78.5019 10.8984 79.0683 10.8138 79.6205 10.9337C80.0391 11.0246 80.3747 11.2187 80.6273 11.5161C80.8799 11.8134 81.0349 12.1735 81.0923 12.5963C81.1497 13.0192 81.1375 13.4945 81.0555 14.0224C80.9736 14.5502 80.8074 15.0901 80.557 15.6419C80.2275 16.3865 79.8251 17.0476 79.3499 17.6253C78.8757 18.1986 78.3484 18.6297 77.768 18.9188C77.1876 19.2078 76.6258 19.2934 76.0824 19.1754C75.5302 19.0555 75.1261 18.758 74.8702 18.2827C74.6143 17.8074 74.5176 17.2431 74.5802 16.5898C74.6427 15.9366 74.8313 15.229 75.1459 14.4672ZM76.2444 14.6917C75.7936 15.6944 75.5653 16.5845 75.5597 17.3621C75.5542 18.1397 75.7785 18.5778 76.2327 18.6764C76.5846 18.7528 76.9531 18.6556 77.3383 18.3848C77.728 18.115 78.1087 17.715 78.4803 17.1847C78.8563 16.6554 79.1981 16.0371 79.5056 15.3297C79.943 14.3241 80.1612 13.4481 80.16 12.7017C80.1633 11.9563 79.9378 11.5343 79.4835 11.4356C79.1406 11.3612 78.7731 11.4539 78.3809 11.7139C77.9931 11.9748 77.6127 12.3632 77.2395 12.8791C76.8708 13.396 76.5391 14.0002 76.2444 14.6917Z" fill="#A78545"/>
<path d="M81.6656 16.6632C82.0642 15.944 82.5244 15.3236 83.0462 14.802C83.5737 14.2774 84.1403 13.8994 84.746 13.6679C85.3517 13.4365 85.9235 13.4072 86.4615 13.5801C86.8694 13.7111 87.1846 13.9368 87.4072 14.2572C87.6297 14.5776 87.7491 14.9511 87.7653 15.3775C87.7814 15.8039 87.7231 16.2758 87.5904 16.7932C87.4577 17.3106 87.24 17.8319 86.9373 18.3569C86.5371 19.066 86.0726 19.685 85.5437 20.2139C85.0161 20.7385 84.4495 21.1165 83.8438 21.348C83.2382 21.5794 82.6706 21.6101 82.1413 21.44C81.6033 21.2672 81.23 20.9318 81.0213 20.434C80.8127 19.9361 80.7712 19.3652 80.8967 18.721C81.0223 18.0768 81.2786 17.3909 81.6656 16.6632ZM82.7371 16.9931C82.1912 17.9474 81.8778 18.8112 81.7968 19.5846C81.7159 20.358 81.8967 20.8157 82.3393 20.9579C82.682 21.0681 83.0583 21.007 83.4679 20.7748C83.8819 20.5441 84.2995 20.1828 84.7208 19.6911C85.1464 19.2008 85.5465 18.6185 85.921 17.9442C86.454 16.9858 86.756 16.135 86.8272 15.392C86.9027 14.6504 86.7192 14.2085 86.2766 14.0663C85.9425 13.959 85.5677 14.0157 85.1521 14.2364C84.7409 14.4585 84.3246 14.8082 83.9032 15.2855C83.4861 15.7642 83.0974 16.3334 82.7371 16.9931Z" fill="#A78545"/>
<path d="M88.3751 18.9966C88.8496 18.3251 89.3746 17.7584 89.9501 17.2967C90.5316 16.8327 91.136 16.5186 91.7633 16.3545C92.3906 16.1903 92.9622 16.2235 93.4782 16.4539C93.8694 16.6285 94.1581 16.8872 94.3445 17.2299C94.5308 17.5727 94.6089 17.9569 94.5785 18.3825C94.5482 18.8082 94.4389 19.2709 94.2506 19.7708C94.0624 20.2707 93.7892 20.7651 93.4311 21.2541C92.9562 21.9154 92.427 22.4802 91.8436 22.9484C91.2621 23.4124 90.6577 23.7265 90.0305 23.8906C89.4032 24.0548 88.8357 24.0235 88.328 23.7968C87.812 23.5664 87.4774 23.1924 87.3242 22.6748C87.171 22.1573 87.1919 21.5851 87.3869 20.9585C87.5818 20.3318 87.9112 19.6779 88.3751 18.9966ZM89.4044 19.4412C88.7578 20.3304 88.3522 21.1549 88.1876 21.9149C88.0229 22.6749 88.1528 23.1496 88.5773 23.3391C88.9061 23.4859 89.2867 23.4662 89.7192 23.28C90.1558 23.0957 90.6103 22.782 91.0826 22.3391C91.559 21.898 92.0201 21.3627 92.4659 20.7332C93.0999 19.8385 93.4928 19.0257 93.6444 18.2949C93.8002 17.5659 93.6659 17.1066 93.2414 16.9171C92.921 16.774 92.5422 16.7896 92.1051 16.9637C91.6722 17.1398 91.2203 17.4421 90.7494 17.8707C90.2827 18.3011 89.8344 18.8246 89.4044 19.4412Z" fill="#A78545"/>
<path d="M99.6991 24.5454C99.9092 24.7204 99.9337 25.0434 99.7727 25.5143C99.6094 25.9951 99.3128 26.5398 98.8828 27.1485C98.5969 27.5628 98.3501 27.9088 98.1424 28.1866C97.9382 28.4673 97.7504 28.7141 97.5788 28.9271C97.4108 29.143 97.2349 29.3613 97.0511 29.5819C97.4199 29.5095 97.8301 29.3945 98.2817 29.2369C98.7333 29.0793 99.1625 28.8882 99.5691 28.6635C99.9758 28.4388 100.296 28.1864 100.529 27.9063C100.871 27.4966 101.095 27.0491 101.203 26.5636C101.545 26.3383 101.845 26.3336 102.105 26.5495C102.413 26.8062 102.336 27.2111 101.875 27.7643C101.231 28.5381 100.193 29.1713 98.7623 29.664C98.0469 29.9103 97.3345 30.0997 96.625 30.2322C95.916 30.3712 95.2488 30.4529 94.6233 30.4775C93.9978 30.5021 93.4513 30.4709 92.9839 30.384C92.5165 30.2971 92.1655 30.156 91.931 29.9605C91.7489 29.8088 91.6333 29.6414 91.5843 29.4582C91.5353 29.2749 91.5603 29.1238 91.6595 29.0048C91.8462 28.7807 92.0551 28.6937 92.2862 28.7439C92.3644 28.9633 92.5611 29.2042 92.8762 29.4668C93.4609 29.9539 94.2247 30.0624 95.1676 29.7921C95.5241 29.6917 95.9956 29.2896 96.5819 28.5859C96.8678 28.2428 97.1434 27.8941 97.4089 27.5399C97.6744 27.1857 97.9331 26.811 98.1851 26.416C98.3298 26.1925 98.4535 25.9693 98.5562 25.7464C98.6623 25.5264 98.7303 25.3309 98.76 25.1599C98.7898 24.989 98.7609 24.867 98.6734 24.7941C98.6103 24.7416 98.4662 24.7223 98.241 24.7364C98.0157 24.7504 97.8302 24.7737 97.6843 24.8064C97.6703 24.7948 97.6718 24.7396 97.6887 24.641C97.7056 24.5424 97.7257 24.4791 97.7491 24.4511C97.8138 24.4161 97.9326 24.3874 98.1053 24.3653C98.2815 24.346 98.4764 24.3363 98.6899 24.3363C98.9035 24.3363 99.1025 24.3538 99.2869 24.3888C99.4742 24.4203 99.6116 24.4725 99.6991 24.5454Z" fill="#A78545"/>
<path d="M106.281 31.2812C106.547 31.6051 106.656 31.9072 106.61 32.1876C106.563 32.4679 106.441 32.6891 106.244 32.8512C105.934 33.1058 105.497 33.1991 104.934 33.131C104.56 33.0847 104.201 32.9994 103.857 32.8751C103.516 32.7479 103.216 32.602 102.957 32.4374C102.698 32.2728 102.505 32.1131 102.378 31.9581C102.354 31.93 102.22 32.0172 101.973 32.2197C101.656 32.4801 101.466 32.7399 101.401 32.9991C101.337 33.2584 101.392 33.4936 101.566 33.7049C101.638 33.7929 101.749 33.8783 101.9 33.961C102.05 34.0437 102.181 34.0954 102.293 34.116C102.41 34.1372 102.474 34.1499 102.483 34.154C102.493 34.1582 102.515 34.1636 102.55 34.1703C102.588 34.174 102.704 34.1853 102.896 34.2041L102.954 34.2098C102.965 34.2239 102.954 34.2778 102.919 34.3715C102.883 34.4652 102.852 34.5236 102.824 34.5467C102.659 34.576 102.431 34.5747 102.139 34.5429C101.854 34.5118 101.569 34.4451 101.285 34.3428C101.003 34.2376 100.783 34.0881 100.624 33.8945C100.323 33.5283 100.236 33.1312 100.362 32.7032C100.488 32.2752 100.801 31.8557 101.301 31.4448C101.639 31.1671 102.044 30.9525 102.515 30.8011C102.99 30.6468 103.474 30.5614 103.968 30.545C104.462 30.5285 104.915 30.5809 105.327 30.7022C105.743 30.8206 106.061 31.0136 106.281 31.2812ZM105.761 31.5314C105.625 31.366 105.422 31.2587 105.151 31.2095C104.881 31.1604 104.59 31.1514 104.28 31.1826C103.969 31.2137 103.678 31.2727 103.407 31.3595C103.143 31.447 102.946 31.5442 102.816 31.6513C102.787 31.6744 102.785 31.7001 102.808 31.7283C102.912 31.855 103.084 31.9706 103.323 32.0749C103.566 32.1763 103.833 32.2511 104.127 32.2992C104.42 32.3473 104.704 32.3557 104.979 32.3243C105.258 32.2901 105.485 32.2006 105.661 32.0559C105.872 31.8823 105.905 31.7075 105.761 31.5314Z" fill="#A78545"/>
<path d="M109.272 36.1216C109.335 36.2534 109.324 36.3847 109.24 36.5154C109.155 36.6461 109.019 36.7564 108.829 36.8462C108.648 36.9321 108.418 37.0108 108.139 37.0824L106.897 37.3988C107.074 37.4107 107.415 37.4688 107.918 37.5732C108.249 37.6433 108.599 37.7393 108.97 37.8613C109.346 37.9854 109.68 38.1249 109.97 38.2798C110.262 38.4388 110.448 38.6007 110.526 38.7654C110.721 39.1772 110.547 39.512 110.003 39.7696C109.62 39.9512 109.144 40.1063 108.574 40.235L106.479 40.7292C106.368 40.7513 106.259 40.7878 106.152 40.8385C105.946 40.9361 105.863 41.0261 105.902 41.1085C105.951 41.2114 106.081 41.3008 106.294 41.3766C106.51 41.4505 106.695 41.5145 106.846 41.5686L106.968 41.6017C106.976 41.6182 106.951 41.6676 106.895 41.75C106.838 41.8324 106.793 41.8814 106.76 41.897C106.607 41.8836 106.394 41.8282 106.121 41.7307C105.85 41.6374 105.592 41.5178 105.346 41.372C105.105 41.2242 104.943 41.0639 104.861 40.8909C104.798 40.7591 104.809 40.6279 104.894 40.4971C104.978 40.3664 105.115 40.2561 105.304 40.1663C105.428 40.1078 105.66 40.0331 106 39.9424L108.243 39.4086C108.551 39.3335 108.787 39.2569 108.951 39.1788C109.306 39.0109 109.446 38.8487 109.371 38.6923C109.307 38.5564 109.117 38.4219 108.802 38.2889C108.491 38.1539 108.107 38.0409 107.65 37.9498C107.195 37.8628 106.712 37.8169 106.201 37.8123C105.693 37.8057 105.21 37.8608 104.751 37.9776L103.688 38.2243C103.602 38.1288 103.525 38.0089 103.457 37.8648C103.39 37.7248 103.34 37.5769 103.307 37.4213L107.457 36.3465C107.761 36.253 107.936 36.1955 107.981 36.174C108.187 36.0764 108.27 35.9864 108.231 35.9041C108.198 35.8341 108.082 35.7603 107.884 35.6827C107.787 35.6481 107.681 35.6102 107.566 35.569C107.452 35.532 107.373 35.5089 107.328 35.4998C107.321 35.4834 107.345 35.4339 107.402 35.3515C107.459 35.2692 107.504 35.2202 107.536 35.2045C107.679 35.2177 107.873 35.2718 108.12 35.3666C108.371 35.4595 108.609 35.5736 108.835 35.7088C109.06 35.844 109.206 35.9816 109.272 36.1216Z" fill="#A78545"/>
</svg>
