<svg width="123" height="51" viewBox="0 0 123 51" fill="none" xmlns="http://www.w3.org/2000/svg">
<path d="M14.0407 36.2845C14.3514 35.8456 14.7448 35.6132 15.221 35.5873C15.6971 35.5615 16.203 35.7381 16.7386 36.1173C17.1218 36.3885 17.4504 36.7328 17.7244 37.1502C17.9948 37.5649 18.1988 38.0024 18.3363 38.4628C18.4739 38.9231 18.533 39.3641 18.5136 39.7859C18.4942 40.2077 18.3844 40.5599 18.1843 40.8426C17.8683 41.289 17.4824 41.5266 17.0263 41.5556C16.5703 41.5845 16.0745 41.4094 15.5389 41.0303C15.152 40.7564 14.8203 40.4127 14.5435 39.999C14.2657 39.579 14.0562 39.1376 13.9149 38.6746C13.7699 38.209 13.7039 37.7659 13.717 37.3452C13.7326 36.9208 13.8405 36.5672 14.0407 36.2845ZM14.4034 36.7423C14.2717 36.9283 14.2258 37.1666 14.2658 37.4573C14.3019 37.7453 14.4002 38.0522 14.5605 38.3778C14.7208 38.7035 14.9264 39.0165 15.1772 39.3169C15.428 39.6173 15.7003 39.8715 15.9942 40.0795C16.4256 40.3849 16.8091 40.5531 17.1446 40.584C17.4801 40.6149 17.7215 40.5262 17.869 40.3179C18.0007 40.1319 18.0458 39.8986 18.0043 39.618C17.9618 39.3311 17.8577 39.0285 17.6921 38.7102C17.5228 38.3894 17.3101 38.0825 17.0541 37.7895C16.8006 37.4929 16.5251 37.2392 16.2276 37.0286C15.7886 36.7179 15.4118 36.5404 15.0969 36.4962C14.782 36.452 14.5508 36.534 14.4034 36.7423Z" fill="#A78545"/>
<path d="M19.1688 30.4412C19.2735 30.3397 19.4013 30.3079 19.5522 30.3458C19.7031 30.3836 19.8514 30.4779 19.9973 30.6285C20.1273 30.7627 20.2757 30.9552 20.4425 31.206L21.6031 32.994C21.8456 33.3491 22.0192 33.5807 22.1238 33.6888C22.3014 33.8721 22.4576 33.9745 22.5927 33.996C22.7277 34.0175 22.8705 33.9553 23.0211 33.8095C23.1422 33.6922 23.2225 33.5065 23.262 33.2525C23.3015 32.9986 23.3062 32.7086 23.2759 32.3826C23.2457 32.0566 23.1865 31.7269 23.0984 31.3935C23.0104 31.0537 22.9009 30.741 22.7701 30.4553C22.6394 30.1696 22.4931 29.9432 22.3314 29.7763C22.2014 29.642 22.0113 29.5407 21.761 29.4722C21.5107 29.4038 21.3491 29.3319 21.2762 29.2566C21.162 29.1388 21.1014 28.9976 21.0944 28.8331C21.0874 28.6686 21.1395 28.5325 21.2508 28.4247C21.3785 28.301 21.5086 28.2258 21.6412 28.1989C21.8977 28.2803 22.1274 28.4258 22.3303 28.6353C22.8566 29.1788 23.2432 29.8956 23.49 30.7858C23.6546 31.375 23.7487 31.9406 23.7723 32.4824C23.7991 33.021 23.7642 33.4926 23.6675 33.8972C23.574 34.2985 23.4307 34.5928 23.2376 34.7798C23.015 34.9954 22.7605 35.0864 22.4742 35.0528C22.1879 35.0192 21.9211 34.8748 21.6738 34.6194C21.5026 34.4427 21.3762 34.2859 21.2946 34.1493L19.9545 32.0974C19.8606 31.9219 19.7534 31.7719 19.6329 31.6475C19.4744 31.4838 19.3624 31.4337 19.2969 31.4971C19.2576 31.5352 19.2306 31.6121 19.2159 31.7279C19.2011 31.8436 19.1927 31.966 19.1907 32.0949C19.1887 32.2173 19.1904 32.3108 19.1959 32.3753L19.2038 32.4818C19.1907 32.4945 19.1361 32.4872 19.0398 32.4599C18.9436 32.4325 18.8827 32.4058 18.8574 32.3796C18.8242 32.2405 18.8129 32.0389 18.8235 31.7748C18.831 31.5074 18.8626 31.2452 18.9183 30.9883C18.974 30.7313 19.0575 30.549 19.1688 30.4412Z" fill="#A78545"/>
<path d="M27.1445 24.0002C27.4884 23.7605 27.7983 23.6751 28.0741 23.7439C28.3498 23.8128 28.5607 23.9519 28.7066 24.1613C28.9359 24.4903 28.9944 24.9328 28.8821 25.4889C28.8063 25.8583 28.6928 26.2096 28.5417 26.5427C28.388 26.8721 28.2188 27.1594 28.0343 27.4047C27.8498 27.65 27.6752 27.83 27.5107 27.9447C27.4808 27.9655 27.5571 28.1068 27.7395 28.3685C27.974 28.705 28.218 28.9155 28.4713 29C28.7246 29.0845 28.9635 29.0485 29.1878 28.8922C29.2813 28.827 29.3752 28.7227 29.4695 28.5791C29.5639 28.4356 29.6258 28.3091 29.6551 28.1998C29.6856 28.0841 29.7032 28.0218 29.7081 28.0129C29.713 28.0039 29.7201 27.9823 29.7295 27.9479C29.7363 27.9099 29.7567 27.7957 29.7907 27.6053L29.8009 27.5482C29.8158 27.5378 29.8686 27.5538 29.9593 27.5961C30.0499 27.6385 30.1057 27.6747 30.1265 27.7046C30.1426 27.8711 30.1233 28.0984 30.0686 28.3866C30.015 28.6683 29.926 28.947 29.8015 29.2227C29.6744 29.4946 29.508 29.7022 29.3024 29.8456C28.9136 30.1166 28.5108 30.1724 28.0941 30.0129C27.6774 29.8534 27.284 29.5082 26.9139 28.9773C26.6638 28.6184 26.4818 28.198 26.3682 27.7161C26.2519 27.2306 26.2051 26.741 26.2277 26.2475C26.2504 25.754 26.3384 25.3065 26.4919 24.9051C26.6428 24.4999 26.8603 24.1983 27.1445 24.0002ZM27.3528 24.5383C27.1771 24.6608 27.0541 24.8548 26.9838 25.1205C26.9134 25.3862 26.8815 25.6751 26.8879 25.9873C26.8944 26.2994 26.9302 26.5938 26.9954 26.8706C27.0617 27.1411 27.143 27.3454 27.2395 27.4838C27.2603 27.5137 27.2857 27.5182 27.3156 27.4974C27.4502 27.4036 27.579 27.2416 27.7019 27.0115C27.8222 26.7776 27.9179 26.5165 27.989 26.228C28.0602 25.9396 28.091 25.657 28.0814 25.3803C28.0693 25.0999 27.9981 24.8662 27.8678 24.6793C27.7114 24.455 27.5398 24.408 27.3528 24.5383Z" fill="#A78545"/>
<path d="M32.7999 20.7357C32.9303 20.6703 33.0617 20.6784 33.1943 20.7598C33.3268 20.8411 33.4401 20.9756 33.534 21.163C33.6239 21.3422 33.7077 21.5704 33.7854 21.8475L34.1045 22.9722C34.0858 22.6808 34.0896 22.3628 34.1157 22.0184C34.1439 21.6678 34.1905 21.3284 34.2554 21.0002C34.3202 20.672 34.4056 20.3897 34.5113 20.1531C34.6171 19.9166 34.7392 19.7636 34.8777 19.6942C35.1548 19.5553 35.4442 19.5734 35.746 19.7484C36.0196 20.2943 36.0057 20.6428 35.7042 20.794C35.639 20.8266 35.5361 20.8145 35.3954 20.7576C35.2547 20.7006 35.1355 20.6967 35.0377 20.7457C34.9196 20.8049 34.8138 20.9803 34.7203 21.2718C34.6268 21.5634 34.5579 21.9191 34.5135 22.339C34.467 22.7548 34.4542 23.1869 34.475 23.6352C34.4938 24.0795 34.5564 24.484 34.6627 24.8487L35.0738 26.2485C34.9475 26.3424 34.8192 26.422 34.6888 26.4873C34.534 26.5649 34.3771 26.6283 34.2182 26.6773L33.0646 22.5452C32.9644 22.2437 32.9031 22.0705 32.8807 22.0257C32.7786 21.822 32.6868 21.7406 32.6053 21.7814C32.536 21.8161 32.4648 21.9334 32.3916 22.1332C32.3591 22.2311 32.3236 22.3381 32.2849 22.4543C32.2504 22.5685 32.2291 22.648 32.221 22.6928C32.2047 22.701 32.1547 22.6776 32.0711 22.6227C31.9875 22.5677 31.9375 22.5239 31.9212 22.4914C31.9312 22.3487 31.981 22.153 32.0704 21.9042C32.1578 21.6514 32.2666 21.4108 32.3968 21.1824C32.527 20.954 32.6614 20.8051 32.7999 20.7357Z" fill="#A78545"/>
<path d="M48.7058 16.1702C49.089 16.088 49.4441 16.1027 49.771 16.2143C50.1014 16.3206 50.3806 16.503 50.6086 16.7617C50.841 17.0195 50.9969 17.3333 51.0762 17.7032C51.1823 18.1978 51.1409 18.7217 50.952 19.2749C50.7621 19.8237 50.463 20.298 50.0547 20.6979C49.6464 21.0978 49.2061 21.3484 48.7338 21.4497C48.1278 21.5797 47.6077 21.4909 47.1734 21.1832C46.7392 20.8755 46.4437 20.3563 46.2869 19.6255C46.2047 19.2423 46.1714 18.837 46.1869 18.4095C46.2024 17.982 46.2864 17.5049 46.4391 16.978C46.5908 16.4468 46.8141 15.9234 47.1091 15.4081C47.4031 14.8882 47.8151 14.343 48.3453 13.7725C48.8754 13.202 49.4953 12.6589 50.205 12.1431C50.2763 12.1278 50.3358 12.2315 50.3836 12.4543C49.5976 13.0051 48.9514 13.6215 48.4452 14.3034C47.9389 14.9853 47.5923 15.8031 47.4054 16.7568C47.2112 17.7633 47.2044 18.6876 47.385 19.5298C47.4806 19.9753 47.6505 20.3328 47.8947 20.602C48.1389 20.8712 48.4437 20.9666 48.8091 20.8882C49.0764 20.8309 49.3209 20.6666 49.5423 20.3953C49.7673 20.1187 49.9292 19.7763 50.0281 19.3682C50.1305 18.9548 50.132 18.5163 50.0326 18.0529C49.937 17.6073 49.7549 17.2688 49.4862 17.0375C49.2175 16.8062 48.8648 16.7373 48.4281 16.831C48.3791 16.8415 48.3049 16.8761 48.2056 16.9347C48.1054 16.9888 48.0101 17.0442 47.9197 17.1009C47.8328 17.1521 47.7804 17.1797 47.7626 17.1835C47.7015 17.1593 47.6614 17.1027 47.6423 17.0136C47.6203 16.9111 47.6733 16.7995 47.8012 16.6789C47.9291 16.5582 48.0809 16.451 48.2566 16.3574C48.4313 16.2594 48.581 16.1969 48.7058 16.1702Z" fill="#A78545"/>
<path d="M53.9717 22.4313C53.9691 22.4041 54.0654 22.2872 54.2608 22.0807C54.4561 21.8743 54.6487 21.6154 54.8386 21.3042C55.0284 20.9929 55.1103 20.7012 55.0842 20.429C55.0693 20.2748 55.022 20.0916 54.9421 19.8795C54.8622 19.6675 54.8197 19.5342 54.8144 19.4798C54.7926 19.2529 54.8869 19.0424 55.0971 18.8483C55.3074 18.6541 55.5441 18.5444 55.8072 18.5191C55.8707 18.513 55.9723 18.5216 56.1118 18.5448C56.1447 18.6011 56.1684 18.7042 56.1827 18.8539C56.201 19.0444 56.1803 19.3531 56.1206 19.7801C56.0768 20.0865 55.9851 20.3951 55.8456 20.7061C55.7061 21.0171 55.5465 21.2865 55.367 21.5144C54.9828 21.9954 54.6631 22.3374 54.4079 22.5405L54.2428 22.6799C54.2065 22.6834 54.1538 22.6587 54.0846 22.6059C54.0154 22.553 53.9778 22.4948 53.9717 22.4313Z" fill="#A78545"/>
<path d="M60.7928 15.6697C60.9709 14.867 61.2361 14.1415 61.5884 13.4932C61.9454 12.8405 62.3815 12.3172 62.8966 11.9234C63.4117 11.5296 63.9517 11.3392 64.5167 11.3523C64.9449 11.3622 65.3112 11.4892 65.6156 11.7333C65.9199 11.9774 66.1403 12.3016 66.2768 12.7059C66.4134 13.1102 66.4914 13.5792 66.511 14.113C66.5305 14.6468 66.4697 15.2084 66.3284 15.7977C66.146 16.5912 65.8762 17.3167 65.5191 17.9739C65.1621 18.6267 64.7261 19.1499 64.211 19.5437C63.6959 19.9375 63.1604 20.128 62.6046 20.1151C62.0396 20.1021 61.5865 19.8865 61.2451 19.4683C60.9038 19.0501 60.7019 18.5144 60.6396 17.8611C60.5772 17.2078 60.6283 16.4773 60.7928 15.6697ZM61.9139 15.682C61.6612 16.7519 61.6058 17.6692 61.7477 18.4337C61.8896 19.1983 62.1929 19.5859 62.6576 19.5967C63.0175 19.605 63.361 19.4397 63.6879 19.1008C64.0194 18.7621 64.3173 18.2972 64.5817 17.7061C64.8506 17.1152 65.069 16.4433 65.2369 15.6904C65.4759 14.6202 65.5241 13.7187 65.3815 12.986C65.2434 12.2535 64.942 11.8818 64.4773 11.8711C64.1265 11.863 63.7832 12.0237 63.4473 12.3533C63.1161 12.6829 62.8161 13.1364 62.5475 13.7137C62.2834 14.2911 62.0722 14.9472 61.9139 15.682Z" fill="#A78545"/>
<path d="M69.3736 16.1975C69.661 15.4271 70.0239 14.7452 70.4625 14.1518C70.9063 13.5547 71.4104 13.0967 71.975 12.7779C72.5396 12.4591 73.1008 12.3452 73.6585 12.4362C74.0813 12.5052 74.4265 12.6816 74.6942 12.9654C74.9619 13.2492 75.1354 13.6008 75.2147 14.0201C75.294 14.4394 75.3065 14.9147 75.2521 15.4461C75.1977 15.9775 75.0598 16.5252 74.8384 17.0894C74.5481 17.8501 74.1806 18.5312 73.7361 19.1329C73.2923 19.73 72.7881 20.188 72.2236 20.5068C71.659 20.8256 71.1023 20.9402 70.5536 20.8507C69.9959 20.7596 69.5769 20.4835 69.2966 20.0221C69.0163 19.5608 68.8905 19.0023 68.919 18.3467C68.9475 17.691 69.099 16.9746 69.3736 16.1975ZM70.4823 16.3646C70.0842 17.3894 69.9025 18.2902 69.9373 19.067C69.9722 19.8438 70.219 20.2697 70.6778 20.3445C71.0331 20.4025 71.3961 20.2863 71.7667 19.9958C72.1418 19.7061 72.5012 19.2869 72.8447 18.738C73.1927 18.1899 73.5019 17.5547 73.7722 16.8323C74.1568 15.8053 74.3292 14.9191 74.2892 14.1738C74.2537 13.4292 74.0066 13.0195 73.5478 12.9446C73.2015 12.8881 72.8392 12.9998 72.4611 13.2798C72.0874 13.5605 71.7277 13.9681 71.3818 14.5028C71.0405 15.0381 70.7406 15.6587 70.4823 16.3646Z" fill="#A78545"/>
<path d="M78.4002 18.0727C78.7987 17.3534 79.2588 16.7329 79.7805 16.2112C80.3079 15.6865 80.8744 15.3084 81.4801 15.0768C82.0857 14.8453 82.6576 14.8159 83.1956 14.9886C83.6035 15.1196 83.9187 15.3453 84.1413 15.6656C84.364 15.986 84.4834 16.3594 84.4997 16.7858C84.5159 17.2122 84.4577 17.6842 84.3251 18.2016C84.1925 18.719 83.9749 19.2403 83.6723 19.7654C83.2722 20.4745 82.8078 21.0937 82.279 21.6227C81.7515 22.1474 81.185 22.5255 80.5794 22.757C79.9737 22.9886 79.4062 23.0194 78.8769 22.8494C78.3388 22.6766 77.9654 22.3414 77.7567 21.8436C77.548 21.3458 77.5063 20.7748 77.6318 20.1306C77.7572 19.4864 78.0134 18.8005 78.4002 18.0727ZM79.4718 18.4024C78.9261 19.3567 78.6128 20.2206 78.532 20.994C78.4512 21.7674 78.6321 22.2252 79.0747 22.3673C79.4175 22.4773 79.7937 22.4162 80.2033 22.184C80.6173 21.9531 81.0349 21.5918 81.456 21.1C81.8815 20.6096 82.2815 20.0272 82.6559 19.3529C83.1887 18.3943 83.4905 17.5435 83.5616 16.8005C83.637 16.0589 83.4533 15.617 83.0108 15.4749C82.6766 15.3677 82.3018 15.4244 81.8863 15.6452C81.4751 15.8674 81.0589 16.2172 80.6376 16.6946C80.2206 17.1734 79.832 17.7426 79.4718 18.4024Z" fill="#A78545"/>
<path d="M95.3204 24.1694C95.5469 24.3226 95.6035 24.6416 95.4903 25.1262C95.3757 25.6209 95.1348 26.1924 94.7676 26.8409C94.5244 27.2816 94.3134 27.6506 94.1344 27.9476C93.9592 28.2473 93.7968 28.5116 93.6474 28.7406C93.5017 28.9722 93.3484 29.2069 93.1876 29.4447C93.5473 29.3359 93.944 29.1806 94.3776 28.9788C94.8113 28.777 95.2192 28.5441 95.6015 28.28C95.9838 28.0159 96.277 27.7328 96.4813 27.4308C96.7801 26.9892 96.959 26.5215 97.018 26.0277C97.3357 25.7695 97.6343 25.7348 97.9136 25.9238C98.2458 26.1485 98.2101 26.5591 97.8066 27.1555C97.2422 27.9897 96.2728 28.7231 94.8983 29.3559C94.2111 29.6723 93.5211 29.9317 92.8283 30.1343C92.1368 30.3432 91.481 30.4911 90.861 30.5779C90.2411 30.6646 89.6943 30.6881 89.2205 30.6482C88.7468 30.6083 88.3835 30.5028 88.1306 30.3317C87.9343 30.199 87.8027 30.0439 87.7356 29.8664C87.6686 29.689 87.6784 29.5361 87.7653 29.4078C87.9287 29.1662 88.1279 29.0589 88.3628 29.0858C88.4625 29.2963 88.6822 29.5164 89.0219 29.7463C89.6523 30.1727 90.4231 30.2045 91.3344 29.8416C91.6791 29.7062 92.1081 29.2591 92.6214 28.5005C92.8717 28.1305 93.1112 27.7561 93.34 27.3772C93.5689 26.9983 93.789 26.5998 94.0004 26.1816C94.1221 25.9448 94.2229 25.7103 94.3029 25.4783C94.3866 25.2488 94.4347 25.0476 94.4473 24.8745C94.4598 24.7014 94.4189 24.5829 94.3246 24.5191C94.2566 24.4731 94.1113 24.4683 93.8886 24.5047C93.6659 24.5412 93.4836 24.5829 93.3417 24.63C93.3266 24.6197 93.3225 24.5647 93.3295 24.4649C93.3365 24.3651 93.3502 24.3001 93.3707 24.2699C93.4316 24.2286 93.5469 24.1883 93.7166 24.149C93.89 24.1123 94.0829 24.0833 94.2954 24.062C94.5079 24.0407 94.7077 24.0382 94.8946 24.0547C95.0841 24.0673 95.2261 24.1056 95.3204 24.1694Z" fill="#A78545"/>
<path d="M103.809 31.1499C104.111 31.4404 104.256 31.7277 104.242 32.0116C104.228 32.2955 104.133 32.5294 103.956 32.7134C103.678 33.0025 103.255 33.1462 102.688 33.1444C102.311 33.1422 101.944 33.0994 101.588 33.0162C101.235 32.9296 100.92 32.8198 100.644 32.6866C100.367 32.5535 100.156 32.4174 100.012 32.2784C99.9856 32.2532 99.862 32.3555 99.6409 32.5855C99.3566 32.8812 99.1977 33.1615 99.1643 33.4264C99.1308 33.6914 99.2126 33.9186 99.4097 34.1081C99.4918 34.1871 99.6125 34.2588 99.7717 34.3234C99.9309 34.388 100.067 34.424 100.18 34.4314C100.299 34.4387 100.364 34.4439 100.374 34.4469C100.383 34.45 100.406 34.4528 100.441 34.4553C100.48 34.4545 100.596 34.4522 100.789 34.4484L100.847 34.4473C100.861 34.4599 100.855 34.5148 100.831 34.612C100.807 34.7092 100.783 34.7709 100.758 34.7972C100.597 34.8454 100.371 34.8708 100.077 34.8734C99.7906 34.8758 99.4999 34.8428 99.2053 34.7745C98.9138 34.7029 98.6777 34.5802 98.497 34.4065C98.1553 34.078 98.0221 33.6938 98.0972 33.254C98.1724 32.8142 98.4342 32.361 98.8827 31.8945C99.186 31.5792 99.5628 31.3187 100.013 31.1133C100.467 30.9045 100.938 30.7631 101.426 30.689C101.915 30.615 102.371 30.6141 102.794 30.6863C103.221 30.7553 103.559 30.9098 103.809 31.1499ZM103.322 31.4592C103.168 31.3107 102.953 31.2279 102.679 31.2107C102.405 31.1936 102.115 31.2186 101.81 31.2858C101.505 31.3531 101.224 31.4456 100.965 31.5635C100.713 31.6813 100.528 31.801 100.411 31.9225C100.386 31.9488 100.386 31.9746 100.413 31.9998C100.531 32.1135 100.715 32.2082 100.964 32.2839C101.217 32.3563 101.492 32.3992 101.789 32.4127C102.086 32.4262 102.369 32.4013 102.638 32.338C102.911 32.2714 103.126 32.156 103.284 31.9917C103.474 31.7946 103.486 31.6171 103.322 31.4592Z" fill="#A78545"/>
<path d="M108.312 36.4498C108.397 36.5685 108.409 36.6996 108.349 36.8432C108.29 36.9867 108.174 37.1194 108.004 37.2412C107.84 37.3577 107.628 37.4757 107.366 37.5954L106.199 38.1258C106.376 38.1063 106.721 38.1035 107.235 38.1174C107.573 38.1281 107.935 38.1608 108.321 38.2155C108.714 38.2713 109.067 38.3498 109.38 38.4511C109.695 38.5561 109.906 38.6828 110.012 38.8311C110.277 39.2021 110.164 39.5623 109.675 39.9118C109.33 40.158 108.888 40.3947 108.351 40.6218L106.375 41.4778C106.27 41.519 106.169 41.5741 106.073 41.6429C105.887 41.7753 105.821 41.8786 105.874 41.9528C105.94 42.0455 106.084 42.1105 106.307 42.1476C106.533 42.1821 106.726 42.2127 106.885 42.2392L107.01 42.2504C107.021 42.2652 107.005 42.3182 106.964 42.4093C106.923 42.5004 106.887 42.5565 106.858 42.5777C106.705 42.5915 106.486 42.5744 106.2 42.5267C105.916 42.4826 105.641 42.4104 105.373 42.3102C105.109 42.2074 104.922 42.078 104.811 41.9222C104.726 41.8036 104.714 41.6724 104.773 41.5289C104.833 41.3853 104.949 41.2527 105.119 41.1309C105.231 41.0514 105.446 40.9371 105.765 40.7878L107.879 39.8667C108.168 39.7386 108.387 39.6216 108.535 39.5157C108.854 39.288 108.963 39.1036 108.863 38.9627C108.776 38.8403 108.565 38.7414 108.231 38.6661C107.901 38.5881 107.503 38.5445 107.038 38.5353C106.575 38.5299 106.091 38.57 105.587 38.6557C105.086 38.7387 104.62 38.8781 104.189 39.074L103.186 39.5044C103.084 39.4254 102.988 39.321 102.895 39.1912C102.805 39.065 102.73 38.9283 102.669 38.781L106.565 36.9912C106.848 36.8456 107.009 36.7582 107.05 36.7291C107.236 36.5967 107.302 36.4934 107.249 36.4192C107.204 36.3562 107.077 36.3039 106.868 36.2626C106.767 36.2456 106.655 36.227 106.535 36.2068C106.416 36.1904 106.335 36.1816 106.289 36.1805C106.279 36.1657 106.294 36.1127 106.335 36.0216C106.377 35.9305 106.412 35.8743 106.442 35.8532C106.584 35.841 106.785 35.8599 107.045 35.9098C107.308 35.957 107.563 36.0273 107.809 36.1206C108.054 36.2139 108.222 36.3237 108.312 36.4498Z" fill="#A78545"/>
</svg>
