<svg width="197" height="143" viewBox="0 0 197 143" fill="none" xmlns="http://www.w3.org/2000/svg">
<g clip-path="url(#clip0_46_5670)">
<path d="M195.387 58.9827C181.969 36.1194 159.563 24.7309 135.459 24.7309C133.653 24.7309 131.847 24.8171 130.04 24.9466C129.825 23.4367 129.352 21.97 128.578 20.6111C115.161 -2.23061 92.7551 -13.6191 68.6508 -13.6191C44.5464 -13.6191 22.1408 -2.23061 8.72327 20.6327C7.92767 21.97 7.45462 23.4583 7.26109 24.9681C5.47639 24.8387 3.67018 24.7524 1.84247 24.7524C-22.2618 24.7524 -44.6675 36.141 -58.085 59.0043C-61.0094 64.0083 -59.8482 70.7811 -55.4617 74.1243C-53.2255 75.8283 -32.6691 90.5384 -21.5523 97.2249C-16.9077 100.007 -11.7686 101.474 -6.52201 101.474H7.15359C7.36861 104.688 8.78777 107.772 11.3251 109.713C13.5613 111.417 34.1177 126.128 45.2345 132.814C49.8791 135.596 55.0182 137.063 60.2648 137.063H77.0152C82.1973 137.063 87.3149 135.64 91.9165 132.922C102.603 126.559 122.149 112.604 125.912 109.735C128.449 107.794 129.868 104.709 130.083 101.496H143.824C149.006 101.496 154.123 100.072 158.725 97.3543C169.412 90.9914 188.957 77.0361 192.72 74.1674C197.107 70.8242 198.289 64.0515 195.344 59.0474L195.387 58.9827ZM14.0774 27.4486C26.2478 6.67746 46.6537 -5.72482 68.6508 -5.72482C90.6478 -5.72482 111.032 6.67746 123.224 27.4486L123.74 28.3113L118.58 31.3526L118.085 30.4898C106.99 11.5737 88.5191 0.271412 68.6723 0.271412C48.8255 0.271412 30.3548 11.5737 19.2595 30.4898L18.7649 31.3526L13.6043 28.3113L14.1204 27.4486H14.0774ZM68.6508 33.4448C59.7057 33.4448 51.3843 38.5783 46.4387 47.206L45.9441 48.0687L40.762 45.0706L41.2566 44.2078C47.2988 33.7036 57.534 27.4486 68.6508 27.4486C79.7676 27.4486 90.0243 33.7252 96.045 44.2078L96.5395 45.0706L91.3574 48.0687L90.8629 47.206C85.9388 38.5998 77.6388 33.4448 68.6723 33.4448H68.6508ZM82.7994 53.3532L77.6173 56.3513L77.1228 55.4885C75.2305 52.1669 72.0482 50.1825 68.6508 50.1825C65.2534 50.1825 62.071 52.1669 60.1573 55.4885L59.6627 56.3513L54.4806 53.3532L54.9752 52.4904C57.964 47.2922 63.0816 44.1863 68.6508 44.1863C74.2199 44.1863 79.3375 47.2922 82.3049 52.512L82.7994 53.3747V53.3532ZM68.6508 16.7287C54.2226 16.7287 40.7835 24.9681 32.6986 38.7724L32.204 39.6352L27.0434 36.5939L27.5595 35.7311C36.741 20.0719 52.1153 10.7325 68.6723 10.7325C85.2292 10.7325 100.603 20.0719 109.764 35.7311L110.28 36.5939L105.119 39.6352L104.624 38.7724C96.5395 24.9681 83.1004 16.7287 68.6938 16.7287H68.6508ZM-48.0649 69.7026L-53.2255 66.6614L-52.7094 65.7986C-40.539 45.0275 -20.1331 32.6252 1.86396 32.6252C23.861 32.6252 44.2454 45.0275 56.4373 65.7986L56.9534 66.6614L51.7928 69.7026L51.2982 68.8398C40.2029 49.9237 21.7323 38.643 1.88547 38.643C-17.9613 38.643 -36.432 49.9452 -47.5273 68.8398L-48.0219 69.7026H-48.0649ZM10.809 94.7013L10.3145 93.8385C8.42224 90.5169 5.23986 88.5325 1.84247 88.5325C-1.55493 88.5325 -4.7373 90.5169 -6.65103 93.8385L-7.14558 94.7013L-12.3277 91.7032L-11.8331 90.8404C-8.84428 85.6422 -3.72668 82.5363 1.84247 82.5363C7.41161 82.5363 12.5292 85.6422 15.4966 90.862L15.9911 91.7247L10.809 94.7229V94.7013ZM77.6173 130.29L77.1228 129.428C75.2305 126.106 72.0482 124.122 68.6508 124.122C65.2534 124.122 62.071 126.106 60.1573 129.428L59.6627 130.29L54.4806 127.292L54.9752 126.43C57.964 121.231 63.0816 118.125 68.6508 118.125C74.2199 118.125 79.316 121.231 82.3049 126.451L82.7994 127.314L77.6173 130.312V130.29ZM91.3359 122.008L90.8414 121.145C85.9173 112.539 77.6173 107.406 68.6508 107.406C59.6842 107.406 51.3843 112.539 46.4387 121.167L45.9441 122.029L40.762 119.031L41.2566 118.169C47.2988 107.664 57.534 101.409 68.6508 101.409C79.7676 101.409 90.0243 107.686 96.045 118.169L96.5395 119.031L91.3574 122.029L91.3359 122.008ZM105.098 113.574L104.603 112.712C96.518 98.9073 83.0789 90.6894 68.6723 90.6894C54.2656 90.6894 40.805 98.9288 32.7201 112.712L32.2255 113.574L27.0649 110.533L27.581 109.67C36.7625 94.0111 52.1368 84.6716 68.6938 84.6716C85.2507 84.6716 100.625 94.0111 109.785 109.67L110.301 110.533L105.141 113.574H105.098ZM144.426 94.7013L143.931 93.8385C142.039 90.5169 138.856 88.5325 135.459 88.5325C132.062 88.5325 128.901 90.5169 126.966 93.8385L126.471 94.7013L121.289 91.7032L121.783 90.8404C124.772 85.6422 129.89 82.5363 135.459 82.5363C141.028 82.5363 146.146 85.6422 149.113 90.862L149.608 91.7247L144.426 94.7229V94.7013ZM171.906 77.9852L171.411 77.1224C163.326 63.3181 149.887 55.0787 135.481 55.0787C121.074 55.0787 107.699 63.275 99.5929 76.9714C102.474 78.7185 105.205 80.7245 107.828 82.9461L108.065 82.5363C114.107 72.0321 124.342 65.777 135.459 65.777C146.576 65.777 156.833 72.0536 162.832 82.5363L163.326 83.399L158.144 86.3971L157.65 85.5344C152.726 76.9283 144.426 71.7732 135.459 71.7732C126.493 71.7732 118.193 76.9067 113.247 85.5344L112.752 86.3971L109.893 84.7363C114.989 89.4168 119.504 94.9817 123.224 101.366L123.74 102.229L118.58 105.27L118.085 104.407C106.99 85.4912 88.5191 74.2106 68.6723 74.2106C48.8255 74.2106 30.3548 85.5128 19.2595 104.407L18.7649 105.27L13.6043 102.229L14.1204 101.366C17.8618 94.9817 22.3989 89.3953 27.495 84.7148L24.5706 86.3971L24.0761 85.5344C19.152 76.9283 10.852 71.7732 1.88547 71.7732C-7.08108 71.7732 -15.381 76.9067 -20.3266 85.5344L-20.8212 86.3971L-26.0033 83.399L-25.5087 82.5363C-19.4665 72.0321 -9.23133 65.777 1.88547 65.777C13.0023 65.777 23.259 72.0536 29.2797 82.5363L29.5162 82.9676C32.1395 80.746 34.8703 78.7401 37.7517 76.993C29.6452 63.275 16.2491 55.0787 1.88547 55.0787C-12.4782 55.0787 -25.9818 63.3181 -34.0667 77.1224L-34.5613 77.9852L-39.7219 74.9439L-39.2058 74.0811C-30.0243 58.4219 -14.65 49.0825 1.90697 49.0825C18.4639 49.0825 33.8382 58.4219 42.9983 74.0811L43.0413 74.1674C51.0402 70.3065 59.7272 68.2143 68.6938 68.2143C77.6603 68.2143 86.3473 70.3065 94.3248 74.1459L94.3678 74.0811C103.549 58.4219 118.924 49.0825 135.481 49.0825C152.037 49.0825 167.39 58.4219 176.572 74.0811L177.088 74.9439L171.927 77.9852H171.906ZM185.366 69.7026L184.872 68.8398C173.777 49.9237 155.306 38.643 135.459 38.643C115.612 38.643 97.1416 49.9452 86.0463 68.8398L85.5517 69.7026L80.3911 66.6614L80.9072 65.7986C93.0776 45.0275 113.483 32.6252 135.481 32.6252C157.478 32.6252 177.862 45.0275 190.054 65.7986L190.57 66.6614L185.409 69.7026H185.366Z" fill="#F8F3E9"/>
</g>
<defs>
<clipPath id="clip0_46_5670">
<path d="M0 12C0 5.37258 5.37258 0 12 0H197V143H0V12Z" fill="white"/>
</clipPath>
</defs>
</svg>
