<svg width="170" height="171" viewBox="0 0 170 171" fill="none" xmlns="http://www.w3.org/2000/svg">
<path d="M84.9683 0C131.93 0 170 38.07 170 85.0317C170 131.993 131.93 170.063 84.9683 170.063C56.0569 170.063 30.5184 155.635 15.1574 133.585C11.1148 127.782 22.8734 122.097 28.9294 125.749C38.7198 131.653 50.1929 135.05 62.4598 135.05C98.3718 135.05 127.484 105.938 127.484 70.0261C127.484 44.2422 108.176 24.7609 84.327 13.9721C77.6192 10.9376 77.606 0 84.9683 0Z" fill="#F8F3E9"/>
<circle cx="44.9533" cy="32.5124" r="17.5065" fill="#F8F3E9"/>
<circle cx="74.9645" cy="77.529" r="17.5065" fill="#F8F3E9"/>
<circle cx="19.944" cy="77.529" r="17.5065" fill="#F8F3E9"/>
</svg>
