<svg width="1439" height="29" viewBox="0 0 1439 29" fill="none" xmlns="http://www.w3.org/2000/svg">
<g clip-path="url(#clip0_46_1320)">
<path d="M24.2373 0H15.4643C14.4288 0 13.5894 0.866643 13.5894 1.9357V10.9927C13.5894 12.0617 14.4288 12.9284 15.4643 12.9284H24.2373C25.2728 12.9284 26.1123 12.0617 26.1123 10.9927V1.9357C26.1123 0.866643 25.2728 0 24.2373 0Z" fill="#D4B987"/>
<path d="M51.3989 0H42.626C41.5904 0 40.751 0.866643 40.751 1.9357V10.9927C40.751 12.0617 41.5904 12.9284 42.626 12.9284H51.3989C52.4344 12.9284 53.2739 12.0617 53.2739 10.9927V1.9357C53.2739 0.866643 52.4344 0 51.3989 0Z" fill="#D4B987"/>
<path d="M78.5776 0H69.8047C68.7692 0 67.9297 0.866643 67.9297 1.9357V10.9927C67.9297 12.0617 68.7692 12.9284 69.8047 12.9284H78.5776C79.6131 12.9284 80.4526 12.0617 80.4526 10.9927V1.9357C80.4526 0.866643 79.6131 0 78.5776 0Z" fill="#D4B987"/>
<path d="M105.756 0H96.9834C95.9479 0 95.1084 0.866643 95.1084 1.9357V10.9927C95.1084 12.0617 95.9479 12.9284 96.9834 12.9284H105.756C106.792 12.9284 107.631 12.0617 107.631 10.9927V1.9357C107.631 0.866643 106.792 0 105.756 0Z" fill="#D4B987"/>
<path d="M132.918 0H124.145C123.109 0 122.27 0.866643 122.27 1.9357V10.9927C122.27 12.0617 123.109 12.9284 124.145 12.9284H132.918C133.953 12.9284 134.793 12.0617 134.793 10.9927V1.9357C134.793 0.866643 133.953 0 132.918 0Z" fill="#D4B987"/>
<path d="M160.097 0H151.324C150.289 0 149.449 0.866643 149.449 1.9357V10.9927C149.449 12.0617 150.289 12.9284 151.324 12.9284H160.097C161.133 12.9284 161.972 12.0617 161.972 10.9927V1.9357C161.972 0.866643 161.133 0 160.097 0Z" fill="#D4B987"/>
<path d="M187.276 0H178.503C177.467 0 176.628 0.866643 176.628 1.9357V10.9927C176.628 12.0617 177.467 12.9284 178.503 12.9284H187.276C188.311 12.9284 189.151 12.0617 189.151 10.9927V1.9357C189.151 0.866643 188.311 0 187.276 0Z" fill="#D4B987"/>
<path d="M214.437 0H205.665C204.629 0 203.79 0.866643 203.79 1.9357V10.9927C203.79 12.0617 204.629 12.9284 205.665 12.9284H214.437C215.473 12.9284 216.312 12.0617 216.312 10.9927V1.9357C216.312 0.866643 215.473 0 214.437 0Z" fill="#D4B987"/>
<path d="M241.616 0H232.843C231.808 0 230.968 0.866643 230.968 1.9357V10.9927C230.968 12.0617 231.808 12.9284 232.843 12.9284H241.616C242.652 12.9284 243.491 12.0617 243.491 10.9927V1.9357C243.491 0.866643 242.652 0 241.616 0Z" fill="#D4B987"/>
<path d="M268.795 0H260.022C258.986 0 258.147 0.866643 258.147 1.9357V10.9927C258.147 12.0617 258.986 12.9284 260.022 12.9284H268.795C269.83 12.9284 270.67 12.0617 270.67 10.9927V1.9357C270.67 0.866643 269.83 0 268.795 0Z" fill="#D4B987"/>
<path d="M295.956 0H287.184C286.148 0 285.309 0.866643 285.309 1.9357V10.9927C285.309 12.0617 286.148 12.9284 287.184 12.9284H295.956C296.992 12.9284 297.831 12.0617 297.831 10.9927V1.9357C297.831 0.866643 296.992 0 295.956 0Z" fill="#D4B987"/>
<path d="M323.135 0H314.362C313.327 0 312.487 0.866643 312.487 1.9357V10.9927C312.487 12.0617 313.327 12.9284 314.362 12.9284H323.135C324.171 12.9284 325.01 12.0617 325.01 10.9927V1.9357C325.01 0.866643 324.171 0 323.135 0Z" fill="#D4B987"/>
<path d="M350.297 0H341.524C340.488 0 339.649 0.866643 339.649 1.9357V10.9927C339.649 12.0617 340.488 12.9284 341.524 12.9284H350.297C351.332 12.9284 352.172 12.0617 352.172 10.9927V1.9357C352.172 0.866643 351.332 0 350.297 0Z" fill="#D4B987"/>
<path d="M377.476 0H368.703C367.668 0 366.828 0.866643 366.828 1.9357V10.9927C366.828 12.0617 367.668 12.9284 368.703 12.9284H377.476C378.512 12.9284 379.351 12.0617 379.351 10.9927V1.9357C379.351 0.866643 378.512 0 377.476 0Z" fill="#D4B987"/>
<path d="M404.655 0H395.882C394.846 0 394.007 0.866643 394.007 1.9357V10.9927C394.007 12.0617 394.846 12.9284 395.882 12.9284H404.655C405.69 12.9284 406.53 12.0617 406.53 10.9927V1.9357C406.53 0.866643 405.69 0 404.655 0Z" fill="#D4B987"/>
<path d="M431.816 0H423.043C422.008 0 421.168 0.866643 421.168 1.9357V10.9927C421.168 12.0617 422.008 12.9284 423.043 12.9284H431.816C432.852 12.9284 433.691 12.0617 433.691 10.9927V1.9357C433.691 0.866643 432.852 0 431.816 0Z" fill="#D4B987"/>
<path d="M458.995 0H450.222C449.187 0 448.347 0.866643 448.347 1.9357V10.9927C448.347 12.0617 449.187 12.9284 450.222 12.9284H458.995C460.031 12.9284 460.87 12.0617 460.87 10.9927V1.9357C460.87 0.866643 460.031 0 458.995 0Z" fill="#D4B987"/>
<path d="M486.174 0H477.401C476.365 0 475.526 0.866643 475.526 1.9357V10.9927C475.526 12.0617 476.365 12.9284 477.401 12.9284H486.174C487.209 12.9284 488.049 12.0617 488.049 10.9927V1.9357C488.049 0.866643 487.209 0 486.174 0Z" fill="#D4B987"/>
<path d="M513.335 0H504.562C503.527 0 502.688 0.866643 502.688 1.9357V10.9927C502.688 12.0617 503.527 12.9284 504.562 12.9284H513.335C514.371 12.9284 515.21 12.0617 515.21 10.9927V1.9357C515.21 0.866643 514.371 0 513.335 0Z" fill="#D4B987"/>
<path d="M540.514 0H531.741C530.706 0 529.866 0.866643 529.866 1.9357V10.9927C529.866 12.0617 530.706 12.9284 531.741 12.9284H540.514C541.55 12.9284 542.389 12.0617 542.389 10.9927V1.9357C542.389 0.866643 541.55 0 540.514 0Z" fill="#D4B987"/>
<path d="M567.693 0H558.92C557.884 0 557.045 0.866643 557.045 1.9357V10.9927C557.045 12.0617 557.884 12.9284 558.92 12.9284H567.693C568.728 12.9284 569.568 12.0617 569.568 10.9927V1.9357C569.568 0.866643 568.728 0 567.693 0Z" fill="#D4B987"/>
<path d="M594.855 0H586.082C585.046 0 584.207 0.866643 584.207 1.9357V10.9927C584.207 12.0617 585.046 12.9284 586.082 12.9284H594.855C595.89 12.9284 596.73 12.0617 596.73 10.9927V1.9357C596.73 0.866643 595.89 0 594.855 0Z" fill="#D4B987"/>
<path d="M622.034 0H613.261C612.225 0 611.386 0.866643 611.386 1.9357V10.9927C611.386 12.0617 612.225 12.9284 613.261 12.9284H622.034C623.069 12.9284 623.909 12.0617 623.909 10.9927V1.9357C623.909 0.866643 623.069 0 622.034 0Z" fill="#D4B987"/>
<path d="M649.195 0H640.422C639.387 0 638.547 0.866643 638.547 1.9357V10.9927C638.547 12.0617 639.387 12.9284 640.422 12.9284H649.195C650.231 12.9284 651.07 12.0617 651.07 10.9927V1.9357C651.07 0.866643 650.231 0 649.195 0Z" fill="#D4B987"/>
<path d="M676.374 0H667.601C666.566 0 665.726 0.866643 665.726 1.9357V10.9927C665.726 12.0617 666.566 12.9284 667.601 12.9284H676.374C677.41 12.9284 678.249 12.0617 678.249 10.9927V1.9357C678.249 0.866643 677.41 0 676.374 0Z" fill="#D4B987"/>
<path d="M703.553 0H694.78C693.744 0 692.905 0.866643 692.905 1.9357V10.9927C692.905 12.0617 693.744 12.9284 694.78 12.9284H703.553C704.588 12.9284 705.428 12.0617 705.428 10.9927V1.9357C705.428 0.866643 704.588 0 703.553 0Z" fill="#D4B987"/>
<path d="M10.6479 16.0717H1.87499C0.839463 16.0717 0 16.9383 0 18.0074V27.0643C0 28.1334 0.839463 29 1.87499 29H10.6479C11.6834 29 12.5229 28.1334 12.5229 27.0643V18.0074C12.5229 16.9383 11.6834 16.0717 10.6479 16.0717Z" fill="#D4B987"/>
<path d="M37.8266 16.0717H29.0537C28.0182 16.0717 27.1787 16.9383 27.1787 18.0074V27.0643C27.1787 28.1334 28.0182 29 29.0537 29H37.8266C38.8621 29 39.7016 28.1334 39.7016 27.0643V18.0074C39.7016 16.9383 38.8621 16.0717 37.8266 16.0717Z" fill="#D4B987"/>
<path d="M64.9882 16.0717H56.2153C55.1798 16.0717 54.3403 16.9383 54.3403 18.0074V27.0643C54.3403 28.1334 55.1798 29 56.2153 29H64.9882C66.0238 29 66.8632 28.1334 66.8632 27.0643V18.0074C66.8632 16.9383 66.0238 16.0717 64.9882 16.0717Z" fill="#D4B987"/>
<path d="M92.1669 16.0717H83.394C82.3585 16.0717 81.519 16.9383 81.519 18.0074V27.0643C81.519 28.1334 82.3585 29 83.394 29H92.1669C93.2025 29 94.0419 28.1334 94.0419 27.0643V18.0074C94.0419 16.9383 93.2025 16.0717 92.1669 16.0717Z" fill="#D4B987"/>
<path d="M119.346 16.0717H110.573C109.538 16.0717 108.698 16.9383 108.698 18.0074V27.0643C108.698 28.1334 109.538 29 110.573 29H119.346C120.382 29 121.221 28.1334 121.221 27.0643V18.0074C121.221 16.9383 120.382 16.0717 119.346 16.0717Z" fill="#D4B987"/>
<path d="M146.508 16.0717H137.735C136.699 16.0717 135.86 16.9383 135.86 18.0074V27.0643C135.86 28.1334 136.699 29 137.735 29H146.508C147.543 29 148.383 28.1334 148.383 27.0643V18.0074C148.383 16.9383 147.543 16.0717 146.508 16.0717Z" fill="#D4B987"/>
<path d="M173.686 16.0717H164.914C163.878 16.0717 163.039 16.9383 163.039 18.0074V27.0643C163.039 28.1334 163.878 29 164.914 29H173.686C174.722 29 175.561 28.1334 175.561 27.0643V18.0074C175.561 16.9383 174.722 16.0717 173.686 16.0717Z" fill="#D4B987"/>
<path d="M200.848 16.0717H192.075C191.04 16.0717 190.2 16.9383 190.2 18.0074V27.0643C190.2 28.1334 191.04 29 192.075 29H200.848C201.884 29 202.723 28.1334 202.723 27.0643V18.0074C202.723 16.9383 201.884 16.0717 200.848 16.0717Z" fill="#D4B987"/>
<path d="M228.027 16.0717H219.254C218.218 16.0717 217.379 16.9383 217.379 18.0074V27.0643C217.379 28.1334 218.218 29 219.254 29H228.027C229.062 29 229.902 28.1334 229.902 27.0643V18.0074C229.902 16.9383 229.062 16.0717 228.027 16.0717Z" fill="#D4B987"/>
<path d="M255.206 16.0717H246.433C245.397 16.0717 244.558 16.9383 244.558 18.0074V27.0643C244.558 28.1334 245.397 29 246.433 29H255.206C256.241 29 257.081 28.1334 257.081 27.0643V18.0074C257.081 16.9383 256.241 16.0717 255.206 16.0717Z" fill="#D4B987"/>
<path d="M282.367 16.0717H273.594C272.559 16.0717 271.719 16.9383 271.719 18.0074V27.0643C271.719 28.1334 272.559 29 273.594 29H282.367C283.403 29 284.242 28.1334 284.242 27.0643V18.0074C284.242 16.9383 283.403 16.0717 282.367 16.0717Z" fill="#D4B987"/>
<path d="M309.546 16.0717H300.773C299.737 16.0717 298.898 16.9383 298.898 18.0074V27.0643C298.898 28.1334 299.737 29 300.773 29H309.546C310.581 29 311.421 28.1334 311.421 27.0643V18.0074C311.421 16.9383 310.581 16.0717 309.546 16.0717Z" fill="#D4B987"/>
<path d="M336.725 16.0717H327.952C326.917 16.0717 326.077 16.9383 326.077 18.0074V27.0643C326.077 28.1334 326.917 29 327.952 29H336.725C337.761 29 338.6 28.1334 338.6 27.0643V18.0074C338.6 16.9383 337.761 16.0717 336.725 16.0717Z" fill="#D4B987"/>
<path d="M363.887 16.0717H355.114C354.078 16.0717 353.239 16.9383 353.239 18.0074V27.0643C353.239 28.1334 354.078 29 355.114 29H363.887C364.922 29 365.762 28.1334 365.762 27.0643V18.0074C365.762 16.9383 364.922 16.0717 363.887 16.0717Z" fill="#D4B987"/>
<path d="M391.065 16.0717H382.292C381.257 16.0717 380.417 16.9383 380.417 18.0074V27.0643C380.417 28.1334 381.257 29 382.292 29H391.065C392.101 29 392.94 28.1334 392.94 27.0643V18.0074C392.94 16.9383 392.101 16.0717 391.065 16.0717Z" fill="#D4B987"/>
<path d="M418.244 16.0717H409.471C408.436 16.0717 407.596 16.9383 407.596 18.0074V27.0643C407.596 28.1334 408.436 29 409.471 29H418.244C419.28 29 420.119 28.1334 420.119 27.0643V18.0074C420.119 16.9383 419.28 16.0717 418.244 16.0717Z" fill="#D4B987"/>
<path d="M445.406 16.0717H436.633C435.597 16.0717 434.758 16.9383 434.758 18.0074V27.0643C434.758 28.1334 435.597 29 436.633 29H445.406C446.441 29 447.281 28.1334 447.281 27.0643V18.0074C447.281 16.9383 446.441 16.0717 445.406 16.0717Z" fill="#D4B987"/>
<path d="M472.584 16.0717H463.812C462.776 16.0717 461.937 16.9383 461.937 18.0074V27.0643C461.937 28.1334 462.776 29 463.812 29H472.584C473.62 29 474.459 28.1334 474.459 27.0643V18.0074C474.459 16.9383 473.62 16.0717 472.584 16.0717Z" fill="#D4B987"/>
<path d="M499.746 16.0717H490.973C489.938 16.0717 489.098 16.9383 489.098 18.0074V27.0643C489.098 28.1334 489.938 29 490.973 29H499.746C500.782 29 501.621 28.1334 501.621 27.0643V18.0074C501.621 16.9383 500.782 16.0717 499.746 16.0717Z" fill="#D4B987"/>
<path d="M526.925 16.0717H518.152C517.116 16.0717 516.277 16.9383 516.277 18.0074V27.0643C516.277 28.1334 517.116 29 518.152 29H526.925C527.96 29 528.8 28.1334 528.8 27.0643V18.0074C528.8 16.9383 527.96 16.0717 526.925 16.0717Z" fill="#D4B987"/>
<path d="M554.104 16.0717H545.331C544.296 16.0717 543.456 16.9383 543.456 18.0074V27.0643C543.456 28.1334 544.296 29 545.331 29H554.104C555.139 29 555.979 28.1334 555.979 27.0643V18.0074C555.979 16.9383 555.139 16.0717 554.104 16.0717Z" fill="#D4B987"/>
<path d="M581.265 16.0717H572.492C571.457 16.0717 570.617 16.9383 570.617 18.0074V27.0643C570.617 28.1334 571.457 29 572.492 29H581.265C582.301 29 583.14 28.1334 583.14 27.0643V18.0074C583.14 16.9383 582.301 16.0717 581.265 16.0717Z" fill="#D4B987"/>
<path d="M608.444 16.0717H599.671C598.636 16.0717 597.796 16.9383 597.796 18.0074V27.0643C597.796 28.1334 598.636 29 599.671 29H608.444C609.48 29 610.319 28.1334 610.319 27.0643V18.0074C610.319 16.9383 609.48 16.0717 608.444 16.0717Z" fill="#D4B987"/>
<path d="M635.623 16.0717H626.85C625.815 16.0717 624.975 16.9383 624.975 18.0074V27.0643C624.975 28.1334 625.815 29 626.85 29H635.623C636.659 29 637.498 28.1334 637.498 27.0643V18.0074C637.498 16.9383 636.659 16.0717 635.623 16.0717Z" fill="#D4B987"/>
<path d="M662.785 16.0717H654.012C652.976 16.0717 652.137 16.9383 652.137 18.0074V27.0643C652.137 28.1334 652.976 29 654.012 29H662.785C663.82 29 664.66 28.1334 664.66 27.0643V18.0074C664.66 16.9383 663.82 16.0717 662.785 16.0717Z" fill="#D4B987"/>
<path d="M689.963 16.0717H681.19C680.155 16.0717 679.315 16.9383 679.315 18.0074V27.0643C679.315 28.1334 680.155 29 681.19 29H689.963C690.999 29 691.838 28.1334 691.838 27.0643V18.0074C691.838 16.9383 690.999 16.0717 689.963 16.0717Z" fill="#D4B987"/>
<path d="M717.142 16.0717H708.369C707.334 16.0717 706.494 16.9383 706.494 18.0074V27.0643C706.494 28.1334 707.334 29 708.369 29H717.142C718.178 29 719.017 28.1334 719.017 27.0643V18.0074C719.017 16.9383 718.178 16.0717 717.142 16.0717Z" fill="#D4B987"/>
</g>
<g clip-path="url(#clip1_46_1320)">
<path d="M744.237 29H735.464C734.429 29 733.589 28.1334 733.589 27.0643V18.0073C733.589 16.9383 734.429 16.0716 735.464 16.0716H744.237C745.273 16.0716 746.112 16.9383 746.112 18.0073V27.0643C746.112 28.1334 745.273 29 744.237 29Z" fill="#D4B987"/>
<path d="M771.399 29H762.626C761.59 29 760.751 28.1334 760.751 27.0643V18.0073C760.751 16.9383 761.59 16.0716 762.626 16.0716H771.399C772.434 16.0716 773.274 16.9383 773.274 18.0073V27.0643C773.274 28.1334 772.434 29 771.399 29Z" fill="#D4B987"/>
<path d="M798.578 29H789.805C788.769 29 787.93 28.1334 787.93 27.0643V18.0073C787.93 16.9383 788.769 16.0716 789.805 16.0716H798.578C799.613 16.0716 800.453 16.9383 800.453 18.0073V27.0643C800.453 28.1334 799.613 29 798.578 29Z" fill="#D4B987"/>
<path d="M825.756 29H816.983C815.948 29 815.108 28.1334 815.108 27.0643V18.0073C815.108 16.9383 815.948 16.0716 816.983 16.0716H825.756C826.792 16.0716 827.631 16.9383 827.631 18.0073V27.0643C827.631 28.1334 826.792 29 825.756 29Z" fill="#D4B987"/>
<path d="M852.918 29H844.145C843.109 29 842.27 28.1334 842.27 27.0643V18.0073C842.27 16.9383 843.109 16.0716 844.145 16.0716H852.918C853.953 16.0716 854.793 16.9383 854.793 18.0073V27.0643C854.793 28.1334 853.953 29 852.918 29Z" fill="#D4B987"/>
<path d="M880.097 29H871.324C870.289 29 869.449 28.1334 869.449 27.0643V18.0073C869.449 16.9383 870.289 16.0716 871.324 16.0716H880.097C881.133 16.0716 881.972 16.9383 881.972 18.0073V27.0643C881.972 28.1334 881.133 29 880.097 29Z" fill="#D4B987"/>
<path d="M907.276 29H898.503C897.467 29 896.628 28.1334 896.628 27.0643V18.0073C896.628 16.9383 897.467 16.0716 898.503 16.0716H907.276C908.311 16.0716 909.151 16.9383 909.151 18.0073V27.0643C909.151 28.1334 908.311 29 907.276 29Z" fill="#D4B987"/>
<path d="M934.437 29H925.665C924.629 29 923.79 28.1334 923.79 27.0643V18.0073C923.79 16.9383 924.629 16.0716 925.665 16.0716H934.437C935.473 16.0716 936.312 16.9383 936.312 18.0073V27.0643C936.312 28.1334 935.473 29 934.437 29Z" fill="#D4B987"/>
<path d="M961.616 29H952.843C951.808 29 950.968 28.1334 950.968 27.0643V18.0073C950.968 16.9383 951.808 16.0716 952.843 16.0716H961.616C962.652 16.0716 963.491 16.9383 963.491 18.0073V27.0643C963.491 28.1334 962.652 29 961.616 29Z" fill="#D4B987"/>
<path d="M988.795 29H980.022C978.986 29 978.147 28.1334 978.147 27.0643V18.0073C978.147 16.9383 978.986 16.0716 980.022 16.0716H988.795C989.83 16.0716 990.67 16.9383 990.67 18.0073V27.0643C990.67 28.1334 989.83 29 988.795 29Z" fill="#D4B987"/>
<path d="M1015.96 29H1007.18C1006.15 29 1005.31 28.1334 1005.31 27.0643V18.0073C1005.31 16.9383 1006.15 16.0716 1007.18 16.0716H1015.96C1016.99 16.0716 1017.83 16.9383 1017.83 18.0073V27.0643C1017.83 28.1334 1016.99 29 1015.96 29Z" fill="#D4B987"/>
<path d="M1043.14 29H1034.36C1033.33 29 1032.49 28.1334 1032.49 27.0643V18.0073C1032.49 16.9383 1033.33 16.0716 1034.36 16.0716H1043.14C1044.17 16.0716 1045.01 16.9383 1045.01 18.0073V27.0643C1045.01 28.1334 1044.17 29 1043.14 29Z" fill="#D4B987"/>
<path d="M1070.3 29H1061.52C1060.49 29 1059.65 28.1334 1059.65 27.0643V18.0073C1059.65 16.9383 1060.49 16.0716 1061.52 16.0716H1070.3C1071.33 16.0716 1072.17 16.9383 1072.17 18.0073V27.0643C1072.17 28.1334 1071.33 29 1070.3 29Z" fill="#D4B987"/>
<path d="M1097.48 29H1088.7C1087.67 29 1086.83 28.1334 1086.83 27.0643V18.0073C1086.83 16.9383 1087.67 16.0716 1088.7 16.0716H1097.48C1098.51 16.0716 1099.35 16.9383 1099.35 18.0073V27.0643C1099.35 28.1334 1098.51 29 1097.48 29Z" fill="#D4B987"/>
<path d="M1124.65 29H1115.88C1114.85 29 1114.01 28.1334 1114.01 27.0643V18.0073C1114.01 16.9383 1114.85 16.0716 1115.88 16.0716H1124.65C1125.69 16.0716 1126.53 16.9383 1126.53 18.0073V27.0643C1126.53 28.1334 1125.69 29 1124.65 29Z" fill="#D4B987"/>
<path d="M1151.82 29H1143.04C1142.01 29 1141.17 28.1334 1141.17 27.0643V18.0073C1141.17 16.9383 1142.01 16.0716 1143.04 16.0716H1151.82C1152.85 16.0716 1153.69 16.9383 1153.69 18.0073V27.0643C1153.69 28.1334 1152.85 29 1151.82 29Z" fill="#D4B987"/>
<path d="M1179 29H1170.22C1169.19 29 1168.35 28.1334 1168.35 27.0643V18.0073C1168.35 16.9383 1169.19 16.0716 1170.22 16.0716H1179C1180.03 16.0716 1180.87 16.9383 1180.87 18.0073V27.0643C1180.87 28.1334 1180.03 29 1179 29Z" fill="#D4B987"/>
<path d="M1206.17 29H1197.4C1196.37 29 1195.53 28.1334 1195.53 27.0643V18.0073C1195.53 16.9383 1196.37 16.0716 1197.4 16.0716H1206.17C1207.21 16.0716 1208.05 16.9383 1208.05 18.0073V27.0643C1208.05 28.1334 1207.21 29 1206.17 29Z" fill="#D4B987"/>
<path d="M1233.34 29H1224.56C1223.53 29 1222.69 28.1334 1222.69 27.0643V18.0073C1222.69 16.9383 1223.53 16.0716 1224.56 16.0716H1233.34C1234.37 16.0716 1235.21 16.9383 1235.21 18.0073V27.0643C1235.21 28.1334 1234.37 29 1233.34 29Z" fill="#D4B987"/>
<path d="M1260.51 29H1251.74C1250.71 29 1249.87 28.1334 1249.87 27.0643V18.0073C1249.87 16.9383 1250.71 16.0716 1251.74 16.0716H1260.51C1261.55 16.0716 1262.39 16.9383 1262.39 18.0073V27.0643C1262.39 28.1334 1261.55 29 1260.51 29Z" fill="#D4B987"/>
<path d="M1287.69 29H1278.92C1277.88 29 1277.04 28.1334 1277.04 27.0643V18.0073C1277.04 16.9383 1277.88 16.0716 1278.92 16.0716H1287.69C1288.73 16.0716 1289.57 16.9383 1289.57 18.0073V27.0643C1289.57 28.1334 1288.73 29 1287.69 29Z" fill="#D4B987"/>
<path d="M1314.85 29H1306.08C1305.05 29 1304.21 28.1334 1304.21 27.0643V18.0073C1304.21 16.9383 1305.05 16.0716 1306.08 16.0716H1314.85C1315.89 16.0716 1316.73 16.9383 1316.73 18.0073V27.0643C1316.73 28.1334 1315.89 29 1314.85 29Z" fill="#D4B987"/>
<path d="M1342.03 29H1333.26C1332.23 29 1331.39 28.1334 1331.39 27.0643V18.0073C1331.39 16.9383 1332.23 16.0716 1333.26 16.0716H1342.03C1343.07 16.0716 1343.91 16.9383 1343.91 18.0073V27.0643C1343.91 28.1334 1343.07 29 1342.03 29Z" fill="#D4B987"/>
<path d="M1369.2 29H1360.42C1359.39 29 1358.55 28.1334 1358.55 27.0643V18.0073C1358.55 16.9383 1359.39 16.0716 1360.42 16.0716H1369.2C1370.23 16.0716 1371.07 16.9383 1371.07 18.0073V27.0643C1371.07 28.1334 1370.23 29 1369.2 29Z" fill="#D4B987"/>
<path d="M1396.37 29H1387.6C1386.57 29 1385.73 28.1334 1385.73 27.0643V18.0073C1385.73 16.9383 1386.57 16.0716 1387.6 16.0716H1396.37C1397.41 16.0716 1398.25 16.9383 1398.25 18.0073V27.0643C1398.25 28.1334 1397.41 29 1396.37 29Z" fill="#D4B987"/>
<path d="M1423.55 29H1414.78C1413.74 29 1412.9 28.1334 1412.9 27.0643V18.0073C1412.9 16.9383 1413.74 16.0716 1414.78 16.0716H1423.55C1424.59 16.0716 1425.43 16.9383 1425.43 18.0073V27.0643C1425.43 28.1334 1424.59 29 1423.55 29Z" fill="#D4B987"/>
<path d="M730.648 12.9283H721.875C720.839 12.9283 720 12.0617 720 10.9926V1.93569C720 0.866636 720.839 -7.62939e-06 721.875 -7.62939e-06H730.648C731.683 -7.62939e-06 732.523 0.866636 732.523 1.93569V10.9926C732.523 12.0617 731.683 12.9283 730.648 12.9283Z" fill="#D4B987"/>
<path d="M757.827 12.9283H749.054C748.018 12.9283 747.179 12.0617 747.179 10.9926V1.93569C747.179 0.866636 748.018 -7.62939e-06 749.054 -7.62939e-06H757.827C758.862 -7.62939e-06 759.702 0.866636 759.702 1.93569V10.9926C759.702 12.0617 758.862 12.9283 757.827 12.9283Z" fill="#D4B987"/>
<path d="M784.988 12.9283H776.215C775.18 12.9283 774.34 12.0617 774.34 10.9926V1.93569C774.34 0.866636 775.18 -7.62939e-06 776.215 -7.62939e-06H784.988C786.024 -7.62939e-06 786.863 0.866636 786.863 1.93569V10.9926C786.863 12.0617 786.024 12.9283 784.988 12.9283Z" fill="#D4B987"/>
<path d="M812.167 12.9283H803.394C802.359 12.9283 801.519 12.0617 801.519 10.9926V1.93569C801.519 0.866636 802.359 -7.62939e-06 803.394 -7.62939e-06H812.167C813.202 -7.62939e-06 814.042 0.866636 814.042 1.93569V10.9926C814.042 12.0617 813.202 12.9283 812.167 12.9283Z" fill="#D4B987"/>
<path d="M839.346 12.9283H830.573C829.538 12.9283 828.698 12.0617 828.698 10.9926V1.93569C828.698 0.866636 829.538 -7.62939e-06 830.573 -7.62939e-06H839.346C840.382 -7.62939e-06 841.221 0.866636 841.221 1.93569V10.9926C841.221 12.0617 840.382 12.9283 839.346 12.9283Z" fill="#D4B987"/>
<path d="M866.508 12.9283H857.735C856.699 12.9283 855.86 12.0617 855.86 10.9926V1.93569C855.86 0.866636 856.699 -7.62939e-06 857.735 -7.62939e-06H866.508C867.543 -7.62939e-06 868.383 0.866636 868.383 1.93569V10.9926C868.383 12.0617 867.543 12.9283 866.508 12.9283Z" fill="#D4B987"/>
<path d="M893.686 12.9283H884.914C883.878 12.9283 883.039 12.0617 883.039 10.9926V1.93569C883.039 0.866636 883.878 -7.62939e-06 884.914 -7.62939e-06H893.686C894.722 -7.62939e-06 895.561 0.866636 895.561 1.93569V10.9926C895.561 12.0617 894.722 12.9283 893.686 12.9283Z" fill="#D4B987"/>
<path d="M920.848 12.9283H912.075C911.04 12.9283 910.2 12.0617 910.2 10.9926V1.93569C910.2 0.866636 911.04 -7.62939e-06 912.075 -7.62939e-06H920.848C921.884 -7.62939e-06 922.723 0.866636 922.723 1.93569V10.9926C922.723 12.0617 921.884 12.9283 920.848 12.9283Z" fill="#D4B987"/>
<path d="M948.027 12.9283H939.254C938.218 12.9283 937.379 12.0617 937.379 10.9926V1.93569C937.379 0.866636 938.218 -7.62939e-06 939.254 -7.62939e-06H948.027C949.062 -7.62939e-06 949.902 0.866636 949.902 1.93569V10.9926C949.902 12.0617 949.062 12.9283 948.027 12.9283Z" fill="#D4B987"/>
<path d="M975.206 12.9283H966.433C965.397 12.9283 964.558 12.0617 964.558 10.9926V1.93569C964.558 0.866636 965.397 -7.62939e-06 966.433 -7.62939e-06H975.206C976.241 -7.62939e-06 977.081 0.866636 977.081 1.93569V10.9926C977.081 12.0617 976.241 12.9283 975.206 12.9283Z" fill="#D4B987"/>
<path d="M1002.37 12.9283H993.594C992.559 12.9283 991.719 12.0617 991.719 10.9926V1.93569C991.719 0.866636 992.559 -7.62939e-06 993.594 -7.62939e-06H1002.37C1003.4 -7.62939e-06 1004.24 0.866636 1004.24 1.93569V10.9926C1004.24 12.0617 1003.4 12.9283 1002.37 12.9283Z" fill="#D4B987"/>
<path d="M1029.55 12.9283H1020.77C1019.74 12.9283 1018.9 12.0617 1018.9 10.9926V1.93569C1018.9 0.866636 1019.74 -7.62939e-06 1020.77 -7.62939e-06H1029.55C1030.58 -7.62939e-06 1031.42 0.866636 1031.42 1.93569V10.9926C1031.42 12.0617 1030.58 12.9283 1029.55 12.9283Z" fill="#D4B987"/>
<path d="M1056.73 12.9283H1047.95C1046.92 12.9283 1046.08 12.0617 1046.08 10.9926V1.93569C1046.08 0.866636 1046.92 -7.62939e-06 1047.95 -7.62939e-06H1056.73C1057.76 -7.62939e-06 1058.6 0.866636 1058.6 1.93569V10.9926C1058.6 12.0617 1057.76 12.9283 1056.73 12.9283Z" fill="#D4B987"/>
<path d="M1083.89 12.9283H1075.11C1074.08 12.9283 1073.24 12.0617 1073.24 10.9926V1.93569C1073.24 0.866636 1074.08 -7.62939e-06 1075.11 -7.62939e-06H1083.89C1084.92 -7.62939e-06 1085.76 0.866636 1085.76 1.93569V10.9926C1085.76 12.0617 1084.92 12.9283 1083.89 12.9283Z" fill="#D4B987"/>
<path d="M1111.07 12.9283H1102.29C1101.26 12.9283 1100.42 12.0617 1100.42 10.9926V1.93569C1100.42 0.866636 1101.26 -7.62939e-06 1102.29 -7.62939e-06H1111.07C1112.1 -7.62939e-06 1112.94 0.866636 1112.94 1.93569V10.9926C1112.94 12.0617 1112.1 12.9283 1111.07 12.9283Z" fill="#D4B987"/>
<path d="M1138.24 12.9283H1129.47C1128.44 12.9283 1127.6 12.0617 1127.6 10.9926V1.93569C1127.6 0.866636 1128.44 -7.62939e-06 1129.47 -7.62939e-06H1138.24C1139.28 -7.62939e-06 1140.12 0.866636 1140.12 1.93569V10.9926C1140.12 12.0617 1139.28 12.9283 1138.24 12.9283Z" fill="#D4B987"/>
<path d="M1165.41 12.9283H1156.63C1155.6 12.9283 1154.76 12.0617 1154.76 10.9926V1.93569C1154.76 0.866636 1155.6 -7.62939e-06 1156.63 -7.62939e-06H1165.41C1166.44 -7.62939e-06 1167.28 0.866636 1167.28 1.93569V10.9926C1167.28 12.0617 1166.44 12.9283 1165.41 12.9283Z" fill="#D4B987"/>
<path d="M1192.58 12.9283H1183.81C1182.78 12.9283 1181.94 12.0617 1181.94 10.9926V1.93569C1181.94 0.866636 1182.78 -7.62939e-06 1183.81 -7.62939e-06H1192.58C1193.62 -7.62939e-06 1194.46 0.866636 1194.46 1.93569V10.9926C1194.46 12.0617 1193.62 12.9283 1192.58 12.9283Z" fill="#D4B987"/>
<path d="M1219.75 12.9283H1210.97C1209.94 12.9283 1209.1 12.0617 1209.1 10.9926V1.93569C1209.1 0.866636 1209.94 -7.62939e-06 1210.97 -7.62939e-06H1219.75C1220.78 -7.62939e-06 1221.62 0.866636 1221.62 1.93569V10.9926C1221.62 12.0617 1220.78 12.9283 1219.75 12.9283Z" fill="#D4B987"/>
<path d="M1246.92 12.9283H1238.15C1237.12 12.9283 1236.28 12.0617 1236.28 10.9926V1.93569C1236.28 0.866636 1237.12 -7.62939e-06 1238.15 -7.62939e-06H1246.92C1247.96 -7.62939e-06 1248.8 0.866636 1248.8 1.93569V10.9926C1248.8 12.0617 1247.96 12.9283 1246.92 12.9283Z" fill="#D4B987"/>
<path d="M1274.1 12.9283H1265.33C1264.3 12.9283 1263.46 12.0617 1263.46 10.9926V1.93569C1263.46 0.866636 1264.3 -7.62939e-06 1265.33 -7.62939e-06H1274.1C1275.14 -7.62939e-06 1275.98 0.866636 1275.98 1.93569V10.9926C1275.98 12.0617 1275.14 12.9283 1274.1 12.9283Z" fill="#D4B987"/>
<path d="M1301.27 12.9285H1292.49C1291.46 12.9285 1290.62 12.0618 1290.62 10.9928V1.93582C1290.62 0.866758 1291.46 0.000114441 1292.49 0.000114441H1301.27C1302.3 0.000114441 1303.14 0.866758 1303.14 1.93582V10.9928C1303.14 12.0618 1302.3 12.9285 1301.27 12.9285Z" fill="#D4B987"/>
<path d="M1328.44 12.9283H1319.67C1318.64 12.9283 1317.8 12.0617 1317.8 10.9926V1.93569C1317.8 0.866636 1318.64 -7.62939e-06 1319.67 -7.62939e-06H1328.44C1329.48 -7.62939e-06 1330.32 0.866636 1330.32 1.93569V10.9926C1330.32 12.0617 1329.48 12.9283 1328.44 12.9283Z" fill="#D4B987"/>
<path d="M1355.62 12.9283H1346.85C1345.81 12.9283 1344.98 12.0617 1344.98 10.9926V1.93569C1344.98 0.866636 1345.81 -7.62939e-06 1346.85 -7.62939e-06H1355.62C1356.66 -7.62939e-06 1357.5 0.866636 1357.5 1.93569V10.9926C1357.5 12.0617 1356.66 12.9283 1355.62 12.9283Z" fill="#D4B987"/>
<path d="M1382.78 12.9283H1374.01C1372.98 12.9283 1372.14 12.0617 1372.14 10.9926V1.93569C1372.14 0.866636 1372.98 -7.62939e-06 1374.01 -7.62939e-06H1382.78C1383.82 -7.62939e-06 1384.66 0.866636 1384.66 1.93569V10.9926C1384.66 12.0617 1383.82 12.9283 1382.78 12.9283Z" fill="#D4B987"/>
<path d="M1409.96 12.9283H1401.19C1400.15 12.9283 1399.32 12.0617 1399.32 10.9926V1.93569C1399.32 0.866636 1400.15 -7.62939e-06 1401.19 -7.62939e-06H1409.96C1411 -7.62939e-06 1411.84 0.866636 1411.84 1.93569V10.9926C1411.84 12.0617 1411 12.9283 1409.96 12.9283Z" fill="#D4B987"/>
<path d="M1437.14 12.9283H1428.37C1427.33 12.9283 1426.49 12.0617 1426.49 10.9926V1.93569C1426.49 0.866636 1427.33 -7.62939e-06 1428.37 -7.62939e-06H1437.14C1438.18 -7.62939e-06 1439.02 0.866636 1439.02 1.93569V10.9926C1439.02 12.0617 1438.18 12.9283 1437.14 12.9283Z" fill="#D4B987"/>
</g>
<defs>
<clipPath id="clip0_46_1320">
<rect width="719" height="29" fill="white"/>
</clipPath>
<clipPath id="clip1_46_1320">
<rect width="719" height="29" fill="white" transform="matrix(1 0 0 -1 720 29)"/>
</clipPath>
</defs>
</svg>
