<svg width="300" height="10" viewBox="0 0 300 10" fill="none" xmlns="http://www.w3.org/2000/svg">
<g clip-path="url(#clip0_46_883)">
<path d="M4.92321 9.34513C5.14821 9.54121 5.51786 9.54121 5.74821 9.34513L9.98036 5.67115V4.05591L5.74821 0.381928C5.64107 0.288562 5.49107 0.232542 5.33571 0.232542C5.18036 0.232542 5.03571 0.283894 4.92321 0.381928L0.171429 4.50407C0.0642857 4.59744 0 4.72815 0 4.85886C0 4.98958 0.0589286 5.12029 0.171429 5.21366L4.92321 9.34513ZM5.33571 1.44631L9.26786 4.85886L5.33571 8.27142L1.40357 4.85886L5.33571 1.44631Z" fill="#D4B987"/>
<path d="M19.2698 5.67115V4.05591L15.0376 0.381928C14.9305 0.288562 14.7805 0.232542 14.6251 0.232542C14.4698 0.232542 14.3251 0.283894 14.2126 0.381928L9.98047 4.05591V5.67115L14.2126 9.34513C14.4376 9.54121 14.8073 9.54121 15.0376 9.34513L19.2698 5.67115ZM18.5519 4.85886L14.6198 8.27142L10.6876 4.85886L14.6198 1.44631L18.5519 4.85886Z" fill="#D4B987"/>
<path d="M28.5588 5.67115V4.05591L24.3267 0.381928C24.2195 0.288562 24.0695 0.232542 23.9142 0.232542C23.7588 0.232542 23.6142 0.283894 23.5017 0.381928L19.2695 4.05591V5.67115L23.5017 9.34513C23.7267 9.54121 24.0963 9.54121 24.3267 9.34513L28.5588 5.67115ZM27.841 4.85886L23.9088 8.27142L19.9767 4.85886L23.9088 1.44631L27.841 4.85886Z" fill="#D4B987"/>
<path d="M37.843 5.67115V4.05591L33.6109 0.381928C33.5037 0.288562 33.3537 0.232542 33.1984 0.232542C33.043 0.232542 32.8984 0.283894 32.7859 0.381928L28.5537 4.05591V5.67115L32.7859 9.34513C33.0109 9.54121 33.3805 9.54121 33.6109 9.34513L37.843 5.67115ZM37.1305 4.85886L33.1984 8.27142L29.2662 4.85886L33.1984 1.44631L37.1305 4.85886Z" fill="#D4B987"/>
<path d="M47.1321 5.67115V4.05591L42.8999 0.381928C42.7928 0.288562 42.6428 0.232542 42.4874 0.232542C42.3321 0.232542 42.1874 0.283894 42.0749 0.381928L37.8428 4.05591V5.67115L42.0749 9.34513C42.2999 9.54121 42.6696 9.54121 42.8999 9.34513L47.1321 5.67115ZM46.4196 4.85886L42.4874 8.27142L38.5553 4.85886L42.4874 1.44631L46.4196 4.85886Z" fill="#D4B987"/>
<path d="M56.4211 5.67115V4.05591L52.189 0.381928C52.0818 0.288562 51.9318 0.232542 51.7765 0.232542C51.6211 0.232542 51.4765 0.283894 51.364 0.381928L47.1318 4.05591V5.67115L51.364 9.34513C51.589 9.54121 51.9586 9.54121 52.189 9.34513L56.4211 5.67115ZM55.7086 4.85886L51.7765 8.27142L47.8443 4.85886L51.7765 1.44631L55.7086 4.85886Z" fill="#D4B987"/>
<path d="M65.7107 5.67115V4.05591L61.4785 0.381928C61.3714 0.288562 61.2214 0.232542 61.066 0.232542C60.9107 0.232542 60.766 0.283894 60.6535 0.381928L56.4214 4.05591V5.67115L60.6535 9.34513C60.8785 9.54121 61.2482 9.54121 61.4785 9.34513L65.7107 5.67115ZM64.9982 4.85886L61.066 8.27142L57.1339 4.85886L61.066 1.44631L64.9982 4.85886Z" fill="#D4B987"/>
<path d="M75.0002 5.67115V4.05591L70.7681 0.381928C70.6609 0.288562 70.5109 0.232542 70.3556 0.232542C70.2002 0.232542 70.0556 0.283894 69.9431 0.381928L65.7109 4.05591V5.67115L69.9431 9.34513C70.1681 9.54121 70.5377 9.54121 70.7681 9.34513L75.0002 5.67115ZM74.2877 4.85886L70.3556 8.27142L66.4234 4.85886L70.3556 1.44631L74.2877 4.85886Z" fill="#D4B987"/>
<path d="M84.2893 5.67115V4.05591L80.0571 0.381928C79.95 0.288562 79.8 0.232542 79.6446 0.232542C79.4893 0.232542 79.3446 0.283894 79.2321 0.381928L75 4.05591V5.67115L79.2321 9.34513C79.4571 9.54121 79.8268 9.54121 80.0571 9.34513L84.2893 5.67115ZM83.5768 4.85886L79.6446 8.27142L75.7125 4.85886L79.6446 1.44631L83.5768 4.85886Z" fill="#D4B987"/>
<path d="M93.5783 5.67115V4.05591L89.3462 0.381928C89.2391 0.288562 89.0891 0.232542 88.9337 0.232542C88.7783 0.232542 88.6337 0.283894 88.5212 0.381928L84.2891 4.05591V5.67115L88.5212 9.34513C88.7462 9.54121 89.1158 9.54121 89.3462 9.34513L93.5783 5.67115ZM92.8659 4.85886L88.9337 8.27142L85.0016 4.85886L88.9337 1.44631L92.8659 4.85886Z" fill="#D4B987"/>
<path d="M102.868 5.67115V4.05591L98.6358 0.381928C98.5286 0.288562 98.3786 0.232542 98.2233 0.232542C98.0679 0.232542 97.9233 0.283894 97.8108 0.381928L93.5786 4.05591V5.67115L97.8108 9.34513C98.0358 9.54121 98.4054 9.54121 98.6358 9.34513L102.868 5.67115ZM102.15 4.85886L98.2179 8.27142L94.2858 4.85886L98.2179 1.44631L102.15 4.85886Z" fill="#D4B987"/>
<path d="M112.157 5.67115V4.05591L107.925 0.381928C107.818 0.288562 107.668 0.232542 107.513 0.232542C107.357 0.232542 107.213 0.283894 107.1 0.381928L102.868 4.05591V5.67115L107.1 9.34513C107.325 9.54121 107.695 9.54121 107.925 9.34513L112.157 5.67115ZM111.44 4.85886L107.507 8.27142L103.575 4.85886L107.507 1.44631L111.44 4.85886Z" fill="#D4B987"/>
<path d="M121.441 5.67115V4.05591L117.209 0.381928C117.102 0.288562 116.952 0.232542 116.796 0.232542C116.641 0.232542 116.496 0.283894 116.384 0.381928L112.152 4.05591V5.67115L116.384 9.34513C116.609 9.54121 116.979 9.54121 117.209 9.34513L121.441 5.67115ZM120.729 4.85886L116.796 8.27142L112.864 4.85886L116.796 1.44631L120.729 4.85886Z" fill="#D4B987"/>
<path d="M130.731 5.67115V4.05591L126.499 0.381928C126.391 0.288562 126.241 0.232542 126.086 0.232542C125.931 0.232542 125.786 0.283894 125.674 0.381928L121.441 4.05591V5.67115L125.674 9.34513C125.899 9.54121 126.268 9.54121 126.499 9.34513L130.731 5.67115ZM130.018 4.85886L126.086 8.27142L122.154 4.85886L126.086 1.44631L130.018 4.85886Z" fill="#D4B987"/>
<path d="M140.02 5.67115V4.05591L135.788 0.381928C135.68 0.288562 135.53 0.232542 135.375 0.232542C135.22 0.232542 135.075 0.283894 134.963 0.381928L130.73 4.05591V5.67115L134.963 9.34513C135.188 9.54121 135.557 9.54121 135.788 9.34513L140.02 5.67115ZM139.307 4.85886L135.375 8.27142L131.443 4.85886L135.375 1.44631L139.307 4.85886Z" fill="#D4B987"/>
<path d="M149.828 5.21833C149.936 5.12496 150 4.99425 150 4.86353C150 4.73282 149.941 4.6021 149.828 4.50874L145.077 0.381928C144.97 0.288562 144.82 0.232542 144.664 0.232542C144.509 0.232542 144.364 0.283894 144.252 0.381928L140.02 4.05591V5.67115L144.252 9.34513C144.477 9.54121 144.846 9.54121 145.077 9.34513L149.828 5.21833ZM148.596 4.85886L144.664 8.27142L140.732 4.85886L144.664 1.44631L148.596 4.85886Z" fill="#D4B987"/>
</g>
<g clip-path="url(#clip1_46_883)">
<path d="M154.923 9.62053C155.148 9.8166 155.518 9.8166 155.748 9.62053L159.98 5.94654V4.3313L155.748 0.657319C155.641 0.563952 155.491 0.507933 155.336 0.507933C155.18 0.507933 155.036 0.559284 154.923 0.657319L150.171 4.77946C150.064 4.87283 150 5.00354 150 5.13425C150 5.26497 150.059 5.39568 150.171 5.48905L154.923 9.62053ZM155.336 1.7217L159.268 5.13425L155.336 8.54681L151.404 5.13425L155.336 1.7217Z" fill="#D4B987"/>
<path d="M169.27 5.94654V4.3313L165.038 0.657319C164.93 0.563952 164.78 0.507933 164.625 0.507933C164.47 0.507933 164.325 0.559284 164.213 0.657319L159.98 4.3313V5.94654L164.213 9.62053C164.438 9.8166 164.807 9.8166 165.038 9.62053L169.27 5.94654ZM168.552 5.13425L164.62 8.54681L160.688 5.13425L164.62 1.7217L168.552 5.13425Z" fill="#D4B987"/>
<path d="M178.559 5.94654V4.3313L174.327 0.657319C174.22 0.563952 174.07 0.507933 173.914 0.507933C173.759 0.507933 173.614 0.559284 173.502 0.657319L169.27 4.3313V5.94654L173.502 9.62053C173.727 9.8166 174.096 9.8166 174.327 9.62053L178.559 5.94654ZM177.841 5.13425L173.909 8.54681L169.977 5.13425L173.909 1.7217L177.841 5.13425Z" fill="#D4B987"/>
<path d="M187.843 5.94654V4.3313L183.611 0.657319C183.504 0.563952 183.354 0.507933 183.198 0.507933C183.043 0.507933 182.898 0.559284 182.786 0.657319L178.554 4.3313V5.94654L182.786 9.62053C183.011 9.8166 183.38 9.8166 183.611 9.62053L187.843 5.94654ZM187.13 5.13425L183.198 8.54681L179.266 5.13425L183.198 1.7217L187.13 5.13425Z" fill="#D4B987"/>
<path d="M197.132 5.94654V4.3313L192.9 0.657319C192.793 0.563952 192.643 0.507933 192.487 0.507933C192.332 0.507933 192.187 0.559284 192.075 0.657319L187.843 4.3313V5.94654L192.075 9.62053C192.3 9.8166 192.67 9.8166 192.9 9.62053L197.132 5.94654ZM196.42 5.13425L192.487 8.54681L188.555 5.13425L192.487 1.7217L196.42 5.13425Z" fill="#D4B987"/>
<path d="M206.421 5.94654V4.3313L202.189 0.657319C202.082 0.563952 201.932 0.507933 201.776 0.507933C201.621 0.507933 201.476 0.559284 201.364 0.657319L197.132 4.3313V5.94654L201.364 9.62053C201.589 9.8166 201.959 9.8166 202.189 9.62053L206.421 5.94654ZM205.709 5.13425L201.776 8.54681L197.844 5.13425L201.776 1.7217L205.709 5.13425Z" fill="#D4B987"/>
<path d="M215.711 5.94654V4.3313L211.479 0.657319C211.371 0.563952 211.221 0.507933 211.066 0.507933C210.911 0.507933 210.766 0.559284 210.654 0.657319L206.421 4.3313V5.94654L210.654 9.62053C210.879 9.8166 211.248 9.8166 211.479 9.62053L215.711 5.94654ZM214.998 5.13425L211.066 8.54681L207.134 5.13425L211.066 1.7217L214.998 5.13425Z" fill="#D4B987"/>
<path d="M225 5.94654V4.3313L220.768 0.657319C220.661 0.563952 220.511 0.507933 220.356 0.507933C220.2 0.507933 220.056 0.559284 219.943 0.657319L215.711 4.3313V5.94654L219.943 9.62053C220.168 9.8166 220.538 9.8166 220.768 9.62053L225 5.94654ZM224.288 5.13425L220.356 8.54681L216.423 5.13425L220.356 1.7217L224.288 5.13425Z" fill="#D4B987"/>
<path d="M234.289 5.94654V4.3313L230.057 0.657319C229.95 0.563952 229.8 0.507933 229.645 0.507933C229.489 0.507933 229.345 0.559284 229.232 0.657319L225 4.3313V5.94654L229.232 9.62053C229.457 9.8166 229.827 9.8166 230.057 9.62053L234.289 5.94654ZM233.577 5.13425L229.645 8.54681L225.713 5.13425L229.645 1.7217L233.577 5.13425Z" fill="#D4B987"/>
<path d="M243.578 5.94654V4.3313L239.346 0.657319C239.239 0.563952 239.089 0.507933 238.934 0.507933C238.778 0.507933 238.634 0.559284 238.521 0.657319L234.289 4.3313V5.94654L238.521 9.62053C238.746 9.8166 239.116 9.8166 239.346 9.62053L243.578 5.94654ZM242.866 5.13425L238.934 8.54681L235.002 5.13425L238.934 1.7217L242.866 5.13425Z" fill="#D4B987"/>
<path d="M252.868 5.94654V4.3313L248.636 0.657319C248.529 0.563952 248.379 0.507933 248.223 0.507933C248.068 0.507933 247.923 0.559284 247.811 0.657319L243.579 4.3313V5.94654L247.811 9.62053C248.036 9.8166 248.405 9.8166 248.636 9.62053L252.868 5.94654ZM252.15 5.13425L248.218 8.54681L244.286 5.13425L248.218 1.7217L252.15 5.13425Z" fill="#D4B987"/>
<path d="M262.157 5.94654V4.3313L257.925 0.657319C257.818 0.563952 257.668 0.507933 257.513 0.507933C257.357 0.507933 257.213 0.559284 257.1 0.657319L252.868 4.3313V5.94654L257.1 9.62053C257.325 9.8166 257.695 9.8166 257.925 9.62053L262.157 5.94654ZM261.44 5.13425L257.507 8.54681L253.575 5.13425L257.507 1.7217L261.44 5.13425Z" fill="#D4B987"/>
<path d="M271.441 5.94654V4.3313L267.209 0.657319C267.102 0.563952 266.952 0.507933 266.796 0.507933C266.641 0.507933 266.496 0.559284 266.384 0.657319L262.152 4.3313V5.94654L266.384 9.62053C266.609 9.8166 266.979 9.8166 267.209 9.62053L271.441 5.94654ZM270.729 5.13425L266.796 8.54681L262.864 5.13425L266.796 1.7217L270.729 5.13425Z" fill="#D4B987"/>
<path d="M280.731 5.94654V4.3313L276.499 0.657319C276.391 0.563952 276.241 0.507933 276.086 0.507933C275.931 0.507933 275.786 0.559284 275.674 0.657319L271.441 4.3313V5.94654L275.674 9.62053C275.899 9.8166 276.268 9.8166 276.499 9.62053L280.731 5.94654ZM280.018 5.13425L276.086 8.54681L272.154 5.13425L276.086 1.7217L280.018 5.13425Z" fill="#D4B987"/>
<path d="M290.02 5.94654V4.3313L285.788 0.657319C285.68 0.563952 285.53 0.507933 285.375 0.507933C285.22 0.507933 285.075 0.559284 284.963 0.657319L280.73 4.3313V5.94654L284.963 9.62053C285.188 9.8166 285.557 9.8166 285.788 9.62053L290.02 5.94654ZM289.307 5.13425L285.375 8.54681L281.443 5.13425L285.375 1.7217L289.307 5.13425Z" fill="#D4B987"/>
<path d="M299.828 5.49372C299.936 5.40035 300 5.26964 300 5.13892C300 5.00821 299.941 4.8775 299.828 4.78413L295.077 0.657319C294.97 0.563952 294.82 0.507933 294.664 0.507933C294.509 0.507933 294.364 0.559284 294.252 0.657319L290.02 4.3313V5.94654L294.252 9.62053C294.477 9.8166 294.846 9.8166 295.077 9.62053L299.828 5.49372ZM298.596 5.13425L294.664 8.54681L290.732 5.13425L294.664 1.7217L298.596 5.13425Z" fill="#D4B987"/>
</g>
<defs>
<clipPath id="clip0_46_883">
<rect width="150" height="9.72414" fill="white" transform="matrix(1 0 0 -1 0 9.72363)"/>
</clipPath>
<clipPath id="clip1_46_883">
<rect width="150" height="9.72414" fill="white" transform="matrix(1 0 0 -1 150 9.99902)"/>
</clipPath>
</defs>
</svg>
