<svg width="96" height="95" viewBox="0 0 96 95" fill="none" xmlns="http://www.w3.org/2000/svg">
<path d="M0 0H85V95L42.5 79.1667L0 95V0Z" fill="#619748"/>
<path d="M5 0V89L43 74.1667L81 89V0" stroke="white"/>
<path d="M12.9 52.1822L13.0988 51.4404L15.6996 51.139H16.2996L19.4348 51.4404L19.236 52.1822H12.9ZM15.204 52.1822L19.6143 35.7228H20.5023L18.0544 45.5753L16.284 52.1822H15.204ZM28.433 35.8619L28.6256 35.1433H34.9616L34.769 35.8619L32.1683 36.1633H31.5923L28.433 35.8619ZM26.573 52.2981L19.8834 37.137L19.83 37.0674L19.4136 36.0242L17.297 35.8619L17.4896 35.1433H22.3616L28.4328 49.0294L27.9573 49.1917L29.7364 42.2834L31.6496 35.1433H32.6096L28.013 52.2981H26.573ZM37.8632 52.5531C36.6952 52.5531 35.6995 52.2981 34.8762 51.7881C34.0688 51.2781 33.5156 50.5363 33.2165 49.5626C32.9174 48.589 32.9521 47.4144 33.3207 46.0389C33.6892 44.6635 34.2899 43.4966 35.1226 42.5384C35.9714 41.5802 36.942 40.8538 38.0345 40.3593C39.1312 39.8493 40.2315 39.5943 41.3355 39.5943C42.4555 39.5943 43.4293 39.8416 44.2567 40.3361C45.0842 40.8307 45.6576 41.557 45.9769 42.5152C46.3121 43.4734 46.2934 44.648 45.9207 46.0389C45.548 47.4299 44.9512 48.6122 44.1303 49.5858C43.3135 50.544 42.3568 51.2781 41.2602 51.7881C40.1795 52.2981 39.0472 52.5531 37.8632 52.5531ZM38.0682 51.7881C39.1402 51.7881 40.1006 51.309 40.9493 50.3508C41.8182 49.3772 42.5032 47.9553 43.0043 46.0853C43.5095 44.1998 43.5865 42.778 43.2352 41.8198C42.9041 40.8461 42.2025 40.3593 41.1305 40.3593C40.0745 40.3593 39.1121 40.8461 38.2432 41.8198C37.3945 42.778 36.7175 44.1998 36.2123 46.0853C35.7112 47.9553 35.6262 49.3772 35.9573 50.3508C36.3086 51.309 37.0122 51.7881 38.0682 51.7881ZM48.496 52.5531C47.984 52.5531 47.6055 52.3831 47.3606 52.0431C47.1317 51.7031 47.0773 51.309 47.1974 50.8608C47.3258 50.3817 47.5934 49.9799 48.0004 49.6554C48.4234 49.3308 48.8909 49.1685 49.4029 49.1685C49.8989 49.1685 50.2714 49.3308 50.5204 49.6554C50.7694 49.9799 50.8298 50.3817 50.7014 50.8608C50.5813 51.309 50.3077 51.7031 49.8806 52.0431C49.4535 52.3831 48.992 52.5531 48.496 52.5531ZM63.1913 52.7077L65.0548 45.753L65.1873 45.2585L68.9309 31.2873H68.4829L69.7425 30.8855L63.457 37.6238L56.687 44.8566L57.2814 43.713L57.1572 44.1766H72.4212L71.7917 46.5258H55.1517L55.657 44.6403L70.3189 29.0927H72.7829L66.4553 52.7077H63.1913Z" fill="white"/>
<path d="M95.5 11L85 0V11H95.5Z" fill="#0A520F"/>
</svg>
