<svg width="98" height="95" viewBox="0 0 98 95" fill="none" xmlns="http://www.w3.org/2000/svg">
<path d="M0 0H87V95L43.5 79.1667L0 95V0Z" fill="#4D889D"/>
<path d="M5 0V89L44 74.1667L83 89V0" stroke="white"/>
<path d="M12.8688 50.1822L13.0676 49.4404L15.6683 49.139H16.2683L19.4036 49.4404L19.2048 50.1822H12.8688ZM15.1728 50.1822L19.5831 33.7228H20.4711L18.0231 43.5753L16.2528 50.1822H15.1728ZM28.4018 33.8619L28.5943 33.1433H34.9303L34.7378 33.8619L32.137 34.1633H31.561L28.4018 33.8619ZM26.5417 50.2981L19.8521 35.137L19.7988 35.0674L19.3823 34.0242L17.2658 33.8619L17.4583 33.1433H22.3303L28.4016 47.0294L27.9261 47.1917L29.7052 40.2834L31.6183 33.1433H32.5783L27.9817 50.2981H26.5417ZM37.832 50.5531C36.664 50.5531 35.6683 50.2981 34.8449 49.7881C34.0376 49.2781 33.4844 48.5363 33.1853 47.5626C32.8861 46.589 32.9209 45.4144 33.2894 44.0389C33.658 42.6635 34.2586 41.4966 35.0914 40.5384C35.9401 39.5802 36.9108 38.8538 38.0033 38.3593C39.0999 37.8493 40.2003 37.5943 41.3043 37.5943C42.4243 37.5943 43.398 37.8416 44.2255 38.3361C45.053 38.8307 45.6264 39.557 45.9456 40.5152C46.2809 41.4734 46.2621 42.648 45.8894 44.0389C45.5167 45.4299 44.9199 46.6122 44.099 47.5858C43.2823 48.544 42.3256 49.2781 41.2289 49.7881C40.1483 50.2981 39.016 50.5531 37.832 50.5531ZM38.0369 49.7881C39.1089 49.7881 40.0693 49.309 40.9181 48.3508C41.787 47.3772 42.4719 45.9553 42.973 44.0853C43.4782 42.1998 43.5552 40.778 43.204 39.8198C42.8728 38.8461 42.1713 38.3593 41.0993 38.3593C40.0433 38.3593 39.0808 38.8461 38.212 39.8198C37.3632 40.778 36.6862 42.1998 36.181 44.0853C35.6799 45.9553 35.595 47.3772 35.9261 48.3508C36.2773 49.309 36.9809 49.7881 38.0369 49.7881ZM48.4647 50.5531C47.9527 50.5531 47.5743 50.3831 47.3294 50.0431C47.1005 49.7031 47.0461 49.309 47.1662 48.8608C47.2945 48.3817 47.5622 47.9799 47.9692 47.6554C48.3921 47.3308 48.8596 47.1685 49.3716 47.1685C49.8676 47.1685 50.2401 47.3308 50.4892 47.6554C50.7382 47.9799 50.7985 48.3817 50.6702 48.8608C50.5501 49.309 50.2765 49.7031 49.8494 50.0431C49.4223 50.3831 48.9607 50.5531 48.4647 50.5531ZM60.5763 50.6768C58.635 50.6768 57.1802 50.2543 56.2119 49.4095C55.2491 48.544 54.8519 47.3591 55.0204 45.8549C55.2691 45.484 55.5569 45.2058 55.884 45.0203C56.2323 44.8349 56.5878 44.7421 56.9505 44.7421C57.4412 44.7421 57.7972 44.8864 58.0186 45.1749C58.2399 45.4633 58.3101 45.9579 58.229 46.6585L58.1451 49.7186L57.289 48.8531C57.745 49.1416 58.1805 49.3477 58.5953 49.4713C59.0315 49.5949 59.591 49.6568 60.2736 49.6568C61.959 49.6568 63.4224 49.1313 64.664 48.0804C65.9056 47.0294 66.7887 45.5252 67.3132 43.5676C67.8157 41.6924 67.7111 40.2911 66.9996 39.3638C66.3094 38.4366 65.175 37.9729 63.5963 37.9729C62.935 37.9729 62.2918 38.0244 61.6669 38.1275C61.042 38.2305 60.4246 38.385 59.8147 38.5911L59.0583 38.1893L62.7003 27.4636H74.7643L74.0189 30.2455H62.5309L63.7246 28.2982L60.452 38.0038L59.4231 37.6638C60.4082 37.2517 61.3495 36.9632 62.247 36.7984C63.1445 36.6335 64.0733 36.5511 65.0333 36.5511C67.4866 36.5511 69.2734 37.1281 70.3935 38.282C71.535 39.436 71.802 41.1463 71.1946 43.413C70.7916 44.9173 70.0811 46.2155 69.0631 47.3076C68.0506 48.3792 66.8137 49.2137 65.3522 49.8113C63.8963 50.3883 62.3043 50.6768 60.5763 50.6768Z" fill="white"/>
<path d="M97.5 11L87 0V11H97.5Z" fill="#125D78"/>
</svg>
