<svg width="278" height="6" viewBox="0 0 278 6" fill="none" xmlns="http://www.w3.org/2000/svg">
<path d="M278 4.8457H139.354V6.00005H278V4.8457Z" fill="#AF2304"/>
<path d="M278 3.92676H139.354V4.84891H278V3.92676Z" fill="white"/>
<path d="M278 2.77588H139.354V3.93023H278V2.77588Z" fill="#AF2304"/>
<path d="M278 0.762207H139.354V1.91655H278V0.762207Z" fill="#AF2304"/>
<path d="M278 1.87683H139.354V2.79898H278V1.87683Z" fill="white"/>
<path d="M139.354 4.8457H0.71875V6.00005H139.354V4.8457Z" fill="#AF2304"/>
<path d="M139.354 2.77588H0.71875V3.93023H139.354V2.77588Z" fill="#AF2304"/>
<path d="M139.354 0.762207H0.71875V1.91655H139.354V0.762207Z" fill="#AF2304"/>
<path d="M139.354 3.92664H0.71875V4.84879H139.354V3.92664Z" fill="white"/>
<path d="M139.354 1.87683H0.71875V2.79898H139.354V1.87683Z" fill="white"/>
</svg>
