<svg width="280" height="35" viewBox="0 0 280 35" fill="none" xmlns="http://www.w3.org/2000/svg">
<g clip-path="url(#clip0_72_454)">
<path d="M280 16.5419H140.334V17.6962H280V16.5419Z" fill="#AF2304"/>
<path d="M280 15.623H140.334V16.5452H280V15.623Z" fill="white"/>
<path d="M280 14.4719H140.334V15.6263H280V14.4719Z" fill="#AF2304"/>
<path d="M280 12.4585H140.334V13.6128H280V12.4585Z" fill="#AF2304"/>
<path d="M280 13.573H140.334V14.4952H280V13.573Z" fill="white"/>
<path d="M140.334 16.5419H0.679688V17.6962H140.334V16.5419Z" fill="#AF2304"/>
<path d="M140.334 14.4719H0.679688V15.6263H140.334V14.4719Z" fill="#AF2304"/>
<path d="M140.334 12.4585H0.679688V13.6128H140.334V12.4585Z" fill="#AF2304"/>
<path d="M140.334 15.6229H0.679688V16.5451H140.334V15.6229Z" fill="white"/>
<path d="M140.334 13.573H0.679688V14.4952H140.334V13.573Z" fill="white"/>
<path d="M136.152 13.0446C134.975 13.0446 133.724 12.9544 132.422 12.7798C130.623 12.5296 129.027 12.166 127.684 11.7005C127.266 11.5521 126.918 11.4096 126.629 11.2641C126.345 11.1245 126.017 10.9237 125.702 10.6939C125.082 10.243 124.594 9.72512 124.247 9.15491C123.886 8.56434 123.676 7.90685 123.642 7.24937C123.604 6.58315 123.742 5.90821 124.035 5.30018C124.33 4.69215 124.772 4.16849 125.315 3.78738C125.854 3.40627 126.494 3.17062 127.159 3.10662C127.814 3.04262 128.502 3.1328 129.202 3.37427C129.529 3.48773 129.868 3.6361 130.204 3.81938L130.439 3.95321C130.522 4.00266 130.597 4.04921 130.674 4.09867C130.826 4.19758 130.984 4.30813 131.139 4.4245C131.69 4.8347 132.29 5.35255 132.978 6.00422C133.546 6.54533 134.117 7.12427 134.726 7.77885C135.908 9.05309 136.984 10.3448 137.928 11.6161L137.239 12.1398L137.282 13.0126C136.912 13.0329 136.533 13.0416 136.146 13.0416L136.152 13.0446ZM127.575 3.96194C127.464 3.96194 127.352 3.96775 127.243 3.97939C126.72 4.02885 126.224 4.21213 125.805 4.50887C125.383 4.80561 125.036 5.2129 124.807 5.69002C124.577 6.16422 124.471 6.68789 124.5 7.20573C124.528 7.72648 124.689 8.22978 124.979 8.70107C125.266 9.17237 125.679 9.60584 126.207 9.98986C126.477 10.1877 126.769 10.3681 127.007 10.4844C127.268 10.6124 127.59 10.7463 127.971 10.8801C129.26 11.3281 130.798 11.6772 132.542 11.9187C134.221 12.1456 135.807 12.2242 137.251 12.1485C136.327 10.9034 135.271 9.63494 134.109 8.38397C133.512 7.74394 132.952 7.17664 132.399 6.65007C131.736 6.02167 131.159 5.52419 130.637 5.13436C130.496 5.02962 130.353 4.9278 130.215 4.83761C130.149 4.79398 130.083 4.75325 130.017 4.71543L129.796 4.59033C129.509 4.43323 129.214 4.30232 128.93 4.20631C128.465 4.0463 128.012 3.96484 127.578 3.96484L127.575 3.96194Z" fill="#AF2304"/>
<path d="M136.135 14.6126C134.895 14.6126 133.604 14.5195 132.218 14.3333C130.287 14.0627 128.64 13.6875 127.18 13.1813C126.695 13.0096 126.305 12.8467 125.952 12.6721C125.576 12.4859 125.2 12.2532 124.801 11.9652C124.018 11.3921 123.389 10.7259 122.936 9.9811C122.437 9.17233 122.15 8.25592 122.101 7.33661C122.049 6.40274 122.239 5.46015 122.652 4.61066C123.062 3.76407 123.679 3.03385 124.44 2.50146C125.197 1.96617 126.086 1.63742 127.016 1.54724C127.88 1.45996 128.812 1.58215 129.707 1.89343C130.542 2.18436 131.337 2.61202 132.066 3.16768C133.521 4.27319 134.798 5.57652 135.859 6.70821C137.081 8.029 138.198 9.36434 139.176 10.6822L138.487 11.2059C137.529 9.91418 136.433 8.60212 135.234 7.30751C134.201 6.20492 132.953 4.93358 131.55 3.86589C130.892 3.36841 130.178 2.98149 129.426 2.71966C128.646 2.4491 127.84 2.34437 127.096 2.4171C126.313 2.49274 125.564 2.76911 124.927 3.21714C124.287 3.66516 123.768 4.28191 123.421 4.99468C123.074 5.70744 122.913 6.50166 122.959 7.28715C122.999 8.06101 123.246 8.83486 123.668 9.52144C124.064 10.1702 124.615 10.752 125.303 11.2553C125.662 11.5143 125.998 11.7208 126.33 11.8866C126.652 12.0467 127.01 12.195 127.461 12.355C128.864 12.8409 130.459 13.2045 132.333 13.4664C134.132 13.7078 135.767 13.7893 137.328 13.7078L137.371 14.5806C136.964 14.601 136.553 14.6126 136.135 14.6126Z" fill="#AF2304"/>
<path d="M136.14 16.1342C134.832 16.1342 133.472 16.0382 132.017 15.8404C129.954 15.5494 128.261 15.1625 126.686 14.6156C126.135 14.4207 125.705 14.2403 125.292 14.0366C124.824 13.8039 124.402 13.545 123.923 13.1959C122.979 12.5064 122.219 11.6947 121.659 10.7812C121.028 9.75716 120.661 8.59346 120.601 7.41813C120.535 6.22244 120.776 5.01802 121.301 3.93869C121.823 2.85937 122.609 1.93132 123.579 1.25056C124.546 0.566893 125.682 0.145054 126.867 0.0345037C127.943 -0.0731379 129.091 0.0723237 130.19 0.453433C130.672 0.619259 131.162 0.837452 131.641 1.09637L131.974 1.28256C132.103 1.3582 132.218 1.43093 132.327 1.50367C132.525 1.63458 132.729 1.77713 132.95 1.94005C133.802 2.58008 134.528 3.2463 135.067 3.75541C135.681 4.33726 136.298 4.96274 136.949 5.66678C138.226 7.04575 139.345 8.38691 140.373 9.7717L139.684 10.2954C138.677 8.93675 137.578 7.61887 136.321 6.26608C135.681 5.57659 135.076 4.96565 134.476 4.39544C133.954 3.90087 133.251 3.25793 132.436 2.64408C132.232 2.4928 132.043 2.35898 131.859 2.2397C131.759 2.17279 131.653 2.10879 131.547 2.04478L131.228 1.86441C130.795 1.63167 130.35 1.43384 129.908 1.28256C128.927 0.942184 127.903 0.811268 126.947 0.907273C125.923 1.00619 124.902 1.38148 124.069 1.97205C123.22 2.56844 122.532 3.38303 122.072 4.32853C121.61 5.27694 121.398 6.33008 121.458 7.3774C121.51 8.39273 121.843 9.44005 122.388 10.3274C122.887 11.1449 123.573 11.8751 124.422 12.4947C124.861 12.8118 125.246 13.0475 125.668 13.2599C126.049 13.449 126.448 13.6148 126.965 13.7981C128.485 14.3217 130.126 14.6999 132.132 14.9821C134.023 15.2381 135.75 15.3196 137.406 15.2352L137.449 16.108C137.018 16.1313 136.582 16.14 136.14 16.14V16.1342Z" fill="#AF2304"/>
<path d="M141.927 12.1913L141.362 12.8501L162.964 31.8829L163.528 31.2241L141.927 12.1913Z" fill="#AF2304"/>
<path d="M140.913 13.3738L140.349 14.0326L161.95 33.0654L162.515 32.4066L140.913 13.3738Z" fill="#AF2304"/>
<path d="M139.927 14.5251L139.363 15.1838L160.964 34.2167L161.529 33.5579L139.927 14.5251Z" fill="#AF2304"/>
<path d="M141.361 14.5221L119.766 33.5626L120.331 34.2212L141.926 15.1807L141.361 14.5221Z" fill="#AF2304"/>
<path d="M140.345 13.3415L118.75 32.382L119.315 33.0405L140.91 14.0001L140.345 13.3415Z" fill="#AF2304"/>
<path d="M139.362 12.1946L117.768 31.2351L118.332 31.8937L139.927 12.8532L139.362 12.1946Z" fill="#AF2304"/>
<path d="M145.15 16.1342C144.708 16.1342 144.272 16.1226 143.842 16.1022L143.885 15.2294C145.54 15.3138 147.268 15.2294 149.161 14.9763C151.161 14.6941 152.805 14.3188 154.329 13.7923C154.842 13.609 155.241 13.4432 155.623 13.2541C156.042 13.0446 156.429 12.8089 156.868 12.4889C157.717 11.8693 158.4 11.139 158.899 10.3245C159.448 9.43423 159.777 8.38691 159.829 7.3745C159.889 6.32717 159.677 5.27403 159.215 4.32562C158.756 3.38012 158.067 2.56554 157.218 1.96914C156.383 1.37857 155.362 1.00037 154.34 0.904364C153.385 0.808359 152.36 0.939275 151.379 1.27965C150.937 1.43093 150.493 1.62876 150.054 1.86732L149.735 2.04769C149.635 2.10879 149.529 2.17279 149.428 2.23679C149.244 2.35607 149.055 2.4899 148.849 2.64408C148.037 3.25502 147.331 3.90087 146.808 4.39253C146.209 4.95983 145.606 5.57368 144.964 6.26317C143.71 7.61596 142.611 8.93384 141.604 10.2925L140.915 9.76879C141.942 8.38691 143.061 7.04284 144.338 5.66678C144.995 4.96274 145.609 4.33726 146.223 3.75541C146.763 3.2463 147.488 2.57717 148.338 1.94005C148.559 1.77422 148.762 1.63167 148.963 1.50367C149.072 1.43093 149.19 1.3582 149.31 1.28838L149.643 1.09928C150.131 0.837452 150.619 0.619259 151.101 0.453433C152.197 0.0723237 153.345 -0.0731379 154.423 0.0345037C155.606 0.147964 156.745 0.566893 157.712 1.25347C158.679 1.93423 159.465 2.86228 159.987 3.9416C160.512 5.02384 160.756 6.22826 160.687 7.42395C160.627 8.59637 160.26 9.76007 159.628 10.787C159.069 11.7005 158.308 12.5122 157.367 13.2017C156.885 13.5508 156.463 13.8097 155.999 14.0425C155.468 14.3043 154.977 14.4876 154.607 14.6214C153.026 15.1683 151.333 15.5553 149.273 15.8462C147.816 16.0411 146.456 16.14 145.147 16.14L145.15 16.1342Z" fill="#AF2304"/>
<path d="M145.156 14.566C144.74 14.566 144.327 14.5543 143.922 14.5339L143.965 13.6612C145.52 13.7426 147.153 13.6612 148.955 13.4197C150.823 13.1579 152.415 12.7942 153.821 12.3084C154.263 12.1513 154.622 12.0029 154.946 11.8429C155.276 11.68 155.609 11.4734 155.964 11.2145C156.65 10.7141 157.195 10.1352 157.588 9.49225C158.007 8.81149 158.248 8.04636 158.289 7.28123C158.332 6.50156 158.174 5.71607 157.829 5.01203C157.488 4.30509 156.972 3.69415 156.34 3.25195C155.709 2.80684 154.969 2.53337 154.194 2.45773C153.457 2.385 152.656 2.48973 151.882 2.75738C151.138 3.0163 150.427 3.40032 149.77 3.8978C148.372 4.95967 147.127 6.231 146.091 7.3336C144.895 8.6253 143.802 9.93445 142.843 11.2262L142.155 10.7025C143.133 9.38461 144.246 8.04927 145.466 6.7343C146.528 5.60261 147.804 4.29927 149.253 3.19958C149.982 2.64974 150.771 2.22208 151.6 1.93116C152.493 1.62278 153.417 1.5035 154.277 1.58787C155.198 1.67515 156.082 2.00389 156.834 2.53337C157.586 3.06285 158.2 3.78725 158.604 4.62511C159.012 5.46587 159.201 6.39974 159.149 7.32778C159.101 8.23837 158.814 9.14605 158.32 9.95191C157.87 10.6909 157.244 11.3512 156.467 11.9215C156.071 12.2095 155.695 12.4393 155.322 12.6255C154.969 12.8 154.581 12.9601 154.102 13.1317C152.642 13.6379 150.998 14.0132 149.07 14.2838C147.684 14.4699 146.393 14.563 145.156 14.563V14.566Z" fill="#AF2304"/>
<path d="M145.139 13.0446C144.751 13.0446 144.373 13.0359 144.003 13.0155L144.046 12.1456L143.357 11.622C144.301 10.3506 145.377 9.05894 146.559 7.78469C147.17 7.12721 147.741 6.54827 148.306 6.01006C148.992 5.35839 149.595 4.84055 150.146 4.43035C150.303 4.31107 150.461 4.20052 150.613 4.10161C150.691 4.05215 150.765 4.0056 150.84 3.96196L151.078 3.82814C151.42 3.64486 151.755 3.49358 152.085 3.38012C152.785 3.13574 153.474 3.04556 154.131 3.11247C154.797 3.17647 155.436 3.41212 155.976 3.79323C156.518 4.17434 156.96 4.698 157.256 5.30603C157.551 5.91115 157.686 6.58609 157.649 7.2523C157.614 7.90979 157.405 8.56728 157.043 9.15785C156.696 9.72515 156.205 10.243 155.589 10.6968C155.273 10.9267 154.946 11.1303 154.662 11.267C154.372 11.4125 154.028 11.5551 153.609 11.7034C152.263 12.1718 150.668 12.5355 148.872 12.7828C147.566 12.9602 146.315 13.0475 145.139 13.0475V13.0446ZM144.046 12.1456C145.489 12.2213 147.073 12.1456 148.754 11.9158C150.496 11.6743 152.034 11.3252 153.325 10.8743C153.701 10.7405 154.025 10.6066 154.283 10.4786C154.521 10.3623 154.814 10.1819 155.084 9.98407C155.609 9.60005 156.022 9.16658 156.312 8.69528C156.601 8.22399 156.762 7.72069 156.791 7.19994C156.819 6.68209 156.713 6.15843 156.484 5.68714C156.254 5.21002 155.91 4.80273 155.485 4.50599C155.066 4.20925 154.567 4.02888 154.048 3.97651C153.514 3.92414 152.949 3.99978 152.364 4.20343C152.077 4.30234 151.784 4.43326 151.488 4.59327L151.265 4.71836C151.21 4.75036 151.144 4.79109 151.078 4.83473C150.94 4.92492 150.797 5.02383 150.656 5.13147C150.134 5.52131 149.557 6.01879 148.897 6.64718C148.344 7.17085 147.784 7.73814 147.187 8.38399C146.028 9.63496 144.972 10.9005 144.046 12.1485V12.1456Z" fill="#AF2304"/>
<path d="M136.158 13.74C134.95 13.74 133.667 13.6498 132.333 13.4694C130.462 13.2105 128.87 12.8469 127.461 12.3581C127.016 12.201 126.649 12.0468 126.328 11.8897C126.006 11.7297 125.65 11.5115 125.303 11.2584C124.612 10.7522 124.061 10.1704 123.665 9.52451C123.243 8.83794 122.999 8.06408 122.956 7.29022C122.913 6.50473 123.071 5.71342 123.418 4.99775C123.765 4.28499 124.285 3.66823 124.922 3.22021C125.559 2.77219 126.307 2.49581 127.091 2.42017C128.508 2.27471 130.132 2.80419 131.547 3.87188C132.955 4.93957 134.252 6.26908 135.225 7.30768C136.427 8.6052 137.52 9.91435 138.479 11.206L137.928 11.625C136.984 10.3536 135.908 9.06195 134.726 7.78479C133.773 6.76656 132.505 5.46614 131.136 4.42754C129.86 3.46458 128.411 2.98165 127.16 3.10966C126.491 3.17366 125.854 3.40931 125.315 3.79042C124.772 4.17153 124.331 4.69519 124.035 5.30322C123.739 5.90834 123.605 6.58037 123.642 7.24659C123.676 7.90407 123.886 8.56447 124.247 9.14922C124.594 9.71652 125.085 10.2344 125.702 10.6853C126.021 10.9151 126.339 11.113 126.626 11.2555C126.921 11.401 127.266 11.5435 127.682 11.6919C129.045 12.1632 130.594 12.5181 132.419 12.7712C134.152 13.004 135.79 13.0854 137.285 13.0069L137.32 13.7051C136.938 13.7254 136.548 13.7342 136.152 13.7342L136.158 13.74Z" fill="white"/>
<path d="M136.138 15.2907C134.869 15.2907 133.547 15.1947 132.129 15.0056C130.127 14.7263 128.485 14.3481 126.959 13.8215C126.44 13.6353 126.038 13.4695 125.656 13.2833C125.24 13.0768 124.844 12.8324 124.408 12.5182C123.553 11.8927 122.867 11.1625 122.365 10.3421C121.809 9.43441 121.484 8.41036 121.43 7.37467C121.37 6.32444 121.585 5.26548 122.047 4.31416C122.506 3.36284 123.2 2.54535 124.052 1.94605C124.902 1.34675 125.903 0.974365 126.947 0.875451C127.906 0.779446 128.933 0.910362 129.92 1.25365C130.362 1.40493 130.807 1.60276 131.248 1.84132C131.472 1.9635 131.685 2.0886 131.877 2.2137C132.058 2.33298 132.247 2.46389 132.456 2.61808C133.948 3.75268 135.205 5.02983 136.344 6.24298C137.601 7.59868 138.7 8.91657 139.707 10.2752L139.156 10.6941C138.163 9.35586 137.079 8.05834 135.842 6.7201C134.729 5.53313 133.495 4.27925 132.046 3.17665C131.854 3.0341 131.673 2.909 131.504 2.79845C131.326 2.68208 131.134 2.56862 130.924 2.45516C130.517 2.23406 130.104 2.05078 129.696 1.91114C128.801 1.59985 127.874 1.48057 127.011 1.56785C126.084 1.65512 125.197 1.98387 124.443 2.51626C123.685 3.04865 123.071 3.77595 122.664 4.61963C122.253 5.46331 122.064 6.40299 122.116 7.33394C122.164 8.25035 122.451 9.16385 122.948 9.96971C123.401 10.7116 124.027 11.3778 124.807 11.948C125.212 12.2389 125.576 12.4658 125.958 12.6549C126.313 12.8295 126.692 12.9866 127.183 13.1611C128.663 13.6732 130.264 14.0397 132.218 14.3132C134.072 14.5634 135.756 14.6419 137.369 14.5605L137.403 15.2587C136.984 15.2791 136.562 15.2907 136.132 15.2907H136.138Z" fill="white"/>
<path d="M141.365 12.8478L140.913 13.3749L162.515 32.4077L162.966 31.8807L141.365 12.8478Z" fill="white"/>
<path d="M140.362 14.0191L139.911 14.5461L161.512 33.579L161.964 33.0519L140.362 14.0191Z" fill="white"/>
<path d="M140.914 13.9975L119.309 33.0265L119.761 33.5536L141.365 14.5246L140.914 13.9975Z" fill="white"/>
<path d="M139.91 12.8281L118.305 31.8571L118.757 32.3842L140.362 13.3552L139.91 12.8281Z" fill="white"/>
<path d="M145.153 15.2672C144.725 15.2672 144.303 15.2556 143.887 15.2352L143.922 14.537C145.534 14.6185 147.219 14.537 149.069 14.2897C151.023 14.0163 152.621 13.6497 154.102 13.1377C154.587 12.966 154.965 12.8089 155.321 12.6315C155.7 12.4424 156.064 12.2184 156.466 11.9274C157.241 11.3601 157.866 10.6968 158.317 9.95788C158.81 9.15493 159.097 8.24725 159.146 7.33375C159.198 6.4057 159.008 5.46893 158.601 4.63107C158.193 3.79031 157.582 3.06591 156.828 2.53643C156.076 2.00695 155.195 1.6782 154.274 1.59093C153.413 1.50656 152.489 1.62293 151.6 1.93422C151.192 2.07386 150.782 2.25714 150.375 2.47533C150.168 2.58588 149.973 2.70225 149.798 2.81571C149.623 2.92917 149.445 3.05427 149.253 3.19682C147.81 4.2936 146.576 5.54748 145.46 6.73736C144.223 8.0727 143.141 9.37021 142.149 10.7056L141.598 10.2866C142.605 8.93092 143.704 7.61304 144.958 6.25733C146.097 5.04418 147.353 3.76703 148.84 2.63825C149.043 2.48697 149.233 2.35315 149.422 2.23096C149.614 2.10586 149.827 1.98076 150.05 1.85858C150.489 1.62293 150.934 1.4251 151.376 1.27091C152.36 0.930531 153.385 0.799616 154.34 0.895621C155.379 0.994534 156.374 1.36401 157.221 1.96331C158.067 2.5597 158.759 3.37429 159.218 4.3227C159.68 5.27111 159.892 6.32425 159.832 7.37448C159.777 8.40435 159.456 9.42549 158.899 10.3274C158.4 11.1419 157.714 11.8722 156.865 12.4947C156.429 12.8118 156.033 13.0533 155.62 13.2599C155.241 13.446 154.831 13.6177 154.323 13.7981C152.796 14.3246 151.155 14.7028 149.158 14.9821C147.741 15.1741 146.418 15.2672 145.15 15.2672H145.153Z" fill="white"/>
<path d="M145.133 13.7136C144.737 13.7136 144.346 13.7049 143.965 13.6845L143.999 12.9863C145.494 13.0649 147.13 12.9863 148.863 12.7507C150.685 12.4976 152.234 12.1456 153.597 11.6713C154.01 11.5259 154.354 11.3833 154.647 11.2379C154.934 11.0953 155.252 10.9004 155.568 10.6677C156.182 10.2196 156.67 9.70471 157.014 9.14032C157.373 8.55556 157.579 7.90099 157.617 7.24932C157.654 6.58601 157.519 5.9198 157.226 5.31759C156.934 4.71247 156.495 4.19462 155.955 3.81642C155.419 3.43822 154.785 3.20549 154.125 3.14148C152.88 3.01639 151.433 3.4935 150.162 4.45355C148.797 5.48923 147.528 6.78966 146.576 7.80789C145.397 9.07922 144.321 10.3709 143.377 11.6452L142.826 11.2262C143.784 9.93454 144.877 8.62248 146.077 7.33078C147.049 6.29218 148.343 4.96557 149.752 3.89788C151.161 2.8331 152.779 2.30653 154.194 2.44909C154.971 2.52473 155.717 2.79819 156.351 3.24622C156.985 3.69133 157.505 4.30227 157.846 5.01503C158.191 5.72488 158.351 6.51328 158.305 7.29587C158.265 8.0639 158.021 8.83485 157.602 9.51561C157.209 10.1585 156.661 10.7404 155.973 11.2437C155.625 11.4968 155.272 11.715 154.951 11.8721C154.633 12.0292 154.265 12.1805 153.824 12.3376C152.415 12.8263 150.822 13.19 148.957 13.4489C147.62 13.6293 146.341 13.7194 145.133 13.7194V13.7136Z" fill="white"/>
<path d="M138.68 17.2805C138.137 17.2805 137.698 16.8907 137.698 16.4107V10.2693C137.698 9.78925 138.137 9.39941 138.682 9.39941C139.228 9.39941 139.664 9.78925 139.664 10.2693V16.4107C139.664 16.8907 139.222 17.2805 138.68 17.2805Z" fill="white"/>
<path d="M137.638 17.2863C137.4 17.0448 137.271 16.7335 137.271 16.4048V10.2634C137.271 9.54484 137.902 8.96008 138.683 8.96008C139.079 8.96008 139.457 9.11427 139.724 9.38483C139.962 9.6263 140.091 9.93758 140.091 10.2634V16.4048C140.091 16.7656 139.937 17.1001 139.658 17.3474C139.394 17.5801 139.047 17.7081 138.683 17.7111C138.287 17.7111 137.908 17.5569 137.641 17.2863H137.638ZM139.119 9.99868C139.013 9.89104 138.852 9.82703 138.68 9.82703C138.379 9.82703 138.126 10.0278 138.126 10.2634V16.4048C138.126 16.527 138.189 16.6172 138.244 16.6725C138.35 16.7801 138.511 16.8441 138.683 16.8441C138.84 16.8441 138.99 16.7917 139.096 16.6957C139.15 16.6492 139.236 16.5503 139.236 16.4077V10.2663C139.236 10.1441 139.173 10.054 139.119 9.99868Z" fill="#AF2304"/>
<path d="M142.61 17.2804C142.068 17.2804 141.629 16.8905 141.626 16.4105V10.2691C141.626 9.78911 142.065 9.39927 142.607 9.39636C143.15 9.39636 143.591 9.7862 143.591 10.2691V16.4105C143.591 16.8905 143.152 17.2804 142.61 17.2804Z" fill="white"/>
<path d="M141.569 17.2863C141.331 17.0449 141.202 16.7336 141.202 16.4077V10.2663C141.202 9.54777 141.833 8.96301 142.613 8.96301C143.009 8.96301 143.391 9.1172 143.655 9.38776C143.893 9.62923 144.022 9.94051 144.022 10.2663V16.4077C144.022 16.7685 143.867 17.103 143.589 17.3503C143.325 17.5831 142.978 17.714 142.613 17.714C142.217 17.714 141.836 17.5598 141.572 17.2892L141.569 17.2863ZM143.049 9.9987C142.943 9.89106 142.783 9.82705 142.61 9.82705C142.309 9.82705 142.054 10.0278 142.054 10.2663V16.4077C142.054 16.5299 142.117 16.6201 142.171 16.6754C142.278 16.783 142.438 16.847 142.61 16.847C142.768 16.847 142.917 16.7947 143.024 16.6987C143.075 16.6521 143.164 16.5503 143.164 16.4077V10.2663C143.164 10.1442 143.101 10.054 143.047 9.9987H143.049Z" fill="#AF2304"/>
<path d="M140.645 17.2804C140.103 17.2804 139.661 16.8905 139.661 16.4105V10.2691C139.661 9.78911 140.1 9.39927 140.642 9.39636C141.185 9.39636 141.627 9.7862 141.627 10.2691V16.4105C141.627 16.8905 141.188 17.2804 140.645 17.2804Z" fill="white"/>
<path d="M139.604 17.2863C139.365 17.0449 139.236 16.7336 139.236 16.4077V10.2663C139.236 9.54777 139.868 8.96301 140.648 8.96301C141.044 8.96301 141.423 9.1172 141.69 9.38776C141.928 9.62923 142.057 9.94051 142.057 10.2663V16.4077C142.057 16.7685 141.902 17.103 141.624 17.3503C141.36 17.5831 141.012 17.714 140.648 17.714C140.252 17.714 139.87 17.5598 139.606 17.2892L139.604 17.2863ZM141.084 9.9987C140.978 9.89106 140.817 9.82705 140.645 9.82705C140.344 9.82705 140.091 10.0278 140.091 10.2663V16.4077C140.091 16.5299 140.154 16.6201 140.209 16.6754C140.315 16.783 140.476 16.847 140.648 16.847C140.806 16.847 140.955 16.7947 141.061 16.6987C141.116 16.6521 141.205 16.5503 141.205 16.4077V10.2663C141.205 10.1442 141.142 10.054 141.087 9.9987H141.084Z" fill="#AF2304"/>
</g>
<defs>
<clipPath id="clip0_72_454">
<rect width="280" height="34.2213" fill="white"/>
</clipPath>
</defs>
</svg>
