<svg width="70" height="18" viewBox="0 0 70 18" fill="none" xmlns="http://www.w3.org/2000/svg">
<g clip-path="url(#clip0_46_1308)">
<path d="M3.10657 12.0069H10.1044C11.8243 12.0069 13.211 10.659 13.211 9.01037C13.211 7.36175 11.8136 6.01382 10.1044 6.01382H7.77181C6.0519 6.01382 4.66523 4.6659 4.66523 3.01728C4.66523 1.36866 6.06265 0 7.78255 0H66.8934C68.6133 0 70 1.34793 70 2.99654C70 4.64516 68.6026 5.99309 66.8934 5.99309H21.7783C20.0584 5.99309 18.6717 7.34101 18.6717 8.98963C18.6717 10.6382 20.0691 11.9862 21.7783 11.9862H31.1087C32.8286 11.9862 34.2153 13.3341 34.2153 14.9827C34.2153 16.6313 32.8179 17.9793 31.1087 17.9793H3.10657C1.38667 17.9793 0 16.6313 0 14.9827C0 13.3341 1.39742 11.9862 3.10657 11.9862V12.0069Z" fill="#D4B987"/>
</g>
<defs>
<clipPath id="clip0_46_1308">
<rect width="70" height="18" fill="white"/>
</clipPath>
</defs>
</svg>
