<svg width="77" height="32" viewBox="0 0 77 32" fill="none" xmlns="http://www.w3.org/2000/svg">
<g clip-path="url(#clip0_46_1317)">
<path d="M73.8278 6.4045H31.755C29.9964 6.4045 28.5828 7.84018 28.5828 9.60114C28.5828 11.3621 30.0075 12.7978 31.755 12.7978H63.51C65.2686 12.7978 66.6821 14.2335 66.6821 15.9944C66.6821 17.7554 65.2574 19.191 63.51 19.191H61.1281C59.3806 19.191 57.9559 20.6267 57.9559 22.3877C57.9559 24.1486 59.3806 25.5843 61.1281 25.5843H68.2738C70.0324 25.5843 71.4459 27.02 71.4459 28.7809C71.4459 30.5419 70.0212 31.9776 68.2738 31.9776H39.6909C37.9324 31.9776 36.5188 30.5419 36.5188 28.7809C36.5188 27.02 37.9435 25.5843 39.6909 25.5843H49.2186C50.9772 25.5843 52.3907 24.1486 52.3907 22.3877C52.3907 20.6267 50.966 19.191 49.2186 19.191H3.17216C1.41356 19.191 0 17.7554 0 15.9944C0 14.2335 1.42469 12.7978 3.17216 12.7978H19.8455C21.6041 12.7978 23.0176 11.3621 23.0176 9.60114C23.0176 7.84018 21.5929 6.4045 19.8455 6.4045H13.49C11.7314 6.4045 10.3179 4.96882 10.3179 3.20787C10.3179 1.44691 11.7426 0.0112305 13.49 0.0112305H73.8278C75.5864 0.0112305 77 1.44691 77 3.20787C77 4.96882 75.5753 6.4045 73.8278 6.4045Z" fill="#D4B987"/>
</g>
<defs>
<clipPath id="clip0_46_1317">
<rect width="77" height="32" fill="white"/>
</clipPath>
</defs>
</svg>
