<svg width="335" height="384" viewBox="0 0 335 384" fill="none" xmlns="http://www.w3.org/2000/svg">
<path d="M13.9755 12.9023L18.7813 5.67592L25.0288 1H309.53L317.219 4.82575L321.063 13.3274L330.675 17.5782L335 24.8047V359.77L329.233 366.997L321.063 369.122L317.219 378.474L309.049 383.15L28.8734 384L17.3396 378.899L14.9367 369.972L6.76691 367.847L1 361.471V23.9545L5.32518 17.5782L13.9755 12.9023Z" fill="white"/>
<path d="M332.963 353.898C332.963 360.818 327.716 366.492 320.749 367.115L318.935 367.273L318.895 369.043C318.732 376.2 312.722 382.023 305.489 382.023L29.511 382.023C22.2784 382.023 16.2581 376.2 16.1053 369.043L16.0645 367.273L14.2513 367.115C7.28352 366.502 2.03734 360.818 2.03734 353.898L2.03735 30.1025C2.03735 23.1824 7.28354 17.5079 14.2513 16.8851L16.0645 16.7269L16.1053 14.9573C16.2683 7.79994 22.2784 1.97717 29.511 1.97717L305.489 1.97717C312.722 1.97717 318.742 7.79996 318.895 14.9573L318.935 16.7269L320.749 16.8851C327.716 17.498 332.963 23.1824 332.963 30.1025L332.963 353.898ZM335 353.898L335 30.1025C335 22.1444 328.817 15.6197 320.932 14.9178C320.749 6.6532 313.913 -8.93917e-07 305.489 -1.25105e-06L29.511 -7.2329e-06C21.0866 -7.59004e-06 14.2513 6.6433 14.0679 14.9178C6.18338 15.6197 2.95195e-05 22.1444 2.91608e-05 30.1025L1.4567e-05 353.898C1.42083e-05 361.856 6.18336 368.38 14.0679 369.082C14.2513 377.347 21.0866 384 29.511 384L305.489 384C313.913 384 320.749 377.357 320.932 369.082C328.817 368.38 335 361.856 335 353.898Z" fill="#D4B987"/>
<path d="M323.458 346.31C323.458 353.016 318.455 358.515 311.81 359.118L310.08 359.271L310.041 360.986C309.886 367.922 304.154 373.564 297.256 373.564L35.8248 373.564C28.9268 373.564 23.1851 367.922 23.0394 360.986L23.0005 359.271L21.2711 359.118C14.6258 358.524 9.62239 353.016 9.62239 346.31L9.6224 37.69C9.6224 30.9842 14.6258 25.4855 21.2711 24.882L23.0005 24.7287L23.0394 23.0139C23.1948 16.0783 28.9268 10.4358 35.8248 10.4358L297.256 10.4358C304.154 10.4358 309.896 16.0783 310.041 23.014L310.08 24.7287L311.81 24.882C318.455 25.4759 323.458 30.9842 323.458 37.69L323.458 346.31ZM325.401 346.31L325.401 37.69C325.401 29.9784 319.504 23.6558 311.984 22.9756C311.81 14.967 305.291 8.5199 297.256 8.5199L35.8248 8.51989C27.7901 8.51989 21.2711 14.9574 21.0963 22.9756C13.5766 23.6558 7.67932 29.9784 7.67932 37.69L7.67931 346.31C7.67931 354.022 13.5766 360.344 21.0963 361.024C21.2711 369.033 27.7901 375.48 35.8248 375.48L297.256 375.48C305.291 375.48 311.81 369.043 311.984 361.024C319.504 360.344 325.401 354.022 325.401 346.31Z" fill="#D4B987"/>
</svg>
