<svg width="218" height="50" viewBox="0 0 218 50" fill="none" xmlns="http://www.w3.org/2000/svg">
<g clip-path="url(#clip0_46_1314)">
<path d="M217.085 47.9386C158.356 40.8513 124.603 18.7699 110.655 7.3524C114.489 4.04059 116.377 1.90448 116.535 1.71405C116.91 1.28351 116.868 0.629431 116.436 0.256853C116.003 -0.115726 115.346 -0.0743281 114.972 0.356207C114.897 0.447281 112.959 2.59996 109.008 5.96972C105.057 2.59996 103.119 0.447281 103.045 0.356207C102.67 -0.0743281 102.013 -0.115726 101.581 0.256853C101.148 0.629431 101.098 1.28351 101.481 1.71405C101.639 1.8962 103.527 4.03231 107.361 7.3524C93.3964 18.7699 59.6442 40.8513 0.914816 47.9386C0.340913 48.0048 -0.0583239 48.5264 0.0082156 49.0894C0.0747551 49.6111 0.523897 50.0002 1.03958 50.0002C1.08116 50.0002 1.12275 50.0002 1.16434 50.0002C43.4252 44.9 72.5113 32.075 89.4706 22.2141C98.154 17.1636 104.592 12.4112 109 8.75164C113.408 12.4112 119.838 17.1636 128.529 22.2141C145.488 32.075 174.575 44.9 216.835 50.0002C216.877 50.0002 216.919 50.0002 216.96 50.0002C217.476 50.0002 217.925 49.6111 217.992 49.0894C218.058 48.5182 217.651 48.0048 217.085 47.9386Z" fill="#AC853B"/>
</g>
<defs>
<clipPath id="clip0_46_1314">
<rect width="218" height="50" fill="white"/>
</clipPath>
</defs>
</svg>
