<svg width="717" height="134" viewBox="0 0 717 134" fill="none" xmlns="http://www.w3.org/2000/svg">
<g filter="url(#filter0_d_46_1433)">
<mask id="mask0_46_1433" style="mask-type:alpha" maskUnits="userSpaceOnUse" x="30" y="30" width="413" height="75">
<path d="M410.444 42.0499C411.365 41.749 412.264 41.4481 413.142 41.1472C414.019 40.8463 414.853 40.6958 415.643 40.6958C416.432 40.6958 417.288 40.8463 418.209 41.1472C419.174 41.4481 420.095 41.8564 420.973 42.3722C421.894 42.8451 422.618 43.3609 423.144 43.9197C423.715 44.4356 424 44.9299 424 45.4028C424 45.9186 423.89 46.3699 423.671 46.7568C423.451 47.1437 423.21 47.5521 422.947 47.9819C422.684 48.4118 422.486 49.0136 422.355 49.7873C422.223 50.819 422.113 52.0011 422.026 53.3337C421.938 54.6662 421.872 56.0633 421.828 57.5248C421.828 58.9863 421.806 60.4049 421.762 61.7804C421.762 63.1989 421.741 64.8324 421.697 66.6808C421.697 68.4862 421.697 70.4206 421.697 72.4839C421.697 74.5042 421.697 76.4816 421.697 78.416C421.741 80.3503 421.784 82.1343 421.828 83.7677C421.872 85.3152 421.916 86.6048 421.96 87.6365C422.004 88.6681 422.026 89.4419 422.026 89.9577C422.026 91.2473 421.806 92.193 421.368 92.7948C420.973 93.3966 420.249 93.6975 419.196 93.6975C418.275 93.6975 417.463 93.3536 416.761 92.6658C416.103 91.978 415.599 91.0968 415.248 90.0222C414.941 88.9045 414.787 87.7224 414.787 86.4758C414.787 85.7021 414.897 84.9068 415.116 84.0901C415.335 83.2734 415.511 82.1987 415.643 80.8662C415.774 79.6626 415.884 78.244 415.972 76.6106C416.059 74.9341 416.103 73.2147 416.103 71.4522C416.147 69.6468 416.169 67.9489 416.169 66.3584C416.213 64.7249 416.235 63.3709 416.235 62.2962C416.235 60.9637 416.213 59.5451 416.169 58.0406C416.169 56.4931 416.147 54.9886 416.103 53.5271C416.059 52.0226 415.993 50.647 415.906 49.4005C415.862 48.1109 415.774 47.1007 415.643 46.3699C415.511 45.2953 415.006 44.5645 414.129 44.1777C413.252 43.7908 412.045 43.4684 410.51 43.2105L410.444 42.0499ZM420.578 60.0395C424.088 60.4693 427.4 61.1786 430.515 62.1673C433.673 63.113 436.218 64.1661 438.148 65.3267C439.42 66.0575 440.451 66.9172 441.241 67.9059C442.075 68.8516 442.491 70.0122 442.491 71.3878C442.491 72.2475 442.206 72.9997 441.636 73.6445C441.109 74.2893 440.364 74.6117 439.398 74.6117C438.565 74.6117 437.863 74.4398 437.293 74.0959C436.766 73.752 436.24 73.2791 435.713 72.6773C435.187 72.0326 434.551 71.3018 433.805 70.4851C433.059 69.6253 432.116 68.7226 430.975 67.7769C429.659 66.7453 428.168 65.7781 426.5 64.8754C424.833 63.9297 422.859 63.027 420.578 62.1673V60.0395Z" fill="white"/>
<path d="M368.698 54.909C369.285 54.909 370.131 54.8744 371.235 54.8054C372.374 54.7364 373.651 54.6501 375.066 54.5466C376.516 54.4085 377.982 54.2705 379.466 54.1324C380.95 53.9599 382.365 53.8045 383.711 53.6665C385.092 53.4939 386.283 53.3386 387.283 53.2006C388.319 53.028 389.044 52.9072 389.458 52.8382C390.079 52.7001 390.579 52.5276 390.959 52.3205C391.339 52.0789 391.684 51.8718 391.994 51.6993C392.34 51.5267 392.719 51.4404 393.133 51.4404C393.651 51.4404 394.272 51.6475 394.997 52.0617C395.722 52.4413 396.447 52.9417 397.171 53.563C397.896 54.1497 398.5 54.7537 398.983 55.3749C399.466 55.9616 399.708 56.462 399.708 56.8762C399.708 57.3594 399.518 57.808 399.139 58.2222C398.793 58.6363 398.397 59.0677 397.948 59.5164C397.534 59.9651 397.189 60.4655 396.913 61.0177C394.945 65.2628 392.547 69.1627 389.717 72.7175C386.887 76.2723 383.487 79.4302 379.518 82.1913C375.549 84.9178 370.873 87.2129 365.489 89.0765L364.816 87.9894C368.44 86.1257 371.753 84.0032 374.755 81.6218C377.758 79.2404 380.433 76.6865 382.78 73.96C385.126 71.2335 387.076 68.4207 388.629 65.5216C390.183 62.588 391.321 59.6545 392.046 56.7209C392.115 56.4448 392.098 56.255 391.994 56.1514C391.891 56.0479 391.718 55.9961 391.477 55.9961C390.994 55.9961 390.269 56.0651 389.302 56.2032C388.336 56.3067 387.232 56.4448 385.989 56.6173C384.747 56.7899 383.453 56.997 382.107 57.2386C380.795 57.4456 379.518 57.67 378.276 57.9116C377.033 58.1186 375.912 58.3257 374.911 58.5328C373.944 58.7054 373.22 58.8607 372.736 58.9987C372.115 59.1713 371.494 59.4646 370.873 59.8788C370.251 60.2584 369.665 60.4482 369.113 60.4482C368.457 60.4482 367.767 60.1894 367.042 59.6717C366.317 59.1195 365.661 58.481 365.075 57.7563C364.488 56.997 364.108 56.3412 363.936 55.789C363.798 55.2713 363.694 54.7709 363.625 54.2877C363.59 53.77 363.573 53.1661 363.573 52.4758L364.402 52.1652C364.988 52.8209 365.609 53.4422 366.265 54.0289C366.955 54.6156 367.767 54.909 368.698 54.909Z" fill="white"/>
<path d="M345.197 55.7767C344.679 55.0864 344.058 54.3099 343.333 53.4471C342.643 52.5497 341.711 51.6179 340.538 50.6515L341.159 49.9268C342.539 50.3754 343.765 50.8931 344.835 51.4798C345.939 52.032 346.854 52.6533 347.578 53.3435C348.165 53.8957 348.579 54.4134 348.821 54.8966C349.062 55.3798 349.166 55.863 349.131 56.3461C349.131 56.8293 348.976 57.2435 348.665 57.5886C348.355 57.8992 347.958 58.0373 347.475 58.0027C347.061 58.0027 346.681 57.7957 346.336 57.3815C345.991 56.9328 345.611 56.3979 345.197 55.7767ZM349.908 51.894C349.39 51.2383 348.786 50.548 348.096 49.8232C347.44 49.0985 346.491 48.2356 345.249 47.2348L345.766 46.51C347.181 46.8896 348.424 47.3211 349.494 47.8042C350.598 48.2874 351.478 48.8051 352.134 49.3573C352.755 49.9095 353.204 50.4617 353.48 51.0139C353.756 51.5316 353.877 52.0666 353.842 52.6188C353.842 53.1364 353.704 53.5333 353.428 53.8094C353.187 54.0856 352.824 54.2236 352.341 54.2236C351.892 54.1891 351.495 53.9648 351.15 53.5506C350.84 53.1019 350.426 52.5497 349.908 51.894ZM318.95 49.3055C319.709 48.9259 320.538 48.598 321.435 48.3219C322.332 48.0113 323.022 47.856 323.506 47.856C324.058 47.856 324.662 47.9423 325.318 48.1148C325.973 48.2529 326.595 48.46 327.181 48.7361C327.802 48.9777 328.303 49.271 328.683 49.6162C329.097 49.9268 329.321 50.2374 329.356 50.548C329.425 50.9276 329.39 51.2728 329.252 51.5834C329.148 51.8595 329.045 52.1701 328.941 52.5152C328.838 52.8258 328.821 53.24 328.89 53.7577C328.993 54.724 329.131 55.7249 329.304 56.7603C329.511 57.7957 329.787 59.1417 330.132 60.7983C330.65 63.3522 331.15 65.7681 331.633 68.0459C332.151 70.2893 332.617 72.36 333.031 74.2582C333.48 76.1219 333.877 77.7785 334.222 79.2281C334.601 80.6431 334.895 81.782 335.102 82.6448C335.447 83.9908 335.723 85.078 335.93 85.9063C336.172 86.7346 336.293 87.5801 336.293 88.443C336.293 88.9952 336.12 89.4783 335.775 89.8925C335.464 90.3412 334.912 90.5655 334.118 90.5655C333.635 90.5655 333.152 90.3757 332.669 89.996C332.22 89.6164 331.84 89.116 331.53 88.4947C331.219 87.908 330.995 87.304 330.857 86.6828C330.788 86.3722 330.702 85.8718 330.598 85.1815C330.529 84.4567 330.425 83.6284 330.287 82.6966C330.184 81.7647 330.046 80.8329 329.873 79.9011C329.666 78.7967 329.425 77.5887 329.148 76.2772C328.907 74.9312 328.648 73.568 328.372 72.1875C328.096 70.7724 327.82 69.4092 327.544 68.0977C327.268 66.7862 327.009 65.5783 326.767 64.4739C326.526 63.3695 326.318 62.4721 326.146 61.7819C325.835 60.4704 325.525 59.1934 325.214 57.951C324.903 56.674 324.61 55.5523 324.334 54.586C324.058 53.5851 323.816 52.8603 323.609 52.4117C323.402 51.963 323.109 51.6351 322.729 51.4281C322.349 51.1865 321.866 50.9967 321.28 50.8586C320.693 50.686 319.951 50.4617 319.053 50.1856L318.95 49.3055ZM311.185 60.3841L311.858 60.0217C312.41 60.4359 312.876 60.7983 313.255 61.1089C313.67 61.385 314.187 61.523 314.808 61.523C315.154 61.523 315.792 61.4368 316.724 61.2642C317.656 61.0571 318.726 60.8155 319.934 60.5394C321.176 60.2633 322.453 59.97 323.764 59.6594C325.076 59.3487 326.284 59.0554 327.388 58.7793C328.907 58.3996 330.253 58.0545 331.426 57.7439C332.6 57.3988 333.687 57.0709 334.688 56.7603C335.792 56.3806 336.638 56.0355 337.224 55.7249C337.811 55.3798 338.208 55.19 338.415 55.1554C338.829 55.1554 339.312 55.2072 339.865 55.3108C340.417 55.3798 340.935 55.5006 341.418 55.6731C341.935 55.8457 342.35 56.0873 342.66 56.3979C343.005 56.674 343.178 56.9846 343.178 57.3297C343.178 57.8474 343.005 58.2961 342.66 58.6757C342.315 59.0554 341.711 59.3315 340.848 59.504C339.64 59.7111 338.225 59.9872 336.603 60.3324C335.016 60.6775 333.48 61.0226 331.996 61.3677C330.512 61.6783 329.304 61.9544 328.372 62.196C326.853 62.5757 325.335 62.9726 323.816 63.3867C322.332 63.7664 321.021 64.1633 319.882 64.5774C319.157 64.8535 318.57 65.1296 318.122 65.4057C317.673 65.6818 317.155 65.8199 316.569 65.8199C316.154 65.8199 315.637 65.6646 315.016 65.354C314.429 65.0433 313.842 64.6637 313.255 64.215C312.703 63.7319 312.289 63.2659 312.013 62.8173C311.737 62.4376 311.547 62.0752 311.443 61.7301C311.374 61.385 311.288 60.9363 311.185 60.3841ZM308.751 73.2229L309.476 72.7569C310.236 73.3436 310.839 73.7578 311.288 73.9994C311.737 74.241 312.185 74.3618 312.634 74.3618C312.979 74.3618 313.618 74.2755 314.55 74.1029C315.481 73.8958 316.603 73.637 317.915 73.3264C319.226 73.0158 320.607 72.6706 322.056 72.291C323.506 71.9114 324.903 71.549 326.249 71.2039C327.63 70.8587 328.855 70.5481 329.925 70.272C331.029 69.9959 332.203 69.7026 333.445 69.3919C334.688 69.0468 335.913 68.7189 337.121 68.4083C338.329 68.0977 339.433 67.8044 340.434 67.5283C341.435 67.2176 342.229 66.9588 342.816 66.7517C343.506 66.5101 343.989 66.3203 344.265 66.1823C344.541 66.0097 344.8 65.9062 345.042 65.8716C345.973 65.8371 346.836 65.9407 347.63 66.1823C348.458 66.3893 349.131 66.6827 349.649 67.0623C350.201 67.4075 350.477 67.8216 350.477 68.3048C350.477 68.7535 350.339 69.1849 350.063 69.599C349.787 70.0132 349.2 70.2548 348.303 70.3238C346.854 70.4618 345.473 70.6171 344.162 70.7897C342.885 70.9623 341.573 71.1693 340.227 71.4109C338.881 71.6525 337.414 71.9631 335.827 72.3428C334.239 72.6879 332.41 73.1193 330.339 73.637C329.097 73.9476 327.733 74.3273 326.249 74.7759C324.765 75.2246 323.316 75.6733 321.901 76.1219C320.52 76.5706 319.347 77.002 318.381 77.4161C317.518 77.7613 316.845 78.1064 316.362 78.4515C315.878 78.7967 315.326 78.9865 314.705 79.021C314.187 79.021 313.583 78.8657 312.893 78.5551C312.203 78.2445 311.564 77.8648 310.978 77.4161C310.391 76.9675 309.959 76.5706 309.683 76.2255C309.476 75.8803 309.286 75.4662 309.114 74.983C308.976 74.4998 308.855 73.9131 308.751 73.2229Z" fill="white"/>
<path d="M342.032 58.22C340.799 58.8363 326.624 71.1622 312.449 74.86" stroke="white"/>
<path d="M264.538 39.5886H289.164V41.3961H263.184L264.538 39.5886ZM287.23 39.5886H286.392L290.647 35.8443L296.9 41.848C296.642 42.1923 296.299 42.429 295.869 42.5582C295.439 42.6442 294.794 42.7088 293.935 42.7518C289.336 49.9822 282.997 56.0505 274.917 60.9568C266.88 65.82 257.21 69.263 245.907 71.2858L245.456 70.382C251.86 68.4023 257.791 65.9061 263.249 62.8935C268.707 59.8378 273.499 56.3517 277.625 52.4353C281.751 48.4758 284.952 44.1936 287.23 39.5886ZM264.925 40.8797C266.644 44.3227 268.943 47.3353 271.823 49.9176C274.745 52.4999 278.076 54.7163 281.815 56.5669C285.554 58.3745 289.551 59.8593 293.806 61.0213C298.104 62.1403 302.53 63.0011 307.086 63.6036L306.957 64.3783C305.582 64.6795 304.421 65.3251 303.476 66.315C302.53 67.3048 301.864 68.5744 301.477 70.1238C295.632 68.7036 290.26 66.8099 285.361 64.4428C280.504 62.0327 276.25 58.977 272.596 55.2758C268.986 51.5315 266.15 46.948 264.087 41.5253L264.925 40.8797ZM267.504 66.5086C271.2 66.4656 274.273 66.7238 276.722 67.2833C279.172 67.7998 281.063 68.4884 282.395 69.3491C283.771 70.1668 284.695 71.0491 285.167 71.9959C285.64 72.8997 285.769 73.7174 285.554 74.4491C285.339 75.1807 284.867 75.7187 284.136 76.063C283.448 76.4073 282.61 76.4073 281.622 76.063C280.848 75.3314 279.752 74.4491 278.334 73.4162C276.916 72.3833 275.261 71.3504 273.37 70.3175C271.479 69.2415 269.416 68.2517 267.181 67.3479L267.504 66.5086ZM258.543 78.0642C263.958 78.0642 268.578 78.344 272.403 78.9035C276.271 79.463 279.451 80.1731 281.944 81.0339C284.48 81.8516 286.457 82.7554 287.875 83.7452C289.293 84.6921 290.26 85.6389 290.776 86.5857C291.292 87.5325 291.442 88.3503 291.227 89.0389C291.012 89.7705 290.54 90.287 289.809 90.5882C289.078 90.9325 288.219 90.9756 287.23 90.7173C285.597 89.5123 283.341 88.1996 280.461 86.7794C277.582 85.3591 274.251 83.9604 270.469 82.5832C266.687 81.206 262.647 80.0009 258.349 78.968L258.543 78.0642ZM267.439 30.4861L276.529 32.8747C276.4 33.262 276.164 33.5418 275.82 33.7139C275.476 33.843 274.874 33.8645 274.015 33.7785C272.253 36.7911 270.039 39.8037 267.375 42.8164C264.753 45.786 261.831 48.5404 258.607 51.0796C255.427 53.5758 252.053 55.6631 248.486 57.3416L247.97 56.6315C250.678 54.6517 253.278 52.2416 255.771 49.4011C258.306 46.5176 260.584 43.4404 262.604 40.1696C264.667 36.8987 266.279 33.6709 267.439 30.4861Z" fill="white"/>
<path d="M284.899 74.2437C285.515 76.7088 281.818 78.5577 259.631 78.5577" stroke="white"/>
<path d="M231.57 73.0151C230.754 73.0151 229.997 72.8111 229.297 72.4032C228.627 71.9953 228.088 71.4563 227.68 70.7862C227.272 70.0869 227.068 69.3293 227.068 68.5135C227.068 67.6686 227.272 66.911 227.68 66.2409C228.088 65.5708 228.627 65.0317 229.297 64.6238C229.997 64.2159 230.754 64.012 231.57 64.012C232.415 64.012 233.172 64.2159 233.843 64.6238C234.513 65.0317 235.052 65.5708 235.46 66.2409C235.868 66.911 236.071 67.6686 236.071 68.5135C236.071 69.3293 235.868 70.0869 235.46 70.7862C235.052 71.4563 234.513 71.9953 233.843 72.4032C233.172 72.8111 232.415 73.0151 231.57 73.0151Z" fill="white"/>
<path d="M176.808 45.1275V39.0029L184.578 39.7379C184.537 40.1462 184.354 40.4932 184.028 40.7791C183.742 41.0649 183.212 41.269 182.437 41.3915V45.1275H194.428V39.0029L202.259 39.7379C202.218 40.1462 202.035 40.5137 201.709 40.8403C201.423 41.1261 200.893 41.3099 200.118 41.3915V45.1275H207.643L210.886 41.024C210.886 41.024 211.212 41.2894 211.864 41.8202C212.517 42.351 213.292 43.0043 214.189 43.7801C215.127 44.5151 215.943 45.2296 216.637 45.9237C216.596 46.2503 216.412 46.4953 216.086 46.6587C215.8 46.822 215.433 46.9036 214.985 46.9036H200.118V49.8434C200.118 50.0476 199.669 50.313 198.772 50.6396C197.875 50.9254 196.733 51.0684 195.346 51.0684H194.428V46.9036H182.437V50.0884C182.437 50.3334 181.947 50.5988 180.969 50.8846C180.03 51.1704 178.97 51.3133 177.787 51.3133H176.808V46.9036H161.024L160.596 45.1275H176.808ZM185.802 69.1359C184.048 71.2999 181.927 73.4231 179.439 75.5054C176.992 77.5878 174.178 79.4864 170.996 81.2013C167.856 82.8753 164.368 84.2432 160.534 85.3048L160.045 84.5086C163.308 82.9978 166.265 81.2217 168.916 79.1802C171.608 77.1386 173.953 74.9746 175.952 72.6881C177.95 70.4016 179.521 68.1559 180.663 65.9511L188.616 68.0334C188.453 68.4009 188.167 68.6867 187.76 68.8909C187.392 69.0542 186.74 69.1359 185.802 69.1359ZM196.753 71.2182C198.099 72.5248 199.914 73.6885 202.198 74.7092C204.482 75.73 206.929 76.5874 209.54 77.2816C212.191 77.9757 214.699 78.4861 217.065 78.8127L217.004 79.4864C215.984 79.7314 215.148 80.2826 214.495 81.14C213.883 81.9975 213.414 83.0795 213.088 84.3861C210.763 83.4878 208.5 82.4262 206.297 81.2013C204.095 79.9764 202.096 78.5677 200.301 76.9753C198.548 75.3829 197.1 73.6272 195.958 71.7082L196.753 71.2182ZM210.335 67.3597C210.335 67.3597 210.661 67.6047 211.314 68.0947C212.007 68.5847 212.823 69.1971 213.761 69.9321C214.699 70.6262 215.556 71.2999 216.331 71.9532C216.167 72.6065 215.617 72.9331 214.679 72.9331H161.513L160.963 71.2182H207.092L210.335 67.3597ZM176.258 67.5435C176.258 67.7068 176.013 67.9314 175.523 68.2172C175.034 68.503 174.422 68.7684 173.688 69.0134C172.954 69.2175 172.179 69.3196 171.363 69.3196H170.568V52.2933V49.7822L176.686 52.2933H203.789V54.0694H176.258V67.5435ZM198.16 77.9553L200.607 75.5667L205.318 79.2414C205.155 79.5272 204.788 79.7314 204.217 79.8539V94.0629C204.217 94.2262 203.952 94.4304 203.422 94.6754C202.891 94.9612 202.259 95.2062 201.525 95.4103C200.832 95.6553 200.159 95.7778 199.506 95.7778H198.527V77.9553H198.16ZM199.751 52.2933L202.443 49.4147L208.194 53.7632C208.031 53.9265 207.765 54.1102 207.398 54.3144C207.031 54.5185 206.583 54.6614 206.052 54.7431V67.2985C206.052 67.421 205.787 67.6251 205.257 67.9109C204.727 68.1968 204.095 68.4622 203.36 68.7071C202.626 68.9521 201.933 69.0746 201.28 69.0746H200.301V52.2933H199.751ZM203.728 65.2774V67.0535H173.382V65.2774H203.728ZM203.605 58.8466V60.6227H173.382V58.8466H203.605ZM178.582 94.2466C178.582 94.3691 178.379 94.5733 177.971 94.8591C177.604 95.1857 177.073 95.4511 176.38 95.6553C175.727 95.9003 174.932 96.0228 173.994 96.0228H173.015V78.4452L174.912 76.2404L179.378 77.9553H178.582V94.2466ZM201.036 90.8169V92.593H175.523V90.8169H201.036ZM200.852 84.3861V86.1622H175.523V84.3861H200.852ZM200.852 77.9553V79.7314H175.218V77.9553H200.852Z" fill="white"/>
<path d="M126.347 46.0094L133.966 46.7658C133.926 47.144 133.765 47.5011 133.483 47.8373C133.2 48.1314 132.697 48.3205 131.971 48.4045C132.052 51.598 132.314 54.7915 132.757 57.985C133.241 61.1364 134.007 64.1618 135.055 67.0612C136.103 69.9185 137.494 72.5447 139.227 74.9398C141.001 77.2929 143.178 79.2679 145.758 80.8646C146.242 81.1587 146.625 81.3058 146.907 81.3058C147.189 81.2638 147.431 81.0117 147.633 80.5495C148.036 79.8771 148.499 78.9317 149.023 77.7131C149.548 76.4946 150.011 75.318 150.414 74.1835L151.14 74.3096L150.172 82.6294C151.18 83.848 151.765 84.7724 151.926 85.4027C152.128 86.075 152.067 86.6843 151.745 87.2306C151.221 88.0289 150.455 88.4281 149.447 88.4281C148.439 88.4701 147.371 88.26 146.242 87.7978C145.113 87.3356 144.085 86.7893 143.158 86.1591C139.973 84.0581 137.312 81.5789 135.176 78.7216C133.039 75.8643 131.346 72.7128 130.096 69.2672C128.847 65.8216 127.919 62.1449 127.315 58.2371C126.75 54.2873 126.428 50.2114 126.347 46.0094ZM134.511 47.207C136.768 47.207 138.502 47.4801 139.711 48.0264C140.921 48.5726 141.707 49.2239 142.069 49.9803C142.432 50.6946 142.473 51.3669 142.19 51.9972C141.949 52.6275 141.485 53.0477 140.8 53.2578C140.114 53.4679 139.368 53.3208 138.562 52.8166C138.24 51.9342 137.615 51.0097 136.688 50.0433C135.801 49.0769 134.894 48.3205 133.966 47.7742L134.511 47.207ZM140.8 57.5438L148.298 60.128C148.137 60.4641 147.895 60.7373 147.572 60.9474C147.29 61.1575 146.746 61.2415 145.94 61.1995C144.69 64.6451 142.976 68.0907 140.8 71.5363C138.663 74.9819 135.982 78.1754 132.757 81.1167C129.572 84.0161 125.763 86.4112 121.328 88.302L120.844 87.5457C124.473 85.2346 127.617 82.4403 130.278 79.1628C132.979 75.8433 135.196 72.3346 136.929 68.6369C138.663 64.8972 139.953 61.1995 140.8 57.5438ZM103.55 53.5729H142.916L146.06 49.413C146.06 49.413 146.383 49.6861 147.028 50.2324C147.673 50.7786 148.439 51.4299 149.326 52.1863C150.213 52.9426 151.019 53.678 151.745 54.3923C151.583 55.0646 151.039 55.4008 150.112 55.4008H103.55V53.5729ZM124.412 36.2399H136.688L139.953 32.0169C139.953 32.0169 140.155 32.185 140.558 32.5212C141.001 32.8153 141.545 33.2145 142.19 33.7187C142.835 34.223 143.501 34.7692 144.186 35.3575C144.912 35.9458 145.557 36.513 146.121 37.0593C145.96 37.7316 145.415 38.0677 144.488 38.0677H124.412V36.2399ZM100.708 53.5729V52.9426V51.0518L106.936 53.5729H106.029V61.0734C106.029 61.0734 105.973 75.1356 99.2513 84.8354C92.5292 94.5353 71.0142 104.026 71.0142 104.026C71.0142 104.026 87.5881 95.0235 94.9543 83.1467C103.385 69.5533 100.708 53.5729 100.708 53.5729ZM114.979 60.7583H119.816V79.9192C119.816 81.1797 119.675 82.2933 119.393 83.2597C119.151 84.2682 118.587 85.0876 117.7 85.7178C116.853 86.3902 115.523 86.8314 113.709 87.0415C113.709 86.2011 113.648 85.4657 113.528 84.8354C113.447 84.2051 113.286 83.7009 113.044 83.3227C112.762 82.8605 112.358 82.4823 111.834 82.1882C111.31 81.8941 110.544 81.684 109.536 81.5579V80.6125C109.536 80.6125 109.839 80.6335 110.444 80.6755C111.089 80.7175 111.754 80.7595 112.439 80.8016C113.165 80.8436 113.669 80.8646 113.951 80.8646C114.636 80.8646 114.979 80.5284 114.979 79.8561V60.7583ZM107.722 60.7583H120.3L123.203 56.7244C123.203 56.7244 123.505 56.9975 124.11 57.5438C124.755 58.09 125.48 58.7413 126.287 59.4977C127.133 60.212 127.899 60.9053 128.585 61.5777C128.423 62.25 127.879 62.5861 126.952 62.5861H108.206L107.722 60.7583ZM109.597 66.3679L115.825 68.3218C115.704 68.7 115.463 69.0151 115.1 69.2672C114.777 69.5193 114.273 69.6244 113.588 69.5824C112.62 71.8934 111.451 74.0154 110.081 75.9483C108.71 77.8392 107.218 79.4149 105.606 80.6755L104.759 80.1082C105.807 78.3854 106.755 76.3265 107.601 73.9314C108.448 71.4943 109.113 68.9731 109.597 66.3679ZM121.51 66.683C123.404 67.5654 124.876 68.5109 125.924 69.5193C127.012 70.5278 127.738 71.5153 128.101 72.4817C128.504 73.4482 128.625 74.3516 128.464 75.192C128.343 75.9903 128.04 76.6206 127.557 77.0828C127.113 77.5451 126.549 77.7552 125.863 77.7131C125.218 77.6711 124.553 77.3139 123.868 76.6416C123.908 75.5491 123.787 74.4356 123.505 73.3011C123.223 72.1245 122.84 70.99 122.356 69.8975C121.872 68.805 121.368 67.8386 120.844 66.9982L121.51 66.683ZM121.691 30L129.371 30.6933C129.33 31.0715 129.169 31.4077 128.887 31.7018C128.605 31.9959 128.101 32.206 127.375 32.3321V45.064H121.691V30ZM106.815 32.2691L114.253 32.9624C114.213 33.3826 114.052 33.7397 113.769 34.0339C113.487 34.286 113.003 34.4751 112.318 34.6011V45.001H106.815V32.2691ZM95.8702 44.1816H141.828L145.274 39.8326C145.274 39.8326 145.476 40.0006 145.879 40.3368C146.282 40.673 146.806 41.1142 147.451 41.6604C148.096 42.1646 148.782 42.7109 149.507 43.2992C150.233 43.8874 150.898 44.4547 151.503 45.001C151.342 45.6733 150.797 46.0094 149.87 46.0094H96.354L95.8702 44.1816Z" fill="white"/>
<path d="M41.4327 41.7342L41.3049 40.6789C42.1139 40.141 42.9442 39.7271 43.7958 39.4375C44.6474 39.1478 45.5842 39.0029 46.6061 39.0029C47.628 39.0029 48.6925 39.2098 49.7996 39.6237C50.9492 40.0375 51.9499 40.5341 52.8015 41.1135C53.6531 41.6928 54.0789 42.2515 54.0789 42.7894C54.0789 43.5757 53.8872 44.2999 53.504 44.962C53.1208 45.5828 52.8228 46.3897 52.6099 47.3829C52.4395 48.2106 52.2692 49.3072 52.0989 50.6729C51.9286 52.0385 51.7583 53.5697 51.5879 55.2663C51.4602 56.9217 51.3538 58.639 51.2686 60.4185C51.1834 62.1566 51.1409 63.8533 51.1409 65.5086C51.1409 68.9433 51.2047 71.7574 51.3325 73.9506C51.4602 76.1026 51.5879 77.8406 51.7157 79.1649C51.886 80.4891 52.035 81.5444 52.1628 82.3307C52.2905 83.1169 52.3544 83.8618 52.3544 84.5653C52.3544 85.5585 52.1415 86.5517 51.7157 87.5449C51.2899 88.5381 50.7363 89.3657 50.0551 90.0278C49.3738 90.69 48.6499 91.021 47.8835 91.021C47.2448 91.021 46.7551 90.7934 46.4145 90.3382C46.0739 89.9244 45.7332 89.3864 45.3926 88.7243C45.0945 88.1035 44.6049 87.4828 43.9236 86.8621C43.3275 86.2827 42.5823 85.662 41.6881 84.9998C40.8366 84.3377 39.9637 83.6963 39.0695 83.0755C38.1753 82.4134 37.345 81.8548 36.5786 81.3995L37.5366 80.1581C38.3882 80.5305 39.2824 80.9443 40.2191 81.3995C41.1985 81.8134 42.1352 82.2065 43.0294 82.5789C43.9662 82.9514 44.7752 83.2618 45.4565 83.5101C46.1377 83.717 46.6061 83.717 46.8616 83.5101C47.1171 83.2618 47.2448 82.8479 47.2448 82.2686C47.2448 80.5305 47.2448 78.2131 47.2448 75.3163C47.2448 72.4195 47.2448 69.0882 47.2448 65.3223C47.2448 63.8326 47.2448 62.0738 47.2448 60.0461C47.2874 57.9769 47.3087 55.9285 47.3087 53.9007C47.3087 51.8316 47.3087 49.9694 47.3087 48.314C47.3087 46.6174 47.2874 45.3966 47.2448 44.6517C47.2448 43.824 47.1384 43.286 46.9255 43.0377C46.7126 42.7481 46.3506 42.5205 45.8397 42.3549C45.2436 42.1066 44.5836 41.9618 43.8597 41.9204C43.1784 41.8376 42.3694 41.7756 41.4327 41.7342ZM32.5548 51.8523C33.6193 52.8041 34.5135 53.549 35.2373 54.0869C35.9612 54.5835 36.685 54.9146 37.4089 55.0801C38.1753 55.2457 39.0482 55.3284 40.0275 55.3284C40.9643 55.287 42.0075 55.1629 43.1571 54.956C44.3494 54.7491 45.5629 54.4801 46.7977 54.149C48.0325 53.8179 49.1822 53.4662 50.2467 53.0937C51.9925 52.5144 53.4189 51.935 54.5259 51.3557C55.633 50.7763 56.5272 50.2797 57.2085 49.8659C57.8897 49.4521 58.422 49.2452 58.8052 49.2452C59.0181 49.2452 59.3588 49.2658 59.8271 49.3072C60.2955 49.3072 60.7639 49.39 61.2323 49.5555C61.7432 49.7211 62.169 49.9487 62.5097 50.2383C62.8503 50.528 63.0419 50.9832 63.0845 51.604C63.0845 52.6799 62.318 53.611 60.7852 54.3973C59.9762 54.8111 58.9755 55.225 57.7833 55.6388C56.6336 56.0526 55.4201 56.4664 54.1427 56.8803C52.9079 57.2941 51.737 57.6665 50.6299 57.9976C49.9486 58.1631 48.9906 58.4114 47.7558 58.7425C46.521 59.0322 45.2223 59.3012 43.8597 59.5495C42.5397 59.7564 41.3901 59.8598 40.4108 59.8598C39.2185 59.8598 38.0689 59.6943 36.9618 59.3632C35.8973 58.9908 34.918 58.2873 34.0238 57.2527C33.1296 56.1768 32.3206 54.6042 31.5967 52.5351L32.5548 51.8523ZM35.876 76.9302C36.6424 76.5164 37.7069 75.8336 39.0695 74.8818C40.4746 73.93 41.9862 72.9161 43.6042 71.8401C45.2648 70.7642 46.8829 69.8331 48.4583 69.0468C51.4389 67.5156 54.5259 66.2121 57.7194 65.1361C60.9129 64.0188 64.3406 63.4601 68.0024 63.4601C70.6424 63.4601 72.9843 63.9567 75.0281 64.9499C77.0719 65.9017 78.6687 67.288 79.8183 69.1089C81.0106 70.8883 81.6067 73.0402 81.6067 75.5646C81.6067 77.7165 81.0531 79.7028 79.9461 81.5237C78.8816 83.3445 77.3274 84.8136 75.2836 85.931C73.2398 87.0483 70.7914 87.607 67.9386 87.607C66.1928 87.607 64.5748 87.3173 63.0845 86.7379C61.5942 86.1172 60.2529 85.2481 59.0607 84.1308C57.8685 82.9721 56.7827 81.6065 55.8033 80.0339L56.6975 79.1649C57.8897 80.1994 59.2949 81.0892 60.9129 81.8341C62.5309 82.5376 64.4257 82.8893 66.5973 82.8893C69.5353 82.8893 71.8346 82.0824 73.4952 80.4684C75.1558 78.8131 75.9861 76.7233 75.9861 74.1989C75.9861 72.7092 75.6455 71.3642 74.9642 70.1641C74.3255 68.9226 73.3036 67.9295 71.8985 67.1846C70.5359 66.3983 68.7263 66.0052 66.4696 66.0052C64.5961 66.0052 62.6374 66.3362 60.5936 66.9984C58.5923 67.6191 56.6124 68.4467 54.6537 69.4813C52.695 70.4745 50.8215 71.5091 49.0332 72.585C47.8409 73.3299 46.5635 74.2403 45.201 75.3163C43.881 76.3508 42.6036 77.4268 41.3688 78.5441C40.1766 79.6615 39.1121 80.696 38.1753 81.6478C37.0682 82.6824 36.2379 83.4894 35.6844 84.0687C35.1309 84.6067 34.5773 84.8757 34.0238 84.8757C33.5128 84.8757 33.0445 84.7722 32.6187 84.5653C32.2354 84.317 31.8522 84.0067 31.469 83.6342C30.958 83.0962 30.5748 82.5376 30.3193 81.9582C30.1064 81.3789 30 80.7788 30 80.1581C30 79.1649 30.149 78.5028 30.4471 78.1717C30.7451 77.8406 31.2987 77.6958 32.1077 77.7372C32.9593 77.8199 33.6406 77.7992 34.1515 77.6751C34.7051 77.5096 35.2799 77.2613 35.876 76.9302ZM66.9167 48.6244L66.7889 47.3209C68.2366 46.907 69.6843 46.6174 71.1321 46.4518C72.5798 46.2863 74.0914 46.3277 75.6668 46.576C77.5829 46.8243 79.3074 47.445 80.8402 48.4382C82.4157 49.39 83.6505 50.528 84.5447 51.8523C85.4814 53.1765 85.9711 54.5421 86.0137 55.9492C86.0563 56.7768 85.8647 57.501 85.4389 58.1218C85.0131 58.7425 84.3318 59.0736 83.395 59.1149C82.8841 59.1977 82.4157 59.0942 81.9899 58.8046C81.5641 58.5149 81.117 58.2252 80.6486 57.9355C80.1803 57.6459 79.6267 57.5631 78.988 57.6872C78.3493 57.7286 77.4764 57.9355 76.3694 58.308C75.3049 58.6804 74.4107 58.9908 73.6868 59.2391L73.112 58.308C73.5378 58.0597 74.0701 57.7286 74.7088 57.3148C75.39 56.8596 76.0287 56.4044 76.6248 55.9492C77.2635 55.4939 77.7319 55.1422 78.03 54.8939C78.4132 54.4801 78.6261 54.1076 78.6687 53.7766C78.7538 53.4041 78.6261 52.9696 78.2855 52.473C77.519 51.3971 76.5184 50.5694 75.2836 49.99C74.0488 49.4107 72.6862 49.0176 71.1959 48.8106C69.7482 48.6037 68.3218 48.5416 66.9167 48.6244Z" fill="white"/>
</mask>
<g mask="url(#mask0_46_1433)">
<rect x="19.416" y="30" width="423.342" height="73.0265" fill="#AF2304"/>
<path d="M357.5 98L362.5 47L405 42V78L357.5 98Z" fill="#BF9C35"/>
<path d="M265.5 66.5L270.5 65.5C275.333 66 285.2 67.1 286 67.5C286.8 67.9 294 76 297.5 80L290.5 93.5L256.5 86.5V78.5L261 76.5L265.5 66.5Z" fill="#BF9C35"/>
<path d="M64.5 46L81 43.5L90 48L87 62H81H68.5L64.5 52V46Z" fill="#BF9C35" stroke="#333333"/>
<path d="M132 76.5C134 75.3 136.5 70 140 57L149.5 58V62L135 79L121.5 91L119.5 88.5L132 76.5Z" fill="#BF9C35"/>
<path d="M176.5 51.5V39L187 39.0001L182.5 42.0001V51.0001L176.5 51.5Z" fill="#BF9C35"/>
<path d="M200.5 51L194 51.5L194.5 47.5V39H205L200.5 42V51Z" fill="#BF9C35"/>
</g>
</g>
<mask id="mask1_46_1433" style="mask-type:alpha" maskUnits="userSpaceOnUse" x="456" y="40" width="261" height="54">
<path d="M707.011 50.2967C706.462 49.5122 705.775 48.6493 704.951 47.7078C704.128 46.7272 703.029 45.7073 701.656 44.6482L702.304 43.7657C703.912 44.2364 705.344 44.7855 706.599 45.4131C707.893 46.0015 708.933 46.688 709.717 47.4725C710.423 48.1001 710.914 48.6885 711.188 49.2376C711.463 49.7868 711.6 50.336 711.6 50.8851C711.6 51.4343 711.424 51.8854 711.071 52.2384C710.718 52.5914 710.266 52.7679 709.717 52.7679C709.286 52.7679 708.854 52.5326 708.423 52.0619C708.031 51.5912 707.56 51.0028 707.011 50.2967ZM712.188 46.0015C711.6 45.2955 710.914 44.5502 710.129 43.7657C709.384 42.9419 708.266 41.9809 706.775 40.8826L707.423 40C709.031 40.4315 710.443 40.9218 711.659 41.471C712.914 41.9809 713.914 42.5301 714.66 43.1184C715.444 43.7068 715.993 44.3148 716.307 44.9424C716.66 45.5308 716.837 46.1388 716.837 46.7664C716.837 47.3548 716.68 47.8059 716.366 48.1197C716.052 48.4335 715.64 48.5904 715.13 48.5904C714.581 48.5904 714.111 48.3551 713.718 47.8844C713.326 47.3744 712.816 46.7468 712.188 46.0015ZM665 70.596C666.883 69.1447 668.687 67.556 670.413 65.8301C672.139 64.0649 673.728 62.2998 675.179 60.5346C676.67 58.7302 677.964 57.0043 679.062 55.3568C680.161 53.7094 681.004 52.2384 681.592 50.944C682.22 49.6103 682.534 48.5904 682.534 47.8844C682.534 47.3352 682.2 46.786 681.534 46.2369C680.867 45.6877 680.043 45.1778 679.062 44.7071L679.298 43.7657C679.847 43.6872 680.416 43.6284 681.004 43.5891C681.632 43.5107 682.357 43.5107 683.181 43.5891C684.279 43.7068 685.378 43.9814 686.476 44.4129C687.574 44.8444 688.477 45.3543 689.183 45.9427C689.928 46.4918 690.301 46.9822 690.301 47.4136C690.301 48.002 690.124 48.4727 689.771 48.8258C689.457 49.1788 689.065 49.728 688.594 50.4732C686.908 53.2975 684.887 56.0433 682.534 58.7106C680.22 61.378 677.65 63.8492 674.826 66.1243C672.041 68.3601 669.04 70.243 665.824 71.7728L665 70.596ZM665.588 91.6602C669.354 89.6597 672.982 87.2865 676.474 84.5407C679.965 81.7949 683.201 78.853 686.182 75.7149C689.163 72.5377 691.772 69.3212 694.007 66.0654C696.243 62.8097 697.95 59.6717 699.126 56.6513C699.362 55.9845 699.166 55.651 698.538 55.651C698.224 55.651 697.714 55.7099 697.008 55.8275C696.341 55.906 695.576 56.0237 694.713 56.1806C693.85 56.3375 693.027 56.4944 692.242 56.6513C691.497 56.8082 690.889 56.9455 690.418 57.0632C689.791 57.2593 689.202 57.4358 688.653 57.5927C688.143 57.7496 687.633 57.8281 687.123 57.8281C686.653 57.8281 686.064 57.5731 685.358 57.0632C684.691 56.5532 683.966 55.9844 683.181 55.3568L684.181 53.5328C684.809 53.6113 685.339 53.6701 685.77 53.7094C686.201 53.7486 686.613 53.7682 687.006 53.7682C687.555 53.7682 688.359 53.729 689.418 53.6505C690.477 53.5328 691.575 53.3956 692.713 53.2387C693.89 53.0818 694.949 52.9248 695.89 52.7679C696.871 52.611 697.557 52.4934 697.95 52.4149C698.734 52.1796 699.362 51.8461 699.832 51.4147C700.303 50.944 700.833 50.7086 701.421 50.7086C701.813 50.7086 702.362 50.8655 703.068 51.1793C703.814 51.4931 704.559 51.905 705.304 52.4149C706.089 52.8856 706.736 53.4152 707.246 54.0036C707.756 54.5527 708.011 55.0823 708.011 55.5922C708.011 56.0629 707.815 56.4748 707.423 56.8278C707.07 57.1416 706.658 57.475 706.187 57.8281C705.716 58.1811 705.304 58.6322 704.951 59.1813C702.166 64.1238 698.93 68.7328 695.243 73.0084C691.556 77.2447 687.319 81.0496 682.534 84.423C677.788 87.7572 672.394 90.5619 666.353 92.8369L665.588 91.6602Z" fill="#F9F1D1"/>
<path d="M707.011 50.2967C706.462 49.5122 705.775 48.6493 704.951 47.7078C704.128 46.7272 703.029 45.7073 701.656 44.6482L702.304 43.7657C703.912 44.2364 705.344 44.7855 706.599 45.4131C707.893 46.0015 708.933 46.688 709.717 47.4725C710.423 48.1001 710.914 48.6885 711.188 49.2376C711.463 49.7868 711.6 50.336 711.6 50.8851C711.6 51.4343 711.424 51.8854 711.071 52.2384C710.718 52.5914 710.266 52.7679 709.717 52.7679C709.286 52.7679 708.854 52.5326 708.423 52.0619C708.031 51.5912 707.56 51.0028 707.011 50.2967ZM712.188 46.0015C711.6 45.2955 710.914 44.5502 710.129 43.7657C709.384 42.9419 708.266 41.9809 706.775 40.8826L707.423 40C709.031 40.4315 710.443 40.9218 711.659 41.471C712.914 41.9809 713.914 42.5301 714.66 43.1184C715.444 43.7068 715.993 44.3148 716.307 44.9424C716.66 45.5308 716.837 46.1388 716.837 46.7664C716.837 47.3548 716.68 47.8059 716.366 48.1197C716.052 48.4335 715.64 48.5904 715.13 48.5904C714.581 48.5904 714.111 48.3551 713.718 47.8844C713.326 47.3744 712.816 46.7468 712.188 46.0015ZM665 70.596C666.883 69.1447 668.687 67.556 670.413 65.8301C672.139 64.0649 673.728 62.2998 675.179 60.5346C676.67 58.7302 677.964 57.0043 679.062 55.3568C680.161 53.7094 681.004 52.2384 681.592 50.944C682.22 49.6103 682.534 48.5904 682.534 47.8844C682.534 47.3352 682.2 46.786 681.534 46.2369C680.867 45.6877 680.043 45.1778 679.062 44.7071L679.298 43.7657C679.847 43.6872 680.416 43.6284 681.004 43.5891C681.632 43.5107 682.357 43.5107 683.181 43.5891C684.279 43.7068 685.378 43.9814 686.476 44.4129C687.574 44.8444 688.477 45.3543 689.183 45.9427C689.928 46.4918 690.301 46.9822 690.301 47.4136C690.301 48.002 690.124 48.4727 689.771 48.8258C689.457 49.1788 689.065 49.728 688.594 50.4732C686.908 53.2975 684.887 56.0433 682.534 58.7106C680.22 61.378 677.65 63.8492 674.826 66.1243C672.041 68.3601 669.04 70.243 665.824 71.7728L665 70.596ZM665.588 91.6602C669.354 89.6597 672.982 87.2865 676.474 84.5407C679.965 81.7949 683.201 78.853 686.182 75.7149C689.163 72.5377 691.772 69.3212 694.007 66.0654C696.243 62.8097 697.95 59.6717 699.126 56.6513C699.362 55.9845 699.166 55.651 698.538 55.651C698.224 55.651 697.714 55.7099 697.008 55.8275C696.341 55.906 695.576 56.0237 694.713 56.1806C693.85 56.3375 693.027 56.4944 692.242 56.6513C691.497 56.8082 690.889 56.9455 690.418 57.0632C689.791 57.2593 689.202 57.4358 688.653 57.5927C688.143 57.7496 687.633 57.8281 687.123 57.8281C686.653 57.8281 686.064 57.5731 685.358 57.0632C684.691 56.5532 683.966 55.9844 683.181 55.3568L684.181 53.5328C684.809 53.6113 685.339 53.6701 685.77 53.7094C686.201 53.7486 686.613 53.7682 687.006 53.7682C687.555 53.7682 688.359 53.729 689.418 53.6505C690.477 53.5328 691.575 53.3956 692.713 53.2387C693.89 53.0818 694.949 52.9248 695.89 52.7679C696.871 52.611 697.557 52.4934 697.95 52.4149C698.734 52.1796 699.362 51.8461 699.832 51.4147C700.303 50.944 700.833 50.7086 701.421 50.7086C701.813 50.7086 702.362 50.8655 703.068 51.1793C703.814 51.4931 704.559 51.905 705.304 52.4149C706.089 52.8856 706.736 53.4152 707.246 54.0036C707.756 54.5527 708.011 55.0823 708.011 55.5922C708.011 56.0629 707.815 56.4748 707.423 56.8278C707.07 57.1416 706.658 57.475 706.187 57.8281C705.716 58.1811 705.304 58.6322 704.951 59.1813C702.166 64.1238 698.93 68.7328 695.243 73.0084C691.556 77.2447 687.319 81.0496 682.534 84.423C677.788 87.7572 672.394 90.5619 666.353 92.8369L665.588 91.6602Z" fill="#5F0E14"/>
<path d="M611.883 49C613.765 49.3138 615.668 49.7845 617.59 50.4121C619.551 51.0397 621.336 51.8046 622.944 52.7068C624.592 53.5698 625.906 54.57 626.886 55.7076C627.906 56.8451 628.416 58.1004 628.416 59.4732C628.416 60.3362 628.122 61.0815 627.534 61.7091C626.984 62.3367 626.259 62.6505 625.357 62.6505C624.611 62.6505 623.944 62.4348 623.356 62.0033C622.768 61.5326 622.081 60.7873 621.297 59.7674C620.591 58.8653 619.924 58.0415 619.296 57.2962C618.669 56.5117 618.002 55.7664 617.296 55.0604C616.59 54.3151 615.746 53.5502 614.766 52.7657C613.824 51.9419 612.667 51.0397 611.294 50.0591L611.883 49ZM653.834 54.7073L655.011 55.4722C652.736 59.7086 650.03 63.6704 646.891 67.3576C643.753 71.0056 640.262 74.4182 636.418 77.5955C632.613 80.7336 628.495 83.6951 624.062 86.4801C623.552 86.7939 623.101 87.1666 622.709 87.598C622.317 88.0295 621.924 88.4022 621.532 88.716C621.179 89.0298 620.748 89.1867 620.238 89.1867C619.296 89.1867 618.276 88.8925 617.178 88.3041C616.08 87.7157 615.079 87.0097 614.177 86.1859C613.314 85.3622 612.667 84.5973 612.236 83.8912C611.922 83.3028 611.647 82.5575 611.412 81.6554C611.177 80.7139 611.039 79.8902 611 79.1841L611.883 78.6546C612.393 79.1645 612.942 79.7137 613.53 80.3021C614.158 80.8905 614.805 81.3808 615.472 81.773C616.139 82.1653 616.805 82.3614 617.472 82.3614C618.374 82.3614 619.688 81.9692 621.414 81.1846C623.18 80.3609 625.18 79.243 627.416 77.8309C629.691 76.4187 632.064 74.8105 634.535 73.0061C637.046 71.1625 639.497 69.2012 641.89 67.1222C644.322 65.0433 646.558 62.9447 648.598 60.8265C650.677 58.7083 652.422 56.6686 653.834 54.7073Z" fill="#F9F1D1"/>
<path d="M611.883 49C613.765 49.3138 615.668 49.7845 617.59 50.4121C619.551 51.0397 621.336 51.8046 622.944 52.7068C624.592 53.5698 625.906 54.57 626.886 55.7076C627.906 56.8451 628.416 58.1004 628.416 59.4732C628.416 60.3362 628.122 61.0815 627.534 61.7091C626.984 62.3367 626.259 62.6505 625.357 62.6505C624.611 62.6505 623.944 62.4348 623.356 62.0033C622.768 61.5326 622.081 60.7873 621.297 59.7674C620.591 58.8653 619.924 58.0415 619.296 57.2962C618.669 56.5117 618.002 55.7664 617.296 55.0604C616.59 54.3151 615.746 53.5502 614.766 52.7657C613.824 51.9419 612.667 51.0397 611.294 50.0591L611.883 49ZM653.834 54.7073L655.011 55.4722C652.736 59.7086 650.03 63.6704 646.891 67.3576C643.753 71.0056 640.262 74.4182 636.418 77.5955C632.613 80.7336 628.495 83.6951 624.062 86.4801C623.552 86.7939 623.101 87.1666 622.709 87.598C622.317 88.0295 621.924 88.4022 621.532 88.716C621.179 89.0298 620.748 89.1867 620.238 89.1867C619.296 89.1867 618.276 88.8925 617.178 88.3041C616.08 87.7157 615.079 87.0097 614.177 86.1859C613.314 85.3622 612.667 84.5973 612.236 83.8912C611.922 83.3028 611.647 82.5575 611.412 81.6554C611.177 80.7139 611.039 79.8902 611 79.1841L611.883 78.6546C612.393 79.1645 612.942 79.7137 613.53 80.3021C614.158 80.8905 614.805 81.3808 615.472 81.773C616.139 82.1653 616.805 82.3614 617.472 82.3614C618.374 82.3614 619.688 81.9692 621.414 81.1846C623.18 80.3609 625.18 79.243 627.416 77.8309C629.691 76.4187 632.064 74.8105 634.535 73.0061C637.046 71.1625 639.497 69.2012 641.89 67.1222C644.322 65.0433 646.558 62.9447 648.598 60.8265C650.677 58.7083 652.422 56.6686 653.834 54.7073Z" fill="#5F0E14"/>
<path d="M564.799 46.1586C565.623 45.7271 566.544 45.3348 567.564 44.9818C568.584 44.6288 569.388 44.4523 569.977 44.4523C570.604 44.4523 571.291 44.5503 572.036 44.7465C572.781 44.9034 573.487 45.1387 574.154 45.4525C574.821 45.7271 575.39 46.0605 575.861 46.4528C576.331 46.8058 576.586 47.1588 576.625 47.5119C576.665 47.9434 576.625 48.3356 576.508 48.6886C576.39 49.0024 576.272 49.3555 576.155 49.7477C576.037 50.14 575.998 50.6303 576.037 51.2187C576.155 52.317 576.331 53.4546 576.567 54.6313C576.802 55.8081 577.096 57.3379 577.449 59.2207C578.077 62.1234 578.665 64.8692 579.214 67.4581C579.803 70.0078 580.332 72.3613 580.803 74.5187C581.313 76.6369 581.764 78.5001 582.156 80.1084C582.549 81.7166 582.862 83.0111 583.098 83.9917C583.529 85.5215 583.863 86.7571 584.098 87.6986C584.373 88.64 584.51 89.6206 584.51 90.6405C584.51 91.2681 584.314 91.8172 583.921 92.288C583.568 92.7587 582.941 93.0136 582.039 93.0529C581.45 93.0529 580.881 92.8175 580.332 92.3468C579.822 91.9153 579.391 91.3465 579.038 90.6405C578.685 89.9736 578.43 89.3068 578.273 88.64C578.194 88.2477 578.096 87.6593 577.979 86.8748C577.9 86.0903 577.783 85.1685 577.626 84.1094C577.508 83.0503 577.351 81.9716 577.155 80.8733C576.92 79.6573 576.645 78.304 576.331 76.8134C576.057 75.2836 575.763 73.7342 575.449 72.1652C575.135 70.5569 574.821 69.0075 574.507 67.517C574.193 66.0264 573.899 64.6535 573.625 63.3983C573.35 62.143 573.115 61.1036 572.919 60.2798C572.566 58.8285 572.213 57.3967 571.86 55.9846C571.507 54.5333 571.173 53.2388 570.859 52.1013C570.545 50.9637 570.271 50.14 570.036 49.6301C569.8 49.1593 569.467 48.8063 569.035 48.571C568.604 48.2964 568.055 48.0806 567.388 47.9237C566.721 47.7276 565.897 47.4726 564.917 47.1588L564.799 46.1586ZM555.914 58.75L556.679 58.3382C557.307 58.7696 557.836 59.1619 558.268 59.5149C558.739 59.8287 559.327 59.9856 560.033 59.9856C560.425 59.9856 561.151 59.8876 562.21 59.6914C563.269 59.4953 564.505 59.2403 565.917 58.9265C567.329 58.6127 568.78 58.2793 570.271 57.9263C571.761 57.5732 573.115 57.2398 574.331 56.926C576.057 56.4553 577.586 56.0434 578.92 55.6904C580.293 55.2982 581.529 54.9451 582.627 54.6313C583.882 54.1606 584.843 53.7487 585.51 53.3957C586.177 53.0035 586.648 52.8073 586.922 52.8073C587.393 52.7681 587.922 52.8073 588.511 52.925C589.138 53.0035 589.746 53.1604 590.335 53.3957C590.923 53.5918 591.394 53.8468 591.747 54.1606C592.139 54.4744 592.335 54.8275 592.335 55.2197C592.335 55.8473 592.12 56.3769 591.688 56.8083C591.296 57.2398 590.609 57.534 589.629 57.6909C588.256 57.9655 586.648 58.2989 584.804 58.6912C583 59.0834 581.254 59.4757 579.567 59.868C577.881 60.221 576.508 60.5348 575.449 60.8094C573.762 61.2016 572.056 61.6331 570.33 62.1038C568.604 62.5745 567.113 63.0452 565.858 63.5159C564.995 63.8297 564.309 64.1435 563.799 64.4574C563.289 64.7319 562.72 64.8692 562.092 64.8692C561.622 64.8692 561.033 64.6927 560.327 64.3397C559.621 63.9866 558.935 63.5552 558.268 63.0452C557.64 62.4961 557.17 61.9861 556.856 61.5154C556.542 61.0839 556.326 60.6721 556.209 60.2798C556.13 59.8876 556.032 59.3776 555.914 58.75ZM553.149 73.342L554.032 72.8124C554.855 73.44 555.522 73.8911 556.032 74.1657C556.542 74.4403 557.052 74.5776 557.562 74.5776C557.954 74.5776 558.68 74.4795 559.739 74.2834C560.798 74.048 562.073 73.7538 563.563 73.4008C565.054 73.0478 566.623 72.6751 568.27 72.2829C569.918 71.8514 571.526 71.4395 573.095 71.0473C574.664 70.655 576.037 70.2824 577.214 69.9293C578.469 69.6155 579.803 69.2821 581.215 68.9291C582.627 68.576 584.02 68.223 585.392 67.87C586.805 67.4777 588.06 67.1247 589.158 66.8109C590.296 66.4579 591.217 66.1637 591.923 65.9283C592.669 65.693 593.198 65.4772 593.512 65.2811C593.826 65.085 594.12 64.9869 594.395 64.9869C595.454 64.9477 596.454 65.0457 597.395 65.2811C598.337 65.5164 599.102 65.8499 599.69 66.2813C600.279 66.7128 600.573 67.2031 600.573 67.7523C600.573 68.223 600.416 68.6937 600.102 69.1644C599.788 69.6351 599.141 69.9293 598.16 70.047C596.474 70.2039 594.885 70.3804 593.394 70.5766C591.943 70.7335 590.453 70.9688 588.923 71.2826C587.393 71.5572 585.726 71.8906 583.921 72.2829C582.117 72.6751 580.058 73.1654 577.743 73.7538C576.331 74.1069 574.762 74.5383 573.036 75.0483C571.35 75.5582 569.722 76.0681 568.153 76.5781C566.584 77.088 565.25 77.5783 564.152 78.049C563.132 78.4805 562.347 78.8924 561.798 79.2846C561.249 79.6769 560.641 79.8926 559.974 79.9319C559.347 79.9319 558.641 79.7554 557.856 79.4023C557.071 79.0101 556.346 78.5786 555.679 78.1079C555.012 77.5979 554.522 77.1272 554.208 76.6958C553.973 76.3035 553.757 75.8328 553.561 75.2836C553.404 74.7345 553.267 74.0873 553.149 73.342Z" fill="#F9F1D1"/>
<path d="M564.799 46.1586C565.623 45.7271 566.544 45.3348 567.564 44.9818C568.584 44.6288 569.388 44.4523 569.977 44.4523C570.604 44.4523 571.291 44.5503 572.036 44.7465C572.781 44.9034 573.487 45.1387 574.154 45.4525C574.821 45.7271 575.39 46.0605 575.861 46.4528C576.331 46.8058 576.586 47.1588 576.625 47.5119C576.665 47.9434 576.625 48.3356 576.508 48.6886C576.39 49.0024 576.272 49.3555 576.155 49.7477C576.037 50.14 575.998 50.6303 576.037 51.2187C576.155 52.317 576.331 53.4546 576.567 54.6313C576.802 55.8081 577.096 57.3379 577.449 59.2207C578.077 62.1234 578.665 64.8692 579.214 67.4581C579.803 70.0078 580.332 72.3613 580.803 74.5187C581.313 76.6369 581.764 78.5001 582.156 80.1084C582.549 81.7166 582.862 83.0111 583.098 83.9917C583.529 85.5215 583.863 86.7571 584.098 87.6986C584.373 88.64 584.51 89.6206 584.51 90.6405C584.51 91.2681 584.314 91.8172 583.921 92.288C583.568 92.7587 582.941 93.0136 582.039 93.0529C581.45 93.0529 580.881 92.8175 580.332 92.3468C579.822 91.9153 579.391 91.3465 579.038 90.6405C578.685 89.9736 578.43 89.3068 578.273 88.64C578.194 88.2477 578.096 87.6593 577.979 86.8748C577.9 86.0903 577.783 85.1685 577.626 84.1094C577.508 83.0503 577.351 81.9716 577.155 80.8733C576.92 79.6573 576.645 78.304 576.331 76.8134C576.057 75.2836 575.763 73.7342 575.449 72.1652C575.135 70.5569 574.821 69.0075 574.507 67.517C574.193 66.0264 573.899 64.6535 573.625 63.3983C573.35 62.143 573.115 61.1036 572.919 60.2798C572.566 58.8285 572.213 57.3967 571.86 55.9846C571.507 54.5333 571.173 53.2388 570.859 52.1013C570.545 50.9637 570.271 50.14 570.036 49.6301C569.8 49.1593 569.467 48.8063 569.035 48.571C568.604 48.2964 568.055 48.0806 567.388 47.9237C566.721 47.7276 565.897 47.4726 564.917 47.1588L564.799 46.1586ZM555.914 58.75L556.679 58.3382C557.307 58.7696 557.836 59.1619 558.268 59.5149C558.739 59.8287 559.327 59.9856 560.033 59.9856C560.425 59.9856 561.151 59.8876 562.21 59.6914C563.269 59.4953 564.505 59.2403 565.917 58.9265C567.329 58.6127 568.78 58.2793 570.271 57.9263C571.761 57.5732 573.115 57.2398 574.331 56.926C576.057 56.4553 577.586 56.0434 578.92 55.6904C580.293 55.2982 581.529 54.9451 582.627 54.6313C583.882 54.1606 584.843 53.7487 585.51 53.3957C586.177 53.0035 586.648 52.8073 586.922 52.8073C587.393 52.7681 587.922 52.8073 588.511 52.925C589.138 53.0035 589.746 53.1604 590.335 53.3957C590.923 53.5918 591.394 53.8468 591.747 54.1606C592.139 54.4744 592.335 54.8275 592.335 55.2197C592.335 55.8473 592.12 56.3769 591.688 56.8083C591.296 57.2398 590.609 57.534 589.629 57.6909C588.256 57.9655 586.648 58.2989 584.804 58.6912C583 59.0834 581.254 59.4757 579.567 59.868C577.881 60.221 576.508 60.5348 575.449 60.8094C573.762 61.2016 572.056 61.6331 570.33 62.1038C568.604 62.5745 567.113 63.0452 565.858 63.5159C564.995 63.8297 564.309 64.1435 563.799 64.4574C563.289 64.7319 562.72 64.8692 562.092 64.8692C561.622 64.8692 561.033 64.6927 560.327 64.3397C559.621 63.9866 558.935 63.5552 558.268 63.0452C557.64 62.4961 557.17 61.9861 556.856 61.5154C556.542 61.0839 556.326 60.6721 556.209 60.2798C556.13 59.8876 556.032 59.3776 555.914 58.75ZM553.149 73.342L554.032 72.8124C554.855 73.44 555.522 73.8911 556.032 74.1657C556.542 74.4403 557.052 74.5776 557.562 74.5776C557.954 74.5776 558.68 74.4795 559.739 74.2834C560.798 74.048 562.073 73.7538 563.563 73.4008C565.054 73.0478 566.623 72.6751 568.27 72.2829C569.918 71.8514 571.526 71.4395 573.095 71.0473C574.664 70.655 576.037 70.2824 577.214 69.9293C578.469 69.6155 579.803 69.2821 581.215 68.9291C582.627 68.576 584.02 68.223 585.392 67.87C586.805 67.4777 588.06 67.1247 589.158 66.8109C590.296 66.4579 591.217 66.1637 591.923 65.9283C592.669 65.693 593.198 65.4772 593.512 65.2811C593.826 65.085 594.12 64.9869 594.395 64.9869C595.454 64.9477 596.454 65.0457 597.395 65.2811C598.337 65.5164 599.102 65.8499 599.69 66.2813C600.279 66.7128 600.573 67.2031 600.573 67.7523C600.573 68.223 600.416 68.6937 600.102 69.1644C599.788 69.6351 599.141 69.9293 598.16 70.047C596.474 70.2039 594.885 70.3804 593.394 70.5766C591.943 70.7335 590.453 70.9688 588.923 71.2826C587.393 71.5572 585.726 71.8906 583.921 72.2829C582.117 72.6751 580.058 73.1654 577.743 73.7538C576.331 74.1069 574.762 74.5383 573.036 75.0483C571.35 75.5582 569.722 76.0681 568.153 76.5781C566.584 77.088 565.25 77.5783 564.152 78.049C563.132 78.4805 562.347 78.8924 561.798 79.2846C561.249 79.6769 560.641 79.8926 559.974 79.9319C559.347 79.9319 558.641 79.7554 557.856 79.4023C557.071 79.0101 556.346 78.5786 555.679 78.1079C555.012 77.5979 554.522 77.1272 554.208 76.6958C553.973 76.3035 553.757 75.8328 553.561 75.2836C553.404 74.7345 553.267 74.0873 553.149 73.342Z" fill="#5F0E14"/>
<path d="M591.8 55.2922C591.571 55.9096 590.944 56.3173 590.459 56.7338C585.622 60.3601 580.362 63.3672 575.167 66.4068C569.936 69.3954 564.669 72.3067 559.053 74.6206C558.438 74.8716 557.789 75.1217 557.164 75.3509C557.822 75.2509 558.509 75.1218 559.164 74.9839C565.163 73.6853 570.855 71.1773 576.164 68.1404C581.444 65.0522 586.52 61.5169 590.723 57.0078C591.131 56.5001 591.692 55.97 591.8 55.2922Z" fill="#F9F1D1"/>
<path d="M503.54 48.2766C505.423 48.5904 507.325 49.0611 509.247 49.6887C511.208 50.3163 512.993 51.0812 514.601 51.9834C516.249 52.8464 517.563 53.8467 518.544 54.9842C519.563 56.1217 520.073 57.377 520.073 58.7499C520.073 59.6128 519.779 60.3581 519.191 60.9857C518.642 61.6133 517.916 61.9271 517.014 61.9271C516.269 61.9271 515.602 61.7114 515.013 61.2799C514.425 60.8092 513.738 60.0639 512.954 59.0441C512.248 58.1419 511.581 57.3181 510.953 56.5728C510.326 55.7883 509.659 55.043 508.953 54.337C508.247 53.5917 507.404 52.8268 506.423 52.0423C505.481 51.2185 504.324 50.3163 502.951 49.3357L503.54 48.2766ZM545.492 53.9839L546.668 54.7488C544.393 58.9852 541.687 62.947 538.549 66.6342C535.411 70.2822 531.92 73.6948 528.075 76.8721C524.271 80.0102 520.152 82.9717 515.719 85.7567C515.209 86.0705 514.758 86.4432 514.366 86.8746C513.974 87.3061 513.582 87.6788 513.189 87.9926C512.836 88.3064 512.405 88.4633 511.895 88.4633C510.953 88.4633 509.934 88.1691 508.835 87.5807C507.737 86.9923 506.737 86.2863 505.835 85.4625C504.972 84.6388 504.324 83.8739 503.893 83.1678C503.579 82.5794 503.304 81.8342 503.069 80.932C502.834 79.9905 502.696 79.1668 502.657 78.4607L503.54 77.9312C504.05 78.4411 504.599 78.9903 505.187 79.5787C505.815 80.1671 506.462 80.6574 507.129 81.0496C507.796 81.4419 508.463 81.638 509.129 81.638C510.032 81.638 511.346 81.2458 513.072 80.4613C514.837 79.6375 516.837 78.5196 519.073 77.1075C521.348 75.6953 523.721 74.0871 526.193 72.2827C528.703 70.4391 531.155 68.4778 533.547 66.3989C535.979 64.3199 538.215 62.2213 540.255 60.1031C542.334 57.985 544.08 55.9452 545.492 53.9839Z" fill="#F9F1D1"/>
<path d="M503.54 48.2766C505.423 48.5904 507.325 49.0611 509.247 49.6887C511.208 50.3163 512.993 51.0812 514.601 51.9834C516.249 52.8464 517.563 53.8467 518.544 54.9842C519.563 56.1217 520.073 57.377 520.073 58.7499C520.073 59.6128 519.779 60.3581 519.191 60.9857C518.642 61.6133 517.916 61.9271 517.014 61.9271C516.269 61.9271 515.602 61.7114 515.013 61.2799C514.425 60.8092 513.738 60.0639 512.954 59.0441C512.248 58.1419 511.581 57.3181 510.953 56.5728C510.326 55.7883 509.659 55.043 508.953 54.337C508.247 53.5917 507.404 52.8268 506.423 52.0423C505.481 51.2185 504.324 50.3163 502.951 49.3357L503.54 48.2766ZM545.492 53.9839L546.668 54.7488C544.393 58.9852 541.687 62.947 538.549 66.6342C535.411 70.2822 531.92 73.6948 528.075 76.8721C524.271 80.0102 520.152 82.9717 515.719 85.7567C515.209 86.0705 514.758 86.4432 514.366 86.8746C513.974 87.3061 513.582 87.6788 513.189 87.9926C512.836 88.3064 512.405 88.4633 511.895 88.4633C510.953 88.4633 509.934 88.1691 508.835 87.5807C507.737 86.9923 506.737 86.2863 505.835 85.4625C504.972 84.6388 504.324 83.8739 503.893 83.1678C503.579 82.5794 503.304 81.8342 503.069 80.932C502.834 79.9905 502.696 79.1668 502.657 78.4607L503.54 77.9312C504.05 78.4411 504.599 78.9903 505.187 79.5787C505.815 80.1671 506.462 80.6574 507.129 81.0496C507.796 81.4419 508.463 81.638 509.129 81.638C510.032 81.638 511.346 81.2458 513.072 80.4613C514.837 79.6375 516.837 78.5196 519.073 77.1075C521.348 75.6953 523.721 74.0871 526.193 72.2827C528.703 70.4391 531.155 68.4778 533.547 66.3989C535.979 64.3199 538.215 62.2213 540.255 60.1031C542.334 57.985 544.08 55.9452 545.492 53.9839Z" fill="#5F0E14"/>
<path d="M456 57.8859L457 57.4152C457.746 58.3174 458.432 59.0626 459.06 59.651C459.726 60.2002 460.57 60.4748 461.59 60.4748C462.296 60.4748 463.414 60.4159 464.943 60.2983C466.473 60.1413 468.219 59.9452 470.18 59.7099C472.141 59.4745 474.103 59.2392 476.064 59.0038C478.064 58.7685 479.869 58.5331 481.477 58.2977C483.125 58.0624 484.38 57.8663 485.243 57.7094C486.263 57.5525 487.008 57.2779 487.479 56.8856C487.949 56.4934 488.479 56.2972 489.067 56.2972C489.616 56.2972 490.264 56.4934 491.009 56.8856C491.754 57.2779 492.48 57.7682 493.186 58.3566C493.892 58.945 494.48 59.553 494.951 60.1806C495.422 60.8082 495.657 61.377 495.657 61.8869C495.657 62.3184 495.422 62.7302 494.951 63.1225C494.52 63.5148 494.029 63.9462 493.48 64.4169C492.931 64.8484 492.46 65.3976 492.068 66.0644C490.185 69.6732 487.851 73.125 485.066 76.42C482.281 79.6757 478.888 82.6373 474.887 85.3046C470.886 87.9719 466.12 90.2078 460.589 92.0122L459.883 90.7766C463.374 88.9722 466.552 86.9717 469.415 84.7751C472.279 82.5392 474.828 80.1856 477.064 77.7144C479.339 75.204 481.281 72.6543 482.889 70.0654C484.537 67.4373 485.851 64.8288 486.831 62.2399C487.067 61.5339 486.831 61.2201 486.125 61.2985C485.341 61.3377 484.282 61.4554 482.948 61.6515C481.614 61.8477 480.143 62.083 478.535 62.3576C476.927 62.593 475.319 62.8675 473.71 63.1813C472.102 63.4559 470.612 63.7305 469.239 64.0051C467.905 64.2797 466.866 64.515 466.12 64.7111C465.218 64.9073 464.473 65.2211 463.884 65.6526C463.296 66.0448 462.688 66.2409 462.06 66.2409C461.394 66.2409 460.668 65.9664 459.883 65.4172C459.138 64.8288 458.452 64.162 457.824 63.4167C457.236 62.6714 456.843 62.0242 456.647 61.475C456.451 60.8866 456.294 60.3179 456.177 59.7687C456.098 59.1803 456.039 58.5527 456 57.8859ZM486.478 49.1778C485.341 49.4131 484.027 49.6681 482.536 49.9427C481.046 50.2173 479.477 50.4918 477.829 50.7664C476.182 51.0018 474.573 51.1979 473.004 51.3548C471.435 51.5117 470.004 51.5902 468.709 51.5902C467.022 51.5902 465.65 51.1195 464.59 50.178C463.531 49.1974 462.492 47.7657 461.472 45.8828L462.178 45.2356C463.355 46.0201 464.434 46.5497 465.414 46.8242C466.395 47.0988 467.375 47.2361 468.356 47.2361C470.396 47.2361 472.239 47.0596 473.887 46.7066C475.534 46.3535 477.005 46.0005 478.3 45.6475C479.398 45.3729 480.241 45.1179 480.83 44.8826C481.457 44.6472 481.948 44.4511 482.301 44.2942C482.654 44.0981 483.007 44 483.36 44C485.047 44 486.4 44.255 487.42 44.7649C488.479 45.2748 489.008 46.0201 489.008 47.0008C489.008 47.5107 488.812 47.9422 488.42 48.2952C488.067 48.6482 487.42 48.9424 486.478 49.1778Z" fill="#F9F1D1"/>
<path d="M456 57.8859L457 57.4152C457.746 58.3174 458.432 59.0626 459.06 59.651C459.726 60.2002 460.57 60.4748 461.59 60.4748C462.296 60.4748 463.414 60.4159 464.943 60.2983C466.473 60.1413 468.219 59.9452 470.18 59.7099C472.141 59.4745 474.103 59.2392 476.064 59.0038C478.064 58.7685 479.869 58.5331 481.477 58.2977C483.125 58.0624 484.38 57.8663 485.243 57.7094C486.263 57.5525 487.008 57.2779 487.479 56.8856C487.949 56.4934 488.479 56.2972 489.067 56.2972C489.616 56.2972 490.264 56.4934 491.009 56.8856C491.754 57.2779 492.48 57.7682 493.186 58.3566C493.892 58.945 494.48 59.553 494.951 60.1806C495.422 60.8082 495.657 61.377 495.657 61.8869C495.657 62.3184 495.422 62.7302 494.951 63.1225C494.52 63.5148 494.029 63.9462 493.48 64.4169C492.931 64.8484 492.46 65.3976 492.068 66.0644C490.185 69.6732 487.851 73.125 485.066 76.42C482.281 79.6757 478.888 82.6373 474.887 85.3046C470.886 87.9719 466.12 90.2078 460.589 92.0122L459.883 90.7766C463.374 88.9722 466.552 86.9717 469.415 84.7751C472.279 82.5392 474.828 80.1856 477.064 77.7144C479.339 75.204 481.281 72.6543 482.889 70.0654C484.537 67.4373 485.851 64.8288 486.831 62.2399C487.067 61.5339 486.831 61.2201 486.125 61.2985C485.341 61.3377 484.282 61.4554 482.948 61.6515C481.614 61.8477 480.143 62.083 478.535 62.3576C476.927 62.593 475.319 62.8675 473.71 63.1813C472.102 63.4559 470.612 63.7305 469.239 64.0051C467.905 64.2797 466.866 64.515 466.12 64.7111C465.218 64.9073 464.473 65.2211 463.884 65.6526C463.296 66.0448 462.688 66.2409 462.06 66.2409C461.394 66.2409 460.668 65.9664 459.883 65.4172C459.138 64.8288 458.452 64.162 457.824 63.4167C457.236 62.6714 456.843 62.0242 456.647 61.475C456.451 60.8866 456.294 60.3179 456.177 59.7687C456.098 59.1803 456.039 58.5527 456 57.8859ZM486.478 49.1778C485.341 49.4131 484.027 49.6681 482.536 49.9427C481.046 50.2173 479.477 50.4918 477.829 50.7664C476.182 51.0018 474.573 51.1979 473.004 51.3548C471.435 51.5117 470.004 51.5902 468.709 51.5902C467.022 51.5902 465.65 51.1195 464.59 50.178C463.531 49.1974 462.492 47.7657 461.472 45.8828L462.178 45.2356C463.355 46.0201 464.434 46.5497 465.414 46.8242C466.395 47.0988 467.375 47.2361 468.356 47.2361C470.396 47.2361 472.239 47.0596 473.887 46.7066C475.534 46.3535 477.005 46.0005 478.3 45.6475C479.398 45.3729 480.241 45.1179 480.83 44.8826C481.457 44.6472 481.948 44.4511 482.301 44.2942C482.654 44.0981 483.007 44 483.36 44C485.047 44 486.4 44.255 487.42 44.7649C488.479 45.2748 489.008 46.0201 489.008 47.0008C489.008 47.5107 488.812 47.9422 488.42 48.2952C488.067 48.6482 487.42 48.9424 486.478 49.1778Z" fill="#5F0E14"/>
</mask>
<g mask="url(#mask1_46_1433)">
<rect x="454" y="41" width="263" height="63" fill="#AF2304"/>
<rect x="458" y="44" width="38" height="11" fill="#BF9C35"/>
<path d="M572.463 34.9999L579.5 49.4999L576.5 53.9999L585.5 92.4999L579.5 93.9999L572 57.4999L564 46.9999L562 38.3948L572.463 34.9999Z" fill="#BF9C35"/>
<rect x="610" y="43" width="23" height="26" fill="#BF9C35"/>
</g>
<defs>
<filter id="filter0_d_46_1433" x="0" y="0" width="472.491" height="133.026" filterUnits="userSpaceOnUse" color-interpolation-filters="sRGB">
<feFlood flood-opacity="0" result="BackgroundImageFix"/>
<feColorMatrix in="SourceAlpha" type="matrix" values="0 0 0 0 0 0 0 0 0 0 0 0 0 0 0 0 0 0 127 0" result="hardAlpha"/>
<feOffset/>
<feGaussianBlur stdDeviation="15"/>
<feComposite in2="hardAlpha" operator="out"/>
<feColorMatrix type="matrix" values="0 0 0 0 0 0 0 0 0 0 0 0 0 0 0 0 0 0 0.15 0"/>
<feBlend mode="normal" in2="BackgroundImageFix" result="effect1_dropShadow_46_1433"/>
<feBlend mode="normal" in="SourceGraphic" in2="effect1_dropShadow_46_1433" result="shape"/>
</filter>
</defs>
</svg>
