<svg width="349" height="452" viewBox="0 0 349 452" fill="none" xmlns="http://www.w3.org/2000/svg">
<path d="M14.5 15.5L19.5 7L26 1.5H322L330 6L334 16L344 21L348.5 29.5V423.5L342.5 432L334 434.5L330 445.5L321.5 451L30 452L18 446L15.5 435.5L7 433L1 425.5V28.5L5.5 21L14.5 15.5Z" fill="white"/>
<path d="M346.877 419.681C346.877 427.111 341.412 433.203 334.153 433.872L332.264 434.041L332.222 435.941C332.052 443.626 325.791 449.877 318.256 449.877L30.7443 449.877C23.2094 449.877 16.9375 443.626 16.7783 435.941L16.7359 434.041L14.8468 433.872C7.58787 433.214 2.12248 427.111 2.12248 419.681L2.1225 32.3191C2.1225 24.8894 7.58789 18.7971 14.8468 18.1284L16.7359 17.9586L16.7783 16.0587C16.9481 8.37429 23.2094 2.12276 30.7443 2.12276L318.256 2.12276C325.791 2.12276 332.063 8.3743 332.222 16.0587L332.264 17.9586L334.153 18.1284C341.412 18.7865 346.878 24.8894 346.878 32.3191L346.877 419.681ZM349 419.681L349 32.3191C349 23.775 342.558 16.7698 334.344 16.0163C334.153 7.1431 327.032 -9.60243e-07 318.256 -1.34388e-06L30.7443 -7.77279e-06C21.9678 -8.15643e-06 14.8468 7.13247 14.6558 16.0162C6.44177 16.7698 2.94783e-05 23.7749 2.91049e-05 32.3191L1.21727e-05 419.681C1.17993e-05 428.225 6.44175 435.23 14.6558 435.984C14.8468 444.857 21.9678 452 30.7443 452L318.256 452C327.032 452 334.153 444.868 334.344 435.984C342.558 435.23 349 428.225 349 419.681Z" fill="#D4B987"/>
<path d="M336.976 413.682C336.976 420.882 331.763 426.785 324.84 427.433L323.039 427.598L322.998 429.439C322.836 436.885 316.864 442.943 309.678 442.943L37.3217 442.943C30.1355 442.943 24.1538 436.885 24.002 429.439L23.9615 427.598L22.1599 427.433C15.2368 426.795 10.0243 420.882 10.0243 413.682L10.0243 38.318C10.0243 31.1185 15.2368 25.2148 22.1599 24.5669L23.9615 24.4023L24.002 22.5613C24.1639 15.1149 30.1355 9.05701 37.3217 9.05701L309.678 9.05701C316.864 9.05701 322.846 15.1149 322.998 22.5613L323.039 24.4023L324.84 24.5669C331.763 25.2046 336.976 31.1185 336.976 38.318L336.976 413.682ZM339 413.682L339 38.318C339 30.0386 332.856 23.2504 325.022 22.5202C324.84 13.9219 318.049 7 309.678 7L37.3217 6.99999C28.9513 6.99999 22.1599 13.9116 21.9777 22.5202C14.1437 23.2504 8.00003 30.0385 8.00003 38.318L8.00001 413.682C8.00001 421.962 14.1437 428.75 21.9777 429.48C22.1599 438.078 28.9513 445 37.3217 445L309.678 445C318.049 445 324.84 438.089 325.022 429.48C332.856 428.75 339 421.962 339 413.682Z" fill="#D4B987"/>
</svg>
