<svg width="75" height="32" viewBox="0 0 75 32" fill="none" xmlns="http://www.w3.org/2000/svg">
<g clip-path="url(#clip0_46_1311)">
<path d="M36.3565 32H8.92348C6.94642 32 5.3434 30.3745 5.3434 28.3698C5.3434 26.3651 6.94642 24.7396 8.92348 24.7396H15.7844C17.1737 24.7396 18.2958 23.6018 18.2958 22.193C18.2958 20.7843 17.163 19.6465 15.7844 19.6465H13.4974C11.5204 19.6465 9.91735 18.021 9.91735 16.0163C9.91735 14.0115 11.5204 12.386 13.4974 12.386H43.9869C45.3762 12.386 46.4983 11.2374 46.4983 9.83948C46.4983 8.44158 45.3655 7.29292 43.9869 7.29292H3.58008C1.60302 7.29292 0 5.66746 0 3.66272C0 1.65797 1.60302 0 3.58008 0H61.5133C63.4903 0 65.0933 1.62547 65.0933 3.63021C65.0933 5.63495 63.4903 7.26041 61.5133 7.26041H55.4111C54.0218 7.26041 52.8997 8.40907 52.8997 9.80698C52.8997 11.2049 54.0325 12.3535 55.4111 12.3535H71.4199C73.397 12.3535 75 13.979 75 15.9837C75 17.9885 73.397 19.614 71.4199 19.614H27.2086C25.8193 19.614 24.6972 20.7626 24.6972 22.1605C24.6972 23.5584 25.83 24.7071 27.2086 24.7071H36.3565C38.3336 24.7071 39.9366 26.3325 39.9366 28.3373C39.9366 30.342 38.3336 31.9675 36.3565 31.9675V32ZM8.92348 25.8124C7.5342 25.8124 6.41208 26.9611 6.41208 28.359C6.41208 29.7569 7.54489 30.9055 8.92348 30.9055H36.3672C37.7565 30.9055 38.8786 29.7569 38.8786 28.359C38.8786 26.9611 37.7458 25.8124 36.3672 25.8124H27.2193C25.2422 25.8124 23.6392 24.1869 23.6392 22.1822C23.6392 20.1774 25.2422 18.552 27.2193 18.552H71.4306C72.8199 18.552 73.942 17.4033 73.942 16.0054C73.942 14.6075 72.8092 13.4589 71.4306 13.4589H55.4218C53.4447 13.4589 51.8417 11.8334 51.8417 9.82865C51.8417 7.82391 53.4447 6.19844 55.4218 6.19844H61.5239C62.9132 6.19844 64.0353 5.04978 64.0353 3.65188C64.0353 2.25398 62.9025 1.10532 61.5239 1.10532H3.58008C2.20148 1.08364 1.06868 2.23231 1.06868 3.63021C1.06868 5.02811 2.20148 6.17677 3.58008 6.17677H43.9762C45.9533 6.17677 47.5563 7.80223 47.5563 9.80698C47.5563 11.8117 45.9533 13.4372 43.9762 13.4372H13.4867C12.0975 13.4372 10.9753 14.575 10.9753 15.9837C10.9753 17.3925 12.1082 18.5303 13.4867 18.5303H15.7737C17.7508 18.5303 19.3538 20.1558 19.3538 22.1605C19.3538 24.1653 17.7508 25.7907 15.7737 25.7907H8.9128L8.92348 25.8124Z" fill="#D4B987"/>
</g>
<defs>
<clipPath id="clip0_46_1311">
<rect width="75" height="32" fill="white"/>
</clipPath>
</defs>
</svg>
