<svg width="180" height="37" viewBox="0 0 180 37" fill="none" xmlns="http://www.w3.org/2000/svg">
<mask id="mask0_72_122" style="mask-type:alpha" maskUnits="userSpaceOnUse" x="0" y="0" width="180" height="37">
<path d="M173.219 7.18111C172.84 6.63397 172.366 6.03213 171.798 5.37557C171.229 4.69166 170.472 3.98038 169.524 3.24176L169.971 2.62623C171.081 2.95451 172.069 3.3375 172.935 3.77521C173.828 4.18556 174.545 4.6643 175.087 5.21143C175.574 5.64914 175.912 6.05949 176.102 6.44248C176.291 6.82547 176.386 7.20846 176.386 7.59145C176.386 7.97445 176.264 8.28905 176.021 8.53526C175.777 8.78147 175.466 8.90457 175.087 8.90457C174.789 8.90457 174.491 8.74043 174.194 8.41215C173.923 8.08387 173.598 7.67353 173.219 7.18111ZM176.792 4.18556C176.386 3.69314 175.912 3.17336 175.371 2.62623C174.857 2.05174 174.085 1.38151 173.057 0.615523L173.503 0C174.613 0.300922 175.588 0.642879 176.427 1.02587C177.293 1.38151 177.983 1.7645 178.498 2.17485C179.039 2.5852 179.418 3.00923 179.634 3.44693C179.878 3.85728 180 4.28131 180 4.71901C180 5.12936 179.892 5.44396 179.675 5.66282C179.458 5.88167 179.174 5.99109 178.822 5.99109C178.443 5.99109 178.119 5.82695 177.848 5.49868C177.577 5.14304 177.225 4.70533 176.792 4.18556ZM144.228 21.3381C145.527 20.326 146.773 19.218 147.964 18.0143C149.155 16.7833 150.251 15.5522 151.252 14.3212C152.281 13.0628 153.174 11.8591 153.932 10.7101C154.69 9.56113 155.272 8.53526 155.678 7.63249C156.111 6.70237 156.328 5.99109 156.328 5.49868C156.328 5.11568 156.098 4.73269 155.638 4.3497C155.177 3.96671 154.609 3.61107 153.932 3.28279L154.095 2.62623C154.474 2.57152 154.866 2.53048 155.272 2.50313C155.705 2.44842 156.206 2.44842 156.775 2.50313C157.532 2.5852 158.29 2.77669 159.048 3.07762C159.806 3.37854 160.429 3.73417 160.916 4.14452C161.43 4.52752 161.688 4.86947 161.688 5.1704C161.688 5.58074 161.566 5.90902 161.322 6.15523C161.106 6.40144 160.835 6.78443 160.51 7.30421C159.346 9.27388 157.952 11.1888 156.328 13.0491C154.731 14.9093 152.958 16.6328 151.009 18.2195C149.087 19.7788 147.016 21.0919 144.796 22.1588L144.228 21.3381ZM144.634 36.0286C147.233 34.6334 149.737 32.9784 152.146 31.0634C154.555 29.1485 156.788 27.0967 158.845 24.9082C160.903 22.6923 162.703 20.4491 164.246 18.1785C165.789 15.9079 166.966 13.7193 167.778 11.6129C167.941 11.1478 167.805 10.9153 167.372 10.9153C167.156 10.9153 166.804 10.9563 166.316 11.0384C165.856 11.0931 165.328 11.1752 164.733 11.2846C164.137 11.394 163.569 11.5034 163.028 11.6129C162.513 11.7223 162.094 11.818 161.769 11.9001C161.336 12.0369 160.93 12.16 160.551 12.2694C160.199 12.3789 159.847 12.4336 159.495 12.4336C159.17 12.4336 158.764 12.2558 158.277 11.9001C157.817 11.5445 157.316 11.1478 156.775 10.7101L157.465 9.43803C157.898 9.49274 158.263 9.53377 158.561 9.56113C158.859 9.58849 159.143 9.60217 159.414 9.60217C159.793 9.60217 160.348 9.57481 161.079 9.52009C161.809 9.43802 162.567 9.34228 163.352 9.23285C164.164 9.12343 164.895 9.014 165.545 8.90457C166.222 8.79515 166.695 8.71308 166.966 8.65836C167.507 8.49422 167.941 8.26169 168.265 7.96077C168.59 7.63249 168.956 7.46835 169.362 7.46835C169.632 7.46835 170.011 7.57778 170.499 7.79663C171.013 8.01548 171.527 8.30273 172.042 8.65836C172.583 8.98664 173.03 9.35595 173.381 9.7663C173.733 10.1493 173.909 10.5186 173.909 10.8742C173.909 11.2025 173.774 11.4898 173.503 11.736C173.26 11.9548 172.975 12.1874 172.651 12.4336C172.326 12.6798 172.042 12.9944 171.798 13.3774C169.876 16.8243 167.643 20.0387 165.098 23.0206C162.554 25.9751 159.63 28.6287 156.328 30.9813C153.053 33.3067 149.331 35.2626 145.162 36.8493L144.634 36.0286Z" fill="#F9F1D1"/>
<path d="M173.219 7.18111C172.84 6.63397 172.366 6.03213 171.798 5.37557C171.229 4.69166 170.472 3.98038 169.524 3.24176L169.971 2.62623C171.081 2.95451 172.069 3.3375 172.935 3.77521C173.828 4.18556 174.545 4.6643 175.087 5.21143C175.574 5.64914 175.912 6.05949 176.102 6.44248C176.291 6.82547 176.386 7.20846 176.386 7.59145C176.386 7.97445 176.264 8.28905 176.021 8.53526C175.777 8.78147 175.466 8.90457 175.087 8.90457C174.789 8.90457 174.491 8.74043 174.194 8.41215C173.923 8.08387 173.598 7.67353 173.219 7.18111ZM176.792 4.18556C176.386 3.69314 175.912 3.17336 175.371 2.62623C174.857 2.05174 174.085 1.38151 173.057 0.615523L173.503 0C174.613 0.300922 175.588 0.642879 176.427 1.02587C177.293 1.38151 177.983 1.7645 178.498 2.17485C179.039 2.5852 179.418 3.00923 179.634 3.44693C179.878 3.85728 180 4.28131 180 4.71901C180 5.12936 179.892 5.44396 179.675 5.66282C179.458 5.88167 179.174 5.99109 178.822 5.99109C178.443 5.99109 178.119 5.82695 177.848 5.49868C177.577 5.14304 177.225 4.70533 176.792 4.18556ZM144.228 21.3381C145.527 20.326 146.773 19.218 147.964 18.0143C149.155 16.7833 150.251 15.5522 151.252 14.3212C152.281 13.0628 153.174 11.8591 153.932 10.7101C154.69 9.56113 155.272 8.53526 155.678 7.63249C156.111 6.70237 156.328 5.99109 156.328 5.49868C156.328 5.11568 156.098 4.73269 155.638 4.3497C155.177 3.96671 154.609 3.61107 153.932 3.28279L154.095 2.62623C154.474 2.57152 154.866 2.53048 155.272 2.50313C155.705 2.44842 156.206 2.44842 156.775 2.50313C157.532 2.5852 158.29 2.77669 159.048 3.07762C159.806 3.37854 160.429 3.73417 160.916 4.14452C161.43 4.52752 161.688 4.86947 161.688 5.1704C161.688 5.58074 161.566 5.90902 161.322 6.15523C161.106 6.40144 160.835 6.78443 160.51 7.30421C159.346 9.27388 157.952 11.1888 156.328 13.0491C154.731 14.9093 152.958 16.6328 151.009 18.2195C149.087 19.7788 147.016 21.0919 144.796 22.1588L144.228 21.3381ZM144.634 36.0286C147.233 34.6334 149.737 32.9784 152.146 31.0634C154.555 29.1485 156.788 27.0967 158.845 24.9082C160.903 22.6923 162.703 20.4491 164.246 18.1785C165.789 15.9079 166.966 13.7193 167.778 11.6129C167.941 11.1478 167.805 10.9153 167.372 10.9153C167.156 10.9153 166.804 10.9563 166.316 11.0384C165.856 11.0931 165.328 11.1752 164.733 11.2846C164.137 11.394 163.569 11.5034 163.028 11.6129C162.513 11.7223 162.094 11.818 161.769 11.9001C161.336 12.0369 160.93 12.16 160.551 12.2694C160.199 12.3789 159.847 12.4336 159.495 12.4336C159.17 12.4336 158.764 12.2558 158.277 11.9001C157.817 11.5445 157.316 11.1478 156.775 10.7101L157.465 9.43803C157.898 9.49274 158.263 9.53377 158.561 9.56113C158.859 9.58849 159.143 9.60217 159.414 9.60217C159.793 9.60217 160.348 9.57481 161.079 9.52009C161.809 9.43802 162.567 9.34228 163.352 9.23285C164.164 9.12343 164.895 9.014 165.545 8.90457C166.222 8.79515 166.695 8.71308 166.966 8.65836C167.507 8.49422 167.941 8.26169 168.265 7.96077C168.59 7.63249 168.956 7.46835 169.362 7.46835C169.632 7.46835 170.011 7.57778 170.499 7.79663C171.013 8.01548 171.527 8.30273 172.042 8.65836C172.583 8.98664 173.03 9.35595 173.381 9.7663C173.733 10.1493 173.909 10.5186 173.909 10.8742C173.909 11.2025 173.774 11.4898 173.503 11.736C173.26 11.9548 172.975 12.1874 172.651 12.4336C172.326 12.6798 172.042 12.9944 171.798 13.3774C169.876 16.8243 167.643 20.0387 165.098 23.0206C162.554 25.9751 159.63 28.6287 156.328 30.9813C153.053 33.3067 149.331 35.2626 145.162 36.8493L144.634 36.0286Z" fill="#5F0E14"/>
<path d="M107.572 6.27661C108.872 6.49546 110.185 6.82374 111.511 7.26145C112.864 7.69916 114.096 8.23261 115.206 8.86181C116.343 9.46366 117.25 10.1612 117.926 10.9546C118.63 11.7479 118.982 12.6233 118.982 13.5808C118.982 14.1827 118.779 14.7024 118.373 15.1401C117.994 15.5779 117.493 15.7967 116.871 15.7967C116.356 15.7967 115.896 15.6462 115.49 15.3453C115.084 15.017 114.61 14.4973 114.069 13.786C113.582 13.1568 113.122 12.5823 112.688 12.0625C112.255 11.5154 111.795 10.9956 111.308 10.5032C110.821 9.98343 110.239 9.44998 109.562 8.90285C108.912 8.32836 108.114 7.69916 107.166 7.01524L107.572 6.27661ZM136.523 10.257L137.335 10.7905C135.765 13.745 133.897 16.508 131.732 19.0795C129.566 21.6237 127.157 24.0037 124.504 26.2196C121.878 28.4081 119.036 30.4735 115.977 32.4158C115.625 32.6347 115.314 32.8946 115.044 33.1955C114.773 33.4964 114.502 33.7563 114.231 33.9752C113.988 34.194 113.69 34.3034 113.338 34.3034C112.688 34.3034 111.985 34.0983 111.227 33.6879C110.469 33.2776 109.779 32.7852 109.156 32.2107C108.56 31.6362 108.114 31.1027 107.816 30.6103C107.6 30.2 107.41 29.6802 107.248 29.051C107.085 28.3944 106.99 27.8199 106.963 27.3275L107.572 26.9582C107.924 27.3138 108.303 27.6968 108.709 28.1072C109.142 28.5175 109.589 28.8595 110.049 29.1331C110.509 29.4066 110.97 29.5434 111.43 29.5434C112.052 29.5434 112.959 29.2698 114.15 28.7227C115.368 28.1482 116.749 27.3685 118.292 26.3837C119.862 25.3989 121.499 24.2773 123.205 23.0189C124.937 21.7331 126.629 20.3653 128.28 18.9154C129.959 17.4655 131.502 16.0019 132.909 14.5246C134.344 13.0474 135.548 11.6248 136.523 10.257Z" fill="#F9F1D1"/>
<path d="M107.572 6.27661C108.872 6.49546 110.185 6.82374 111.511 7.26145C112.864 7.69916 114.096 8.23261 115.206 8.86181C116.343 9.46366 117.25 10.1612 117.926 10.9546C118.63 11.7479 118.982 12.6233 118.982 13.5808C118.982 14.1827 118.779 14.7024 118.373 15.1401C117.994 15.5779 117.493 15.7967 116.871 15.7967C116.356 15.7967 115.896 15.6462 115.49 15.3453C115.084 15.017 114.61 14.4973 114.069 13.786C113.582 13.1568 113.122 12.5823 112.688 12.0625C112.255 11.5154 111.795 10.9956 111.308 10.5032C110.821 9.98343 110.239 9.44998 109.562 8.90285C108.912 8.32836 108.114 7.69916 107.166 7.01524L107.572 6.27661ZM136.523 10.257L137.335 10.7905C135.765 13.745 133.897 16.508 131.732 19.0795C129.566 21.6237 127.157 24.0037 124.504 26.2196C121.878 28.4081 119.036 30.4735 115.977 32.4158C115.625 32.6347 115.314 32.8946 115.044 33.1955C114.773 33.4964 114.502 33.7563 114.231 33.9752C113.988 34.194 113.69 34.3034 113.338 34.3034C112.688 34.3034 111.985 34.0983 111.227 33.6879C110.469 33.2776 109.779 32.7852 109.156 32.2107C108.56 31.6362 108.114 31.1027 107.816 30.6103C107.6 30.2 107.41 29.6802 107.248 29.051C107.085 28.3944 106.99 27.8199 106.963 27.3275L107.572 26.9582C107.924 27.3138 108.303 27.6968 108.709 28.1072C109.142 28.5175 109.589 28.8595 110.049 29.1331C110.509 29.4066 110.97 29.5434 111.43 29.5434C112.052 29.5434 112.959 29.2698 114.15 28.7227C115.368 28.1482 116.749 27.3685 118.292 26.3837C119.862 25.3989 121.499 24.2773 123.205 23.0189C124.937 21.7331 126.629 20.3653 128.28 18.9154C129.959 17.4655 131.502 16.0019 132.909 14.5246C134.344 13.0474 135.548 11.6248 136.523 10.257Z" fill="#5F0E14"/>
<path d="M75.081 4.29524C75.6495 3.99431 76.2856 3.72075 76.9894 3.47454C77.6932 3.22833 78.2481 3.10522 78.6541 3.10522C79.0873 3.10522 79.561 3.17362 80.0753 3.3104C80.5896 3.41983 81.0768 3.58396 81.537 3.80282C81.9972 3.99431 82.3897 4.22684 82.7145 4.50041C83.0393 4.74662 83.2153 4.99283 83.2424 5.23904C83.2694 5.53996 83.2424 5.81353 83.1612 6.05974C83.0799 6.27859 82.9987 6.5248 82.9175 6.79836C82.8363 7.07193 82.8093 7.41389 82.8363 7.82424C82.9175 8.59022 83.0393 9.38356 83.2018 10.2043C83.3642 11.025 83.5672 12.0919 83.8108 13.405C84.2439 15.4294 84.65 17.3443 85.0289 19.1499C85.435 20.928 85.8004 22.5694 86.1252 24.0741C86.4771 25.5513 86.7884 26.8508 87.0591 27.9724C87.3298 29.094 87.5463 29.9968 87.7088 30.6807C88.0065 31.7476 88.2366 32.6093 88.399 33.2659C88.5885 33.9224 88.6833 34.6064 88.6833 35.3176C88.6833 35.7553 88.5479 36.1383 88.2772 36.4666C88.0336 36.7949 87.6005 36.9727 86.9779 37.0001C86.5719 37.0001 86.1794 36.8359 85.8004 36.5076C85.4485 36.2067 85.1507 35.81 84.9071 35.3176C84.6635 34.8526 84.4875 34.3875 84.3793 33.9224C84.3251 33.6489 84.2575 33.2385 84.1762 32.6914C84.1221 32.1443 84.0409 31.5014 83.9326 30.7627C83.8514 30.0241 83.7431 29.2718 83.6078 28.5058C83.4454 27.6578 83.2559 26.714 83.0393 25.6744C82.8499 24.6075 82.6468 23.5269 82.4303 22.4327C82.2137 21.311 81.9972 20.2305 81.7806 19.1909C81.5641 18.1514 81.3611 17.1939 81.1716 16.3185C80.9821 15.4431 80.8197 14.7181 80.6843 14.1436C80.4407 13.1314 80.1971 12.1329 79.9535 11.1481C79.7098 10.1359 79.4798 9.2331 79.2632 8.43976C79.0466 7.64642 78.8572 7.07193 78.6948 6.7163C78.5323 6.38802 78.3022 6.14181 78.0045 5.97767C77.7067 5.78617 77.3278 5.63571 76.8676 5.52628C76.4074 5.3895 75.839 5.21168 75.1622 4.99283L75.081 4.29524ZM68.9499 13.0767L69.4777 12.7895C69.9108 13.0904 70.2763 13.3639 70.574 13.6102C70.8989 13.829 71.3049 13.9384 71.7921 13.9384C72.0628 13.9384 72.5636 13.87 73.2945 13.7333C74.0253 13.5965 74.878 13.4187 75.8525 13.1998C76.827 12.981 77.8285 12.7484 78.8572 12.5022C79.8858 12.256 80.8197 12.0235 81.6588 11.8046C82.8499 11.4763 83.9056 11.1891 84.8259 10.9429C85.7733 10.6693 86.626 10.4231 87.3839 10.2043C88.2501 9.87598 88.9133 9.58874 89.3735 9.34253C89.8337 9.06896 90.1585 8.93218 90.348 8.93218C90.6728 8.90482 91.0383 8.93218 91.4443 9.01425C91.8774 9.06896 92.297 9.17839 92.703 9.34253C93.1091 9.47931 93.4339 9.65713 93.6775 9.87598C93.9482 10.0948 94.0835 10.341 94.0835 10.6146C94.0835 11.0523 93.9347 11.4216 93.6369 11.7226C93.3662 12.0235 92.8925 12.2287 92.2158 12.3381C91.2684 12.5296 90.1585 12.7621 88.8863 13.0357C87.6411 13.3092 86.4365 13.5828 85.2725 13.8564C84.1086 14.1026 83.1612 14.3214 82.4303 14.5129C81.2663 14.7865 80.0888 15.0874 78.8978 15.4157C77.7067 15.744 76.6781 16.0723 75.8119 16.4005C75.2164 16.6194 74.7427 16.8382 74.3908 17.0571C74.0389 17.2486 73.6464 17.3443 73.2133 17.3443C72.8884 17.3443 72.4824 17.2212 71.9951 16.975C71.5079 16.7288 71.0342 16.4279 70.574 16.0723C70.1409 15.6893 69.8161 15.3336 69.5995 15.0053C69.383 14.7044 69.2341 14.4172 69.1529 14.1436C69.0988 13.87 69.0311 13.5144 68.9499 13.0767ZM67.0415 23.2534L67.6506 22.884C68.219 23.3218 68.6792 23.6364 69.0311 23.8279C69.383 24.0193 69.7349 24.1151 70.0868 24.1151C70.3575 24.1151 70.8582 24.0467 71.5891 23.9099C72.32 23.7458 73.1997 23.5406 74.2283 23.2944C75.257 23.0482 76.3397 22.7883 77.4766 22.5147C78.6135 22.2138 79.7234 21.9266 80.8061 21.653C81.8889 21.3794 82.8363 21.1195 83.6484 20.8733C84.5146 20.6545 85.435 20.422 86.4094 20.1757C87.3839 19.9295 88.3449 19.6833 89.2923 19.4371C90.2668 19.1635 91.133 18.9173 91.8909 18.6985C92.6759 18.4523 93.3121 18.2471 93.7993 18.083C94.3136 17.9188 94.6791 17.7684 94.8956 17.6316C95.1122 17.4948 95.3152 17.4264 95.5047 17.4264C96.2355 17.399 96.9258 17.4674 97.5755 17.6316C98.2251 17.7957 98.753 18.0282 99.159 18.3292C99.565 18.6301 99.7681 18.9721 99.7681 19.355C99.7681 19.6833 99.6598 20.0116 99.4432 20.3399C99.2267 20.6682 98.78 20.8733 98.1033 20.9554C96.9393 21.0648 95.843 21.1879 94.8144 21.3247C93.8128 21.4341 92.7842 21.5983 91.7285 21.8171C90.6728 22.0086 89.5224 22.2412 88.2772 22.5147C87.032 22.7883 85.6109 23.1303 84.0138 23.5406C83.0393 23.7868 81.9566 24.0877 80.7655 24.4434C79.6016 24.799 78.4782 25.1546 77.3954 25.5103C76.3127 25.8659 75.3923 26.2079 74.6344 26.5362C73.9306 26.8371 73.3892 27.1243 73.0102 27.3979C72.6313 27.6715 72.2117 27.8219 71.7515 27.8493C71.3184 27.8493 70.8312 27.7262 70.2898 27.48C69.7484 27.2064 69.2476 26.9055 68.7875 26.5772C68.3273 26.2216 67.9889 25.8933 67.7724 25.5924C67.61 25.3188 67.4611 24.9905 67.3257 24.6075C67.2175 24.2245 67.1227 23.7731 67.0415 23.2534Z" fill="#F9F1D1"/>
<path d="M75.081 4.29524C75.6495 3.99431 76.2856 3.72075 76.9894 3.47454C77.6932 3.22833 78.2481 3.10522 78.6541 3.10522C79.0873 3.10522 79.561 3.17362 80.0753 3.3104C80.5896 3.41983 81.0768 3.58396 81.537 3.80282C81.9972 3.99431 82.3897 4.22684 82.7145 4.50041C83.0393 4.74662 83.2153 4.99283 83.2424 5.23904C83.2694 5.53996 83.2424 5.81353 83.1612 6.05974C83.0799 6.27859 82.9987 6.5248 82.9175 6.79836C82.8363 7.07193 82.8093 7.41389 82.8363 7.82424C82.9175 8.59022 83.0393 9.38356 83.2018 10.2043C83.3642 11.025 83.5672 12.0919 83.8108 13.405C84.2439 15.4294 84.65 17.3443 85.0289 19.1499C85.435 20.928 85.8004 22.5694 86.1252 24.0741C86.4771 25.5513 86.7884 26.8508 87.0591 27.9724C87.3298 29.094 87.5463 29.9968 87.7088 30.6807C88.0065 31.7476 88.2366 32.6093 88.399 33.2659C88.5885 33.9224 88.6833 34.6064 88.6833 35.3176C88.6833 35.7553 88.5479 36.1383 88.2772 36.4666C88.0336 36.7949 87.6005 36.9727 86.9779 37.0001C86.5719 37.0001 86.1794 36.8359 85.8004 36.5076C85.4485 36.2067 85.1507 35.81 84.9071 35.3176C84.6635 34.8526 84.4875 34.3875 84.3793 33.9224C84.3251 33.6489 84.2575 33.2385 84.1762 32.6914C84.1221 32.1443 84.0409 31.5014 83.9326 30.7627C83.8514 30.0241 83.7431 29.2718 83.6078 28.5058C83.4454 27.6578 83.2559 26.714 83.0393 25.6744C82.8499 24.6075 82.6468 23.5269 82.4303 22.4327C82.2137 21.311 81.9972 20.2305 81.7806 19.1909C81.5641 18.1514 81.3611 17.1939 81.1716 16.3185C80.9821 15.4431 80.8197 14.7181 80.6843 14.1436C80.4407 13.1314 80.1971 12.1329 79.9535 11.1481C79.7098 10.1359 79.4798 9.2331 79.2632 8.43976C79.0466 7.64642 78.8572 7.07193 78.6948 6.7163C78.5323 6.38802 78.3022 6.14181 78.0045 5.97767C77.7067 5.78617 77.3278 5.63571 76.8676 5.52628C76.4074 5.3895 75.839 5.21168 75.1622 4.99283L75.081 4.29524ZM68.9499 13.0767L69.4777 12.7895C69.9108 13.0904 70.2763 13.3639 70.574 13.6102C70.8989 13.829 71.3049 13.9384 71.7921 13.9384C72.0628 13.9384 72.5636 13.87 73.2945 13.7333C74.0253 13.5965 74.878 13.4187 75.8525 13.1998C76.827 12.981 77.8285 12.7484 78.8572 12.5022C79.8858 12.256 80.8197 12.0235 81.6588 11.8046C82.8499 11.4763 83.9056 11.1891 84.8259 10.9429C85.7733 10.6693 86.626 10.4231 87.3839 10.2043C88.2501 9.87598 88.9133 9.58874 89.3735 9.34253C89.8337 9.06896 90.1585 8.93218 90.348 8.93218C90.6728 8.90482 91.0383 8.93218 91.4443 9.01425C91.8774 9.06896 92.297 9.17839 92.703 9.34253C93.1091 9.47931 93.4339 9.65713 93.6775 9.87598C93.9482 10.0948 94.0835 10.341 94.0835 10.6146C94.0835 11.0523 93.9347 11.4216 93.6369 11.7226C93.3662 12.0235 92.8925 12.2287 92.2158 12.3381C91.2684 12.5296 90.1585 12.7621 88.8863 13.0357C87.6411 13.3092 86.4365 13.5828 85.2725 13.8564C84.1086 14.1026 83.1612 14.3214 82.4303 14.5129C81.2663 14.7865 80.0888 15.0874 78.8978 15.4157C77.7067 15.744 76.6781 16.0723 75.8119 16.4005C75.2164 16.6194 74.7427 16.8382 74.3908 17.0571C74.0389 17.2486 73.6464 17.3443 73.2133 17.3443C72.8884 17.3443 72.4824 17.2212 71.9951 16.975C71.5079 16.7288 71.0342 16.4279 70.574 16.0723C70.1409 15.6893 69.8161 15.3336 69.5995 15.0053C69.383 14.7044 69.2341 14.4172 69.1529 14.1436C69.0988 13.87 69.0311 13.5144 68.9499 13.0767ZM67.0415 23.2534L67.6506 22.884C68.219 23.3218 68.6792 23.6364 69.0311 23.8279C69.383 24.0193 69.7349 24.1151 70.0868 24.1151C70.3575 24.1151 70.8582 24.0467 71.5891 23.9099C72.32 23.7458 73.1997 23.5406 74.2283 23.2944C75.257 23.0482 76.3397 22.7883 77.4766 22.5147C78.6135 22.2138 79.7234 21.9266 80.8061 21.653C81.8889 21.3794 82.8363 21.1195 83.6484 20.8733C84.5146 20.6545 85.435 20.422 86.4094 20.1757C87.3839 19.9295 88.3449 19.6833 89.2923 19.4371C90.2668 19.1635 91.133 18.9173 91.8909 18.6985C92.6759 18.4523 93.3121 18.2471 93.7993 18.083C94.3136 17.9188 94.6791 17.7684 94.8956 17.6316C95.1122 17.4948 95.3152 17.4264 95.5047 17.4264C96.2355 17.399 96.9258 17.4674 97.5755 17.6316C98.2251 17.7957 98.753 18.0282 99.159 18.3292C99.565 18.6301 99.7681 18.9721 99.7681 19.355C99.7681 19.6833 99.6598 20.0116 99.4432 20.3399C99.2267 20.6682 98.78 20.8733 98.1033 20.9554C96.9393 21.0648 95.843 21.1879 94.8144 21.3247C93.8128 21.4341 92.7842 21.5983 91.7285 21.8171C90.6728 22.0086 89.5224 22.2412 88.2772 22.5147C87.032 22.7883 85.6109 23.1303 84.0138 23.5406C83.0393 23.7868 81.9566 24.0877 80.7655 24.4434C79.6016 24.799 78.4782 25.1546 77.3954 25.5103C76.3127 25.8659 75.3923 26.2079 74.6344 26.5362C73.9306 26.8371 73.3892 27.1243 73.0102 27.3979C72.6313 27.6715 72.2117 27.8219 71.7515 27.8493C71.3184 27.8493 70.8312 27.7262 70.2898 27.48C69.7484 27.2064 69.2476 26.9055 68.7875 26.5772C68.3273 26.2216 67.9889 25.8933 67.7724 25.5924C67.61 25.3188 67.4611 24.9905 67.3257 24.6075C67.2175 24.2245 67.1227 23.7731 67.0415 23.2534Z" fill="#5F0E14"/>
<path d="M93.7137 10.665C93.5384 11.0835 93.0968 11.3495 92.7511 11.6258C89.3193 14.0186 85.6605 16.0365 82.089 18.1494C78.4912 20.2269 74.922 22.3198 71.1 24.0893C70.6818 24.2818 70.2387 24.4747 69.812 24.6543C70.2722 24.6038 70.7536 24.5317 71.2124 24.4523C75.4206 23.6968 79.4186 22.0046 83.0945 19.8783C86.7516 17.7161 90.2233 15.1706 93.0159 11.8984C93.2849 11.5312 93.6603 11.1431 93.7137 10.665Z" fill="#F9F1D1"/>
<path d="M32.8068 5.77222C34.1061 5.99107 35.419 6.31935 36.7454 6.75706C38.0988 7.19476 39.3305 7.72821 40.4403 8.35742C41.5772 8.95926 42.484 9.65685 43.1607 10.4502C43.8645 11.2435 44.2164 12.1189 44.2164 13.0764C44.2164 13.6783 44.0134 14.198 43.6074 14.6358C43.2284 15.0735 42.7276 15.2923 42.105 15.2923C41.5907 15.2923 41.1306 15.1419 40.7245 14.8409C40.3185 14.5127 39.8448 13.9929 39.3034 13.2816C38.8162 12.6524 38.356 12.0779 37.9229 11.5581C37.4898 11.011 37.0296 10.4912 36.5423 9.99881C36.0551 9.47904 35.4731 8.94558 34.7964 8.39845C34.1467 7.82396 33.3482 7.19476 32.4008 6.51085L32.8068 5.77222ZM61.7572 9.7526L62.5693 10.2861C60.9993 13.2406 59.1315 16.0036 56.966 18.5751C54.8005 21.1193 52.3913 23.4993 49.7385 25.7152C47.1128 27.9037 44.2706 29.9691 41.2118 31.9114C40.8599 32.1303 40.5486 32.3902 40.2779 32.6911C40.0072 32.992 39.7365 33.2519 39.4658 33.4708C39.2222 33.6896 38.9244 33.7991 38.5725 33.7991C37.9229 33.7991 37.2191 33.5939 36.4611 33.1835C35.7032 32.7732 35.0129 32.2808 34.3904 31.7063C33.7948 31.1318 33.3482 30.5983 33.0504 30.1059C32.8339 29.6956 32.6444 29.1758 32.482 28.5466C32.3196 27.89 32.2248 27.3155 32.1978 26.8231L32.8068 26.4538C33.1587 26.8094 33.5377 27.1924 33.9437 27.6028C34.3768 28.0131 34.8235 28.3551 35.2836 28.6287C35.7438 28.9022 36.204 29.039 36.6642 29.039C37.2867 29.039 38.1936 28.7654 39.3846 28.2183C40.6027 27.6438 41.9832 26.8642 43.5262 25.8793C45.0962 24.8945 46.7339 23.7729 48.4392 22.5145C50.1716 21.2287 51.8635 19.8609 53.5147 18.411C55.193 16.9611 56.7359 15.4975 58.1435 14.0202C59.5782 12.543 60.7827 11.1204 61.7572 9.7526Z" fill="#F9F1D1"/>
<path d="M32.8068 5.77222C34.1061 5.99107 35.419 6.31935 36.7454 6.75706C38.0988 7.19476 39.3305 7.72821 40.4403 8.35742C41.5772 8.95926 42.484 9.65685 43.1607 10.4502C43.8645 11.2435 44.2164 12.1189 44.2164 13.0764C44.2164 13.6783 44.0134 14.198 43.6074 14.6358C43.2284 15.0735 42.7276 15.2923 42.105 15.2923C41.5907 15.2923 41.1306 15.1419 40.7245 14.8409C40.3185 14.5127 39.8448 13.9929 39.3034 13.2816C38.8162 12.6524 38.356 12.0779 37.9229 11.5581C37.4898 11.011 37.0296 10.4912 36.5423 9.99881C36.0551 9.47904 35.4731 8.94558 34.7964 8.39845C34.1467 7.82396 33.3482 7.19476 32.4008 6.51085L32.8068 5.77222ZM61.7572 9.7526L62.5693 10.2861C60.9993 13.2406 59.1315 16.0036 56.966 18.5751C54.8005 21.1193 52.3913 23.4993 49.7385 25.7152C47.1128 27.9037 44.2706 29.9691 41.2118 31.9114C40.8599 32.1303 40.5486 32.3902 40.2779 32.6911C40.0072 32.992 39.7365 33.2519 39.4658 33.4708C39.2222 33.6896 38.9244 33.7991 38.5725 33.7991C37.9229 33.7991 37.2191 33.5939 36.4611 33.1835C35.7032 32.7732 35.0129 32.2808 34.3904 31.7063C33.7948 31.1318 33.3482 30.5983 33.0504 30.1059C32.8339 29.6956 32.6444 29.1758 32.482 28.5466C32.3196 27.89 32.2248 27.3155 32.1978 26.8231L32.8068 26.4538C33.1587 26.8094 33.5377 27.1924 33.9437 27.6028C34.3768 28.0131 34.8235 28.3551 35.2836 28.6287C35.7438 28.9022 36.204 29.039 36.6642 29.039C37.2867 29.039 38.1936 28.7654 39.3846 28.2183C40.6027 27.6438 41.9832 26.8642 43.5262 25.8793C45.0962 24.8945 46.7339 23.7729 48.4392 22.5145C50.1716 21.2287 51.8635 19.8609 53.5147 18.411C55.193 16.9611 56.7359 15.4975 58.1435 14.0202C59.5782 12.543 60.7827 11.1204 61.7572 9.7526Z" fill="#5F0E14"/>
<path d="M0 12.4735L0.690263 12.1453C1.20458 12.7745 1.67828 13.2942 2.11139 13.7046C2.57157 14.0876 3.15355 14.2791 3.85735 14.2791C4.34459 14.2791 5.11606 14.238 6.17176 14.156C7.22745 14.0465 8.43203 13.9098 9.78548 13.7456C11.1389 13.5815 12.4924 13.4173 13.8458 13.2532C15.2264 13.0891 16.4716 12.9249 17.5814 12.7608C18.7183 12.5966 19.5845 12.4599 20.18 12.3504C20.8838 12.241 21.3981 12.0495 21.723 11.7759C22.0478 11.5024 22.4132 11.3656 22.8193 11.3656C23.1982 11.3656 23.6449 11.5024 24.1592 11.7759C24.6735 12.0495 25.1743 12.3915 25.6615 12.8018C26.1488 13.2122 26.5548 13.6362 26.8796 14.0739C27.2045 14.5116 27.3669 14.9083 27.3669 15.2639C27.3669 15.5648 27.2045 15.8521 26.8796 16.1256C26.5819 16.3992 26.2435 16.7001 25.8645 17.0284C25.4856 17.3293 25.1607 17.7123 24.89 18.1774C23.5907 20.6942 21.9801 23.1016 20.0582 25.3995C18.1363 27.6701 15.7948 29.7356 13.0338 31.5958C10.2727 33.456 6.98383 35.0154 3.16709 36.2738L2.67984 35.412C5.08899 34.1536 7.28159 32.7585 9.25764 31.2265C11.2337 29.6672 12.9932 28.0258 14.5361 26.3023C16.1061 24.5515 17.446 22.7733 18.5559 20.9678C19.6928 19.1349 20.5996 17.3157 21.2763 15.5101C21.4387 15.0177 21.2763 14.7989 20.7891 14.8536C20.2477 14.8809 19.5168 14.963 18.5965 15.0998C17.6761 15.2366 16.661 15.4007 15.5512 15.5922C14.4414 15.7563 13.3315 15.9478 12.2217 16.1667C11.1119 16.3582 10.0832 16.5497 9.13583 16.7412C8.21548 16.9327 7.49814 17.0968 6.98383 17.2336C6.36124 17.3704 5.84693 17.5892 5.44089 17.8901C5.03485 18.1637 4.61528 18.3005 4.18218 18.3005C3.722 18.3005 3.22122 18.109 2.67984 17.726C2.16553 17.3157 1.69182 16.8506 1.25871 16.3308C0.852677 15.811 0.581986 15.3597 0.44664 14.9767C0.311295 14.5663 0.203018 14.1696 0.121811 13.7867C0.067673 13.3763 0.0270692 12.9386 0 12.4735ZM21.0327 6.40038C20.2477 6.56452 19.3409 6.74233 18.3123 6.93383C17.2836 7.12533 16.2009 7.31682 15.064 7.50832C13.9271 7.67246 12.8172 7.80924 11.7345 7.91867C10.6517 8.02809 9.66367 8.08281 8.77039 8.08281C7.60642 8.08281 6.659 7.75453 5.92813 7.09797C5.19727 6.41405 4.47994 5.41554 3.77614 4.10242L4.26338 3.65104C5.07546 4.19817 5.81986 4.56748 6.49659 4.75898C7.17331 4.95048 7.85004 5.04623 8.52677 5.04623C9.93436 5.04623 11.2066 4.92312 12.3435 4.67691C13.4804 4.4307 14.4955 4.18449 15.3888 3.93828C16.1467 3.74679 16.7287 3.56897 17.1347 3.40483C17.5679 3.24069 17.9062 3.10391 18.1498 2.99448C18.3935 2.8577 18.6371 2.78931 18.8807 2.78931C20.0447 2.78931 20.9786 2.96712 21.6824 3.32276C22.4132 3.67839 22.7787 4.19817 22.7787 4.88209C22.7787 5.23772 22.6433 5.53864 22.3726 5.78485C22.129 6.03106 21.6824 6.23624 21.0327 6.40038Z" fill="#F9F1D1"/>
<path d="M0 12.4735L0.690263 12.1453C1.20458 12.7745 1.67828 13.2942 2.11139 13.7046C2.57157 14.0876 3.15355 14.2791 3.85735 14.2791C4.34459 14.2791 5.11606 14.238 6.17176 14.156C7.22745 14.0465 8.43203 13.9098 9.78548 13.7456C11.1389 13.5815 12.4924 13.4173 13.8458 13.2532C15.2264 13.0891 16.4716 12.9249 17.5814 12.7608C18.7183 12.5966 19.5845 12.4599 20.18 12.3504C20.8838 12.241 21.3981 12.0495 21.723 11.7759C22.0478 11.5024 22.4132 11.3656 22.8193 11.3656C23.1982 11.3656 23.6449 11.5024 24.1592 11.7759C24.6735 12.0495 25.1743 12.3915 25.6615 12.8018C26.1488 13.2122 26.5548 13.6362 26.8796 14.0739C27.2045 14.5116 27.3669 14.9083 27.3669 15.2639C27.3669 15.5648 27.2045 15.8521 26.8796 16.1256C26.5819 16.3992 26.2435 16.7001 25.8645 17.0284C25.4856 17.3293 25.1607 17.7123 24.89 18.1774C23.5907 20.6942 21.9801 23.1016 20.0582 25.3995C18.1363 27.6701 15.7948 29.7356 13.0338 31.5958C10.2727 33.456 6.98383 35.0154 3.16709 36.2738L2.67984 35.412C5.08899 34.1536 7.28159 32.7585 9.25764 31.2265C11.2337 29.6672 12.9932 28.0258 14.5361 26.3023C16.1061 24.5515 17.446 22.7733 18.5559 20.9678C19.6928 19.1349 20.5996 17.3157 21.2763 15.5101C21.4387 15.0177 21.2763 14.7989 20.7891 14.8536C20.2477 14.8809 19.5168 14.963 18.5965 15.0998C17.6761 15.2366 16.661 15.4007 15.5512 15.5922C14.4414 15.7563 13.3315 15.9478 12.2217 16.1667C11.1119 16.3582 10.0832 16.5497 9.13583 16.7412C8.21548 16.9327 7.49814 17.0968 6.98383 17.2336C6.36124 17.3704 5.84693 17.5892 5.44089 17.8901C5.03485 18.1637 4.61528 18.3005 4.18218 18.3005C3.722 18.3005 3.22122 18.109 2.67984 17.726C2.16553 17.3157 1.69182 16.8506 1.25871 16.3308C0.852677 15.811 0.581986 15.3597 0.44664 14.9767C0.311295 14.5663 0.203018 14.1696 0.121811 13.7867C0.067673 13.3763 0.0270692 12.9386 0 12.4735ZM21.0327 6.40038C20.2477 6.56452 19.3409 6.74233 18.3123 6.93383C17.2836 7.12533 16.2009 7.31682 15.064 7.50832C13.9271 7.67246 12.8172 7.80924 11.7345 7.91867C10.6517 8.02809 9.66367 8.08281 8.77039 8.08281C7.60642 8.08281 6.659 7.75453 5.92813 7.09797C5.19727 6.41405 4.47994 5.41554 3.77614 4.10242L4.26338 3.65104C5.07546 4.19817 5.81986 4.56748 6.49659 4.75898C7.17331 4.95048 7.85004 5.04623 8.52677 5.04623C9.93436 5.04623 11.2066 4.92312 12.3435 4.67691C13.4804 4.4307 14.4955 4.18449 15.3888 3.93828C16.1467 3.74679 16.7287 3.56897 17.1347 3.40483C17.5679 3.24069 17.9062 3.10391 18.1498 2.99448C18.3935 2.8577 18.6371 2.78931 18.8807 2.78931C20.0447 2.78931 20.9786 2.96712 21.6824 3.32276C22.4132 3.67839 22.7787 4.19817 22.7787 4.88209C22.7787 5.23772 22.6433 5.53864 22.3726 5.78485C22.129 6.03106 21.6824 6.23624 21.0327 6.40038Z" fill="#5F0E14"/>
</mask>
<g mask="url(#mask0_72_122)">
<rect x="-1.37988" y="0.69751" width="181.493" height="43.9372" fill="#AF2304"/>
<rect x="1.38037" y="2.78931" width="26.2233" height="7.67158" fill="#BF9C35"/>
<path d="M80.3696 -3.48712L85.2256 6.62535L83.1553 9.76374L89.3661 36.6143L85.2256 37.6604L80.05 12.2047L74.5292 4.88182L73.1492 -1.1195L80.3696 -3.48712Z" fill="#BF9C35"/>
<rect x="106.273" y="2.09229" width="15.872" height="18.1328" fill="#BF9C35"/>
</g>
</svg>
