<svg width="77" height="21" viewBox="0 0 77 21" fill="none" xmlns="http://www.w3.org/2000/svg">
<g clip-path="url(#clip0_46_1305)">
<path d="M73.0516 21H42.7105C40.5324 21 38.7621 19.2614 38.7621 17.1225C38.7621 14.9837 40.5324 13.2451 42.7105 13.2451H52.8203C54.3577 13.2451 55.604 12.0212 55.604 10.5114C55.604 9.00163 54.3577 7.77778 52.8203 7.77778H3.94842C1.77038 7.77778 0 6.03922 0 3.90033C0 1.76144 1.77038 0 3.94842 0H67.9967C70.1747 0 71.9451 1.73856 71.9451 3.87745C71.9451 6.01634 70.1747 7.7549 67.9967 7.7549H65.4692C63.9318 7.7549 62.6855 8.97876 62.6855 10.4886C62.6855 11.9984 63.9318 13.2222 65.4692 13.2222H73.0516C75.2296 13.2222 77 14.9608 77 17.0997C77 19.2386 75.2296 20.9771 73.0516 20.9771V21ZM42.7105 14.3889C41.173 14.3889 39.9268 15.6127 39.9268 17.1225C39.9268 18.6324 41.173 19.8562 42.7105 19.8562H73.0516C74.589 19.8562 75.8353 18.6324 75.8353 17.1225C75.8353 15.6127 74.589 14.3889 73.0516 14.3889H65.4692C63.2912 14.3889 61.5208 12.6503 61.5208 10.5114C61.5208 8.37255 63.2912 6.63399 65.4692 6.63399H67.9967C69.5341 6.63399 70.7804 5.41013 70.7804 3.90033C70.7804 2.39052 69.5341 1.16667 67.9967 1.16667H3.94842C2.41098 1.14379 1.16473 2.36765 1.16473 3.87745C1.16473 5.38726 2.41098 6.61111 3.94842 6.61111H52.8203C54.9983 6.61111 56.7687 8.34967 56.7687 10.4886C56.7687 12.6275 54.9983 14.366 52.8203 14.366H42.7105V14.3889Z" fill="#D4B987"/>
</g>
<defs>
<clipPath id="clip0_46_1305">
<rect width="77" height="21" fill="white"/>
</clipPath>
</defs>
</svg>
