<svg width="413" height="75" viewBox="0 0 413 75" fill="none" xmlns="http://www.w3.org/2000/svg">
<mask id="mask0_46_1435" style="mask-type:alpha" maskUnits="userSpaceOnUse" x="0" y="0" width="413" height="75">
<path d="M380.444 12.0499C381.365 11.749 382.264 11.4481 383.142 11.1472C384.019 10.8463 384.853 10.6958 385.643 10.6958C386.432 10.6958 387.288 10.8463 388.209 11.1472C389.174 11.4481 390.095 11.8564 390.973 12.3722C391.894 12.8451 392.618 13.3609 393.144 13.9197C393.715 14.4356 394 14.9299 394 15.4028C394 15.9186 393.89 16.3699 393.671 16.7568C393.451 17.1437 393.21 17.5521 392.947 17.9819C392.684 18.4118 392.486 19.0136 392.355 19.7873C392.223 20.819 392.113 22.0011 392.026 23.3337C391.938 24.6662 391.872 26.0633 391.828 27.5248C391.828 28.9863 391.806 30.4049 391.762 31.7804C391.762 33.1989 391.741 34.8324 391.697 36.6808C391.697 38.4862 391.697 40.4206 391.697 42.4839C391.697 44.5042 391.697 46.4816 391.697 48.416C391.741 50.3503 391.784 52.1343 391.828 53.7677C391.872 55.3152 391.916 56.6048 391.96 57.6365C392.004 58.6681 392.026 59.4419 392.026 59.9577C392.026 61.2473 391.806 62.193 391.368 62.7948C390.973 63.3966 390.249 63.6975 389.196 63.6975C388.275 63.6975 387.463 63.3536 386.761 62.6658C386.103 61.978 385.599 61.0968 385.248 60.0222C384.941 58.9045 384.787 57.7224 384.787 56.4758C384.787 55.7021 384.897 54.9068 385.116 54.0901C385.335 53.2734 385.511 52.1987 385.643 50.8662C385.774 49.6626 385.884 48.244 385.972 46.6106C386.059 44.9341 386.103 43.2147 386.103 41.4522C386.147 39.6468 386.169 37.9489 386.169 36.3584C386.213 34.7249 386.235 33.3709 386.235 32.2962C386.235 30.9637 386.213 29.5451 386.169 28.0406C386.169 26.4931 386.147 24.9886 386.103 23.5271C386.059 22.0226 385.993 20.647 385.906 19.4005C385.862 18.1109 385.774 17.1007 385.643 16.3699C385.511 15.2953 385.006 14.5645 384.129 14.1777C383.252 13.7908 382.045 13.4684 380.51 13.2105L380.444 12.0499ZM390.578 30.0395C394.088 30.4693 397.4 31.1786 400.515 32.1673C403.673 33.113 406.218 34.1661 408.148 35.3267C409.42 36.0575 410.451 36.9172 411.241 37.9059C412.075 38.8516 412.491 40.0122 412.491 41.3878C412.491 42.2475 412.206 42.9997 411.636 43.6445C411.109 44.2893 410.364 44.6117 409.398 44.6117C408.565 44.6117 407.863 44.4398 407.293 44.0959C406.766 43.752 406.24 43.2791 405.713 42.6773C405.187 42.0326 404.551 41.3018 403.805 40.4851C403.059 39.6253 402.116 38.7226 400.975 37.7769C399.659 36.7453 398.168 35.7781 396.5 34.8754C394.833 33.9297 392.859 33.027 390.578 32.1673V30.0395Z" fill="white"/>
<path d="M338.698 24.909C339.285 24.909 340.131 24.8744 341.235 24.8054C342.374 24.7364 343.651 24.6501 345.066 24.5466C346.516 24.4085 347.982 24.2705 349.466 24.1324C350.95 23.9599 352.365 23.8045 353.711 23.6665C355.092 23.4939 356.283 23.3386 357.283 23.2006C358.319 23.028 359.044 22.9072 359.458 22.8382C360.079 22.7001 360.579 22.5276 360.959 22.3205C361.339 22.0789 361.684 21.8718 361.994 21.6993C362.34 21.5267 362.719 21.4404 363.133 21.4404C363.651 21.4404 364.272 21.6475 364.997 22.0617C365.722 22.4413 366.447 22.9417 367.171 23.563C367.896 24.1497 368.5 24.7537 368.983 25.3749C369.466 25.9616 369.708 26.462 369.708 26.8762C369.708 27.3594 369.518 27.808 369.139 28.2222C368.793 28.6363 368.397 29.0677 367.948 29.5164C367.534 29.9651 367.189 30.4655 366.913 31.0177C364.945 35.2628 362.547 39.1627 359.717 42.7175C356.887 46.2723 353.487 49.4302 349.518 52.1913C345.549 54.9178 340.873 57.2129 335.489 59.0765L334.816 57.9894C338.44 56.1257 341.753 54.0032 344.755 51.6218C347.758 49.2404 350.433 46.6865 352.78 43.96C355.126 41.2335 357.076 38.4207 358.629 35.5216C360.183 32.588 361.321 29.6545 362.046 26.7209C362.115 26.4448 362.098 26.255 361.994 26.1514C361.891 26.0479 361.718 25.9961 361.477 25.9961C360.994 25.9961 360.269 26.0651 359.302 26.2032C358.336 26.3067 357.232 26.4448 355.989 26.6173C354.747 26.7899 353.453 26.997 352.107 27.2386C350.795 27.4456 349.518 27.67 348.276 27.9116C347.033 28.1186 345.912 28.3257 344.911 28.5328C343.944 28.7054 343.22 28.8607 342.736 28.9987C342.115 29.1713 341.494 29.4646 340.873 29.8788C340.251 30.2584 339.665 30.4482 339.113 30.4482C338.457 30.4482 337.767 30.1894 337.042 29.6717C336.317 29.1195 335.661 28.481 335.075 27.7563C334.488 26.997 334.108 26.3412 333.936 25.789C333.798 25.2713 333.694 24.7709 333.625 24.2877C333.59 23.77 333.573 23.1661 333.573 22.4758L334.402 22.1652C334.988 22.8209 335.609 23.4422 336.265 24.0289C336.955 24.6156 337.767 24.909 338.698 24.909Z" fill="white"/>
<path d="M315.197 25.7767C314.679 25.0864 314.058 24.3099 313.333 23.4471C312.643 22.5497 311.711 21.6179 310.538 20.6515L311.159 19.9268C312.539 20.3754 313.765 20.8931 314.835 21.4798C315.939 22.032 316.854 22.6533 317.578 23.3435C318.165 23.8957 318.579 24.4134 318.821 24.8966C319.062 25.3798 319.166 25.863 319.131 26.3461C319.131 26.8293 318.976 27.2435 318.665 27.5886C318.355 27.8992 317.958 28.0373 317.475 28.0027C317.061 28.0027 316.681 27.7957 316.336 27.3815C315.991 26.9328 315.611 26.3979 315.197 25.7767ZM319.908 21.894C319.39 21.2383 318.786 20.548 318.096 19.8232C317.44 19.0985 316.491 18.2356 315.249 17.2348L315.766 16.51C317.181 16.8896 318.424 17.3211 319.494 17.8042C320.598 18.2874 321.478 18.8051 322.134 19.3573C322.755 19.9095 323.204 20.4617 323.48 21.0139C323.756 21.5316 323.877 22.0666 323.842 22.6188C323.842 23.1364 323.704 23.5333 323.428 23.8094C323.187 24.0856 322.824 24.2236 322.341 24.2236C321.892 24.1891 321.495 23.9648 321.15 23.5506C320.84 23.1019 320.426 22.5497 319.908 21.894ZM288.95 19.3055C289.709 18.9259 290.538 18.598 291.435 18.3219C292.332 18.0113 293.022 17.856 293.506 17.856C294.058 17.856 294.662 17.9423 295.318 18.1148C295.973 18.2529 296.595 18.46 297.181 18.7361C297.802 18.9777 298.303 19.271 298.683 19.6162C299.097 19.9268 299.321 20.2374 299.356 20.548C299.425 20.9276 299.39 21.2728 299.252 21.5834C299.148 21.8595 299.045 22.1701 298.941 22.5152C298.838 22.8258 298.821 23.24 298.89 23.7577C298.993 24.724 299.131 25.7249 299.304 26.7603C299.511 27.7957 299.787 29.1417 300.132 30.7983C300.65 33.3522 301.15 35.7681 301.633 38.0459C302.151 40.2893 302.617 42.36 303.031 44.2582C303.48 46.1219 303.877 47.7785 304.222 49.2281C304.601 50.6431 304.895 51.782 305.102 52.6448C305.447 53.9908 305.723 55.078 305.93 55.9063C306.172 56.7346 306.293 57.5801 306.293 58.443C306.293 58.9952 306.12 59.4783 305.775 59.8925C305.464 60.3412 304.912 60.5655 304.118 60.5655C303.635 60.5655 303.152 60.3757 302.669 59.996C302.22 59.6164 301.84 59.116 301.53 58.4947C301.219 57.908 300.995 57.304 300.857 56.6828C300.788 56.3722 300.702 55.8718 300.598 55.1815C300.529 54.4567 300.425 53.6284 300.287 52.6966C300.184 51.7647 300.046 50.8329 299.873 49.9011C299.666 48.7967 299.425 47.5887 299.148 46.2772C298.907 44.9312 298.648 43.568 298.372 42.1875C298.096 40.7724 297.82 39.4092 297.544 38.0977C297.268 36.7862 297.009 35.5783 296.767 34.4739C296.526 33.3695 296.318 32.4721 296.146 31.7819C295.835 30.4704 295.525 29.1934 295.214 27.951C294.903 26.674 294.61 25.5523 294.334 24.586C294.058 23.5851 293.816 22.8603 293.609 22.4117C293.402 21.963 293.109 21.6351 292.729 21.4281C292.349 21.1865 291.866 20.9967 291.28 20.8586C290.693 20.686 289.951 20.4617 289.053 20.1856L288.95 19.3055ZM281.185 30.3841L281.858 30.0217C282.41 30.4359 282.876 30.7983 283.255 31.1089C283.67 31.385 284.187 31.523 284.808 31.523C285.154 31.523 285.792 31.4368 286.724 31.2642C287.656 31.0571 288.726 30.8155 289.934 30.5394C291.176 30.2633 292.453 29.97 293.764 29.6594C295.076 29.3487 296.284 29.0554 297.388 28.7793C298.907 28.3996 300.253 28.0545 301.426 27.7439C302.6 27.3988 303.687 27.0709 304.688 26.7603C305.792 26.3806 306.638 26.0355 307.224 25.7249C307.811 25.3798 308.208 25.19 308.415 25.1554C308.829 25.1554 309.312 25.2072 309.865 25.3108C310.417 25.3798 310.935 25.5006 311.418 25.6731C311.935 25.8457 312.35 26.0873 312.66 26.3979C313.005 26.674 313.178 26.9846 313.178 27.3297C313.178 27.8474 313.005 28.2961 312.66 28.6757C312.315 29.0554 311.711 29.3315 310.848 29.504C309.64 29.7111 308.225 29.9872 306.603 30.3324C305.016 30.6775 303.48 31.0226 301.996 31.3677C300.512 31.6783 299.304 31.9544 298.372 32.196C296.853 32.5757 295.335 32.9726 293.816 33.3867C292.332 33.7664 291.021 34.1633 289.882 34.5774C289.157 34.8535 288.57 35.1296 288.122 35.4057C287.673 35.6818 287.155 35.8199 286.569 35.8199C286.154 35.8199 285.637 35.6646 285.016 35.354C284.429 35.0433 283.842 34.6637 283.255 34.215C282.703 33.7319 282.289 33.2659 282.013 32.8173C281.737 32.4376 281.547 32.0752 281.443 31.7301C281.374 31.385 281.288 30.9363 281.185 30.3841ZM278.751 43.2229L279.476 42.7569C280.236 43.3436 280.839 43.7578 281.288 43.9994C281.737 44.241 282.185 44.3618 282.634 44.3618C282.979 44.3618 283.618 44.2755 284.55 44.1029C285.481 43.8958 286.603 43.637 287.915 43.3264C289.226 43.0158 290.607 42.6706 292.056 42.291C293.506 41.9114 294.903 41.549 296.249 41.2039C297.63 40.8587 298.855 40.5481 299.925 40.272C301.029 39.9959 302.203 39.7026 303.445 39.3919C304.688 39.0468 305.913 38.7189 307.121 38.4083C308.329 38.0977 309.433 37.8044 310.434 37.5283C311.435 37.2176 312.229 36.9588 312.816 36.7517C313.506 36.5101 313.989 36.3203 314.265 36.1823C314.541 36.0097 314.8 35.9062 315.042 35.8716C315.973 35.8371 316.836 35.9407 317.63 36.1823C318.458 36.3893 319.131 36.6827 319.649 37.0623C320.201 37.4075 320.477 37.8216 320.477 38.3048C320.477 38.7535 320.339 39.1849 320.063 39.599C319.787 40.0132 319.2 40.2548 318.303 40.3238C316.854 40.4618 315.473 40.6171 314.162 40.7897C312.885 40.9623 311.573 41.1693 310.227 41.4109C308.881 41.6525 307.414 41.9631 305.827 42.3428C304.239 42.6879 302.41 43.1193 300.339 43.637C299.097 43.9476 297.733 44.3273 296.249 44.7759C294.765 45.2246 293.316 45.6733 291.901 46.1219C290.52 46.5706 289.347 47.002 288.381 47.4161C287.518 47.7613 286.845 48.1064 286.362 48.4515C285.878 48.7967 285.326 48.9865 284.705 49.021C284.187 49.021 283.583 48.8657 282.893 48.5551C282.203 48.2445 281.564 47.8648 280.978 47.4161C280.391 46.9675 279.959 46.5706 279.683 46.2255C279.476 45.8803 279.286 45.4662 279.114 44.983C278.976 44.4998 278.855 43.9131 278.751 43.2229Z" fill="white"/>
<path d="M312.032 28.22C310.799 28.8363 296.624 41.1622 282.449 44.86" stroke="white"/>
<path d="M234.538 9.58856H259.164V11.3961H233.184L234.538 9.58856ZM257.23 9.58856H256.392L260.647 5.84428L266.9 11.848C266.642 12.1923 266.299 12.429 265.869 12.5582C265.439 12.6442 264.794 12.7088 263.935 12.7518C259.336 19.9822 252.997 26.0505 244.917 30.9568C236.88 35.82 227.21 39.263 215.907 41.2858L215.456 40.382C221.86 38.4023 227.791 35.9061 233.249 32.8935C238.707 29.8378 243.499 26.3517 247.625 22.4353C251.751 18.4758 254.952 14.1936 257.23 9.58856ZM234.925 10.8797C236.644 14.3227 238.943 17.3353 241.823 19.9176C244.745 22.4999 248.076 24.7163 251.815 26.5669C255.554 28.3745 259.551 29.8593 263.806 31.0213C268.104 32.1403 272.53 33.0011 277.086 33.6036L276.957 34.3783C275.582 34.6795 274.421 35.3251 273.476 36.315C272.53 37.3048 271.864 38.5744 271.477 40.1238C265.632 38.7036 260.26 36.8099 255.361 34.4428C250.504 32.0327 246.25 28.977 242.596 25.2758C238.986 21.5315 236.15 16.948 234.087 11.5253L234.925 10.8797ZM237.504 36.5086C241.2 36.4656 244.273 36.7238 246.722 37.2833C249.172 37.7998 251.063 38.4884 252.395 39.3491C253.771 40.1668 254.695 41.0491 255.167 41.9959C255.64 42.8997 255.769 43.7174 255.554 44.4491C255.339 45.1807 254.867 45.7187 254.136 46.063C253.448 46.4073 252.61 46.4073 251.622 46.063C250.848 45.3314 249.752 44.4491 248.334 43.4162C246.916 42.3833 245.261 41.3504 243.37 40.3175C241.479 39.2415 239.416 38.2517 237.181 37.3479L237.504 36.5086ZM228.543 48.0642C233.958 48.0642 238.578 48.344 242.403 48.9035C246.271 49.463 249.451 50.1731 251.944 51.0339C254.48 51.8516 256.457 52.7554 257.875 53.7452C259.293 54.6921 260.26 55.6389 260.776 56.5857C261.292 57.5325 261.442 58.3503 261.227 59.0389C261.012 59.7705 260.54 60.287 259.809 60.5882C259.078 60.9325 258.219 60.9756 257.23 60.7173C255.597 59.5123 253.341 58.1996 250.461 56.7794C247.582 55.3591 244.251 53.9604 240.469 52.5832C236.687 51.206 232.647 50.0009 228.349 48.968L228.543 48.0642ZM237.439 0.486084L246.529 2.87468C246.4 3.26201 246.164 3.54176 245.82 3.71391C245.476 3.84302 244.874 3.86454 244.015 3.77847C242.253 6.79111 240.039 9.80375 237.375 12.8164C234.753 15.786 231.831 18.5404 228.607 21.0796C225.427 23.5758 222.053 25.6631 218.486 27.3416L217.97 26.6315C220.678 24.6517 223.278 22.2416 225.771 19.4011C228.306 16.5176 230.584 13.4404 232.604 10.1696C234.667 6.8987 236.279 3.67087 237.439 0.486084Z" fill="white"/>
<path d="M254.899 44.2437C255.515 46.7088 251.818 48.5577 229.631 48.5577" stroke="white"/>
<path d="M201.57 43.0151C200.754 43.0151 199.997 42.8111 199.297 42.4032C198.627 41.9953 198.088 41.4563 197.68 40.7862C197.272 40.0869 197.068 39.3293 197.068 38.5135C197.068 37.6686 197.272 36.911 197.68 36.2409C198.088 35.5708 198.627 35.0317 199.297 34.6238C199.997 34.2159 200.754 34.012 201.57 34.012C202.415 34.012 203.172 34.2159 203.843 34.6238C204.513 35.0317 205.052 35.5708 205.46 36.2409C205.868 36.911 206.071 37.6686 206.071 38.5135C206.071 39.3293 205.868 40.0869 205.46 40.7862C205.052 41.4563 204.513 41.9953 203.843 42.4032C203.172 42.8111 202.415 43.0151 201.57 43.0151Z" fill="white"/>
<path d="M146.808 15.1275V9.00293L154.578 9.73788C154.537 10.1462 154.354 10.4932 154.028 10.7791C153.742 11.0649 153.212 11.269 152.437 11.3915V15.1275H164.428V9.00293L172.259 9.73788C172.218 10.1462 172.035 10.5137 171.709 10.8403C171.423 11.1261 170.893 11.3099 170.118 11.3915V15.1275H177.643L180.886 11.024C180.886 11.024 181.212 11.2894 181.864 11.8202C182.517 12.351 183.292 13.0043 184.189 13.7801C185.127 14.5151 185.943 15.2296 186.637 15.9237C186.596 16.2503 186.412 16.4953 186.086 16.6587C185.8 16.822 185.433 16.9036 184.985 16.9036H170.118V19.8434C170.118 20.0476 169.669 20.313 168.772 20.6396C167.875 20.9254 166.733 21.0684 165.346 21.0684H164.428V16.9036H152.437V20.0884C152.437 20.3334 151.947 20.5988 150.969 20.8846C150.03 21.1704 148.97 21.3133 147.787 21.3133H146.808V16.9036H131.024L130.596 15.1275H146.808ZM155.802 39.1359C154.048 41.2999 151.927 43.4231 149.439 45.5054C146.992 47.5878 144.178 49.4864 140.996 51.2013C137.856 52.8753 134.368 54.2432 130.534 55.3048L130.045 54.5086C133.308 52.9978 136.265 51.2217 138.916 49.1802C141.608 47.1386 143.953 44.9746 145.952 42.6881C147.95 40.4016 149.521 38.1559 150.663 35.9511L158.616 38.0334C158.453 38.4009 158.167 38.6867 157.76 38.8909C157.392 39.0542 156.74 39.1359 155.802 39.1359ZM166.753 41.2182C168.099 42.5248 169.914 43.6885 172.198 44.7092C174.482 45.73 176.929 46.5874 179.54 47.2816C182.191 47.9757 184.699 48.4861 187.065 48.8127L187.004 49.4864C185.984 49.7314 185.148 50.2826 184.495 51.14C183.883 51.9975 183.414 53.0795 183.088 54.3861C180.763 53.4878 178.5 52.4262 176.297 51.2013C174.095 49.9764 172.096 48.5677 170.301 46.9753C168.548 45.3829 167.1 43.6272 165.958 41.7082L166.753 41.2182ZM180.335 37.3597C180.335 37.3597 180.661 37.6047 181.314 38.0947C182.007 38.5847 182.823 39.1971 183.761 39.9321C184.699 40.6262 185.556 41.2999 186.331 41.9532C186.167 42.6065 185.617 42.9331 184.679 42.9331H131.513L130.963 41.2182H177.092L180.335 37.3597ZM146.258 37.5435C146.258 37.7068 146.013 37.9314 145.523 38.2172C145.034 38.503 144.422 38.7684 143.688 39.0134C142.954 39.2175 142.179 39.3196 141.363 39.3196H140.568V22.2933V19.7822L146.686 22.2933H173.789V24.0694H146.258V37.5435ZM168.16 47.9553L170.607 45.5667L175.318 49.2414C175.155 49.5272 174.788 49.7314 174.217 49.8539V64.0629C174.217 64.2262 173.952 64.4304 173.422 64.6754C172.891 64.9612 172.259 65.2062 171.525 65.4103C170.832 65.6553 170.159 65.7778 169.506 65.7778H168.527V47.9553H168.16ZM169.751 22.2933L172.443 19.4147L178.194 23.7632C178.031 23.9265 177.765 24.1102 177.398 24.3144C177.031 24.5185 176.583 24.6614 176.052 24.7431V37.2985C176.052 37.421 175.787 37.6251 175.257 37.9109C174.727 38.1968 174.095 38.4622 173.36 38.7071C172.626 38.9521 171.933 39.0746 171.28 39.0746H170.301V22.2933H169.751ZM173.728 35.2774V37.0535H143.382V35.2774H173.728ZM173.605 28.8466V30.6227H143.382V28.8466H173.605ZM148.582 64.2466C148.582 64.3691 148.379 64.5733 147.971 64.8591C147.604 65.1857 147.073 65.4511 146.38 65.6553C145.727 65.9003 144.932 66.0228 143.994 66.0228H143.015V48.4452L144.912 46.2404L149.378 47.9553H148.582V64.2466ZM171.036 60.8169V62.593H145.523V60.8169H171.036ZM170.852 54.3861V56.1622H145.523V54.3861H170.852ZM170.852 47.9553V49.7314H145.218V47.9553H170.852Z" fill="white"/>
<path d="M96.3472 16.0094L103.966 16.7658C103.926 17.144 103.765 17.5011 103.483 17.8373C103.2 18.1314 102.697 18.3205 101.971 18.4045C102.052 21.598 102.314 24.7915 102.757 27.985C103.241 31.1364 104.007 34.1618 105.055 37.0612C106.103 39.9185 107.494 42.5447 109.227 44.9398C111.001 47.2929 113.178 49.2679 115.758 50.8646C116.242 51.1587 116.625 51.3058 116.907 51.3058C117.189 51.2638 117.431 51.0117 117.633 50.5495C118.036 49.8771 118.499 48.9317 119.023 47.7131C119.548 46.4946 120.011 45.318 120.414 44.1835L121.14 44.3096L120.172 52.6294C121.18 53.848 121.765 54.7724 121.926 55.4027C122.128 56.075 122.067 56.6843 121.745 57.2306C121.221 58.0289 120.455 58.4281 119.447 58.4281C118.439 58.4701 117.371 58.26 116.242 57.7978C115.113 57.3356 114.085 56.7893 113.158 56.1591C109.973 54.0581 107.312 51.5789 105.176 48.7216C103.039 45.8643 101.346 42.7128 100.096 39.2672C98.8466 35.8216 97.9194 32.1449 97.3147 28.2371C96.7503 24.2873 96.4278 20.2114 96.3472 16.0094ZM104.511 17.207C106.768 17.207 108.502 17.4801 109.711 18.0264C110.921 18.5726 111.707 19.2239 112.069 19.9803C112.432 20.6946 112.473 21.3669 112.19 21.9972C111.949 22.6275 111.485 23.0477 110.8 23.2578C110.114 23.4679 109.368 23.3208 108.562 22.8166C108.24 21.9342 107.615 21.0097 106.688 20.0433C105.801 19.0769 104.894 18.3205 103.966 17.7742L104.511 17.207ZM110.8 27.5438L118.298 30.128C118.137 30.4641 117.895 30.7373 117.572 30.9474C117.29 31.1575 116.746 31.2415 115.94 31.1995C114.69 34.6451 112.976 38.0907 110.8 41.5363C108.663 44.9819 105.982 48.1754 102.757 51.1167C99.5723 54.0161 95.7626 56.4112 91.3282 58.302L90.8444 57.5457C94.4726 55.2346 97.6171 52.4403 100.278 49.1628C102.979 45.8433 105.196 42.3346 106.929 38.6369C108.663 34.8972 109.953 31.1995 110.8 27.5438ZM73.5499 23.5729H112.916L116.06 19.413C116.06 19.413 116.383 19.6861 117.028 20.2324C117.673 20.7786 118.439 21.4299 119.326 22.1863C120.213 22.9426 121.019 23.678 121.745 24.3923C121.583 25.0646 121.039 25.4008 120.112 25.4008H73.5499V23.5729ZM94.4122 6.2399H106.688L109.953 2.01694C109.953 2.01694 110.155 2.18501 110.558 2.52117C111.001 2.81531 111.545 3.21449 112.19 3.71873C112.835 4.22296 113.501 4.76922 114.186 5.35749C114.912 5.94576 115.557 6.51302 116.121 7.05928C115.96 7.73159 115.415 8.06774 114.488 8.06774H94.4122V6.2399ZM70.7078 23.5729V22.9426V21.0518L76.9363 23.5729H76.0292V31.0734C76.0292 31.0734 75.9733 45.1356 69.2513 54.8354C62.5292 64.5353 41.0142 74.0257 41.0142 74.0257C41.0142 74.0257 57.5881 65.0235 64.9543 53.1467C73.3851 39.5533 70.7078 23.5729 70.7078 23.5729ZM84.9788 30.7583H89.8164V49.9192C89.8164 51.1797 89.6753 52.2933 89.3931 53.2597C89.1512 54.2682 88.5869 55.0876 87.7 55.7178C86.8534 56.3902 85.523 56.8314 83.7089 57.0415C83.7089 56.2011 83.6485 55.4657 83.5275 54.8354C83.4469 54.2051 83.2856 53.7009 83.0438 53.3227C82.7616 52.8605 82.3584 52.4823 81.8344 52.1882C81.3103 51.8941 80.5443 51.684 79.5365 51.5579V50.6125C79.5365 50.6125 79.8388 50.6335 80.4435 50.6755C81.0886 50.7175 81.7537 50.7595 82.4391 50.8016C83.1647 50.8436 83.6686 50.8646 83.9508 50.8646C84.6361 50.8646 84.9788 50.5284 84.9788 49.8561V30.7583ZM77.7224 30.7583H90.3002L93.2027 26.7244C93.2027 26.7244 93.5051 26.9975 94.1098 27.5438C94.7548 28.09 95.4805 28.7413 96.2867 29.4977C97.1333 30.212 97.8993 30.9053 98.5846 31.5777C98.4233 32.25 97.8791 32.5861 96.9519 32.5861H78.2061L77.7224 30.7583ZM79.597 36.3679L85.8254 38.3218C85.7044 38.7 85.4626 39.0151 85.0997 39.2672C84.7772 39.5193 84.2733 39.6244 83.588 39.5824C82.6205 41.8934 81.4514 44.0154 80.0807 45.9483C78.7101 47.8392 77.2185 49.4149 75.6059 50.6755L74.7593 50.1082C75.8075 48.3854 76.7549 46.3265 77.6014 43.9314C78.448 41.4943 79.1132 38.9731 79.597 36.3679ZM91.5096 36.683C93.4043 37.5654 94.8758 38.5109 95.9239 39.5193C97.0124 40.5278 97.738 41.5153 98.1008 42.4817C98.504 43.4482 98.6249 44.3516 98.4636 45.192C98.3427 45.9903 98.0404 46.6206 97.5566 47.0828C97.1132 47.5451 96.5488 47.7552 95.8634 47.7131C95.2184 47.6711 94.5532 47.3139 93.8679 46.6416C93.9082 45.5491 93.7873 44.4356 93.5051 43.3011C93.2229 42.1245 92.8399 40.99 92.3562 39.8975C91.8724 38.805 91.3685 37.8386 90.8444 36.9982L91.5096 36.683ZM91.691 0L99.3707 0.693324C99.3304 1.0715 99.1691 1.40765 98.8869 1.70179C98.6047 1.99593 98.1008 2.20602 97.3752 2.33208V15.064H91.691V0ZM76.8153 2.26905L84.2532 2.96237C84.2128 3.38257 84.0516 3.73974 83.7694 4.03387C83.4872 4.28599 83.0034 4.47508 82.3181 4.60114V15.001H76.8153V2.26905ZM65.8702 14.1816H111.828L115.274 9.83256C115.274 9.83256 115.476 10.0006 115.879 10.3368C116.282 10.673 116.806 11.1142 117.451 11.6604C118.096 12.1646 118.782 12.7109 119.507 13.2992C120.233 13.8874 120.898 14.4547 121.503 15.001C121.342 15.6733 120.797 16.0094 119.87 16.0094H66.354L65.8702 14.1816Z" fill="white"/>
<path d="M11.4327 11.7342L11.3049 10.6789C12.1139 10.141 12.9442 9.72713 13.7958 9.43745C14.6474 9.14777 15.5842 9.00293 16.6061 9.00293C17.628 9.00293 18.6925 9.20984 19.7996 9.62367C20.9492 10.0375 21.9499 10.5341 22.8015 11.1135C23.6531 11.6928 24.0789 12.2515 24.0789 12.7894C24.0789 13.5757 23.8872 14.2999 23.504 14.962C23.1208 15.5828 22.8228 16.3897 22.6099 17.3829C22.4395 18.2106 22.2692 19.3072 22.0989 20.6729C21.9286 22.0385 21.7583 23.5697 21.5879 25.2663C21.4602 26.9217 21.3538 28.639 21.2686 30.4185C21.1834 32.1566 21.1409 33.8533 21.1409 35.5086C21.1409 38.9433 21.2047 41.7574 21.3325 43.9506C21.4602 46.1026 21.5879 47.8406 21.7157 49.1649C21.886 50.4891 22.035 51.5444 22.1628 52.3307C22.2905 53.1169 22.3544 53.8618 22.3544 54.5653C22.3544 55.5585 22.1415 56.5517 21.7157 57.5449C21.2899 58.5381 20.7363 59.3657 20.0551 60.0278C19.3738 60.69 18.6499 61.021 17.8835 61.021C17.2448 61.021 16.7551 60.7934 16.4145 60.3382C16.0739 59.9244 15.7332 59.3864 15.3926 58.7243C15.0945 58.1035 14.6049 57.4828 13.9236 56.8621C13.3275 56.2827 12.5823 55.662 11.6881 54.9998C10.8366 54.3377 9.96367 53.6963 9.06949 53.0755C8.17532 52.4134 7.34501 51.8548 6.57857 51.3995L7.53662 50.1581C8.38821 50.5305 9.28239 50.9443 10.2191 51.3995C11.1985 51.8134 12.1352 52.2065 13.0294 52.5789C13.9662 52.9514 14.7752 53.2618 15.4565 53.5101C16.1377 53.717 16.6061 53.717 16.8616 53.5101C17.1171 53.2618 17.2448 52.8479 17.2448 52.2686C17.2448 50.5305 17.2448 48.2131 17.2448 45.3163C17.2448 42.4195 17.2448 39.0882 17.2448 35.3223C17.2448 33.8326 17.2448 32.0738 17.2448 30.0461C17.2874 27.9769 17.3087 25.9285 17.3087 23.9007C17.3087 21.8316 17.3087 19.9694 17.3087 18.314C17.3087 16.6174 17.2874 15.3966 17.2448 14.6517C17.2448 13.824 17.1384 13.286 16.9255 13.0377C16.7126 12.7481 16.3506 12.5205 15.8397 12.3549C15.2436 12.1066 14.5836 11.9618 13.8597 11.9204C13.1784 11.8376 12.3694 11.7756 11.4327 11.7342ZM2.55479 21.8523C3.61928 22.8041 4.51346 23.549 5.23731 24.0869C5.96117 24.5835 6.68502 24.9146 7.40888 25.0801C8.17531 25.2457 9.0482 25.3284 10.0275 25.3284C10.9643 25.287 12.0075 25.1629 13.1571 24.956C14.3494 24.7491 15.5629 24.4801 16.7977 24.149C18.0325 23.8179 19.1822 23.4662 20.2467 23.0937C21.9925 22.5144 23.4189 21.935 24.5259 21.3557C25.633 20.7763 26.5272 20.2797 27.2085 19.8659C27.8897 19.4521 28.422 19.2452 28.8052 19.2452C29.0181 19.2452 29.3588 19.2658 29.8271 19.3072C30.2955 19.3072 30.7639 19.39 31.2323 19.5555C31.7432 19.7211 32.169 19.9487 32.5097 20.2383C32.8503 20.528 33.0419 20.9832 33.0845 21.604C33.0845 22.6799 32.318 23.611 30.7852 24.3973C29.9762 24.8111 28.9755 25.225 27.7833 25.6388C26.6336 26.0526 25.4201 26.4664 24.1427 26.8803C22.9079 27.2941 21.737 27.6665 20.6299 27.9976C19.9486 28.1631 18.9906 28.4114 17.7558 28.7425C16.521 29.0322 15.2223 29.3012 13.8597 29.5495C12.5397 29.7564 11.3901 29.8598 10.4108 29.8598C9.21852 29.8598 8.06887 29.6943 6.96179 29.3632C5.8973 28.9908 4.91796 28.2873 4.02379 27.2527C3.12961 26.1768 2.3206 24.6042 1.59674 22.5351L2.55479 21.8523ZM5.87601 46.9302C6.64244 46.5164 7.70694 45.8336 9.06949 44.8818C10.4746 43.93 11.9862 42.9161 13.6042 41.8401C15.2648 40.7642 16.8829 39.8331 18.4583 39.0468C21.4389 37.5156 24.5259 36.2121 27.7194 35.1361C30.9129 34.0188 34.3406 33.4601 38.0024 33.4601C40.6424 33.4601 42.9843 33.9567 45.0281 34.9499C47.0719 35.9017 48.6687 37.288 49.8183 39.1089C51.0106 40.8883 51.6067 43.0402 51.6067 45.5646C51.6067 47.7165 51.0531 49.7028 49.9461 51.5237C48.8816 53.3445 47.3274 54.8136 45.2836 55.931C43.2398 57.0483 40.7914 57.607 37.9386 57.607C36.1928 57.607 34.5748 57.3173 33.0845 56.7379C31.5942 56.1172 30.2529 55.2481 29.0607 54.1308C27.8685 52.9721 26.7827 51.6065 25.8033 50.0339L26.6975 49.1649C27.8897 50.1994 29.2949 51.0892 30.9129 51.8341C32.5309 52.5376 34.4257 52.8893 36.5973 52.8893C39.5353 52.8893 41.8346 52.0824 43.4952 50.4684C45.1558 48.8131 45.9861 46.7233 45.9861 44.1989C45.9861 42.7092 45.6455 41.3642 44.9642 40.1641C44.3255 38.9226 43.3036 37.9295 41.8985 37.1846C40.5359 36.3983 38.7263 36.0052 36.4696 36.0052C34.5961 36.0052 32.6374 36.3362 30.5936 36.9984C28.5923 37.6191 26.6124 38.4467 24.6537 39.4813C22.695 40.4745 20.8215 41.5091 19.0332 42.585C17.8409 43.3299 16.5635 44.2403 15.201 45.3163C13.881 46.3508 12.6036 47.4268 11.3688 48.5441C10.1766 49.6615 9.11207 50.696 8.17532 51.6478C7.06824 52.6824 6.23794 53.4894 5.6844 54.0687C5.13086 54.6067 4.57732 54.8757 4.02379 54.8757C3.51283 54.8757 3.04445 54.7722 2.61866 54.5653C2.23544 54.317 1.85222 54.0067 1.469 53.6342C0.958045 53.0962 0.574827 52.5376 0.319348 51.9582C0.106449 51.3789 0 50.7788 0 50.1581C0 49.1649 0.149029 48.5028 0.447087 48.1717C0.745146 47.8406 1.29868 47.6958 2.1077 47.7372C2.95929 47.8199 3.64057 47.7992 4.15153 47.6751C4.70506 47.5096 5.27989 47.2613 5.87601 46.9302ZM36.9167 18.6244L36.7889 17.3209C38.2366 16.907 39.6843 16.6174 41.1321 16.4518C42.5798 16.2863 44.0914 16.3277 45.6668 16.576C47.5829 16.8243 49.3074 17.445 50.8402 18.4382C52.4157 19.39 53.6505 20.528 54.5447 21.8523C55.4814 23.1765 55.9711 24.5421 56.0137 25.9492C56.0563 26.7768 55.8647 27.501 55.4389 28.1218C55.0131 28.7425 54.3318 29.0736 53.395 29.1149C52.8841 29.1977 52.4157 29.0942 51.9899 28.8046C51.5641 28.5149 51.117 28.2252 50.6486 27.9355C50.1803 27.6459 49.6267 27.5631 48.988 27.6872C48.3493 27.7286 47.4764 27.9355 46.3694 28.308C45.3049 28.6804 44.4107 28.9908 43.6868 29.2391L43.112 28.308C43.5378 28.0597 44.0701 27.7286 44.7088 27.3148C45.39 26.8596 46.0287 26.4044 46.6248 25.9492C47.2635 25.4939 47.7319 25.1422 48.03 24.8939C48.4132 24.4801 48.6261 24.1076 48.6687 23.7766C48.7538 23.4041 48.6261 22.9696 48.2855 22.473C47.519 21.3971 46.5184 20.5694 45.2836 19.99C44.0488 19.4107 42.6862 19.0176 41.1959 18.8106C39.7482 18.6037 38.3218 18.5416 36.9167 18.6244Z" fill="white"/>
</mask>
<g mask="url(#mask0_46_1435)">
<rect x="-10.584" width="423.342" height="73.0265" fill="#AF2304"/>
<path d="M327.5 68L332.5 17L375 12V48L327.5 68Z" fill="#BF9C35"/>
<path d="M235.5 36.5L240.5 35.5C245.333 36 255.2 37.1 256 37.5C256.8 37.9 264 46 267.5 50L260.5 63.5L226.5 56.5V48.5L231 46.5L235.5 36.5Z" fill="#BF9C35"/>
<path d="M34.5 16L51 13.5L60 18L57 32H51H38.5L34.5 22V16Z" fill="#BF9C35" stroke="#333333"/>
<path d="M102 46.5C104 45.3 106.5 40 110 27L119.5 28V32L105 49L91.5 61L89.5 58.5L102 46.5Z" fill="#BF9C35"/>
<path d="M146.5 21.5V9L157 9.00006L152.5 12.0001V21.0001L146.5 21.5Z" fill="#BF9C35"/>
<path d="M170.5 21L164 21.5L164.5 17.5V9H175L170.5 12V21Z" fill="#BF9C35"/>
</g>
</svg>
