<svg width="163" height="45" viewBox="0 0 163 45" fill="none" xmlns="http://www.w3.org/2000/svg">
<path d="M86.5505 22.1566L86.3076 20.9889L87.0245 20.8366C87.5576 20.7231 88.0434 20.6096 88.5085 20.4902C88.6862 20.4513 88.8402 20.4125 88.9913 20.3707C90.3391 20.0243 91.6454 19.636 92.8747 19.2179C95.7213 18.2413 98.0554 17.1543 100.007 15.897C102.365 14.3739 103.974 12.6238 104.652 10.8319C105.013 9.88224 105.135 8.84893 105.016 7.76484C104.904 6.75841 104.563 5.65342 104.006 4.48272L105.076 3.96606C105.689 5.25622 106.065 6.48962 106.192 7.63045C106.332 8.90866 106.186 10.1301 105.757 11.259C104.987 13.2898 103.218 15.24 100.644 16.9034C98.6093 18.2145 96.1922 19.3404 93.2538 20.3498C91.9949 20.7798 90.659 21.1741 89.2846 21.5294C89.1187 21.5713 88.9498 21.6161 88.778 21.6549C88.3189 21.7743 87.8183 21.8908 87.2673 22.0073L86.5475 22.1596L86.5505 22.1566Z" fill="#E83740"/>
<path d="M86.0496 24.068L85.8423 22.8913C86.8316 22.7151 87.8032 22.5061 88.7304 22.2791C90.2914 21.9058 91.8761 21.4459 93.4461 20.9143C93.8282 20.7859 94.2073 20.6485 94.5865 20.5081C97.0776 19.5823 99.1659 18.5669 100.97 17.4022C102.252 16.566 103.289 15.7208 104.139 14.8219C105.138 13.7647 105.869 12.6388 106.314 11.4741C106.773 10.2705 106.936 8.91767 106.785 7.56182C106.645 6.3523 106.266 5.10098 105.623 3.74214L105.612 3.71227C105.612 3.71227 105.6 3.68838 105.591 3.66747L106.139 3.4405L106.678 3.19263L106.696 3.22846C107.395 4.70975 107.809 6.08352 107.963 7.42743C108.135 8.97442 107.949 10.5214 107.421 11.9041C106.921 13.2182 106.106 14.4755 104.998 15.6462C104.086 16.6138 102.975 17.5187 101.613 18.4086C99.7317 19.6212 97.5694 20.6754 94.9982 21.631C94.6072 21.7774 94.2162 21.9148 93.8252 22.0491C92.2227 22.5927 90.6024 23.0616 89.0118 23.4438C88.0639 23.6798 87.0657 23.8888 86.0526 24.071L86.0496 24.068Z" fill="#E83740"/>
<path d="M87.7825 25.5582L87.5603 24.3845C87.6284 24.3725 87.6966 24.3576 87.7647 24.3427C88.1705 24.2561 88.5585 24.1665 88.9466 24.0709C89.2606 23.9992 89.5686 23.9216 89.8737 23.8439C91.3044 23.4766 92.6996 23.0615 94.0207 22.6105C94.2755 22.5239 94.5272 22.4343 94.782 22.3417L94.9064 22.2969C96.4408 21.7385 97.8033 21.1621 99.0711 20.5319C100.087 20.0242 101.053 19.4807 101.938 18.9103C103.34 17.9964 104.483 17.0617 105.434 16.0582C106.592 14.8338 107.451 13.5048 107.981 12.1131C108.538 10.6587 108.742 8.97134 108.559 7.36164C108.417 6.14914 108.073 4.89184 107.531 3.61961C107.504 3.5539 107.484 3.50612 107.463 3.45535C107.392 3.29408 107.318 3.13281 107.226 2.99543C107.021 2.69977 106.734 2.41606 106.373 2.15624C105.62 1.61569 104.61 1.24835 103.742 1.20356C102.273 1.12591 100.869 1.77696 99.8057 2.35335C97.3442 3.63454 95.0308 5.41148 92.513 7.94699C90.5047 10.0136 88.5852 12.3729 86.8109 14.9592C85.9815 16.1598 85.1639 17.435 84.379 18.752C84.2131 19.0327 84.0472 19.3135 83.8843 19.5972L82.8564 19.0029C83.0223 18.7132 83.1912 18.4235 83.363 18.1338C84.1627 16.7929 84.9951 15.4968 85.8363 14.2753C87.6492 11.6353 89.6101 9.22221 91.6688 7.10182C94.2784 4.47075 96.6866 2.62511 99.2518 1.29017C100.443 0.648076 102.045 -0.0865935 103.802 0.00598679C104.901 0.0627296 106.118 0.501739 107.06 1.17967C107.531 1.52012 107.916 1.90239 108.2 2.31452C108.351 2.53552 108.458 2.76846 108.544 2.96557C108.571 3.02829 108.6 3.091 108.627 3.16268C109.208 4.5245 109.581 5.89529 109.738 7.22128C109.942 9.02211 109.711 10.9125 109.089 12.5402C108.5 14.0812 107.561 15.5416 106.293 16.8795C105.28 17.9546 104.065 18.9461 102.581 19.9137C101.657 20.508 100.653 21.0755 99.5984 21.6011C98.2921 22.2492 96.888 22.8435 95.3092 23.4198L95.1848 23.4646C94.9242 23.5572 94.6665 23.6528 94.4028 23.7394C93.0551 24.1993 91.6303 24.6234 90.1729 24.9967C89.8589 25.0773 89.539 25.158 89.2221 25.2296C88.8281 25.3252 88.4282 25.4178 88.0254 25.5044C87.9543 25.5223 87.8713 25.5372 87.7884 25.5552L87.7825 25.5582Z" fill="#E83740"/>
<path d="M163 22.2612H95.1021V23.4558H163V22.2612Z" fill="#E83740"/>
<path d="M163 24.053H89.083V25.2476H163V24.053Z" fill="#E83740"/>
<path d="M163 20.4692H99.3291V21.6638H163V20.4692Z" fill="#E83740"/>
<path d="M63.4547 20.4692H0V21.6638H63.4547V20.4692Z" fill="#C9B386"/>
<path d="M67.6817 22.2612H0V23.4558H67.6817V22.2612Z" fill="#C9B386"/>
<path d="M73.6977 24.053H0V25.2476H73.6977V24.053Z" fill="#C9B386"/>
<path d="M83.8905 23.1301L82.8359 22.5865C84.0178 20.2601 85.5463 18.0352 87.0244 15.8819L87.3798 15.3623C89.1393 12.8029 91.0321 10.4735 93.0079 8.44267C95.4398 5.99078 97.7621 4.20786 100.117 2.98341C102.167 1.87245 104.439 1.20946 106.672 1.06909L106.746 2.26069C104.682 2.38911 102.579 3.00432 100.668 4.04062C98.4167 5.21131 96.1892 6.92554 93.8491 9.28186C91.9237 11.2619 90.0754 13.5376 88.3544 16.0402L87.9989 16.5599C86.5416 18.6803 85.0368 20.8723 83.8905 23.1271V23.1301Z" fill="#E83740"/>
<path d="M110.84 41.7865C108.527 40.6068 106.142 39.245 103.746 37.7339C101.397 36.2227 99.116 34.6578 96.9626 33.081C94.738 31.4474 92.5401 29.751 90.4311 28.0368C89.2166 27.0483 88.2184 26.2181 87.2883 25.4267C87.1639 25.3221 87.0394 25.2146 86.9121 25.1041C86.4618 24.7189 86.0086 24.3276 85.5584 23.9304C85.4369 23.8259 85.3125 23.7154 85.1852 23.6049L85.1318 23.5571L85.9109 22.6582L85.9642 22.706C86.0856 22.8135 86.2071 22.921 86.3315 23.0255C86.7817 23.4227 87.229 23.811 87.6793 24.1932C87.8037 24.3037 87.9281 24.4083 88.0495 24.5098C88.9737 25.2982 89.966 26.1225 91.1746 27.105C93.2688 28.8043 95.4519 30.4917 97.6587 32.1133C99.7944 33.6753 102.054 35.2252 104.38 36.7214C106.741 38.2087 109.095 39.5556 111.376 40.7173L110.843 41.7835L110.84 41.7865Z" fill="#C9B386"/>
<path d="M110.052 43.3932C107.673 42.1836 105.301 40.8278 102.801 39.2509C100.378 37.692 98.0641 36.1032 95.9136 34.5293C91.7844 31.4891 87.8388 28.3175 84.1865 25.1011L84.9656 24.2021C88.5912 27.3977 92.5101 30.5484 96.6097 33.5647C98.7365 35.1236 101.032 36.6975 103.431 38.2415C105.896 39.7975 108.239 41.1324 110.585 42.327L110.052 43.3932Z" fill="#C9B386"/>
<path d="M109.264 44.9999C106.832 43.7605 104.338 42.336 101.853 40.7651C99.4416 39.2151 97.0956 37.6084 94.874 35.9808C92.6199 34.3233 90.3746 32.5911 88.2033 30.8291C86.2661 29.2523 84.6754 27.9113 83.1914 26.6033L83.9704 25.7043C85.4426 27.0005 87.0244 28.3354 88.9468 29.9003C91.1032 31.6504 93.3308 33.3706 95.5701 35.0161C97.771 36.6288 100.099 38.2236 102.487 39.7556C104.939 41.3056 107.401 42.7122 109.8 43.9337L109.267 44.9999H109.264Z" fill="#C9B386"/>
<path d="M83.8934 26.8035L82.833 26.2719C82.8834 26.1703 82.9633 26.027 83.0729 25.8448C83.2892 25.4835 83.612 24.9787 84.0297 24.3277L84.0652 24.268C84.4 23.7543 84.7436 23.2227 85.0191 22.7867L85.179 22.5328C85.2916 22.3536 85.4545 22.0968 85.5226 21.9744C85.6529 21.7414 85.7833 21.5055 85.9136 21.2755C86.0084 21.1023 86.1091 20.9291 86.2128 20.7559C86.3342 20.5409 86.4675 20.3169 86.6008 20.0959C87.3295 18.8684 88.1145 17.641 88.935 16.4494C90.6323 13.9766 92.454 11.7338 94.3527 9.78363C96.6454 7.47211 98.8137 5.80268 100.988 4.67678C102.244 3.99587 103.971 3.1716 106.086 2.89088C106.726 2.7983 107.401 2.76246 108.088 2.78336L108.053 3.97795C107.431 3.96003 106.823 3.98989 106.246 4.07352C104.314 4.33035 102.715 5.09787 101.536 5.73399C99.4624 6.80911 97.3889 8.40687 95.191 10.6228C93.3456 12.5222 91.5683 14.7143 89.9066 17.1303C89.1038 18.301 88.3307 19.5046 87.6139 20.7111C87.4835 20.9261 87.3562 21.1441 87.2318 21.3651C87.1251 21.5413 87.0363 21.7026 86.9444 21.8669C86.8141 22.0998 86.6838 22.3298 86.5564 22.5567C86.4912 22.6732 86.3816 22.8554 86.1743 23.1809L86.1062 23.2884C86.0765 23.3362 86.0469 23.384 86.0143 23.4347C85.7418 23.8678 85.3952 24.4024 85.0576 24.919L85.0398 24.9459C85.0398 24.9459 85.0279 24.9638 85.0191 24.9787C84.6666 25.5283 84.3052 26.0927 84.083 26.46C83.9942 26.6094 83.929 26.7228 83.8905 26.7975L83.8934 26.8035Z" fill="#E83740"/>
<path d="M76.3132 22.1566L75.5934 22.0043C75.0484 21.8878 74.5448 21.7713 74.059 21.6459C73.9317 21.619 73.7836 21.5802 73.6355 21.5414L73.5762 21.5265C72.1988 21.1741 70.8659 20.7769 69.6099 20.3498C66.6685 19.3404 64.2514 18.2145 62.2164 16.9034C59.6424 15.24 57.874 13.2898 57.1038 11.259C56.6743 10.1331 56.5262 8.91164 56.6654 7.63344C56.7987 6.48664 57.1749 5.25622 57.7851 3.96606L58.8544 4.48272C58.3005 5.65043 57.9599 6.75542 57.8414 7.76783C57.7259 8.85192 57.8473 9.88523 58.2087 10.8319C58.887 12.6238 60.4925 14.3739 62.8533 15.897C64.8054 17.1543 67.1395 18.2414 69.9891 19.2179C71.2154 19.636 72.5187 20.0243 73.8665 20.3707L73.9287 20.3856C74.065 20.4215 74.1983 20.4543 74.3316 20.4842C74.8233 20.6096 75.3091 20.7231 75.8393 20.8366L76.5591 20.9889L76.3162 22.1566H76.3132Z" fill="#C9B386"/>
<path d="M76.8137 24.0678C75.8007 23.8856 74.8054 23.6736 73.8516 23.4377C72.2639 23.0554 70.6436 22.5865 69.0411 22.043C68.6471 21.9086 68.2561 21.7712 67.8651 21.6249C65.294 20.6692 63.1317 19.618 61.2537 18.4055C59.8881 17.5155 58.7803 16.6106 57.865 15.64C56.7572 14.4693 55.9426 13.209 55.442 11.898C54.9147 10.5152 54.7281 8.96826 54.8999 7.42426C55.0539 6.07139 55.4686 4.70359 56.1618 3.23724L56.1855 3.18945L56.1736 3.21633L57.2755 3.65235L57.2429 3.72702C56.5972 5.08586 56.2181 6.33718 56.0788 7.55865C55.9278 8.91151 56.0907 10.2644 56.5498 11.4679C56.9941 12.6326 57.7258 13.7585 58.724 14.8157C59.5741 15.7177 60.6109 16.5598 61.8965 17.399C63.7004 18.5638 65.7887 19.5792 68.2769 20.502C68.656 20.6423 69.0381 20.7797 69.4203 20.9081C70.9902 21.4397 72.5749 21.8996 74.133 22.2729C75.0661 22.5029 76.0377 22.709 77.027 22.8882L76.8196 24.0648L76.8137 24.0678Z" fill="#C9B386"/>
<path d="M78.8903 23.414C77.6818 21.0009 76.2067 18.5222 74.5064 16.0464C72.7854 13.5407 70.937 11.2651 69.0087 9.28205C66.6657 6.92274 64.4381 5.2115 62.2017 4.04977C60.2556 2.99555 58.1318 2.38034 56.0435 2.26386L56.1086 1.07227C58.3658 1.1977 60.6644 1.86368 62.7497 2.99555C65.0868 4.21104 67.4121 5.99395 69.847 8.44584C71.8257 10.4826 73.7185 12.8091 75.478 15.3714C77.2079 17.895 78.7097 20.4216 79.9449 22.8824L78.8874 23.42L78.8903 23.414Z" fill="#C9B386"/>
<path d="M75.1787 25.582L75.0543 25.57L74.761 25.5073C74.3612 25.4237 73.9583 25.3281 73.5584 25.2325C73.2504 25.1609 72.9304 25.0832 72.6135 24.9996C71.165 24.6263 69.7402 24.2052 68.3865 23.7423C68.1229 23.6527 67.8593 23.5571 67.5956 23.4616L67.4831 23.4228C65.9013 22.8494 64.4973 22.2521 63.1939 21.604C62.1424 21.0814 61.1382 20.5139 60.2111 19.9196C58.7182 18.9431 57.5037 17.9516 56.4966 16.8824C55.2288 15.5415 54.2898 14.0811 53.7003 12.5431C53.0753 10.9125 52.8472 9.02203 53.0546 7.22418C53.2086 5.89222 53.5818 4.52144 54.1713 3.15065C54.195 3.09391 54.2187 3.02821 54.2483 2.96549C54.3224 2.78929 54.432 2.54739 54.5919 2.31743C54.8792 1.90231 55.2643 1.52004 55.7382 1.18257C56.6713 0.507633 57.8858 0.0716098 58.9847 0.014867C60.7679 -0.0747268 62.4386 0.707726 63.5435 1.30203C66.0968 2.63101 68.508 4.47664 71.1176 7.10473C73.1822 9.23109 75.1432 11.6441 76.953 14.2842C77.7972 15.5056 78.6296 16.8048 79.4264 18.1427C79.5982 18.4324 79.767 18.7221 79.9329 19.0088L78.908 19.609C78.7421 19.3253 78.5763 19.0386 78.4074 18.7519C77.6254 17.4379 76.8079 16.1627 75.9785 14.9621C74.2042 12.3758 72.2847 10.0165 70.2734 7.94392C67.7586 5.4114 65.4422 3.63446 62.9895 2.35924C61.9172 1.77987 60.5073 1.1318 59.044 1.20647C58.1761 1.25126 57.1719 1.61561 56.4225 2.15616C56.0582 2.41598 55.7708 2.6997 55.5605 3.00432C55.4657 3.14169 55.3917 3.30296 55.3324 3.44332C55.3058 3.50604 55.285 3.55681 55.2643 3.60459C54.7134 4.88877 54.3668 6.14607 54.2276 7.36455C54.041 8.97425 54.2453 10.6616 54.8022 12.116C55.3324 13.5077 56.1915 14.8367 57.3496 16.0611C58.2946 17.0616 59.4379 17.9964 60.8479 18.9162C61.7366 19.4866 62.7022 20.0331 63.7153 20.5348C64.9801 21.165 66.3427 21.7414 67.88 22.2998L67.9896 22.3387C68.2473 22.4312 68.5021 22.5238 68.7627 22.6104C70.0898 23.0644 71.4849 23.4795 72.9067 23.8438C73.2148 23.9245 73.5229 23.9991 73.828 24.0708C74.2219 24.1664 74.6129 24.259 75.0039 24.3396L75.2942 24.4023L75.1728 24.9787V25.582H75.1787Z" fill="#C9B386"/>
<path d="M53.5996 45L53.0664 43.9338C55.4657 42.7124 57.9273 41.3057 60.3829 39.7528C62.7674 38.2207 65.0926 36.626 67.2965 35.0163C69.5299 33.3737 71.7604 31.6505 73.9198 29.9004C75.8541 28.3206 77.421 27.0036 78.8458 25.7493L79.6248 26.6482C78.1882 27.9115 76.6124 29.2404 74.6633 30.8292C72.4861 32.5942 70.2438 34.3264 67.9926 35.9809C65.771 37.6085 63.422 39.2152 61.0168 40.7622C58.5256 42.3361 56.0315 43.7606 53.6026 45H53.5996Z" fill="#E83740"/>
<path d="M52.812 43.3934L52.2788 42.3272C54.5922 41.1476 57.0004 39.7738 59.4353 38.2388C61.805 36.7127 64.1007 35.1388 66.2541 33.5649C70.3508 30.5486 74.2697 27.3979 77.8983 24.2024L78.6773 25.1013C75.022 28.3207 71.0765 31.4923 66.9502 34.5296C64.779 36.1184 62.4626 37.7072 60.0692 39.2482C57.5988 40.8041 55.161 42.1988 52.815 43.3934H52.812Z" fill="#E83740"/>
<path d="M52.0239 41.7866L51.4907 40.7204C53.7775 39.5557 56.1294 38.2088 58.4873 36.7215C60.8214 35.2193 63.0845 33.6694 65.2083 32.1164C67.3825 30.5186 69.5656 28.8343 71.6924 27.1081C72.8329 26.1793 73.8489 25.3371 74.7938 24.5308L74.9597 24.3904C75.0248 24.3337 75.093 24.2769 75.1581 24.2232L75.1878 24.1963C75.635 23.811 76.0853 23.4258 76.5266 23.0346C76.6599 22.9211 76.7814 22.8136 76.8999 22.7061L77.6937 23.593C77.5634 23.7125 77.4301 23.829 77.2968 23.9424C76.8614 24.3277 76.4081 24.7189 75.952 25.1102L75.9194 25.137C75.8009 25.2386 75.6824 25.3371 75.5639 25.4417L75.3892 25.588C74.4828 26.3585 73.5141 27.1619 72.433 28.0429C70.2884 29.781 68.0935 31.4773 65.9015 33.087C63.7599 34.6549 61.4761 36.2198 59.1182 37.7369C56.7278 39.2481 54.3403 40.6099 52.0239 41.7925V41.7866Z" fill="#E83740"/>
<path d="M78.8905 26.8006C78.7394 26.49 77.9871 25.2805 77.3798 24.3099C76.8851 23.5155 76.4586 22.8316 76.3075 22.5568C76.1801 22.3298 76.0528 22.0969 75.9224 21.8699C75.7032 21.4847 75.4811 21.0964 75.253 20.7142C74.5065 19.4658 73.7364 18.2623 72.9574 17.1334C71.2986 14.7174 69.5213 12.5283 67.667 10.6229C65.4691 8.40696 63.3986 6.80921 61.3369 5.74304C60.1491 5.10095 58.5525 4.33642 56.6242 4.0766C56.014 3.98999 55.3801 3.95714 54.7373 3.98402L54.6929 2.78943C55.4067 2.76255 56.1088 2.79839 56.7871 2.89396C58.8991 3.17767 60.6231 3.99895 61.8908 4.68583C64.0532 5.80576 66.2215 7.47519 68.5112 9.78372C70.4158 11.7399 72.2376 13.9827 73.9319 16.4555C74.7228 17.6053 75.5107 18.8297 76.269 20.1019C76.503 20.4902 76.7281 20.8844 76.9533 21.2816C77.0836 21.5145 77.2169 21.7475 77.3443 21.9804C77.4805 22.2283 77.9219 22.9331 78.3869 23.6797C79.2015 24.9848 79.791 25.9375 79.9569 26.278L78.8935 26.8066L78.8905 26.8006Z" fill="#C9B386"/>
<path d="M83.9556 27.132H78.8281V18.5847H83.9556V27.132ZM80.013 25.9374H82.7707V19.7793H80.013V25.9374Z" fill="#C9B386"/>
<path d="M81.9856 19.1821H80.8008V26.5348H81.9856V19.1821Z" fill="#C9B386"/>
</svg>
